<svg width="193" height="135" viewBox="0 0 193 135" fill="none" xmlns="http://www.w3.org/2000/svg">
<path d="M8.59648 51.8073C8.78102 63.2088 13.0394 64.4431 18.2688 63.254C24.2428 61.8955 29.1461 57.6376 31.5627 52.0041L33.2293 48.1189C34.3373 45.536 34.3746 42.6184 33.333 40.008C32.2914 37.3975 30.2562 35.3081 27.6752 34.1993H27.6752C26.3971 33.6503 25.0236 33.3585 23.6329 33.3407C22.2422 33.3229 20.8617 33.5794 19.57 34.0955C18.2784 34.6116 17.101 35.3773 16.1051 36.3488C15.1091 37.3202 14.3142 38.4785 13.7655 39.7574C8.40252 41.8657 7.34332 46.2303 8.59648 51.8073Z" fill="#2F2E41"/>
<path d="M42.2233 28.8594L43.8283 26.1414C44.0243 25.8095 44.1427 25.4375 44.1745 25.0533C44.2063 24.669 44.1508 24.2826 44.012 23.9229C43.8733 23.5633 43.655 23.2397 43.3735 22.9765C43.092 22.7134 42.7545 22.5174 42.3865 22.4033C41.9981 22.283 41.5865 22.2572 41.1862 22.3283C40.7858 22.3994 40.4082 22.5652 40.0848 22.8119C39.7614 23.0586 39.5017 23.3791 39.3272 23.7466C39.1526 24.1142 39.0685 24.5181 39.0816 24.9248L39.1759 27.8465L31.6328 48.5333L35.7462 49.3926L42.2233 28.8594Z" fill="#9F616A"/>
<path d="M2.53787 79.8574L0.562226 82.3188C0.320974 82.6194 0.150869 82.9707 0.0646769 83.3465C-0.0215157 83.7223 -0.0215594 84.1127 0.0645485 84.4884C0.150656 84.8642 0.320681 85.2156 0.561865 85.5162C0.80305 85.8169 1.10913 86.0589 1.45715 86.2243C1.82448 86.3988 2.22817 86.483 2.63458 86.4697C3.041 86.4564 3.43836 86.3462 3.79355 86.1481C4.14875 85.95 4.45148 85.6698 4.67654 85.3309C4.90159 84.992 5.04244 84.6041 5.08734 84.1997L5.40992 81.2944L15.8211 61.8941L11.8721 60.457L2.53787 79.8574Z" fill="#9F616A"/>
<path d="M14.7461 100.335L15.0369 103.83L15.1051 104.646L34.4412 102.785C35.1077 102.71 35.7471 102.478 36.3074 102.109C36.8677 101.74 37.3331 101.244 37.6657 100.661C37.9984 100.078 38.1889 99.4252 38.2219 98.7548C38.2549 98.0844 38.1293 97.4157 37.8554 96.803L31.6194 83.406L29.4654 78.7786L20.1312 76.623C12.4341 82.5186 19.3593 89.0249 28.0724 95.6066C28.4135 95.8653 28.7582 96.124 29.1064 96.3827L14.7461 100.335Z" fill="#2F2E41"/>
<path d="M8.22794 112.44C8.46353 112.473 8.70383 112.446 8.92578 112.36C9.14772 112.274 9.34389 112.133 9.49546 111.949L15.8204 104.287L15.4614 100.694L13.3048 99.3994C13.1283 99.2934 12.931 99.2272 12.7264 99.2053C12.5219 99.1834 12.315 99.2063 12.1202 99.2725C11.9254 99.3387 11.7473 99.4465 11.5983 99.5885C11.4493 99.7305 11.333 99.9032 11.2575 100.095L7.13219 110.553C7.05514 110.748 7.02331 110.959 7.03909 111.168C7.05487 111.377 7.11784 111.581 7.22328 111.762C7.32872 111.944 7.47389 112.099 7.64789 112.216C7.82189 112.334 8.02021 112.41 8.22794 112.44Z" fill="#2F2E41"/>
<path opacity="0.2" d="M13.668 99.616L14.027 103.927L15.0358 103.83L33.3631 102.066C34.0296 101.991 34.669 101.76 35.2293 101.391C35.7896 101.022 36.2549 100.526 36.5876 99.9427C36.9203 99.3598 37.1108 98.7067 37.1438 98.0363C37.1767 97.3659 37.0512 96.6972 36.7773 96.0845L31.6183 84.5269V83.406L29.4643 78.7786L20.1301 76.623C12.433 82.5186 19.3582 89.0249 28.0713 95.6066L28.0283 95.6641L13.668 99.616Z" fill="black"/>
<path d="M6.43496 111.002C6.67056 111.036 6.91085 111.008 7.1328 110.923C7.35475 110.837 7.55091 110.695 7.70248 110.511L14.0274 102.849L13.6684 99.2568L11.5118 97.9619C11.3354 97.8559 11.138 97.7897 10.9335 97.7678C10.7289 97.7459 10.522 97.7688 10.3272 97.835C10.1324 97.9012 9.95431 98.009 9.80534 98.151C9.65636 98.293 9.54007 98.4657 9.46453 98.6572L5.33922 109.116C5.26217 109.311 5.23034 109.521 5.24612 109.73C5.2619 109.94 5.32487 110.143 5.43031 110.325C5.53575 110.506 5.68092 110.661 5.85492 110.779C6.02892 110.896 6.22723 110.973 6.43496 111.002Z" fill="#2F2E41"/>
<path d="M12.9492 98.8971L13.3082 103.208L32.6444 101.347C33.3108 101.272 33.9502 101.04 34.5105 100.671C35.0708 100.302 35.5362 99.8065 35.869 99.2238C36.2018 98.6411 36.3926 97.988 36.4257 97.3176C36.4589 96.6473 36.3336 95.9786 36.06 95.3658L30.8996 83.8079V77.3411L18.3343 75.1855C10.3343 81.3125 18.1291 88.0999 27.3095 94.9452L12.9492 98.8971Z" fill="#2F2E41"/>
<path d="M25.1546 48.2409C28.1288 48.2409 30.5397 45.8281 30.5397 42.8519C30.5397 39.8756 28.1288 37.4629 25.1546 37.4629C22.1805 37.4629 19.7695 39.8756 19.7695 42.8519C19.7695 45.8281 22.1805 48.2409 25.1546 48.2409Z" fill="#9F616A"/>
<path d="M17.9766 51.8342L25.5157 56.8639L31.9778 55.4268L28.3878 51.8342V46.4452L22.6437 46.0859C22.5231 48.2379 21.2908 50.2072 17.9766 51.8342Z" fill="#9F616A"/>
<path d="M16.8981 76.9822L30.8994 78.7786L34.1305 63.6894C35.6315 59.6841 34.7703 56.1454 31.9912 52.9855C31.885 52.4537 31.6018 51.9736 31.188 51.6234C30.7741 51.2733 30.254 51.0738 29.7123 51.0573L28.3864 51.1151C28.5364 55.8799 25.0284 54.7323 19.7702 50.7559L19.1353 50.9465C18.3145 51.1929 17.6098 51.7268 17.1502 52.4506C16.6905 53.1743 16.5067 54.0395 16.6323 54.8878L17.2112 58.7986C17.4567 60.349 17.8381 61.8748 18.3509 63.3583C19.7864 67.6515 19.2734 72.1965 16.8981 76.9822Z" fill="#87E2A0"/>
<path d="M10.4375 60.8156L16.8996 62.9712L19.7717 52.5525L18.7987 52.1099C17.992 51.7429 17.076 51.6969 16.2366 51.981C15.3972 52.2651 14.6973 52.8582 14.2789 53.6398L10.4375 60.8156Z" fill="#87E2A0"/>
<path d="M29.4648 51.1155L33.055 55.0673L37.363 48.2412L31.9778 45.3672L29.4648 51.1155Z" fill="#87E2A0"/>
<path d="M18.875 41.235C22.259 42.512 25.8704 42.3796 29.6452 41.235V36.9238H18.875V41.235Z" fill="#2F2E41"/>
<path d="M186.825 115.242L183.112 116.79L158.362 83.0433L140.418 117.409L135.777 116.48L149.39 69.1113H165.168L186.825 115.242Z" fill="#2F2E41"/>
<path d="M191.808 123.114C191.602 123.17 191.387 123.185 191.175 123.157C190.964 123.13 190.76 123.061 190.575 122.955L182.745 118.444C182.534 118.322 182.353 118.153 182.218 117.95C182.082 117.747 181.995 117.516 181.963 117.274C181.931 117.032 181.955 116.786 182.033 116.555C182.112 116.324 182.242 116.114 182.415 115.941L183.114 115.241L186.827 114.932L192.502 120.384C192.709 120.582 192.859 120.832 192.937 121.107C193.016 121.383 193.02 121.674 192.95 121.951C192.879 122.229 192.736 122.483 192.535 122.687C192.335 122.891 192.084 123.038 191.808 123.114Z" fill="#2F2E41"/>
<path d="M131.106 124.352C131.312 124.408 131.527 124.423 131.738 124.396C131.95 124.368 132.154 124.3 132.339 124.193L140.168 119.682C140.38 119.56 140.56 119.391 140.696 119.189C140.832 118.986 140.919 118.754 140.951 118.512C140.983 118.271 140.959 118.025 140.88 117.793C140.802 117.562 140.672 117.352 140.499 117.18L139.799 116.48L136.087 116.17L130.411 121.622C130.205 121.821 130.055 122.07 129.976 122.345C129.898 122.621 129.893 122.912 129.964 123.19C130.035 123.467 130.178 123.721 130.378 123.925C130.579 124.129 130.83 124.277 131.106 124.352Z" fill="#2F2E41"/>
<path d="M138.873 19.8846L137.327 20.8134L134.121 15.6005C133.924 15.2804 133.807 14.9175 133.78 14.5426C133.752 14.1677 133.815 13.7917 133.964 13.4463C134.112 13.1009 134.341 12.7962 134.632 12.558C134.922 12.3198 135.266 12.1551 135.634 12.0776C135.96 12.0088 136.298 12.0106 136.624 12.0831C136.95 12.1556 137.257 12.297 137.524 12.4979C137.791 12.6988 138.012 12.9544 138.172 13.2478C138.332 13.5411 138.428 13.8653 138.453 14.1986L138.873 19.8846Z" fill="#FFB9B9"/>
<path d="M181.723 60.4684L182.364 58.7812L188.105 60.8944C188.457 61.0242 188.774 61.2369 189.027 61.5147C189.28 61.7924 189.463 62.127 189.56 62.4902C189.656 62.8534 189.665 63.2346 189.583 63.6016C189.502 63.9686 189.334 64.3108 189.093 64.5991C188.879 64.8555 188.612 65.063 188.311 65.2078C188.01 65.3526 187.681 65.4313 187.347 65.4386C187.014 65.446 186.682 65.3818 186.375 65.2504C186.068 65.1189 185.792 64.9233 185.567 64.6766L181.723 60.4684Z" fill="#FFB9B9"/>
<path d="M157.434 38.4599C159.997 38.4599 162.074 36.3807 162.074 33.8159C162.074 31.2511 159.997 29.1719 157.434 29.1719C154.871 29.1719 152.793 31.2511 152.793 33.8159C152.793 36.3807 154.871 38.4599 157.434 38.4599Z" fill="#FFB9B9"/>
<path d="M161.458 43.7244H154.961V36.6036L160.53 35.9844L161.458 43.7244Z" fill="#FFB9B9"/>
<path d="M166.099 70.9689H148.465C149.087 61.1226 149.579 51.6071 148.465 46.2009L149.49 41.2755C149.632 40.593 150.026 39.9891 150.593 39.5838C151.159 39.1784 151.858 39.0014 152.549 39.0878L154.962 39.3897C156.596 42.2644 158.571 42.2367 160.84 39.6993H163.746C164.134 39.6993 164.517 39.7766 164.875 39.9268C165.232 40.0769 165.556 40.2969 165.827 40.5738C166.098 40.8506 166.311 41.1789 166.454 41.5393C166.597 41.8997 166.667 42.285 166.659 42.6727C167.416 46.1418 167.668 49.7022 167.407 53.2434L166.099 70.9689Z" fill="#3F3D56"/>
<path d="M136.398 19.8848L138.873 18.6465L152.177 40.6282L148.464 46.2009L136.398 19.8848Z" fill="#3F3D56"/>
<path d="M181.76 61.3502L183.875 59.5648L172.636 43.8046C171.537 42.2628 170.021 41.0664 168.266 40.3555C166.512 39.6446 164.591 39.4488 162.73 39.7908L162.375 39.856L166.625 47.2985L172.222 51.5394L181.76 61.3502Z" fill="#3F3D56"/>
<path d="M162.802 31.0752C162.802 31.0752 163.669 29.1661 161.415 28.2983C161.415 28.2983 159.507 25.1743 155.691 27.2569C155.691 27.2569 153.09 28.2983 153.09 31.0752C153.09 33.8521 152.223 34.3728 152.223 34.3728C152.223 34.3728 153.514 33.047 153.861 32.0057C154.208 30.9643 156.905 30.7281 157.946 31.7694C158.987 32.8108 161.588 32.6372 161.588 32.6372L161.415 36.4555C161.415 36.4555 162.282 34.1992 162.629 34.1992C162.975 34.1992 163.322 31.0752 162.802 31.0752Z" fill="#2F2E41"/>
<path d="M162.376 134.999C178.058 134.999 190.771 134.336 190.771 133.519C190.771 132.702 178.058 132.039 162.376 132.039C146.693 132.039 133.98 132.702 133.98 133.519C133.98 134.336 146.693 134.999 162.376 134.999Z" fill="#133C24"/>
<path d="M20.6026 134.303C28.8918 134.303 35.6115 133.953 35.6115 133.521C35.6115 133.089 28.8918 132.738 20.6026 132.738C12.3134 132.738 5.59375 133.089 5.59375 133.521C5.59375 133.953 12.3134 134.303 20.6026 134.303Z" fill="#133B24"/>
<path d="M135.272 26.0383L44.0286 34.2218C43.5806 34.2614 43.1351 34.1216 42.79 33.8331C42.4448 33.5445 42.2281 33.1307 42.1875 32.6824L40.159 10.0325C40.1193 9.58419 40.259 9.13842 40.5474 8.79302C40.8358 8.44762 41.2493 8.23078 41.6972 8.19008L132.941 0.00661275C133.389 -0.0330379 133.834 0.106762 134.179 0.395344C134.524 0.683927 134.741 1.09773 134.782 1.54598L136.81 24.1959C136.85 24.6442 136.71 25.09 136.422 25.4354C136.133 25.7808 135.72 25.9976 135.272 26.0383Z" fill="#87E2A0"/>
<path d="M54.6916 27.2762C58.6267 27.2762 61.8167 24.0838 61.8167 20.1459C61.8167 16.208 58.6267 13.0156 54.6916 13.0156C50.7564 13.0156 47.5664 16.208 47.5664 20.1459C47.5664 24.0838 50.7564 27.2762 54.6916 27.2762Z" fill="white"/>
<path d="M70.6574 13.9414C70.3442 13.9701 70.0551 14.122 69.8536 14.3638C69.6522 14.6056 69.5548 14.9174 69.5829 15.231C69.6109 15.5445 69.7622 15.8341 70.0034 16.0361C70.2446 16.2382 70.5561 16.3362 70.8694 16.3087L126.629 11.3077C126.785 11.294 126.936 11.2497 127.074 11.1775C127.213 11.1052 127.336 11.0063 127.436 10.8865C127.536 10.7667 127.611 10.6283 127.658 10.4793C127.705 10.3302 127.722 10.1734 127.708 10.0178C127.694 9.86227 127.649 9.71096 127.577 9.57259C127.504 9.43421 127.405 9.31148 127.286 9.21141C127.166 9.11135 127.027 9.03591 126.878 8.98941C126.729 8.94292 126.573 8.92628 126.417 8.94044L70.6574 13.9414Z" fill="white"/>
<path d="M71.2947 21.043C71.1392 21.0566 70.9879 21.1009 70.8494 21.1731C70.711 21.2453 70.5881 21.3442 70.4879 21.464C70.3877 21.5838 70.312 21.7222 70.2653 21.8713C70.2186 22.0204 70.2017 22.1773 70.2157 22.3329C70.2296 22.4885 70.2741 22.6399 70.3465 22.7783C70.419 22.9167 70.518 23.0395 70.6379 23.1395C70.7579 23.2396 70.8963 23.315 71.0454 23.3615C71.1945 23.4079 71.3513 23.4245 71.5068 23.4103L127.267 18.4093C127.422 18.3956 127.573 18.3513 127.712 18.279C127.85 18.2067 127.973 18.1079 128.073 17.9881C128.173 17.8683 128.249 17.7299 128.295 17.5808C128.342 17.4318 128.359 17.275 128.345 17.1194C128.331 16.9638 128.287 16.8125 128.214 16.6741C128.142 16.5358 128.043 16.413 127.923 16.313C127.803 16.2129 127.665 16.1375 127.516 16.091C127.367 16.0445 127.21 16.0278 127.055 16.042L71.2947 21.043Z" fill="white"/>
</svg>
