<svg width="255" height="228" viewBox="0 0 255 228" fill="none" xmlns="http://www.w3.org/2000/svg">
<path d="M219.146 187.967C214.844 200.619 209.31 213.244 202.222 225.26C202.064 225.53 201.905 225.796 201.745 226.065L184.195 220.491C184.296 220.236 184.407 219.951 184.526 219.639C191.604 201.262 234.31 89.2898 232.393 67.2129C232.599 69.02 239.28 128.824 219.146 187.967Z" fill="#E6E6E6"/>
<path d="M205.606 226.335C205.367 226.579 205.123 226.822 204.876 227.06L191.711 222.878C191.889 222.662 192.096 222.407 192.335 222.12C196.234 217.339 207.825 203.026 219.145 187.967C231.309 171.783 243.161 154.74 244.822 147.736C244.488 149.329 234.1 197.807 205.606 226.335Z" fill="#E6E6E6"/>
<path d="M212.186 39.8967C212.181 39.8967 212.176 39.8981 212.171 39.8982V11.5658C212.171 8.49833 210.957 5.55653 208.797 3.38753C206.637 1.21853 203.706 0 200.651 0H112.298C109.243 0 106.313 1.21853 104.152 3.38753C101.992 5.55653 100.778 8.49833 100.778 11.5658V26.0905C100.534 26.0957 100.302 26.1966 100.131 26.3716C99.9606 26.5465 99.8648 26.7816 99.8646 27.0266V34.2208C99.8648 34.4658 99.9606 34.7009 100.131 34.8758C100.302 35.0508 100.534 35.1516 100.778 35.1568V42.6934H100.731C100.609 42.6934 100.487 42.7177 100.374 42.7648C100.26 42.812 100.157 42.8811 100.071 42.9682C99.9838 43.0553 99.915 43.1587 99.868 43.2726C99.821 43.3864 99.7969 43.5084 99.7969 43.6316V57.5435C99.7969 57.6667 99.821 57.7887 99.868 57.9025C99.915 58.0163 99.9838 58.1198 100.071 58.2069C100.157 58.294 100.26 58.3631 100.374 58.4102C100.487 58.4574 100.609 58.4816 100.731 58.4816H100.778V64.007H100.764C100.641 64.007 100.519 64.0312 100.406 64.0784C100.293 64.1255 100.19 64.1946 100.103 64.2818C100.016 64.3689 99.9472 64.4723 99.9003 64.5861C99.8533 64.7 99.8291 64.8219 99.8291 64.9451V78.9931C99.8291 79.1163 99.8533 79.2383 99.9003 79.3521C99.9472 79.466 100.016 79.5694 100.103 79.6565C100.19 79.7436 100.293 79.8127 100.406 79.8599C100.519 79.907 100.641 79.9313 100.764 79.9313H100.778V215.722C100.778 218.789 101.992 221.731 104.152 223.9C106.313 226.069 109.243 227.287 112.298 227.287H200.651C203.706 227.287 206.637 226.069 208.797 223.9C210.957 221.731 212.171 218.789 212.171 215.722V67.447C212.176 67.447 212.181 67.4484 212.186 67.4484C212.404 67.4484 212.621 67.4052 212.822 67.3213C213.024 67.2373 213.208 67.1143 213.362 66.9592C213.517 66.8041 213.639 66.6199 213.723 66.4172C213.807 66.2146 213.85 65.9973 213.85 65.7779V41.5673C213.85 41.1242 213.674 40.6993 213.362 40.386C213.05 40.0727 212.627 39.8967 212.186 39.8967Z" fill="#3F3D56"/>
<path d="M205.292 14.8044V212.482C205.291 214.838 204.359 217.096 202.7 218.761C201.041 220.426 198.791 221.362 196.445 221.362H116.504C114.158 221.362 111.908 220.426 110.249 218.761C108.59 217.096 107.657 214.838 107.656 212.482V14.8044C107.656 12.4486 108.588 10.1893 110.248 8.52351C111.907 6.85771 114.157 5.92188 116.504 5.92188H128.466V7.48061C128.467 9.42016 129.235 11.28 130.601 12.6515C131.967 14.023 133.82 14.7938 135.751 14.7947H176.422C178.352 14.7904 180.201 14.0179 181.563 12.6467C182.926 11.2755 183.691 9.41762 183.691 7.48061V5.93808H196.445C198.788 5.93807 201.036 6.87169 202.695 8.53398C204.354 10.1963 205.288 12.4514 205.292 14.8044Z" fill="white"/>
<path d="M75.666 110.92C75.1932 110.737 74.6861 110.659 74.1803 110.693C73.6745 110.728 73.1824 110.873 72.7385 111.119C72.2947 111.365 71.9099 111.705 71.6114 112.117C71.3128 112.528 71.1078 113 71.0106 113.499L42.5234 129.05L47.5321 134.71L73.9876 117.665C74.8342 117.773 75.691 117.566 76.3956 117.082C77.1002 116.599 77.6036 115.872 77.8105 115.041C78.0174 114.21 77.9134 113.331 77.5181 112.572C77.1229 111.812 76.4638 111.225 75.666 110.92H75.666Z" fill="#FFB8B8"/>
<path d="M68.4031 222.808L71.9528 220.503L64.786 205.66L59.5469 209.062L68.4031 222.808Z" fill="#FFB8B8"/>
<path d="M80.9258 219.367L69.7695 226.612L66.9814 222.284L73.9885 217.734C75.0889 217.02 76.4271 216.773 77.7085 217.049C78.9899 217.325 80.1097 218.101 80.8215 219.205L80.9258 219.367L80.9258 219.367Z" fill="#2F2E41"/>
<path d="M28.5703 223.346H32.7978L34.8097 206.975H28.5703V223.346Z" fill="#FFB8B8"/>
<path d="M40.9492 227.287H27.6625V222.133H36.0077C36.6566 222.133 37.2992 222.262 37.8987 222.511C38.4982 222.76 39.043 223.126 39.5019 223.586C39.9607 224.047 40.3247 224.594 40.5731 225.196C40.8214 225.798 40.9492 226.443 40.9492 227.094V227.287Z" fill="#2F2E41"/>
<path d="M125.561 32.0793H116.846C116.632 32.0793 116.427 31.9939 116.275 31.842C116.124 31.6901 116.039 31.484 116.039 31.2691C116.039 31.0543 116.124 30.8482 116.275 30.6963C116.427 30.5443 116.632 30.459 116.846 30.459H125.561C125.775 30.459 125.98 30.5443 126.132 30.6963C126.283 30.8482 126.368 31.0543 126.368 31.2691C126.368 31.484 126.283 31.6901 126.132 31.842C125.98 31.9939 125.775 32.0793 125.561 32.0793Z" fill="#3F3D56"/>
<path d="M125.561 34.3469H116.846C116.632 34.3469 116.427 34.2615 116.275 34.1096C116.124 33.9576 116.039 33.7516 116.039 33.5367C116.039 33.3219 116.124 33.1158 116.275 32.9638C116.427 32.8119 116.632 32.7266 116.846 32.7266H125.561C125.775 32.7266 125.98 32.8119 126.132 32.9638C126.283 33.1158 126.368 33.3219 126.368 33.5367C126.368 33.7516 126.283 33.9576 126.132 34.1096C125.98 34.2615 125.775 34.3469 125.561 34.3469Z" fill="#3F3D56"/>
<path d="M125.561 36.6184H116.846C116.632 36.6184 116.427 36.533 116.275 36.3811C116.124 36.2291 116.039 36.0231 116.039 35.8082C116.039 35.5933 116.124 35.3873 116.275 35.2353C116.427 35.0834 116.632 34.998 116.846 34.998H125.561C125.775 34.998 125.98 35.0834 126.132 35.2353C126.283 35.3873 126.368 35.5933 126.368 35.8082C126.368 36.0231 126.283 36.2291 126.132 36.3811C125.98 36.533 125.775 36.6184 125.561 36.6184Z" fill="#3F3D56"/>
<path d="M193.12 34.3638H192.826L192.713 34.2698C193.084 33.8258 193.287 33.2647 193.287 32.6851C193.285 32.2083 193.141 31.7429 192.875 31.3479C192.609 30.9528 192.233 30.6458 191.793 30.4657C191.353 30.2856 190.87 30.2405 190.405 30.336C189.939 30.4315 189.513 30.6635 189.179 31.0025C188.845 31.3415 188.618 31.7723 188.528 32.2405C188.438 32.7087 188.488 33.1932 188.672 33.6327C188.856 34.0723 189.166 34.4472 189.562 34.71C189.959 34.9728 190.424 35.1117 190.899 35.1091C191.474 35.105 192.031 34.9012 192.474 34.5323L192.584 34.6263V34.9244L194.436 36.7878L194.992 36.2304L193.12 34.3638ZM190.899 34.3638C190.568 34.3651 190.244 34.2679 189.969 34.0845C189.693 33.9011 189.478 33.6398 189.35 33.3335C189.222 33.0273 189.188 32.6899 189.251 32.364C189.314 32.0382 189.472 31.7384 189.705 31.5028C189.938 31.2671 190.236 31.1061 190.56 31.04C190.884 30.974 191.22 31.0059 191.526 31.1318C191.832 31.2577 192.094 31.4718 192.279 31.7471C192.464 32.0225 192.563 32.3467 192.564 32.6787L192.564 32.6851C192.566 32.9043 192.524 33.1216 192.441 33.3245C192.359 33.5275 192.238 33.7122 192.084 33.8681C191.931 34.0239 191.748 34.1479 191.547 34.233C191.346 34.318 191.13 34.3625 190.912 34.3638C190.907 34.3638 190.903 34.3638 190.899 34.3638H190.899Z" fill="#3F3D56"/>
<path d="M143.321 61.893H127.664C126.722 61.893 125.819 61.5175 125.153 60.849C124.487 60.1805 124.113 59.2738 124.113 58.3284C124.113 57.3829 124.487 56.4763 125.153 55.8077C125.819 55.1392 126.722 54.7637 127.664 54.7637H143.321C144.262 54.7637 145.166 55.1392 145.831 55.8077C146.497 56.4763 146.871 57.3829 146.871 58.3284C146.871 59.2738 146.497 60.1805 145.831 60.849C145.166 61.5175 144.262 61.893 143.321 61.893Z" fill="#06D6A0"/>
<path d="M191.253 69.6719H126.05C125.536 69.6719 125.044 69.4671 124.681 69.1025C124.317 68.7378 124.113 68.2433 124.113 67.7276C124.113 67.2119 124.317 66.7173 124.681 66.3527C125.044 65.9881 125.536 65.7832 126.05 65.7832H191.253C191.766 65.7832 192.259 65.9881 192.622 66.3527C192.985 66.7173 193.189 67.2119 193.189 67.7276C193.189 68.2433 192.985 68.7378 192.622 69.1025C192.259 69.4671 191.766 69.6719 191.253 69.6719Z" fill="#E6E6E6"/>
<path d="M150.001 77.4493H126.05C125.536 77.4493 125.044 77.2444 124.681 76.8798C124.317 76.5152 124.113 76.0206 124.113 75.5049C124.113 74.9892 124.317 74.4947 124.681 74.13C125.044 73.7654 125.536 73.5605 126.05 73.5605H150.001C150.514 73.5605 151.007 73.7654 151.37 74.13C151.733 74.4947 151.937 74.9892 151.937 75.5049C151.937 76.0206 151.733 76.5152 151.37 76.8798C151.007 77.2444 150.514 77.4493 150.001 77.4493Z" fill="#E6E6E6"/>
<path d="M143.321 148.094H127.664C126.722 148.094 125.819 147.719 125.153 147.05C124.487 146.382 124.113 145.475 124.113 144.53C124.113 143.584 124.487 142.677 125.153 142.009C125.819 141.34 126.722 140.965 127.664 140.965H143.321C144.262 140.965 145.166 141.34 145.831 142.009C146.497 142.677 146.871 143.584 146.871 144.53C146.871 145.475 146.497 146.382 145.831 147.05C145.166 147.719 144.262 148.094 143.321 148.094Z" fill="#06D6A0"/>
<path d="M191.253 155.871H126.05C125.536 155.871 125.044 155.666 124.681 155.302C124.317 154.937 124.113 154.442 124.113 153.927C124.113 153.411 124.317 152.917 124.681 152.552C125.044 152.187 125.536 151.982 126.05 151.982H191.253C191.766 151.982 192.259 152.187 192.622 152.552C192.985 152.917 193.189 153.411 193.189 153.927C193.189 154.442 192.985 154.937 192.622 155.302C192.259 155.666 191.766 155.871 191.253 155.871Z" fill="#E6E6E6"/>
<path d="M150.001 163.649H126.05C125.536 163.649 125.044 163.444 124.681 163.079C124.317 162.714 124.113 162.22 124.113 161.704C124.113 161.188 124.317 160.694 124.681 160.329C125.044 159.965 125.536 159.76 126.05 159.76H150.001C150.514 159.76 151.007 159.965 151.37 160.329C151.733 160.694 151.937 161.188 151.937 161.704C151.937 162.22 151.733 162.714 151.37 163.079C151.007 163.444 150.514 163.649 150.001 163.649Z" fill="#E6E6E6"/>
<path d="M143.321 187.954H127.664C126.722 187.954 125.819 187.578 125.153 186.91C124.487 186.241 124.113 185.334 124.113 184.389C124.113 183.443 124.487 182.537 125.153 181.868C125.819 181.2 126.722 180.824 127.664 180.824H143.321C144.262 180.824 145.166 181.2 145.831 181.868C146.497 182.537 146.871 183.443 146.871 184.389C146.871 185.334 146.497 186.241 145.831 186.91C145.166 187.578 144.262 187.954 143.321 187.954Z" fill="#06D6A0"/>
<path d="M191.253 195.731H126.05C125.536 195.731 125.044 195.526 124.681 195.161C124.317 194.796 124.113 194.302 124.113 193.786C124.113 193.27 124.317 192.776 124.681 192.411C125.044 192.047 125.536 191.842 126.05 191.842H191.253C191.766 191.842 192.259 192.047 192.622 192.411C192.985 192.776 193.189 193.27 193.189 193.786C193.189 194.302 192.985 194.796 192.622 195.161C192.259 195.526 191.766 195.731 191.253 195.731Z" fill="#E6E6E6"/>
<path d="M150.001 203.508H126.05C125.536 203.508 125.044 203.303 124.681 202.938C124.317 202.574 124.113 202.079 124.113 201.564C124.113 201.048 124.317 200.553 124.681 200.189C125.044 199.824 125.536 199.619 126.05 199.619H150.001C150.514 199.619 151.007 199.824 151.37 200.189C151.733 200.553 151.937 201.048 151.937 201.564C151.937 202.079 151.733 202.574 151.37 202.938C151.007 203.303 150.514 203.508 150.001 203.508Z" fill="#E6E6E6"/>
<path d="M200.448 127.84H75.853C75.1256 127.839 74.4283 127.549 73.9139 127.033C73.3995 126.516 73.1102 125.816 73.1094 125.086V91.0592C73.1102 90.3289 73.3995 89.6288 73.9139 89.1124C74.4282 88.596 75.1256 88.3055 75.853 88.3047H200.448C201.175 88.3055 201.873 88.596 202.387 89.1124C202.901 89.6288 203.191 90.3289 203.192 91.0592V125.086C203.191 125.816 202.901 126.516 202.387 127.033C201.873 127.549 201.175 127.839 200.448 127.84Z" fill="#06D6A0"/>
<path d="M31.0639 168.321C32.255 176.711 25.9478 213.881 26.6482 213.877L35.7056 213.829C36.0284 213.207 40.1858 193.15 41.4899 189.933C43.3104 185.467 45.147 180.946 45.8636 176.176C46.5382 171.698 46.2058 167.135 45.7668 162.627C45.7872 162.493 45.7755 162.356 45.7328 162.227C45.69 162.099 45.6174 161.982 45.521 161.887C45.4245 161.792 45.3069 161.721 45.1779 161.681C45.0489 161.641 44.9122 161.632 44.779 161.655L32.6262 161.026C30.1214 160.897 29.5275 160.346 29.9083 162.815C30.173 164.659 30.7992 166.454 31.0639 168.321Z" fill="#2F2E41"/>
<path d="M33.4515 147.923C30.9822 151.487 28.3934 155.59 29.2133 159.858C29.8363 163.098 32.2959 165.61 34.6167 167.959C43.8935 177.312 62.1858 218.578 62.1858 218.578C71.0134 212.907 61.9754 218.74 70.9332 212.745C70.1392 212.683 52.0987 147.576 50.6042 147.488C44.5585 147.086 39.3423 146.493 33.4515 147.923Z" fill="#2F2E41"/>
<path d="M43.2173 113.992C41.9631 112.869 33.1489 109.406 33.1489 109.406C32.9869 109.384 32.8224 109.389 32.6619 109.42C32.1603 109.548 31.9315 110.173 32.0386 110.679C32.1457 111.185 31.2667 119.502 31.0403 123.284C30.6434 129.884 34.5149 144.835 34.4808 145.292C34.3482 146.922 33.6371 148.451 32.4769 149.599C32.7784 149.975 51.9295 150.729 53.2322 151.174C53.4952 150.839 51.7493 127.124 51.669 125.784C51.535 123.75 44.8731 115.532 43.2173 113.992Z" fill="#E6E6E6"/>
<path d="M29.5598 165.45C30.0136 165.223 30.4124 164.899 30.7281 164.501C31.0438 164.103 31.2686 163.64 31.3869 163.145C31.5051 162.65 31.5138 162.135 31.4123 161.637C31.3109 161.138 31.1018 160.668 30.7998 160.259L38.88 115.363L31.3398 115.264L25.7285 159.66C25.0782 160.215 24.6532 160.99 24.5341 161.838C24.415 162.687 24.6101 163.55 25.0824 164.263C25.5546 164.977 26.2712 165.492 27.0965 165.711C27.9217 165.929 28.7982 165.837 29.5598 165.45H29.5598Z" fill="#FFB8B8"/>
<path d="M29.4953 118.696C29.1808 118.719 28.8676 118.637 28.6044 118.463C28.1557 118.077 31.8161 112.176 32.5391 112.088C34.8922 111.816 37.3131 111.725 39.5952 112.364C41.8773 113.002 44.0238 114.454 45.0438 116.602C45.4699 117.497 42.3808 121.998 40.9767 121.337C39.295 120.546 31.7096 118.751 29.4953 118.696Z" fill="#E6E6E6"/>
<path d="M37.7976 108.924C42.4752 108.924 46.2671 105.117 46.2671 100.421C46.2671 95.7249 42.4752 91.918 37.7976 91.918C33.12 91.918 29.3281 95.7249 29.3281 100.421C29.3281 105.117 33.12 108.924 37.7976 108.924Z" fill="#FFB8B8"/>
<path d="M29.4794 114.478C30.6563 114.602 31.8453 114.427 32.9377 113.97C34.03 113.513 34.9908 112.789 35.7321 111.863C36.4734 110.937 36.9716 109.839 37.181 108.669C37.3905 107.5 37.3045 106.297 36.931 105.169C36.594 104.152 36.0306 103.22 35.7219 102.193C35.4133 101.167 35.4049 99.9533 36.0895 99.1304C37.4289 97.5205 40.0106 98.5332 42.0756 98.2131C44.2759 97.8721 45.9639 95.7527 46.14 93.5246C46.3161 91.2964 45.1593 89.0914 43.4372 87.6747C41.7151 86.258 39.4941 85.5604 37.2784 85.3418C34.4329 85.0612 31.5633 85.5207 28.946 86.6762C26.3286 87.8318 24.0517 89.6444 22.3344 91.9395C20.6172 94.2347 19.5174 96.935 19.141 99.7806C18.7646 102.626 19.1243 105.521 20.1855 108.187C21.1112 110.512 22.6232 112.678 24.7709 113.951C26.9186 115.225 29.7551 115.469 31.8957 114.184" fill="#2F2E41"/>
<path d="M120.164 103.858H98.5202C97.1456 103.858 96.0273 102.259 96.0273 100.293C96.0273 98.3276 97.1456 96.7285 98.5202 96.7285H120.164C121.539 96.7285 122.657 98.3276 122.657 100.293C122.657 102.259 121.539 103.858 120.164 103.858Z" fill="white"/>
<path d="M178.337 111.637H97.9641C97.4504 111.637 96.9578 111.432 96.5946 111.067C96.2314 110.703 96.0273 110.208 96.0273 109.692C96.0273 109.177 96.2314 108.682 96.5946 108.318C96.9578 107.953 97.4504 107.748 97.9641 107.748H178.337C178.851 107.748 179.344 107.953 179.707 108.318C180.07 108.682 180.274 109.177 180.274 109.692C180.274 110.208 180.07 110.703 179.707 111.067C179.344 111.432 178.851 111.637 178.337 111.637Z" fill="#E6E6E6"/>
<path d="M137.086 119.414H97.9641C97.4504 119.414 96.9578 119.209 96.5946 118.845C96.2314 118.48 96.0273 117.985 96.0273 117.47C96.0273 116.954 96.2314 116.46 96.5946 116.095C96.9578 115.73 97.4504 115.525 97.9641 115.525H137.086C137.599 115.525 138.092 115.73 138.455 116.095C138.818 116.46 139.022 116.954 139.022 117.47C139.022 117.985 138.818 118.48 138.455 118.845C138.092 119.209 137.599 119.414 137.086 119.414Z" fill="#E6E6E6"/>
<path d="M255 226.842H0V227.49H255V226.842Z" fill="#3F3D56"/>
</svg>
