<svg width="271" height="175" viewBox="0 0 271 175" fill="none" xmlns="http://www.w3.org/2000/svg">
<path d="M247.181 174.482L239.441 151.219C239.441 151.219 247.955 159.698 247.955 166.655L246.427 150.566C246.427 150.566 250.793 156.437 250.356 165.351C249.92 174.265 247.181 174.482 247.181 174.482Z" fill="#E6E6E6"/>
<path d="M80.9642 153.298L73.4102 130.594C73.4102 130.594 81.7191 138.869 81.7191 145.659L80.2277 129.957C80.2277 129.957 84.4887 135.686 84.0626 144.386C83.6365 153.086 80.9642 153.298 80.9642 153.298Z" fill="#E6E6E6"/>
<path d="M198.87 163.776C198.882 178.712 169.14 174.117 132.729 174.149C96.3171 174.18 67.0247 178.825 67.0117 163.889C66.9988 148.954 96.7302 145.68 133.142 145.649C169.553 145.617 198.857 148.84 198.87 163.776Z" fill="#E6E6E6"/>
<path d="M271 174.141H0V174.824H271V174.141Z" fill="#3F3D56"/>
<path d="M173.35 143.608H168.59L166.324 125.32H173.35V143.608Z" fill="#A0616A"/>
<path d="M164.662 142.25H174.371V148.007H159.41V147.48C159.41 146.093 159.963 144.763 160.948 143.782C161.933 142.801 163.269 142.25 164.662 142.25Z" fill="#2F2E41"/>
<path d="M208.338 170.6H203.578L201.312 152.312H208.338V170.6Z" fill="#A0616A"/>
<path d="M199.65 169.242H209.359V174.999H194.398V174.473C194.398 173.085 194.952 171.755 195.937 170.774C196.921 169.793 198.257 169.242 199.65 169.242Z" fill="#2F2E41"/>
<path d="M230.298 116.268C230.627 115.87 230.865 115.406 230.994 114.907C231.124 114.408 231.142 113.887 231.047 113.38C230.952 112.874 230.747 112.394 230.446 111.975C230.145 111.556 229.756 111.208 229.305 110.955L218.249 66.0977L211.18 69.1269L224.33 112.5C223.954 113.282 223.879 114.175 224.119 115.009C224.359 115.843 224.898 116.56 225.634 117.024C226.37 117.489 227.251 117.668 228.11 117.529C228.97 117.389 229.749 116.941 230.298 116.268Z" fill="#A0616A"/>
<path d="M221.673 25.6109C221.278 25.2 220.798 24.8804 220.266 24.6744C219.734 24.4684 219.163 24.3811 218.593 24.4186C218.024 24.4562 217.469 24.6176 216.969 24.8917C216.469 25.1657 216.035 25.5456 215.699 26.0046L198.586 27.9613L201.189 34.5353L216.752 31.6343C217.564 32.1467 218.536 32.3447 219.485 32.1908C220.433 32.0369 221.292 31.5419 221.899 30.7994C222.505 30.0569 222.817 29.1186 222.775 28.1624C222.734 27.2061 222.341 26.2982 221.673 25.6109Z" fill="#A0616A"/>
<path d="M193.473 111.617L200.94 167.435L210.234 165.529C210.234 165.529 208.867 124.878 213.514 119.978C218.161 115.077 207.537 106.492 207.537 106.492L193.473 111.617Z" fill="#2F2E41"/>
<path d="M196.562 96.2425L193.132 101.367C193.132 101.367 166.718 90.4345 166.718 107.859C166.718 125.283 165.206 137.108 164.66 137.925C164.113 138.742 170.984 140.861 174.265 140.316C174.265 140.316 178.312 112.226 178.038 110.592C178.038 110.592 203.949 123.245 208.869 122.156C213.79 121.067 214.952 117.212 215.772 115.034C216.592 112.856 215.429 95.5591 215.429 95.5591L199.029 90.5742L196.562 96.2425Z" fill="#2F2E41"/>
<path d="M197.023 65.471L196.045 64.3024C196.045 64.3024 185.094 39.7618 189.396 33.1397C193.698 26.5176 212.471 25.5438 213.058 25.9333C213.645 26.3228 211.657 31.3803 213.026 33.7175C213.026 33.7175 198.483 36.8578 197.505 37.2473C196.527 37.6368 205.04 52.0321 205.04 52.0321L204.063 60.7966L197.023 65.471Z" fill="#CCCCCC"/>
<path d="M216.188 53.3985C216.188 53.3985 206.019 54.5671 205.628 54.5671C205.237 54.5671 205.041 52.0352 205.041 52.0352L196.046 64.3055C196.046 64.3055 191.614 99.9032 192.788 99.3189C193.961 98.7346 215.601 102.09 215.797 100.532C215.992 98.974 215.601 91.1834 216.188 90.7938C216.775 90.4043 226.357 66.2532 226.357 66.2532C226.357 66.2532 225.379 61.1892 222.055 59.4363C218.73 57.6834 216.188 53.3985 216.188 53.3985Z" fill="#CCCCCC"/>
<path d="M223.228 62.9414L226.357 66.2524C226.357 66.2524 231.005 104.299 228.463 105.468C225.921 106.637 220.916 106.493 220.916 106.493L215.992 88.4559L223.228 62.9414Z" fill="#CCCCCC"/>
<path d="M206.415 50.988C211.386 50.988 215.416 46.9744 215.416 42.0233C215.416 37.0722 211.386 33.0586 206.415 33.0586C201.444 33.0586 197.414 37.0722 197.414 42.0233C197.414 46.9744 201.444 50.988 206.415 50.988Z" fill="#A0616A"/>
<path d="M204.305 43.4232C204.183 41.5631 201.827 41.4994 199.955 41.4817C198.084 41.4641 195.846 41.5307 194.787 39.9937C194.087 38.9779 194.221 37.5678 194.799 36.4788C195.377 35.3897 196.328 34.5522 197.264 33.7464C199.68 31.6661 202.169 29.6023 205.069 28.2708C207.969 26.9392 211.367 26.4012 214.375 27.4701C218.069 28.7831 223.064 35.5421 223.495 39.4253C223.926 43.3086 222.368 47.2672 219.741 50.169C217.115 53.0709 211.103 51.9001 207.32 52.9324C209.62 49.6902 208.104 43.799 204.419 42.2849L204.305 43.4232Z" fill="#2F2E41"/>
<path d="M124.084 159.381C136.018 159.381 145.692 149.746 145.692 137.861C145.692 125.975 136.018 116.34 124.084 116.34C112.151 116.34 102.477 125.975 102.477 137.861C102.477 149.746 112.151 159.381 124.084 159.381Z" fill="#06D6A0"/>
<path d="M109.655 114.809C106.66 114.809 103.73 113.945 101.218 112.321C98.7064 110.697 96.7212 108.382 95.5028 105.658L61.2155 28.7532C60.0797 26.2057 59.479 23.4538 59.4503 20.6666C59.4216 17.8794 59.9656 15.1159 61.0487 12.5458C62.1318 9.97564 63.7312 7.6533 65.7487 5.72148C67.7661 3.78966 70.1589 2.28918 72.7799 1.31227C75.401 0.335348 78.195 -0.0973646 80.9901 0.0407286C83.7853 0.178822 86.5226 0.884802 89.0337 2.11527C91.5448 3.34574 93.7768 5.07471 95.5923 7.1959C97.4079 9.31708 98.7687 11.7857 99.5912 14.4499L124.419 94.8804C125.13 97.1825 125.289 99.6187 124.883 101.993C124.477 104.367 123.518 106.614 122.082 108.552C120.646 110.49 118.774 112.066 116.615 113.153C114.457 114.239 112.073 114.807 109.655 114.809H109.655Z" fill="#06D6A0"/>
</svg>
