<svg width="64" height="64" viewBox="0 0 64 64" fill="none" xmlns="http://www.w3.org/2000/svg">
<circle cx="32" cy="32" r="31" fill="white" stroke="#DEDEDE" stroke-width="2"/>
<path d="M38.9928 34.6543H25.0994C20.4353 34.6543 16.6406 38.4489 16.6406 43.1131V47.9997H47.4518V43.1131C47.4517 38.4489 43.657 34.6543 38.9928 34.6543ZM45.6159 46.164H18.4763V43.1132C18.4763 39.4613 21.4474 36.4902 25.0993 36.4902H38.9927C42.6447 36.4902 45.6158 39.4613 45.6158 43.1132L45.6159 46.164Z" fill="#DEDEDE"/>
<path d="M32.0451 33.7856C36.9486 33.7856 40.9379 29.7962 40.9379 24.8928C40.9379 19.9894 36.9487 16 32.0451 16C27.1416 16 23.1523 19.9892 23.1523 24.8928C23.1523 29.7964 27.1417 33.7856 32.0451 33.7856ZM32.0451 17.8358C35.9365 17.8358 39.1022 21.0015 39.1022 24.8928C39.1022 28.7841 35.9365 31.9498 32.0451 31.9498C28.1538 31.9498 24.9881 28.784 24.9881 24.8928C24.9881 21.0016 28.1538 17.8358 32.0451 17.8358Z" fill="#DEDEDE"/>
</svg>
