<svg width="189" height="140" viewBox="0 0 189 140" fill="none" xmlns="http://www.w3.org/2000/svg">
<path opacity="0.1" d="M13.3039 54.8726H29.6435V77.3165H14.4987C14.46 77.5485 14.4214 77.7789 14.3779 78.0109H29.6435V96.1082C29.6178 96.1082 29.592 96.0887 29.5678 96.079C29.1385 95.907 28.7091 95.7247 28.2797 95.5322C28.188 95.49 28.0978 95.4462 28.0044 95.4057C27.575 95.2012 27.1457 94.9849 26.7163 94.7567C26.5666 94.6772 26.4168 94.5944 26.2703 94.51C23.8866 93.1697 21.7202 91.4703 19.8459 89.4706C19.7895 89.417 19.738 89.3586 19.6849 89.3083C19.424 89.0228 19.168 88.734 18.9201 88.4387C18.8267 88.33 18.7365 88.2196 18.6447 88.1142C18.3517 87.754 18.0683 87.3808 17.7946 87.006C17.7527 86.9492 17.7141 86.8941 17.6738 86.8438C16.5525 85.2802 15.6227 83.586 14.9044 81.7978C14.8819 81.7443 14.8609 81.6859 14.84 81.6356C14.6178 81.0677 14.4165 80.4917 14.2427 79.9044C14.1686 79.6594 14.0961 79.4176 14.0349 79.1629C14.0124 79.0899 13.9947 79.0152 13.9754 78.9422C13.0705 75.3484 12.9658 71.6134 12.9658 67.8963C12.9658 67.4636 12.9658 67.031 12.9658 66.5983C12.9787 65.0807 12.9964 63.5648 13.019 62.0505C13.0275 61.6611 13.0356 61.27 13.0431 60.8774C13.0656 59.8834 13.0979 58.8871 13.1397 57.8888C13.1494 57.6129 13.1623 57.3355 13.1767 57.0613C13.1832 56.9023 13.1912 56.7433 13.2009 56.5843C13.2299 56.0099 13.2642 55.4393 13.3039 54.8726Z" fill="#06D6A0"/>
<path opacity="0.1" d="M29.6442 29.8828H20.6807C22.1384 27.5862 23.7304 25.3789 25.4482 23.2728C26.7814 21.6243 28.1855 20.0181 29.6442 18.4702V29.8828Z" fill="#06D6A0"/>
<path opacity="0.1" d="M29.6445 30.5742V54.1782H13.3564C13.3564 54.1101 13.3661 54.0403 13.3725 53.9722C13.387 53.7856 13.4015 53.6006 13.4176 53.414C13.4337 53.1966 13.4547 52.9792 13.4756 52.765C13.4965 52.5509 13.5175 52.2913 13.5432 52.056C13.569 51.8208 13.5899 51.5823 13.6157 51.347C13.6414 51.1117 13.6672 50.8765 13.6962 50.6428C13.7252 50.4092 13.7509 50.1723 13.7831 49.9387C13.8073 49.7456 13.8314 49.5509 13.8588 49.3562C13.8958 49.082 13.9345 48.8078 13.9747 48.5352C13.9747 48.493 13.9876 48.4525 13.9941 48.4119C14.2883 46.4167 14.6882 44.4388 15.192 42.4866C15.721 40.439 16.3964 38.4327 17.2127 36.4833C18.0801 34.4408 19.0962 32.4658 20.2526 30.5742H29.6445Z" fill="#06D6A0"/>
<path opacity="0.1" d="M33.5469 54.8727V77.3166H68.448V54.8727H33.5469ZM33.5469 78.011V97.2863C33.7465 97.3268 33.943 97.3674 34.141 97.4015C34.4067 97.4534 34.674 97.5004 34.9461 97.541L35.1071 97.5637C35.2134 97.5816 35.3212 97.5961 35.4291 97.6091C35.698 97.6481 35.9669 97.6773 36.2342 97.7032C36.3598 97.7162 36.4902 97.726 36.6174 97.7373L36.9281 97.76C37.0972 97.773 37.2647 97.7827 37.4321 97.7892C37.5352 97.7892 37.6382 97.7973 37.7429 97.8006C37.8475 97.8038 37.9039 97.8006 37.9876 97.8006H38.2919C38.4304 97.8006 38.5689 97.8006 38.7057 97.8006H38.8828C39.0213 97.8006 39.1598 97.8006 39.2966 97.7876H39.3047C39.4013 97.7876 39.4963 97.7876 39.5929 97.7762C39.6202 97.7779 39.6477 97.7779 39.675 97.7762C39.7555 97.7762 39.836 97.7763 39.9133 97.7665C39.9315 97.765 39.9498 97.765 39.9681 97.7665C40.1468 97.7552 40.3271 97.7406 40.5091 97.7243C40.691 97.7081 40.8633 97.6886 41.0452 97.6692L41.4107 97.6237C42.9043 97.413 44.3812 97.0964 45.8305 96.6762C49.0878 95.7611 52.271 94.481 55.5267 93.5448C59.7324 92.336 64.3824 91.7406 68.4464 93.2122V78.011H33.5469ZM68.448 29.883V0.00322326C64.6273 -0.0391354 60.817 0.410694 57.1095 1.34178C48.2715 3.5792 40.3352 8.43207 33.5469 14.63V29.8814H35.3035V30.5742H33.5469V54.1783H68.448V30.5742H42.4895V29.8798L68.448 29.883ZM113.287 19.7895C111.1 19.7116 108.927 19.0156 106.959 17.9366C103.201 15.8777 100.196 12.6944 96.841 10.0108C89.8691 4.41803 81.2227 1.04162 72.3525 0.204412V29.883H122.171L122.295 29.7516L113.287 19.7895ZM117.826 18.9783L122.638 24.3017V17.5781C121.019 17.7841 119.608 18.2628 117.826 18.9718V18.9783ZM122.638 102.073V78.011H112.375C112.35 77.9088 112.321 77.805 112.289 77.7012C112.319 77.805 112.346 77.9088 112.374 78.011H72.3525V95.4107C72.7325 95.6946 73.1077 95.9948 73.4796 96.2965C73.8811 96.6275 74.2799 96.9623 74.676 97.3009L75.0753 97.6335C75.2669 97.7957 75.4617 97.958 75.6549 98.1121C76.0424 98.4269 76.4326 98.7384 76.8255 99.0467C77.0219 99.2024 77.2194 99.3555 77.418 99.5058C80.5629 101.928 83.8801 104.114 87.3428 106.046C88.1189 106.483 88.903 106.903 89.692 107.313C90.2169 107.586 90.7456 107.853 91.278 108.115C92.0766 108.507 92.8817 108.886 93.6932 109.251C101.175 112.635 109.086 114.956 117.201 116.149C119.002 116.417 120.811 116.627 122.629 116.782V102.069H122.79L122.638 102.073ZM72.3525 30.5742V54.1783H122.638V30.5742H72.3525ZM72.3525 54.8694V77.3166H122.638V54.8727L72.3525 54.8694ZM126.541 17.5456V25.0578L132.682 18.2644C130.647 17.9258 128.6 17.6862 126.541 17.5456ZM126.541 54.8727V77.3166H175.449V54.8727H126.541ZM175.277 103.852L175.449 78.011H126.541V117.043C129.692 117.175 132.847 117.137 135.993 116.928H136.048C137.55 116.831 139.046 116.692 140.535 116.513H140.569C148.514 115.581 156.283 113.49 163.631 110.305L175.277 103.852ZM184.884 58.559C184.699 58.1263 184.508 57.6937 184.313 57.261C183.949 56.4497 183.566 55.6612 183.17 54.8743H179.354V77.3166H189C188.992 70.9597 187.394 64.4697 184.884 58.559V58.559ZM179.354 78.011V100.239C182.07 97.6156 184.367 94.6124 186.019 91.1792C188.008 87.0435 188.918 82.5686 188.993 78.0094L179.354 78.011ZM179.354 48.3324V54.1734H182.812C181.764 52.1655 180.609 50.2157 179.354 48.3324V48.3324ZM146.185 21.9507C145.931 21.8517 145.674 21.7527 145.418 21.6586C142.719 20.6534 139.961 19.8178 137.159 19.1568L127.759 29.5504L127.575 29.75L127.696 29.8814H161.151C156.491 26.6504 151.467 23.9882 146.185 21.9507V21.9507ZM162.133 30.5742H127.227L126.541 31.2054V54.1783H132.555H175.449V43.048C171.57 38.3215 167.094 34.1279 162.133 30.5742V30.5742Z" fill="#06D6A0"/>
<path opacity="0.1" d="M29.6445 42.4814V54.178H13.3564C13.3564 54.1098 13.3661 54.0401 13.3725 53.9719C13.387 53.7853 13.4015 53.6004 13.4176 53.4138C13.4337 53.1964 13.4547 52.979 13.4756 52.7648C13.4965 52.5506 13.5175 52.291 13.5432 52.0558C13.569 51.8205 13.5899 51.582 13.6157 51.3467C13.6414 51.1115 13.6672 50.8762 13.6962 50.6426C13.7252 50.4089 13.7509 50.1721 13.7831 49.9384C13.8073 49.7453 13.8314 49.5506 13.8588 49.3559C13.8958 49.0817 13.9345 48.8075 13.9747 48.535C13.9747 48.4928 13.9876 48.4522 13.9941 48.4117C14.2883 46.4164 14.6882 44.4385 15.192 42.4863L29.6445 42.4814Z" fill="#06D6A0"/>
<path opacity="0.1" d="M13.3039 54.8726H29.6435V77.3165H14.4987C14.46 77.5485 14.4214 77.7789 14.3779 78.0109H29.6435V96.1082C29.6178 96.1082 29.592 96.0887 29.5678 96.079C29.1385 95.907 28.7091 95.7247 28.2797 95.5322C28.188 95.49 28.0978 95.4462 28.0044 95.4057C27.575 95.2012 27.1457 94.9849 26.7163 94.7567C26.5666 94.6772 26.4168 94.5944 26.2703 94.51C23.8866 93.1697 21.7202 91.4703 19.8459 89.4706C19.7895 89.417 19.738 89.3586 19.6849 89.3083C19.424 89.0228 19.168 88.734 18.9201 88.4387C18.8267 88.33 18.7365 88.2196 18.6447 88.1142C18.3517 87.754 18.0683 87.3808 17.7946 87.006C17.7527 86.9492 17.7141 86.8941 17.6738 86.8438C16.5525 85.2802 15.6227 83.586 14.9044 81.7978C14.8819 81.7443 14.8609 81.6859 14.84 81.6356C14.6178 81.0677 14.4165 80.4917 14.2427 79.9044C14.1686 79.6594 14.0961 79.4176 14.0349 79.1629C14.0124 79.0899 13.9947 79.0152 13.9754 78.9422C13.0705 75.3484 12.9658 71.6134 12.9658 67.8963C12.9658 67.4636 12.9658 67.031 12.9658 66.5983C12.9787 65.0807 12.9964 63.5648 13.019 62.0505C13.0275 61.6611 13.0356 61.27 13.0431 60.8774C13.0656 59.8834 13.0979 58.8871 13.1397 57.8888C13.1494 57.6129 13.1623 57.3355 13.1767 57.0613C13.1832 56.9023 13.1912 56.7433 13.2009 56.5843C13.2299 56.0099 13.2642 55.4393 13.3039 54.8726Z" fill="#06D6A0"/>
<path opacity="0.1" d="M45.8328 33.9553V54.1781H33.5459V33.9553H35.2977V27.1084H42.4885V33.9553H45.8328Z" fill="#06D6A0"/>
<path opacity="0.1" d="M45.8312 54.8711H33.5459V77.315H45.8312V54.8711Z" fill="#06D6A0"/>
<path opacity="0.1" d="M33.5469 78.0112H45.8321V96.6699C44.383 97.0903 42.906 97.4064 41.4123 97.6158C41.29 97.6337 41.1692 97.6483 41.0468 97.6612C40.8665 97.6823 40.6878 97.7018 40.5091 97.718L39.9697 97.7618H39.9149L39.6766 97.7748H39.5945C39.4979 97.7748 39.4029 97.7862 39.3063 97.7878H39.2982C39.1598 97.7878 39.0229 97.7975 38.8844 97.8008H38.7073C38.5705 97.8008 38.4336 97.8008 38.2935 97.8008H37.9908H37.7445C37.6398 97.8008 37.5368 97.8008 37.4321 97.7878C37.2668 97.7813 37.0994 97.7716 36.9298 97.7586L36.619 97.7359C36.4902 97.7261 36.3614 97.7131 36.2342 97.7002C35.9637 97.6764 35.6953 97.6456 35.4291 97.6077L35.1071 97.5623L34.9461 97.5395C34.6772 97.499 34.4099 97.4536 34.141 97.4016C33.9414 97.3659 33.7449 97.3254 33.5469 97.2832V78.0112Z" fill="#06D6A0"/>
<path opacity="0.1" d="M122.637 31.5674H112.506V54.1768H122.637V31.5674Z" fill="#06D6A0"/>
<path opacity="0.1" d="M122.638 54.8711V77.3166H72.3525V67.6352H99.137V73.3464H112.506V54.8711H122.638Z" fill="#06D6A0"/>
<path opacity="0.1" d="M122.798 102.078C122.745 102.078 122.691 102.078 122.637 102.068V116.792C120.822 116.642 119.013 116.431 117.211 116.161C109.093 114.968 101.178 112.648 93.6931 109.265C91.5323 108.283 89.4156 107.213 87.3428 106.054C83.8812 104.121 80.5646 101.935 77.4196 99.514C76.6274 98.9039 75.847 98.2803 75.0785 97.6432C74.5455 97.1987 74.0174 96.7444 73.4796 96.3047C73.1093 96.0013 72.7341 95.7011 72.3525 95.4155V78.0111H112.374C112.345 77.9072 112.319 77.805 112.29 77.7012C112.321 77.805 112.35 77.9072 112.375 78.0111H122.638V102.066C122.691 102.068 122.745 102.073 122.798 102.078Z" fill="#06D6A0"/>
<path opacity="0.1" d="M149.06 29.8831H142.459V27.8161H145.417V21.6587C145.673 21.7539 145.929 21.8512 146.183 21.9507V27.8161H149.059L149.06 29.8831Z" fill="#06D6A0"/>
<path opacity="0.1" d="M164.967 54.1782H132.555C132.558 54.179 132.561 54.179 132.564 54.1782H132.55H126.541V31.5688H128.245V48.2805H136.028V38.3833H142.46V30.5742H149.062V38.3881H155.491V48.2853H164.968L164.967 54.1782Z" fill="#06D6A0"/>
<path opacity="0.1" d="M126.541 54.8726V77.3165H164.968V54.8726H126.541ZM175.394 103.734L175.449 85.9676H164.968V78.0174H126.541V117.043C129.691 117.175 132.846 117.137 135.992 116.928H136.047C137.55 116.831 139.046 116.692 140.535 116.513H140.568C148.514 115.581 156.282 113.49 163.63 110.305" fill="#06D6A0"/>
<path opacity="0.1" d="M180.03 78.0112H188.993C188.916 82.5688 188.008 87.0453 186.019 91.1794C184.367 94.6142 182.07 97.6174 179.354 100.241V85.9631H180.03V78.0112Z" fill="#06D6A0"/>
<path opacity="0.1" d="M188.999 77.3167H180.029V58.5591H184.884C187.394 64.4698 188.991 70.9598 188.999 77.3167Z" fill="#06D6A0"/>
<path opacity="0.1" d="M122.639 37.8525H117.211V44.9412H122.639V37.8525Z" fill="#06D6A0"/>
<path opacity="0.1" d="M122.639 52.5459H117.211V54.1781H122.639V52.5459Z" fill="#06D6A0"/>
<path opacity="0.1" d="M122.639 54.8711H117.211V59.6331H122.639V54.8711Z" fill="#06D6A0"/>
<path opacity="0.1" d="M122.639 67.2393H117.211V74.3279H122.639V67.2393Z" fill="#06D6A0"/>
<path opacity="0.1" d="M122.639 81.9326H117.211V89.0213H122.639V81.9326Z" fill="#06D6A0"/>
<path opacity="0.1" d="M122.639 102.066C122.692 102.066 122.745 102.066 122.8 102.078C122.747 102.078 122.693 102.078 122.639 102.068V103.715H117.211V96.626H122.639V102.066Z" fill="#06D6A0"/>
<path opacity="0.1" d="M122.639 111.317V116.792C120.822 116.641 119.013 116.431 117.211 116.161V111.317H122.639Z" fill="#06D6A0"/>
<path opacity="0.1" d="M95.614 76.7959H72.3525V77.3167H95.614V76.7959Z" fill="#06D6A0"/>
<path opacity="0.1" d="M95.614 78.0093H72.3525V80.005H95.614V78.0093Z" fill="#06D6A0"/>
<path opacity="0.1" d="M95.614 86.5469H72.3525V89.7562H95.614V86.5469Z" fill="#06D6A0"/>
<path opacity="0.1" d="M95.6139 96.2983V99.5076H77.4195C76.6273 98.8997 75.8469 98.2756 75.0783 97.6353C74.5438 97.1923 74.0157 96.738 73.4795 96.2983H95.6139Z" fill="#06D6A0"/>
<path opacity="0.1" d="M95.614 106.048V109.265H93.6931C91.5323 108.283 89.4155 107.213 87.3428 106.054L95.614 106.048Z" fill="#06D6A0"/>
<path opacity="0.1" d="M140.572 57.0469H135.993V61.6612H140.572V57.0469Z" fill="#06D6A0"/>
<path opacity="0.1" d="M41.4239 35.5474H36.8447V40.1617H41.4239V35.5474Z" fill="#06D6A0"/>
<path opacity="0.1" d="M41.4239 46.2656H36.8447V50.88H41.4239V46.2656Z" fill="#06D6A0"/>
<path opacity="0.1" d="M41.4239 56.9834H36.8447V61.5978H41.4239V56.9834Z" fill="#06D6A0"/>
<path opacity="0.1" d="M41.4239 67.7002H36.8447V72.3146H41.4239V67.7002Z" fill="#06D6A0"/>
<path opacity="0.1" d="M41.4239 78.4185H36.8447V83.0329H41.4239V78.4185Z" fill="#06D6A0"/>
<path opacity="0.1" d="M41.4239 89.1367H36.8447V93.7511H41.4239V89.1367Z" fill="#06D6A0"/>
<path opacity="0.1" d="M158.054 57.0469H153.475V61.6612H158.054V57.0469Z" fill="#06D6A0"/>
<path opacity="0.1" d="M140.572 68.4287H135.993V73.0431H140.572V68.4287Z" fill="#06D6A0"/>
<path opacity="0.1" d="M158.054 68.4287H153.475V73.0431H158.054V68.4287Z" fill="#06D6A0"/>
<path opacity="0.1" d="M140.572 79.8086H135.993V84.423H140.572V79.8086Z" fill="#06D6A0"/>
<path opacity="0.1" d="M158.054 79.8086H153.475V84.423H158.054V79.8086Z" fill="#06D6A0"/>
<path opacity="0.1" d="M140.572 91.1904H135.993V95.8048H140.572V91.1904Z" fill="#06D6A0"/>
<path opacity="0.1" d="M158.054 91.1904H153.475V95.8048H158.054V91.1904Z" fill="#06D6A0"/>
<path opacity="0.1" d="M140.572 102.572H135.993V107.187H140.572V102.572Z" fill="#06D6A0"/>
<path opacity="0.1" d="M158.054 102.572H153.475V107.187H158.054V102.572Z" fill="#06D6A0"/>
<path opacity="0.1" d="M135.993 116.928V113.953H140.571V116.505L135.993 116.928Z" fill="#06D6A0"/>
<path opacity="0.1" d="M13.9746 48.4072V51.047H29.6444V48.4072H13.9746ZM15.5348 50.8815H14.2467V48.5743H15.5348V50.8815ZM17.095 50.8815H15.8069V48.5743H17.095V50.8815ZM18.652 50.8815H17.3639V48.5743H18.652V50.8815ZM20.2122 50.8815H18.9241V48.5743H20.2122V50.8815ZM21.7708 50.8815H20.4827V48.5743H21.7708V50.8815ZM23.3311 50.8815H22.0429V48.5743H23.3311V50.8815ZM24.8913 50.8815H23.6032V48.5743H24.8913V50.8815ZM26.4499 50.8815H25.1618V48.5743H26.4499V50.8815ZM28.0085 50.8815H26.7204V48.5743H28.0085V50.8815ZM29.5687 50.8815H28.2806V48.5743H29.5687V50.8815Z" fill="#06D6A0"/>
<path opacity="0.1" d="M13.9746 56.0913V58.7311H29.6444V56.0913H13.9746ZM15.5348 58.5656H14.2467V56.2584H15.5348V58.5656ZM17.095 58.5656H15.8069V56.2584H17.095V58.5656ZM18.652 58.5656H17.3639V56.2584H18.652V58.5656ZM20.2122 58.5656H18.9241V56.2584H20.2122V58.5656ZM21.7708 58.5656H20.4827V56.2584H21.7708V58.5656ZM23.3311 58.5656H22.0429V56.2584H23.3311V58.5656ZM24.8913 58.5656H23.6032V56.2584H24.8913V58.5656ZM26.4499 58.5656H25.1618V56.2584H26.4499V58.5656ZM28.0085 58.5656H26.7204V56.2584H28.0085V58.5656ZM29.5687 58.5656H28.2806V56.2584H29.5687V58.5656Z" fill="#06D6A0"/>
<path opacity="0.1" d="M13.9746 63.7769V66.415H29.6444V63.7769H13.9746ZM15.5348 66.2479H14.2467V63.9407H15.5348V66.2479ZM17.095 66.2479H15.8069V63.9407H17.095V66.2479ZM18.652 66.2479H17.3639V63.9407H18.652V66.2479ZM20.2122 66.2479H18.9241V63.9407H20.2122V66.2479ZM21.7708 66.2479H20.4827V63.9407H21.7708V66.2479ZM23.3311 66.2479H22.0429V63.9407H23.3311V66.2479ZM24.8913 66.2479H23.6032V63.9407H24.8913V66.2479ZM26.4499 66.2479H25.1618V63.9407H26.4499V66.2479ZM28.0085 66.2479H26.7204V63.9407H28.0085V66.2479ZM29.5687 66.2479H28.2806V63.9407H29.5687V66.2479Z" fill="#06D6A0"/>
<path opacity="0.1" d="M13.9746 71.4609V74.0991H29.6444V71.4609H13.9746ZM15.5348 73.9336H14.2467V71.6232H15.5348V73.9336ZM17.095 73.9336H15.8069V71.6232H17.095V73.9336ZM18.652 73.9336H17.3639V71.6232H18.652V73.9336ZM20.2122 73.9336H18.9241V71.6232H20.2122V73.9336ZM21.7708 73.9336H20.4827V71.6232H21.7708V73.9336ZM23.3311 73.9336H22.0429V71.6232H23.3311V73.9336ZM24.8913 73.9336H23.6032V71.6232H24.8913V73.9336ZM26.4499 73.9336H25.1618V71.6232H26.4499V73.9336ZM28.0085 73.9336H26.7204V71.6232H28.0085V73.9336ZM29.5687 73.9336H28.2806V71.6232H29.5687V73.9336Z" fill="#06D6A0"/>
<path opacity="0.1" d="M14.0498 79.1421C14.111 79.392 14.1834 79.6386 14.2575 79.8836V79.3092H15.5456V81.6148H14.8549C14.8742 81.6699 14.8951 81.7267 14.9177 81.777H29.6503V79.1421H14.0498ZM17.109 81.6148H15.8209V79.3092H17.109V81.6148ZM18.666 81.6148H17.3779V79.3092H18.666V81.6148ZM20.2263 81.6148H18.9381V79.3092H20.2263V81.6148ZM21.7849 81.6148H20.4968V79.3092H21.7849V81.6148ZM23.3451 81.6148H22.057V79.3092H23.3451V81.6148ZM24.9053 81.6148H23.6172V79.3092H24.9053V81.6148ZM26.4639 81.6148H25.1758V79.3092H26.4639V81.6148ZM28.0225 81.6148H26.7344V79.3092H28.0225V81.6148ZM29.5827 81.6148H28.2946V79.3092H29.5827V81.6148Z" fill="#06D6A0"/>
<path opacity="0.1" d="M17.6797 86.8262C17.7216 86.8781 17.7602 86.9365 17.8004 86.9884H18.6522V88.0966L18.9275 88.4211V86.9819H20.2156V89.3086H19.6859C19.7374 89.3621 19.7873 89.4189 19.8469 89.4708H29.6413V86.8262H17.6797ZM21.7791 89.3086H20.491V86.9917H21.7791V89.3086ZM23.3393 89.3086H22.0512V86.9917H23.3393V89.3086ZM24.8995 89.3086H23.6114V86.9917H24.8995V89.3086ZM26.4581 89.3086H25.17V86.9917H26.4581V89.3086ZM28.0167 89.3086H26.7286V86.9917H28.0167V89.3086ZM29.5769 89.3086H28.2888V86.9917H29.5769V89.3086Z" fill="#06D6A0"/>
<path opacity="0.1" d="M26.2754 94.5103C26.4235 94.5946 26.5733 94.6725 26.723 94.7553V94.6741H28.0111V95.4059C28.1045 95.4464 28.193 95.4902 28.2848 95.5324V94.6741H29.5729V96.0792C29.5974 96.0903 29.6227 96.0996 29.6486 96.1068V94.5103H26.2754Z" fill="#06D6A0"/>
<path opacity="0.1" d="M122.637 102.066H122.798H122.637ZM112.289 77.7012C112.319 77.8051 112.347 77.9089 112.374 78.0111C112.35 77.9089 112.321 77.8051 112.289 77.7012ZM35.3037 29.8831V30.5743H42.4961V29.8799L35.3037 29.8831ZM122.639 102.066H122.8H122.639ZM112.289 77.7012C112.319 77.8051 112.347 77.9089 112.374 78.0111C112.35 77.9089 112.321 77.8051 112.289 77.7012ZM122.637 102.066H122.798H122.637ZM112.289 77.7012C112.319 77.8051 112.347 77.9089 112.374 78.0111C112.35 77.9089 112.321 77.8051 112.289 77.7012Z" fill="#06D6A0"/>
<path opacity="0.1" d="M142.599 140C151.264 140 158.288 138.863 158.288 137.461C158.288 136.058 151.264 134.921 142.599 134.921C133.934 134.921 126.91 136.058 126.91 137.461C126.91 138.863 133.934 140 142.599 140Z" fill="#06D6A0"/>
<path opacity="0.1" d="M71.8405 137.461C80.5053 137.461 87.5295 136.324 87.5295 134.922C87.5295 133.519 80.5053 132.382 71.8405 132.382C63.1756 132.382 56.1514 133.519 56.1514 134.922C56.1514 136.324 63.1756 137.461 71.8405 137.461Z" fill="#06D6A0"/>
<path d="M89.9027 67.7796C89.8989 67.7635 89.8905 67.7488 89.8786 67.7374C89.6387 67.4989 86.5794 63.1392 86.5794 63.1392C86.5794 63.1392 86.4184 62.6525 86.1576 62.0197C86.2412 61.9106 86.304 61.7868 86.3427 61.6547C86.3568 61.5987 86.367 61.5417 86.3733 61.4843C86.3733 61.4665 86.3862 61.4518 86.391 61.434C86.4469 61.2139 86.4414 60.9826 86.3749 60.7655C86.357 60.8212 86.335 60.8755 86.3089 60.9278C86.2483 60.7388 86.1674 60.5571 86.0674 60.3859C85.6617 59.6817 85.082 59.0879 84.6553 58.4016C84.0092 57.3352 83.7524 56.0752 83.9291 54.8386C83.9291 54.9018 83.9291 54.9667 83.9291 55.03C83.9453 54.7848 83.9776 54.5409 84.0258 54.2999C84.093 54.0256 84.183 53.7575 84.2947 53.4984C84.6779 52.6141 85.2978 51.8434 85.6745 50.9559C85.801 50.6566 85.897 50.3451 85.9611 50.0263C86.0939 49.4937 86.1423 48.9434 86.1044 48.3956C86.1044 48.5254 86.0835 48.6553 86.0642 48.7834C86.0235 47.4665 85.4957 46.2124 84.5845 45.2675C83.269 43.9354 81.3803 43.4178 79.5738 43.1453C78.8146 43.056 78.0896 42.7772 77.4645 42.334C76.7705 41.8813 75.8737 41.7726 75.0622 41.8716C74.1295 41.9732 73.2628 42.405 72.6164 43.0901C71.7582 44.0409 71.3863 45.3875 70.3848 46.1891C69.7777 46.6758 69.0081 46.903 68.3013 47.2339C67.5944 47.5649 66.9262 48.0452 66.6992 48.7558C66.6992 48.7558 66.6992 48.7461 66.6992 48.7412V48.7818L66.6895 48.8078C66.4544 49.6482 66.9085 50.5033 67.1452 51.3421C67.3915 52.2101 67.4076 53.1268 67.4205 54.0241C67.4382 55.1209 67.4543 56.2193 67.4366 57.3177C67.4286 57.7493 67.4141 58.1858 67.3819 58.6157C67.0008 58.7318 66.6306 58.8817 66.2757 59.0635C65.915 59.3004 64.5658 60.7688 64.5658 60.7688L61.9268 70.9288L61.9622 70.9694L61.9268 71.1073L62.0604 71.0765C62.4339 71.4821 63.5498 72.6373 64.7541 73.3577L64.8668 75.3501C64.8668 75.3501 65.0021 77.349 66.8264 78.1749C66.8682 78.8677 66.9987 81.6811 66.3949 82.7957C65.9768 83.6101 65.7801 84.5214 65.8249 85.4372C65.8249 85.4372 66.0358 87.1278 65.7959 88.0169C65.6557 88.6111 65.6453 89.2289 65.7653 89.8276V89.8276C65.7653 89.8276 65.7653 90.0239 65.7653 90.3614C65.7653 92.1608 65.7862 97.9271 65.7653 98.5793C65.7347 99.35 65.7653 110.748 65.7653 110.748C65.7653 110.748 65.6156 116.445 65.1357 117.988C64.6559 119.531 64.7767 124.64 64.7767 124.64C64.7767 124.64 64.4756 130.726 65.5399 131.926C65.5399 131.98 65.5302 132.035 65.5286 132.089C65.5286 132.113 65.5286 132.141 65.5286 132.165C65.5157 132.627 65.6043 133.119 65.9988 133.27C66.8038 133.581 67.8681 134.516 68.0694 134.784C68.2707 135.051 69.4412 135.718 70.9676 135.54C71.9238 135.431 72.8861 135.387 73.8481 135.407V135.407C73.8481 135.407 74.4503 135.296 74.2555 134.542C74.1299 134.071 73.6598 133.348 73.3249 132.872C73.386 132.889 73.4456 132.902 73.502 132.913L73.5599 132.924H73.605C73.6297 132.926 73.6544 132.926 73.6791 132.924H73.7113C73.7413 132.927 73.7714 132.927 73.8014 132.924V132.924C74.2056 132.885 75.7127 133.593 75.9816 134.06C76.2505 134.527 77.1988 134.883 77.9137 134.972C78.3388 135.024 79.4111 134.936 80.3112 134.819C80.7645 134.772 81.2134 134.69 81.654 134.573C81.8666 134.492 81.9117 134.232 81.8505 133.94C81.7782 133.569 81.5815 133.234 81.2934 132.992C81.0325 132.806 80.688 132.314 80.4336 131.912L80.3659 131.803C80.8152 131.372 81.6267 129.96 81.873 129.668C82.1725 129.313 81.39 116.318 81.39 116.318V109.804L82.5895 103.638L83.4284 100.375L84.1481 95.4496C84.1481 95.4496 85.4072 89.6962 85.0192 89.1316C85.0192 89.1202 84.6972 83.1965 84.3591 81.7736C84.2125 81.1392 84.2496 79.7114 84.3365 78.3225C84.4274 78.2316 84.4907 78.1165 84.5192 77.9907C84.5477 77.8649 84.5402 77.7335 84.4975 77.6119C84.4735 77.5287 84.4422 77.4478 84.4041 77.3701C84.4041 77.3458 84.4041 77.3198 84.4041 77.2955C85.0997 76.973 85.8265 76.724 86.573 76.5524C87.7725 76.3155 87.473 75.6925 87.473 75.6925C87.473 75.6925 87.7435 75.1587 87.9223 74.8325C88.101 74.5064 87.9529 71.6281 87.9223 71.3912C87.911 71.2955 87.8369 70.7666 87.7516 70.1663C88.1364 69.8904 88.6372 69.5481 89.183 69.2236C90.2215 68.6038 89.9881 67.9499 89.9027 67.7796ZM74.2523 108.915C74.2523 108.915 73.3522 111.228 73.7129 111.821C74.0736 112.413 73.6533 114.611 73.6533 114.611L73.3522 117.874C73.3522 117.874 72.5133 123.926 72.8128 125.349C73.0479 126.465 73.1349 129.799 73.1622 131.19C73.1416 131.198 73.1217 131.208 73.1027 131.219L73.0624 131.24C73.2009 130.693 73.1429 129.587 72.4554 127.361L72.3974 118.166C72.3974 118.166 72.2912 107.545 73.1236 106.358C73.956 105.17 74.2507 103.153 74.2507 103.153C74.2507 103.153 74.0703 106.062 73.9528 106.833C73.8353 107.604 74.2523 108.915 74.2523 108.915ZM72.5761 131.769C72.5681 131.789 72.5584 131.808 72.552 131.826L72.5069 131.767C72.5299 131.77 72.5531 131.77 72.5761 131.769V131.769Z" fill="url(#paint0_linear)"/>
<path d="M81.7557 135.413C81.2904 135.593 78.7673 135.9 78.0621 135.814C77.3568 135.728 76.423 135.368 76.1573 134.897C75.8916 134.427 74.4023 133.716 74.0029 133.762C73.8393 133.767 73.6759 133.744 73.5199 133.693C73.2444 133.609 72.9754 133.505 72.7148 133.382C72.6785 133.177 72.6845 132.968 72.7326 132.765C72.7418 132.725 72.7537 132.685 72.768 132.645C72.862 132.379 73.0564 132.161 73.309 132.039L73.3669 132.011C73.4786 131.962 73.5952 131.926 73.7147 131.904C74.9803 131.659 80.2019 132.15 80.2019 132.15C80.2019 132.15 80.3484 132.415 80.5497 132.743C80.8009 133.148 81.1422 133.643 81.3998 133.83C81.6852 134.076 81.8789 134.412 81.9489 134.784C82.0101 135.071 81.965 135.334 81.7557 135.413Z" fill="white"/>
<path opacity="0.1" d="M81.7556 135.413C81.2903 135.593 78.7688 135.9 78.0636 135.814C77.3584 135.728 76.4245 135.366 76.1572 134.897C75.8899 134.428 74.4038 133.716 74.0045 133.762C73.6052 133.807 72.7164 133.382 72.7164 133.382C72.7164 133.382 72.5779 132.733 72.9804 132.29L73.7855 132.866C73.7855 132.866 75.9398 133.539 76.3391 134.164C76.7385 134.789 77.4662 135.138 78.5177 135.201C79.3034 135.253 81.1083 134.944 81.9537 134.79C82.01 135.071 81.9665 135.334 81.7556 135.413Z" fill="black"/>
<path d="M74.0479 136.241C73.0982 136.222 72.1483 136.267 71.2044 136.375C69.6925 136.554 68.5381 135.889 68.3368 135.614C68.1355 135.34 67.0938 134.414 66.2936 134.089C65.9023 133.937 65.8105 133.44 65.8282 132.976C65.8282 132.952 65.8282 132.924 65.8282 132.9C65.8431 132.606 65.8862 132.314 65.957 132.029L72.222 131.894L72.7647 132.636L72.8484 132.749L73.1785 133.202C73.1785 133.202 73.3282 133.4 73.5246 133.689C73.8563 134.175 74.32 134.894 74.444 135.369C74.6421 136.13 74.0479 136.241 74.0479 136.241Z" fill="white"/>
<path opacity="0.1" d="M74.0479 136.241C73.0982 136.222 72.1483 136.267 71.2044 136.375C69.6941 136.554 68.5381 135.889 68.3384 135.614C68.1388 135.34 67.0938 134.406 66.2936 134.093C65.9023 133.94 65.8105 133.444 65.8282 132.979C66.2758 133.085 67.2162 133.354 67.5849 133.823C68.0679 134.449 68.9326 135.502 70.1611 135.569C71.1529 135.623 73.5681 135.444 74.4537 135.373C74.6437 136.13 74.0479 136.241 74.0479 136.241Z" fill="black"/>
<path opacity="0.1" d="M73.3026 132.032C73.2301 132.574 73.0063 132.72 72.8453 132.752C72.806 132.76 72.7655 132.76 72.7262 132.752C72.705 132.751 72.684 132.747 72.6634 132.742C72.6634 132.742 67.0376 133.995 65.9008 132.981C65.872 132.955 65.845 132.927 65.8203 132.897C65.8351 132.603 65.8783 132.311 65.9491 132.025L72.2141 131.891L72.7567 132.632C72.8507 132.366 73.0451 132.148 73.2977 132.025L73.3026 132.032Z" fill="black"/>
<path opacity="0.1" d="M80.548 132.736C80.4224 132.876 80.3177 132.955 80.2517 132.928C79.9554 132.808 77.5274 132.391 76.7561 132.749C75.9849 133.108 73.3748 132.808 73.3748 132.808C73.3748 132.808 73.3748 132.496 73.3604 131.996C73.472 131.948 73.5886 131.912 73.7081 131.889C74.9737 131.644 80.1953 132.136 80.1953 132.136C80.1953 132.136 80.3483 132.408 80.548 132.736Z" fill="black"/>
<path d="M84.2224 96.0352L83.5108 100.99L82.6832 104.274L81.4981 110.482V117.053C81.4981 117.053 82.2678 130.127 81.9715 130.484C81.6752 130.841 80.5498 132.874 80.2535 132.755C79.9572 132.637 77.5292 132.218 76.7579 132.575C75.9867 132.932 73.3766 132.635 73.3766 132.635C73.3766 132.635 73.3171 127.562 73.0208 126.129C72.7245 124.696 73.5538 118.607 73.5538 118.607L73.85 115.325C73.85 115.325 74.2654 113.115 73.9096 112.518C73.5538 111.921 74.4425 109.598 74.4425 109.598C74.4425 109.598 74.0287 108.282 74.1479 107.506C74.267 106.731 74.4425 103.805 74.4425 103.805C74.4425 103.805 74.1479 105.837 73.3251 107.029C72.5023 108.222 72.607 118.909 72.607 118.909L72.665 128.157C74.1479 133.054 72.665 132.575 72.665 132.575C72.665 132.575 67.0392 133.83 65.9024 132.814C64.7657 131.798 65.0909 125.406 65.0909 125.406C65.0909 125.406 64.9734 120.272 65.4468 118.721C65.9201 117.17 66.0699 111.437 66.0699 111.437C66.0699 111.437 66.0393 99.9746 66.0699 99.2007C66.0924 98.5517 66.0699 92.7415 66.0699 90.9259C66.0699 90.5885 66.0699 90.3889 66.0699 90.3889L66.7494 88.6885L74.8 87.6729H78.6514C78.6514 87.6729 84.4479 89.0455 85.0468 89.6377C85.0596 89.6475 85.0705 89.6596 85.079 89.6734C85.4671 90.2461 84.2224 96.0352 84.2224 96.0352Z" fill="#06D6A0"/>
<path opacity="0.1" d="M74.4473 122.063C74.4473 122.063 76.2184 126.361 77.0541 126.66C77.8897 126.959 74.4473 122.063 74.4473 122.063Z" fill="black"/>
<path opacity="0.1" d="M75.1025 128.391C75.1025 128.391 81.0825 128.69 81.023 129.347C80.9634 130.004 75.1025 128.391 75.1025 128.391Z" fill="black"/>
<path opacity="0.1" d="M67.1025 126.673C67.3392 126.898 71.664 127.322 71.3082 127.734C70.9523 128.146 67.4584 128.948 67.4584 128.948L67.1025 126.673Z" fill="black"/>
<path opacity="0.1" d="M66.3916 119.258C66.3916 119.437 67.2804 124.989 67.5187 125.227C67.757 125.466 69.7101 125.704 69.7101 125.704L66.3916 119.258Z" fill="black"/>
<path d="M72.8399 43.3677C71.9914 44.3234 71.6243 45.6782 70.6356 46.4862C70.0351 46.9729 69.2751 47.2049 68.5763 47.5359C67.8775 47.8669 67.1851 48.3715 66.9774 49.1211C66.7456 49.9648 67.1932 50.8263 67.4283 51.67C67.6714 52.5429 67.6859 53.4548 67.7004 54.3682C67.7165 55.4731 67.7342 56.5781 67.7149 57.683C67.6859 59.4044 67.5442 61.2054 66.6377 62.664C69.9111 63.7138 73.3922 63.8566 76.825 63.9912C77.4847 64.0386 78.1473 64.0218 78.8038 63.9409C79.3727 63.8267 79.9353 63.6832 80.4896 63.511C81.5855 63.2188 82.7148 63.0731 83.8484 63.0778C84.3427 63.0778 84.8466 63.1086 85.3232 62.9788C85.7998 62.849 86.2587 62.5164 86.3875 62.0361C86.5018 61.6045 86.3344 61.1454 86.1154 60.7576C85.7161 60.0502 85.1493 59.4596 84.721 58.7619C84.2838 58.025 84.0244 57.1949 83.9637 56.3385C83.903 55.4821 84.0428 54.6232 84.3716 53.8312C84.7516 52.9404 85.3635 52.1649 85.737 51.2725C86.1196 50.3144 86.2214 49.2658 86.0302 48.2511C85.8389 47.2365 85.3628 46.2984 84.6582 45.5484C83.3589 44.2082 81.4943 43.689 79.7103 43.4132C78.9591 43.3237 78.2425 43.0447 77.6268 42.6019C76.9425 42.1476 76.0553 42.0373 75.2535 42.1379C74.3285 42.2423 73.4717 42.6789 72.8399 43.3677Z" fill="#3F3D56"/>
<path opacity="0.1" d="M84.4225 52.895C84.0942 53.6768 83.9535 54.5256 84.0119 55.3725C84.048 54.7669 84.1868 54.172 84.4225 53.6137C84.8009 52.723 85.4127 51.9474 85.7862 51.0551C86.0916 50.3099 86.2201 49.5032 86.1614 48.6992C86.1282 49.2628 86.0014 49.8167 85.7862 50.3379C85.4127 51.2303 84.8009 52.0042 84.4225 52.895Z" fill="black"/>
<path opacity="0.1" d="M67.7498 54.1477C67.7595 54.7837 67.7692 55.4214 67.7708 56.0574C67.7708 55.1812 67.7627 54.3067 67.7498 53.4322C67.737 52.5252 67.7209 51.6069 67.4777 50.7323C67.3167 50.1775 67.0784 49.6144 66.9947 49.0547C66.8514 49.8497 67.2588 50.6561 67.4777 51.4495C67.7209 52.3159 67.737 53.2407 67.7498 54.1477Z" fill="black"/>
<path opacity="0.1" d="M85.379 62.0509C84.896 62.1823 84.4 62.1531 83.9057 62.1498C82.773 62.1426 81.6443 62.2855 80.5486 62.5749C79.9942 62.7464 79.4316 62.8894 78.8628 63.0033C78.2059 63.0855 77.5426 63.1028 76.8824 63.0552C73.5655 62.9238 70.2019 62.7826 67.0252 61.8269C66.9308 62.0391 66.8233 62.245 66.7031 62.4435C69.9765 63.4916 73.4576 63.636 76.8888 63.7707C77.549 63.8184 78.2123 63.801 78.8692 63.7188C79.436 63.606 79.9965 63.4636 80.5486 63.2921C81.642 63.0016 82.7685 62.857 83.8993 62.8621C84.3936 62.8621 84.896 62.8929 85.3726 62.7615C85.8492 62.6301 86.308 62.3007 86.4368 61.8205C86.4911 61.598 86.4856 61.365 86.4207 61.1455C86.2774 61.5998 85.8347 61.9162 85.379 62.0509Z" fill="black"/>
<path d="M80.61 60.1278C80.4908 60.3971 79.9884 62.7238 79.8693 62.9623C79.7501 63.2008 79.0997 67.0185 79.0401 67.2327C78.9805 67.4469 74.7523 66.3371 74.7523 66.3371L72.2067 64.1873L69.5903 61.5637C69.5903 61.5637 69.513 59.1965 71.4403 58.4372C71.5713 58.3853 71.7058 58.343 71.8428 58.3106C74.1807 57.7444 73.9457 50.5811 73.9457 50.5811L78.7438 52.6692C78.7438 52.6692 77.855 56.8487 77.8856 57.6551C77.8937 57.9261 78.1046 58.0948 78.3799 58.197C78.8056 58.3191 79.2488 58.3674 79.6906 58.3398C79.6906 58.3398 80.7291 59.8601 80.61 60.1278Z" fill="#FBBEBE"/>
<path d="M89.1994 67.9776L89.8805 68.1577C89.8805 68.1577 90.3845 68.93 89.1994 69.6487C88.4469 70.1093 87.7246 70.6182 87.037 71.1722L83.535 72.2463L82.8604 70.1128L86.1192 67.6206L89.1994 67.9776Z" fill="#06D6A0"/>
<path opacity="0.1" d="M89.1994 67.9776L89.8805 68.1577C89.8805 68.1577 90.3845 68.93 89.1994 69.6487C88.4469 70.1093 87.7246 70.6182 87.037 71.1722L83.535 72.2463L82.8604 70.1128L86.1192 67.6206L89.1994 67.9776Z" fill="black"/>
<path d="M63.6424 70.0382L62.2803 71.3816C62.2803 71.3816 64.7373 74.2469 66.6276 74.4254C68.5179 74.6038 69.7368 72.2464 69.7368 72.2464L68.1009 69.6504L63.6424 70.0382Z" fill="#06D6A0"/>
<path opacity="0.1" d="M63.6424 70.0382L62.2803 71.3816C62.2803 71.3816 64.7373 74.2469 66.6276 74.4254C68.5179 74.6038 69.7368 72.2464 69.7368 72.2464L68.1009 69.6504L63.6424 70.0382Z" fill="black"/>
<path opacity="0.1" d="M76.5804 55.2619C79.1975 55.2619 81.319 53.1241 81.319 50.4869C81.319 47.8498 79.1975 45.7119 76.5804 45.7119C73.9633 45.7119 71.8418 47.8498 71.8418 50.4869C71.8418 53.1241 73.9633 55.2619 76.5804 55.2619Z" fill="black"/>
<path d="M76.5804 54.9035C79.1975 54.9035 81.319 52.7657 81.319 50.1285C81.319 47.4914 79.1975 45.3535 76.5804 45.3535C73.9633 45.3535 71.8418 47.4914 71.8418 50.1285C71.8418 52.7657 73.9633 54.9035 76.5804 54.9035Z" fill="#FBBEBE"/>
<path opacity="0.1" d="M85.0823 90.2153C84.0034 90.3397 82.9406 90.5796 81.912 90.9308C80.1409 91.5247 66.2616 90.9406 66.0684 90.9308C66.0684 90.5934 66.0684 90.3938 66.0684 90.3938L66.7478 88.6934L74.7985 87.6777H78.6499C78.6499 87.6777 84.4463 89.0504 85.0453 89.6426C85.0695 89.9995 85.0823 90.2153 85.0823 90.2153Z" fill="black"/>
<path opacity="0.1" d="M80.61 60.128C80.4908 60.3974 79.9884 62.724 79.8693 62.9625C79.7501 63.201 79.0997 67.0188 79.0401 67.2329C78.9805 67.4471 74.7523 66.3373 74.7523 66.3373L72.2067 64.1875L69.5903 61.5639C69.5903 61.5639 69.513 59.1967 71.4403 58.4374L76.2256 63.9815L78.3799 58.1973C78.8056 58.3193 79.2488 58.3676 79.6906 58.34C79.6906 58.34 80.7291 59.8603 80.61 60.128Z" fill="black"/>
<path d="M76.2248 64.1601L71.3268 58.4814C71.0401 58.297 70.7124 58.1872 70.3732 58.162C70.034 58.1368 69.6939 58.1969 69.3834 58.337C68.2869 58.8156 66.9247 59.2034 66.5689 59.4419C66.2131 59.6804 64.8799 61.1569 64.8799 61.1569L68.8505 71.6236L67.1019 78.5176C67.1019 78.5176 67.3691 82.04 66.6881 83.3234C66.2733 84.144 66.0791 85.0597 66.1245 85.9794C66.1245 85.9794 66.3322 87.6814 66.0955 88.5754C65.9572 89.1731 65.9468 89.7937 66.0649 90.3958C66.0649 90.3958 80.1358 90.9929 81.9118 90.3958C82.9401 90.0436 84.003 89.8037 85.0821 89.6803C85.0821 89.6803 84.7601 83.7095 84.4381 82.2769C84.1161 80.8442 84.7054 75.3829 84.7054 75.3829L84.3205 69.5322L86.6295 63.529C86.6295 63.529 85.3784 59.6804 84.0742 59.2926C84.0742 59.2926 81.7057 58.7248 81.2017 58.4571C80.6978 58.1893 79.2164 57.9492 79.2164 57.9492L78.4388 58.2121L76.2248 64.1601Z" fill="#06D6A0"/>
<path opacity="0.1" d="M83.0593 69.3343L72.7526 68.6281C72.4917 68.6102 72.2659 68.8088 72.2482 69.0716L71.1416 85.4696C71.1239 85.7324 71.321 85.96 71.5818 85.9778L81.8886 86.6841C82.1494 86.7019 82.3752 86.5033 82.393 86.2405L83.4995 69.8426C83.5172 69.5797 83.3202 69.3522 83.0593 69.3343Z" fill="black"/>
<path d="M83.4138 68.9783L73.1071 68.2721C72.8462 68.2542 72.6204 68.4528 72.6027 68.7157L71.4961 85.1137C71.4784 85.3765 71.6755 85.6041 71.9363 85.6219L82.2431 86.3282C82.5039 86.346 82.7297 86.1474 82.7475 85.8846L83.854 69.4866C83.8717 69.2238 83.6746 68.9962 83.4138 68.9783Z" fill="#3F3D56"/>
<path d="M83.0738 70.2635L73.2715 69.5918L72.2641 84.5199L82.0665 85.1916L83.0738 70.2635Z" fill="white"/>
<path opacity="0.1" d="M82.1946 74.0741L74.1875 73.5093L74.0313 75.7581L82.0384 76.3229L82.1946 74.0741Z" fill="black"/>
<path opacity="0.1" d="M81.9055 83.0104L80.6348 82.9233L80.5557 84.0953L81.8264 84.1824L81.9055 83.0104Z" fill="black"/>
<path opacity="0.1" d="M80.6519 80.182L74.1475 79.7363L74.0684 80.9083L80.5728 81.354L80.6519 80.182Z" fill="black"/>
<path d="M81.8605 69.7053L75.0879 69.2412L74.9663 71.0429L81.739 71.5069L81.8605 69.7053Z" fill="#3F3D56"/>
<path opacity="0.1" d="M81.8605 69.7053L75.0879 69.2412L74.9663 71.0429L81.739 71.5069L81.8605 69.7053Z" fill="black"/>
<path opacity="0.1" d="M76.8174 89.8862C76.8174 89.8862 76.7578 98.7223 74.4473 103.796C74.4473 103.796 77.2328 97.1096 77.2328 96.8419C77.2328 96.5741 78.772 93.7672 78.3599 92.9317C77.9477 92.0961 76.8174 89.8862 76.8174 89.8862Z" fill="black"/>
<path opacity="0.1" d="M76.9437 48.9341C76.8551 48.1521 77.0452 47.3637 77.4798 46.7097C77.4281 47.3652 77.6121 48.0177 77.9982 48.5479C78.3842 49.0781 78.9466 49.4507 79.5827 49.5977C79.5284 49.5503 79.4896 49.4874 79.4715 49.4173C79.4534 49.3472 79.4568 49.2732 79.4812 49.2051C79.8113 49.5815 80.0641 50.0277 80.4376 50.3587C80.8112 50.6897 81.3715 50.8876 81.8111 50.6524C82.4084 50.3279 82.4149 49.4728 82.2603 48.8076C81.9286 47.3909 81.248 46.0813 80.2815 44.9996C80.0403 44.6726 79.7273 44.4064 79.3669 44.2217C79.0065 44.0371 78.6086 43.939 78.2044 43.9352C77.2898 43.8639 76.3399 43.945 75.5203 44.3587C75.0591 44.6123 74.6271 44.9165 74.2322 45.2657L71.978 47.1186C71.7611 47.276 71.5754 47.473 71.4306 47.6994C71.3338 47.8887 71.2758 48.0956 71.2599 48.3079C71.2023 48.9147 71.3137 49.5257 71.5817 50.0722C71.8496 50.6188 72.2634 51.0793 72.7766 51.402C72.7658 50.9223 72.8967 50.4503 73.1527 50.0458C73.4087 49.6414 73.7783 49.3227 74.2145 49.1305C74.2828 49.188 74.3381 49.2597 74.3767 49.3405C74.4153 49.4214 74.4363 49.5096 74.4383 49.5994L74.9133 48.7459C74.9839 48.5906 75.0953 48.4577 75.2353 48.3614C75.5283 48.1992 75.8939 48.3906 76.1434 48.6194C76.393 48.8481 76.6361 49.1337 76.971 49.1694L76.9839 47.899" fill="black"/>
<path d="M76.943 48.7556C76.8542 47.973 77.0443 47.1841 77.4792 46.5296C77.3343 47.8275 78.3052 49.1677 79.5836 49.4176C79.5293 49.3705 79.4905 49.3079 79.4724 49.238C79.4542 49.1682 79.4577 49.0944 79.4822 49.0266C79.8123 49.403 80.0651 49.8476 80.4386 50.1802C80.8122 50.5128 81.3725 50.7091 81.812 50.4722C82.4094 50.1477 82.4158 49.2927 82.2613 48.6291C81.9296 47.2124 81.249 45.9027 80.2824 44.8211C79.9825 44.4527 79.6045 44.1566 79.1763 43.9547C78.8662 43.8391 78.5404 43.7723 78.2102 43.7567C77.2956 43.6853 76.3457 43.7648 75.5261 44.1786C75.0652 44.4333 74.6333 44.738 74.238 45.0872L71.9838 46.94C71.7666 47.0971 71.5808 47.2942 71.4364 47.5209C71.3394 47.7101 71.2814 47.917 71.2657 48.1293C71.2082 48.7359 71.3197 49.3466 71.5876 49.8929C71.8556 50.4392 72.2693 50.8994 72.7824 51.2218C72.772 50.7423 72.9031 50.2704 73.1591 49.866C73.415 49.4617 73.7844 49.143 74.2203 48.9503C74.2884 49.0081 74.3435 49.0798 74.3821 49.1606C74.4207 49.2414 74.4418 49.3296 74.4441 49.4192L74.9175 48.569C74.9877 48.4135 75.0991 48.2804 75.2395 48.1845C75.5325 48.0222 75.898 48.2137 76.1476 48.4425C76.3972 48.6712 76.6403 48.9552 76.9752 48.9925L76.9881 47.7205" fill="#3F3D56"/>
<path d="M79.1882 78.8742C78.7744 78.6633 71.9313 79.739 71.9313 79.739C71.9313 79.739 70.8042 79.4145 68.0799 78.9635C65.3556 78.5124 65.1817 75.8288 65.1817 75.8288L64.8838 70.4568L65.8032 69.6455L69.7415 72.2415C69.7415 72.2415 69.8027 73.5541 69.7415 73.791C69.7029 73.9532 69.5999 74.1463 69.6095 74.2777C69.6125 74.3133 69.6271 74.3469 69.6509 74.3733C69.6748 74.3997 69.7067 74.4174 69.7415 74.4237C70.0088 74.4919 73.6509 75.0857 73.6509 75.0857C73.6509 75.0857 82.0928 74.5032 84.1973 77.3686C84.364 77.5789 84.4902 77.8188 84.5692 78.076C85.0909 80.0343 79.5633 79.0608 79.1882 78.8742Z" fill="#FBBEBE"/>
<path opacity="0.1" d="M84.5731 78.0873C84.251 78.2317 84.0514 78.3356 84.0514 78.3356C84.0514 78.3356 81.0308 78.2463 79.3337 77.6265C77.6366 77.0067 75.5741 77.1171 75.5741 77.1171C75.5741 77.1171 68.5024 75.8905 69.5989 74.2891C69.6019 74.3247 69.6164 74.3583 69.6403 74.3847C69.6642 74.4111 69.696 74.4288 69.7309 74.4351C69.9982 74.5032 73.6403 75.0971 73.6403 75.0971C73.6403 75.0971 82.0822 74.5146 84.1866 77.3799C84.3585 77.5891 84.4897 77.8291 84.5731 78.0873V78.0873Z" fill="black"/>
<path d="M87.5105 68.6348C87.5105 68.6348 87.9259 71.5893 87.9549 71.8294C87.9839 72.0696 88.1336 74.9625 87.9549 75.2918C87.7762 75.6212 87.5105 76.1566 87.5105 76.1566C87.5105 76.1566 87.8068 76.7829 86.6217 77.023C85.4367 77.2632 84.0455 77.9771 84.0455 77.9771C84.0455 77.9771 81.0233 77.8878 79.3359 77.2615C77.6485 76.6353 75.5746 76.7537 75.5746 76.7537C75.5746 76.7537 66.5982 75.201 70.4496 73.3059C74.301 71.4108 77.0254 73.9776 77.0254 73.9776L81.3196 73.7099C81.3196 73.7099 82.92 72.7234 83.3644 72.8143C83.6782 72.8546 83.9969 72.8027 84.2822 72.665L84.3128 69.5304L87.5105 68.6348Z" fill="#FBBEBE"/>
<path opacity="0.1" d="M65.7345 61.3819L64.8747 61.3364L62.2695 71.5581C62.2695 71.5581 65.0824 70.841 66.2949 71.5581C67.5073 72.2753 69.7309 72.4229 69.7309 72.4229L68.9017 64.2748L65.7345 61.3819Z" fill="black"/>
<path d="M65.7345 61.2022L64.8747 61.1567L62.2695 71.3785C62.2695 71.3785 65.0824 70.6613 66.2949 71.3785C67.5073 72.0956 69.7309 72.2433 69.7309 72.2433L68.9017 64.0951L65.7345 61.2022Z" fill="#06D6A0"/>
<path opacity="0.1" d="M85.4386 63.4409L86.6221 63.7103C86.6221 63.7103 89.6443 68.091 89.881 68.336C90.1177 68.581 88.7539 69.4717 88.1919 69.4717C87.63 69.4717 84.8751 69.7962 84.0748 70.5458C83.2746 71.2954 83.6079 67.5231 83.6079 67.4371C83.6079 67.3511 84.6013 64.9709 84.6013 64.9709L85.4386 63.4409Z" fill="black"/>
<path d="M85.4386 63.2627L86.6221 63.5304C86.6221 63.5304 89.6443 67.9193 89.881 68.1578C90.1177 68.3963 88.7539 69.2935 88.1919 69.2935C87.63 69.2935 84.8751 69.618 84.0748 70.3676C83.2746 71.1172 83.6079 67.3449 83.6079 67.2589C83.6079 67.1729 84.6078 64.7846 84.6078 64.7846L85.4386 63.2627Z" fill="#06D6A0"/>
<path opacity="0.1" d="M77.4715 46.5446C77.4645 46.4201 77.4672 46.2954 77.4795 46.1714C77.2344 46.5421 77.0657 46.9587 76.9836 47.3964V47.7728C76.9836 47.7728 76.9836 47.7647 76.9836 47.7598V47.849C76.9836 48.1119 76.9836 48.3764 76.9756 48.6392H76.953V48.7609C76.953 48.7187 76.953 48.6781 76.945 48.636C76.6229 48.584 76.3927 48.3115 76.1528 48.094C75.9129 47.8766 75.5377 47.669 75.2447 47.8361C75.1043 47.932 74.9929 48.065 74.9227 48.2206L74.4444 49.0708C74.4423 48.9813 74.4213 48.8933 74.3827 48.8128C74.3441 48.7322 74.2888 48.6608 74.2206 48.6035C73.7845 48.7958 73.4149 49.1144 73.1589 49.5189C72.9028 49.9233 72.7719 50.3954 72.7828 50.875C72.3429 50.5972 71.9749 50.218 71.7092 49.7685C71.4435 49.3191 71.2877 48.8124 71.2548 48.2904C71.2268 48.8733 71.3536 49.4532 71.6222 49.9703C71.8908 50.4874 72.2915 50.9229 72.7828 51.2319C72.7724 50.7524 72.9034 50.2806 73.1594 49.8762C73.4154 49.4718 73.7847 49.1531 74.2206 48.9605C74.2887 49.0182 74.3439 49.0899 74.3824 49.1707C74.421 49.2515 74.4422 49.3397 74.4444 49.4294L74.9178 48.5792C74.988 48.4236 75.0995 48.2906 75.2398 48.1946C75.5329 48.0324 75.8984 48.2238 76.148 48.4526C76.3975 48.6814 76.6407 48.9653 76.9756 49.0026C76.9756 48.5873 76.9799 48.173 76.9885 47.7598C77.0674 47.3263 77.2317 46.9131 77.4715 46.5446V46.5446Z" fill="black"/>
<path opacity="0.1" d="M76.9274 48.1786C76.9355 48.0682 76.9485 47.9579 76.9647 47.8541L76.9826 47.4062C76.9338 47.6606 76.9153 47.9199 76.9274 48.1786Z" fill="black"/>
<path opacity="0.1" d="M81.812 50.1141C81.3724 50.351 80.8121 50.153 80.4385 49.822C80.065 49.4911 79.8122 49.0449 79.4821 48.6685C79.4577 48.7366 79.4543 48.8105 79.4724 48.8806C79.4905 48.9507 79.5293 49.0136 79.5835 49.0611C79.5513 49.0611 79.5208 49.0449 79.4902 49.0368C79.8122 49.4099 80.0682 49.848 80.4385 50.1725C80.8089 50.497 81.3724 50.7014 81.812 50.4645C82.2515 50.2277 82.3771 49.6728 82.3385 49.1325C82.3095 49.5576 82.1581 49.9259 81.812 50.1141Z" fill="black"/>
<path opacity="0.1" d="M79.4811 49.0336C78.9426 48.8857 78.4619 48.5755 78.1033 48.1446C77.7448 47.7137 77.5255 47.1826 77.4749 46.6226C77.3831 47.8962 78.3363 49.1731 79.5841 49.4181C79.531 49.3716 79.4928 49.3102 79.4744 49.2417C79.4561 49.1732 79.4584 49.1007 79.4811 49.0336V49.0336Z" fill="black"/>
<path d="M156.806 75.5516C156.806 75.5516 156.171 75.4624 156.171 74.5327C156.171 73.603 155.717 71.862 155.717 71.862C155.717 71.862 155.324 68.8329 154.782 68.3526C154.239 67.8723 153.542 65.0525 153.542 65.0525C153.542 65.0525 153.423 63.5224 153.18 63.1931C152.936 62.8637 152.608 62.0573 152.123 60.907C151.639 59.7566 149.623 58.9681 149.623 58.9681C149.623 58.9681 145.969 56.8329 144.934 56.1369C144.839 56.0792 144.751 56.0117 144.67 55.9357C144.49 55.6988 143.704 55.6939 143.704 55.6939C143.622 55.1699 143.543 54.5695 143.517 54.026C143.517 53.9676 143.517 53.9092 143.517 53.8508C144.672 53.1631 145.541 52.0789 145.966 50.7972C145.986 50.7356 146.002 50.6723 146.019 50.609C146.09 50.5871 146.155 50.5502 146.211 50.501C146.266 50.4518 146.311 50.3913 146.341 50.3235C146.433 50.1142 146.436 49.8708 146.552 49.6745C146.688 49.4441 146.945 49.3208 147.148 49.1488C147.66 48.7091 147.792 47.9709 147.768 47.3008C147.752 46.7556 147.665 46.2072 147.699 45.6669C147.699 45.6215 147.699 45.5761 147.708 45.5306C147.718 45.4511 147.729 45.3684 147.744 45.2905C147.823 44.8881 147.995 44.5085 148.092 44.1093C148.188 43.7102 148.198 43.2608 147.972 42.9168C147.642 42.4122 146.955 42.3116 146.351 42.2678C145.667 42.2094 145.063 42.284 144.617 41.7113C144.412 41.4121 144.182 41.132 143.928 40.8741C143.838 40.7897 142.962 40.2494 142.962 40.2153C142.105 39.8138 141.132 39.7383 140.225 40.0028C139.769 40.1358 139.342 40.3533 138.88 40.462C137.888 40.6988 136.745 40.4425 135.901 41.0152C135.431 41.3397 135.149 41.8573 134.885 42.3587C134.671 42.7718 134.453 43.1856 134.232 43.5999C133.874 44.2797 133.514 44.9709 133.364 45.7237C133.332 45.8881 133.313 46.0546 133.304 46.2218V46.2218C133.304 46.2818 133.304 46.3419 133.304 46.4019C133.304 46.4279 133.304 46.4538 133.304 46.4798C133.304 46.5349 133.304 46.5901 133.314 46.642C133.324 46.694 133.314 46.7086 133.325 46.7426C133.336 46.7767 133.34 46.853 133.349 46.9049C133.359 46.9568 133.378 47.0493 133.398 47.119C133.398 47.1499 133.417 47.1791 133.427 47.2099C133.436 47.2407 133.462 47.3186 133.483 47.3722C133.504 47.4257 133.505 47.4289 133.518 47.4565C133.542 47.5133 133.571 47.5685 133.6 47.6188C133.613 47.6399 133.623 47.661 133.636 47.6821C133.68 47.758 133.73 47.8307 133.784 47.8995C134.127 48.3327 134.636 48.6085 135.011 49.0141C135.011 49.0303 135.011 49.0466 135.011 49.0628C135.011 49.1066 135.011 49.1504 135.011 49.1958C135.034 50.1005 135.276 50.9859 135.716 51.7748C136.156 52.5638 136.781 53.2324 137.536 53.7226C137.536 53.7842 137.544 53.8475 137.547 53.9108C137.578 54.3919 137.572 54.8747 137.529 55.3548C137.463 55.2772 137.381 55.2153 137.289 55.1738C137.196 55.1322 137.096 55.112 136.995 55.1147C136.925 55.1112 136.856 55.1172 136.789 55.1325L136.774 55.1212V55.1358C136.42 55.2234 135.983 55.5949 135.566 56.6512C135.566 56.6512 134.298 58.092 133.332 58.0319C132.365 57.9719 129.92 59.5327 129.92 59.5327C129.92 59.5327 127.533 61.0919 127.021 62.682C126.735 63.5838 126.392 64.4661 125.993 65.3234L123.035 71.4434L122.492 76.3109C122.492 76.3109 122.793 78.4705 122.734 78.8014C122.674 79.1324 123.972 82.1016 123.972 82.1016C123.972 82.1016 128.26 89.6916 130.011 90.081L130.137 89.9934C130.212 90.0317 130.292 90.0611 130.374 90.081L130.734 89.8263C130.757 90.1115 130.747 90.3983 130.705 90.6813C130.466 91.4326 130.797 96.3227 131.219 97.2816C131.641 98.2405 131.491 110.815 131.491 110.815L131.432 111.923C131.432 111.923 131.432 111.959 131.446 112.02L131.432 112.283L131.475 112.306C131.52 112.658 131.506 113.016 131.432 113.364C131.28 113.851 131.219 115.225 131.219 115.225C131.219 115.225 130.011 122.993 130.585 124.554C131.158 126.115 131.643 127.825 131.643 127.825C131.643 127.825 132.246 129.772 131.672 130.097C131.097 130.421 129.469 130.997 129.801 131.807C130.106 132.556 131.267 134.565 131.44 134.859L131.425 135.021L131.188 137.605C131.227 137.947 131.319 138.28 131.461 138.592C131.72 139.157 132.222 139.739 133.182 139.676C133.343 139.664 133.528 139.647 133.71 139.622C135.463 139.384 137.621 138.595 137.621 138.595C137.509 138.524 137.407 138.438 137.317 138.34V138.34C137.23 138.256 137.162 138.155 137.116 138.044C137.07 137.932 137.047 137.812 137.048 137.691C137.074 137.219 136.199 134.979 135.98 134.425L135.93 134.302C135.93 134.302 137.924 132.201 137.592 130.342C137.592 130.342 135.386 129.044 136.112 128.33C136.838 127.616 138.136 125.571 138.136 125.571C138.136 125.571 138.196 117.921 138.136 116.781C138.074 115.987 138.111 115.189 138.247 114.405C138.271 114.289 138.3 114.173 138.331 114.058C139.336 114.211 140.351 114.289 141.368 114.29C141.739 114.29 142.115 114.283 142.495 114.268C142.495 114.376 142.5 114.492 142.509 114.618C142.593 116.513 142.749 119.838 142.876 121.072C143.057 122.841 144.053 127.613 144.053 127.613C144.053 127.613 142.152 128.841 144.385 131.873C144.385 131.873 144.385 132.97 144.237 133.131C144.079 133.651 143.951 134.18 143.855 134.716C143.762 135.285 143.723 135.865 143.875 136.163C144.237 136.88 146.411 136.822 146.411 136.822C146.428 136.818 146.446 136.815 146.464 136.814C146.874 136.77 147.289 136.809 147.684 136.929C148.079 137.049 148.446 137.247 148.765 137.511C149.591 138.18 152.724 137.888 154.423 137.674C155.088 137.588 155.532 137.511 155.532 137.511C155.553 137.435 155.561 137.356 155.555 137.278V137.278C155.537 136.857 155.21 135.936 152.994 135.113C152.994 135.113 150.911 133.702 150.94 132.472H150.893H150.653C150.805 132.467 150.911 132.467 150.911 132.467C150.911 132.467 150.095 129.467 150.428 129.222C150.761 128.977 149.763 125.653 149.763 125.653C149.763 125.653 149.191 120.071 149.159 119.682C149.161 119.346 149.212 119.013 149.31 118.692L149.159 115.63C149.159 115.63 149.13 114.613 149.159 114.282C149.156 113.995 149.133 113.708 149.092 113.424C149.077 113.31 149.063 113.192 149.046 113.075C149.827 112.875 150.335 112.692 150.335 112.692L150.244 102.04C150.908 100.742 151.03 97.8933 151.027 95.8749C151.027 94.5769 150.969 93.6164 150.969 93.6164L151.875 92.1254C151.875 92.1254 152.085 90.3406 151.753 89.9496C151.607 89.7727 151.673 89.5894 151.793 89.4385C151.857 89.386 151.924 89.3383 151.995 89.2957C151.987 89.2844 151.98 89.2725 151.974 89.26C152.037 89.2067 152.104 89.1585 152.175 89.1156C152.175 89.1156 151.853 88.6127 152.141 88.4001C152.412 88.5851 152.653 88.7327 152.837 88.8382C152.824 88.9566 152.811 89.0248 152.811 89.0248L152.888 88.8625C153.065 88.9631 153.173 89.0248 153.173 89.0248C153.173 89.0248 154.593 86.1741 154.563 85.7554C154.532 85.3368 155.529 83.5651 155.529 83.5651C155.529 83.5651 155.65 82.6338 156.194 82.2444C156.738 81.855 156.616 79.0335 156.616 79.0335C156.616 79.0335 156.767 77.5635 157.129 76.9648C157.492 76.3661 156.806 75.5516 156.806 75.5516ZM129.633 74.3007L129.66 74.9805C129.499 74.7193 129.384 74.5327 129.384 74.5327L129.633 74.3007Z" fill="url(#paint1_linear)"/>
<path d="M153.257 87.7914L152.909 89.2841C152.909 89.2841 150.124 87.8482 149.623 86.031C149.122 84.2138 150.462 83.521 150.462 83.521L153.059 84.6275L153.257 87.7914Z" fill="white"/>
<path opacity="0.1" d="M153.257 87.7914L152.909 89.2841C152.909 89.2841 150.124 87.8482 149.623 86.031C149.122 84.2138 150.462 83.521 150.462 83.521L153.059 84.6275L153.257 87.7914Z" fill="black"/>
<path d="M137.624 138.593C137.624 138.593 135.048 139.547 133.277 139.667C132.336 139.73 131.842 139.15 131.588 138.59C131.449 138.281 131.359 137.953 131.32 137.616L131.554 135.045L131.676 133.677L135.439 132.69L135.972 134.334L136.022 134.457C136.234 135.007 137.094 137.237 137.069 137.702C137.066 137.823 137.089 137.942 137.134 138.054C137.179 138.165 137.246 138.267 137.331 138.351C137.418 138.444 137.517 138.525 137.624 138.593V138.593Z" fill="white"/>
<path d="M155.213 137.286C155.219 137.364 155.212 137.443 155.19 137.519C155.19 137.519 149.68 138.444 148.553 137.519C148.236 137.249 147.867 137.048 147.469 136.93C147.071 136.812 146.653 136.779 146.241 136.833C146.241 136.833 144.109 136.891 143.753 136.184C143.605 135.887 143.644 135.311 143.736 134.745C143.829 134.212 143.954 133.686 144.109 133.168L144.194 133.1L144.702 132.689L150.64 132.512H150.685C150.656 133.736 152.699 135.139 152.699 135.139C154.874 135.95 155.195 136.867 155.213 137.286Z" fill="white"/>
<path opacity="0.1" d="M155.214 137.286C155.22 137.364 155.212 137.443 155.19 137.519C155.19 137.519 149.68 138.444 148.555 137.519C148.238 137.249 147.868 137.048 147.47 136.93C147.071 136.812 146.653 136.779 146.241 136.833C146.241 136.833 144.108 136.891 143.752 136.184C143.605 135.887 143.642 135.311 143.734 134.743C144.555 134.826 145.851 135.032 146.36 135.525C147.13 136.272 148.434 137.018 149.233 137.078C149.864 137.117 153.617 137.237 155.214 137.286Z" fill="black"/>
<path opacity="0.1" d="M137.624 138.593C137.624 138.593 135.048 139.548 133.277 139.668C132.337 139.731 131.842 139.15 131.588 138.59C132.245 138.813 133.155 139.045 133.633 138.832C134.2 138.577 136.209 138.415 137.336 138.345C137.421 138.44 137.518 138.524 137.624 138.593V138.593Z" fill="black"/>
<path d="M141.447 61.7048C139.321 60.8725 136.587 58.1224 137.27 56.8374C137.421 56.5128 137.511 56.163 137.535 55.8055C137.579 55.3199 137.586 54.8317 137.555 54.3452C137.507 53.5479 137.412 52.7542 137.27 51.9683C137.27 51.9683 143.905 52.1192 143.519 53.104C143.406 53.3944 143.387 53.8958 143.419 54.4555C143.451 55.0153 143.53 55.6529 143.614 56.19C143.728 56.925 143.846 57.488 143.846 57.488C143.846 57.488 143.438 58.0607 143.202 58.0915C142.965 58.1224 144.496 62.8974 141.447 61.7048Z" fill="#CF6F80"/>
<path opacity="0.1" d="M136.016 134.45L135.966 134.505C133.982 132.087 131.583 135.102 131.583 135.102L131.548 135.037L131.67 133.669L135.433 132.683L135.966 134.326L136.016 134.45Z" fill="black"/>
<path opacity="0.1" d="M150.689 132.683C150.689 132.683 149.24 132.654 148.467 133.341C147.694 134.029 143.958 133.489 144.119 133.341C144.166 133.267 144.195 133.181 144.203 133.093L144.71 132.683L150.648 132.506C150.671 132.619 150.689 132.683 150.689 132.683Z" fill="black"/>
<path d="M138.484 113.698C138.376 113.967 138.294 114.245 138.239 114.53C138.105 115.31 138.068 116.103 138.128 116.892C138.188 118.028 138.128 125.639 138.128 125.639C138.128 125.639 136.855 127.669 136.143 128.384C135.431 129.1 137.592 130.385 137.592 130.385C137.914 132.236 135.963 134.326 135.963 134.326C133.979 131.908 131.58 134.921 131.58 134.921C131.58 134.921 130.276 132.65 129.95 131.839C129.625 131.027 131.224 130.468 131.786 130.137C132.348 129.806 131.757 127.865 131.757 127.865C131.757 127.865 131.284 126.163 130.72 124.61C130.157 123.058 131.342 115.33 131.342 115.33C131.342 115.33 131.403 113.956 131.549 113.477C131.622 113.131 131.637 112.776 131.593 112.426C131.583 112.307 131.572 112.21 131.564 112.142C131.556 112.073 131.549 112.044 131.549 112.044L131.572 112.005L132.377 110.493C132.377 110.493 138.871 112.745 138.484 113.698Z" fill="#06D6A0"/>
<path d="M150.689 132.504C150.689 132.504 149.24 132.473 148.467 133.153C147.694 133.833 143.958 133.302 144.119 133.153C144.28 133.004 144.266 131.901 144.266 131.901C142.075 128.884 143.944 127.661 143.944 127.661C143.944 127.661 142.967 122.915 142.789 121.155C142.665 119.927 142.512 116.612 142.43 114.735C142.395 113.923 142.374 113.364 142.374 113.364L144.148 113.008L144.379 112.963L148.697 112.088C148.697 112.088 148.816 112.9 148.897 113.563C148.937 113.846 148.959 114.132 148.963 114.418C148.935 114.743 148.963 115.76 148.963 115.76L149.111 118.804C149.015 119.123 148.965 119.455 148.963 119.789C148.993 120.178 149.555 125.729 149.555 125.729C149.555 125.729 150.533 129.042 150.199 129.28C149.866 129.519 150.689 132.504 150.689 132.504Z" fill="#06D6A0"/>
<path opacity="0.1" d="M143.518 53.1089C143.406 53.3993 143.386 53.9007 143.419 54.4604C142.53 54.9997 141.508 55.2755 140.471 55.256C139.433 55.2364 138.423 54.9225 137.555 54.3501C137.507 53.5528 137.411 52.759 137.27 51.9731C137.27 51.9731 143.905 52.124 143.518 53.1089Z" fill="black"/>
<path d="M146.081 49.5268C146.098 50.9989 145.535 52.4177 144.514 53.4711C143.494 54.5245 142.1 55.1262 140.639 55.1438C139.178 55.1615 137.77 54.5936 136.724 53.5652C135.679 52.5367 135.082 51.1319 135.064 49.6598C135.064 49.6144 135.064 49.5722 135.064 49.5268C135.064 48.0542 135.645 46.642 136.678 45.6008C137.712 44.5596 139.113 43.9746 140.574 43.9746C142.036 43.9746 143.437 44.5596 144.47 45.6008C145.504 46.642 146.084 48.0542 146.084 49.5268H146.081Z" fill="#CF6F80"/>
<path opacity="0.1" d="M141.447 61.705C139.321 60.8727 136.587 58.1226 137.27 56.8376C137.421 56.513 137.511 56.1632 137.535 55.8057L140.445 58.2167L142.245 59.7045L143.614 56.1951C143.728 56.9301 143.846 57.4931 143.846 57.4931C143.846 57.4931 143.438 58.0658 143.202 58.0966C142.965 58.1275 144.496 62.8976 141.447 61.705Z" fill="black"/>
<path d="M148.971 72.36L146.542 113.49L143.373 113.699L135.166 89.8504L136.512 61.5363L136.797 55.5542L140.446 58.5737L142.246 60.0615L143.655 56.4482L146.274 58.7489L148.971 72.36Z" fill="#06D6A0"/>
<path opacity="0.1" d="M138.484 113.698C138.376 113.967 138.294 114.245 138.239 114.53C135.931 114.172 133.69 113.467 131.589 112.439L131.546 112.416L131.56 112.155V112.019L132.365 110.506C132.365 110.506 138.87 112.745 138.484 113.698Z" fill="black"/>
<path opacity="0.1" d="M144.201 114.537C143.612 114.638 143.018 114.707 142.421 114.743C142.385 113.931 142.364 113.372 142.364 113.372L144.148 113.008L144.201 114.537Z" fill="black"/>
<path opacity="0.1" d="M148.903 113.563C147.758 113.863 145.988 114.201 144.407 113.99L144.385 112.963L148.703 112.088C148.703 112.088 148.817 112.893 148.903 113.563Z" fill="black"/>
<path opacity="0.1" d="M144.379 114.178C137.777 115.314 131.731 112.058 131.731 112.058L131.789 110.954C131.789 110.954 131.939 98.4466 131.524 97.4877C131.108 96.5288 130.785 91.6727 131.02 90.9312C131.255 90.1897 130.161 78.9945 130.161 78.9945L129.984 74.4515L123.497 71.7955L126.395 65.7063C126.787 64.8527 127.123 63.9748 127.403 63.0779C127.907 61.4959 130.247 59.9432 130.247 59.9432C130.247 59.9432 132.646 58.3921 133.594 58.4505C134.543 58.5089 135.786 57.0779 135.786 57.0779C136.703 54.7204 137.534 55.7799 137.534 55.7799C137.534 55.8935 137.534 55.7799 137.489 56.1287C137.167 58.7166 142.696 66.894 142.775 67.04L143.308 79.9648L143.841 96.3211L144.379 114.178Z" fill="black"/>
<path d="M144.201 114.178C137.6 115.314 131.552 112.058 131.552 112.058L131.611 110.954C131.611 110.954 131.76 98.4466 131.344 97.4877C130.929 96.5288 130.605 91.6678 130.842 90.9198C131.078 90.1719 129.979 78.988 129.979 78.988L129.8 74.445L123.314 71.789L126.213 65.6998C126.603 64.8464 126.94 63.9691 127.221 63.073C127.725 61.4959 130.072 59.9416 130.072 59.9416C130.072 59.9416 132.471 58.3905 133.418 58.4489C134.365 58.5073 135.614 57.0779 135.614 57.0779C136.534 54.7204 137.546 55.7799 137.546 55.7799C137.546 55.8935 137.45 55.9421 137.501 56.1287C138.21 58.6387 142.531 66.894 142.61 67.04L143.143 79.9648L143.665 96.3292L144.201 114.178Z" fill="white"/>
<path opacity="0.1" d="M142.422 67.4047C141.712 67.1062 137.951 62.779 137.951 62.779V61.7941C137.814 61.4696 136.999 61.6676 136.341 61.8947L136.624 55.9126L136.946 56.1819C137.65 58.6903 142.345 67.2603 142.422 67.4047Z" fill="black"/>
<path d="M142.601 67.0478C141.889 66.7476 138.128 62.4221 138.128 62.4221V61.4356C137.991 61.1111 137.178 61.309 136.518 61.5362L136.796 55.5605L137.118 55.8283C137.828 58.3334 142.522 66.9018 142.601 67.0478Z" fill="white"/>
<path opacity="0.1" d="M131.731 88.6269C131.82 88.6269 136.322 88.1499 136.322 88.1499C136.322 88.1499 139.048 93.5528 138.869 94.8654C138.69 96.178 138.367 97.3429 137.27 97.1369C136.174 96.9308 131.369 97.2991 131.369 97.2991L131.731 88.6269Z" fill="black"/>
<path d="M131.552 88.2685C131.642 88.2685 136.144 87.7915 136.144 87.7915C136.144 87.7915 138.868 93.2025 138.691 94.5005C138.514 95.7985 138.187 96.9781 137.092 96.772C135.997 96.566 131.189 96.9343 131.189 96.9343L131.552 88.2685Z" fill="white"/>
<path d="M134.945 85.7388C134.945 85.7388 139.077 87.9778 139.165 88.6592C139.254 89.3407 137.063 88.3607 136.589 88.2406C136.277 88.166 135.96 88.1161 135.641 88.0914L132.483 88.1774L134.945 85.7388Z" fill="#CF6F80"/>
<path opacity="0.1" d="M141.268 67.6838C141.508 67.6838 141.702 67.4876 141.702 67.2457C141.702 67.0037 141.508 66.8076 141.268 66.8076C141.028 66.8076 140.833 67.0037 140.833 67.2457C140.833 67.4876 141.028 67.6838 141.268 67.6838Z" fill="black"/>
<path d="M141.268 67.5055C141.508 67.5055 141.702 67.3094 141.702 67.0675C141.702 66.8255 141.508 66.6294 141.268 66.6294C141.028 66.6294 140.833 66.8255 140.833 67.0675C140.833 67.3094 141.028 67.5055 141.268 67.5055Z" fill="#3F3D56"/>
<path opacity="0.1" d="M142.069 86.6476C142.309 86.6476 142.503 86.4515 142.503 86.2096C142.503 85.9676 142.309 85.7715 142.069 85.7715C141.828 85.7715 141.634 85.9676 141.634 86.2096C141.634 86.4515 141.828 86.6476 142.069 86.6476Z" fill="black"/>
<path d="M142.069 86.4674C142.309 86.4674 142.503 86.2713 142.503 86.0294C142.503 85.7874 142.309 85.5913 142.069 85.5913C141.828 85.5913 141.634 85.7874 141.634 86.0294C141.634 86.2713 141.828 86.4674 142.069 86.4674Z" fill="#3F3D56"/>
<path opacity="0.1" d="M141.702 77.1657C141.942 77.1657 142.137 76.9696 142.137 76.7276C142.137 76.4857 141.942 76.2896 141.702 76.2896C141.462 76.2896 141.268 76.4857 141.268 76.7276C141.268 76.9696 141.462 77.1657 141.702 77.1657Z" fill="black"/>
<path d="M141.702 76.9875C141.942 76.9875 142.137 76.7913 142.137 76.5494C142.137 76.3075 141.942 76.1113 141.702 76.1113C141.462 76.1113 141.268 76.3075 141.268 76.5494C141.268 76.7913 141.462 76.9875 141.702 76.9875Z" fill="#3F3D56"/>
<path d="M151.724 88.0009C151.724 88.0009 152.021 88.4487 151.724 88.6499C151.428 88.851 151.753 89.367 151.753 89.367C151.753 89.367 151.014 89.8018 151.34 90.1961C151.665 90.5904 151.459 92.3605 151.459 92.3605L150.57 93.8516C150.57 93.8516 150.623 94.8072 150.626 96.0987C150.626 98.1139 150.509 100.947 149.858 102.238L149.945 112.835C149.945 112.835 146.833 113.982 144.228 113.631L143.841 96.6277C143.841 96.6277 144.405 86.9852 144.612 85.1355C144.734 84.1753 144.784 83.2072 144.761 82.2394C144.761 82.2394 144.672 79.3449 144.374 78.0031C144.374 78.0031 144.052 72.1816 144.02 70.5704C144.005 69.7997 144.046 67.551 144.091 65.4125C144.141 63.0745 144.197 60.8695 144.197 60.8695L143.609 56.1822C143.609 56.1822 144.197 56.1237 144.374 56.3606C144.454 56.4353 144.54 56.5021 144.632 56.5602C145.648 57.2514 149.232 59.3768 149.232 59.3768C149.232 59.3768 151.216 60.1719 151.691 61.3109C152.166 62.4498 152.496 63.2578 152.726 63.5823C152.956 63.9068 153.082 65.432 153.082 65.432C153.082 65.432 153.764 68.2389 154.297 68.7143C154.83 69.1897 155.214 72.2075 155.214 72.2075L150.504 75.9393C150.504 75.9393 150.09 82.1469 150.002 82.387C149.913 82.6272 151.724 88.0009 151.724 88.0009Z" fill="white"/>
<path d="M151.903 88.0006C151.903 88.0006 152.198 88.4484 151.903 88.6496C151.608 88.8508 151.93 89.3668 151.93 89.3668C151.93 89.3668 151.191 89.8016 151.517 90.1959C151.842 90.5901 151.636 92.3603 151.636 92.3603L150.75 93.8513C150.75 93.8513 150.803 94.807 150.808 96.0985C150.808 98.1136 150.691 100.947 150.04 102.238L150.129 112.835C150.129 112.835 147.016 113.982 144.411 113.631L144.026 96.6274C144.026 96.6274 144.588 86.985 144.798 85.1353C144.919 84.1751 144.968 83.2069 144.944 82.2392C144.944 82.2392 144.856 79.3446 144.559 78.0028C144.559 78.0028 144.237 72.1813 144.203 70.5702C144.189 69.7995 144.229 67.5507 144.274 65.4123C144.324 63.0743 144.381 60.8693 144.381 60.8693L143.604 56.1187C143.604 56.1187 144.381 56.1187 144.559 56.3604C144.638 56.436 144.724 56.5029 144.817 56.56V56.56C145.831 57.2512 149.415 59.3766 149.415 59.3766C149.415 59.3766 151.394 60.1716 151.877 61.3106C152.36 62.4496 152.682 63.2576 152.913 63.5821C153.143 63.9066 153.268 65.4318 153.268 65.4318C153.268 65.4318 153.951 68.2387 154.484 68.7141C155.017 69.1895 155.402 72.2073 155.402 72.2073L150.692 75.939C150.692 75.939 150.278 82.1467 150.188 82.3868C150.098 82.6269 151.903 88.0006 151.903 88.0006Z" fill="white"/>
<path opacity="0.1" d="M146.262 62.2468L146.689 63.4961L144.449 65.7676C144.499 63.4296 144.555 61.2246 144.555 61.2246L143.779 56.4756C143.779 56.4756 144.555 56.4756 144.734 56.7173C144.813 56.7929 144.899 56.8598 144.992 56.9169V56.9169L146.895 62.448L146.262 62.2468Z" fill="black"/>
<path d="M146.08 61.8882L146.507 63.1359L144.269 65.4074C144.317 63.0694 144.375 60.8644 144.375 60.8644L143.598 56.1138C143.598 56.1138 144.375 56.1138 144.552 56.3555C144.631 56.4306 144.718 56.4975 144.81 56.5551V56.5551L146.725 62.091L146.08 61.8882Z" fill="white"/>
<path opacity="0.1" d="M146.081 49.5268C146.081 50.1114 145.99 50.6924 145.81 51.2482C145.78 51.2534 145.749 51.2522 145.719 51.245C145.689 51.2378 145.661 51.2245 145.636 51.2061C145.593 49.7458 144.881 48.3732 144.004 47.2066C143.757 46.8548 143.458 46.5429 143.118 46.2818C142.774 46.0214 142.346 45.8994 141.917 45.9395C141.434 46.006 141.007 46.337 140.52 46.3791C139.875 46.4327 139.299 45.9833 138.66 45.9622C138.4 45.9643 138.143 46.0225 137.908 46.1328C137.672 46.243 137.462 46.4028 137.293 46.6014C136.957 47.0009 136.707 47.4668 136.56 47.9692C136.307 48.7315 136.169 49.5279 136.151 50.3315C136.143 50.7858 136.1 51.3553 135.681 51.5208C135.713 51.187 135.675 50.8501 135.571 50.5317C135.466 50.2132 135.297 49.9202 135.074 49.6712L135.064 49.6598C135.064 49.6144 135.064 49.5722 135.064 49.5268C135.064 48.0543 135.645 46.642 136.678 45.6008C137.712 44.5596 139.113 43.9746 140.574 43.9746C142.036 43.9746 143.437 44.5596 144.47 45.6008C145.504 46.642 146.084 48.0543 146.084 49.5268H146.081Z" fill="black"/>
<path d="M142.86 40.7117C142.024 40.3151 141.072 40.2401 140.184 40.5008C139.738 40.6338 139.318 40.8496 138.866 40.9583C137.9 41.1936 136.772 40.9389 135.943 41.5084C135.483 41.8329 135.206 42.3456 134.948 42.8453L134.304 44.08C133.953 44.7566 133.599 45.4445 133.452 46.1893C133.306 46.934 133.394 47.7679 133.863 48.3683C134.203 48.8031 134.708 49.0773 135.079 49.4878C135.301 49.738 135.47 50.032 135.574 50.3512C135.678 50.6704 135.716 51.0078 135.684 51.3423C136.103 51.18 136.144 50.6073 136.154 50.153C136.172 49.3494 136.31 48.553 136.563 47.7907C136.71 47.2883 136.96 46.8224 137.296 46.4229C137.465 46.2241 137.675 46.064 137.91 45.9535C138.146 45.843 138.403 45.7845 138.663 45.782C139.307 45.8047 139.885 46.2542 140.522 46.199C141.005 46.1584 141.434 45.8274 141.92 45.7609C142.349 45.72 142.777 45.8421 143.121 46.1033C143.462 46.3635 143.76 46.6755 144.005 47.0281C144.884 48.1963 145.598 49.5624 145.639 51.0275C145.821 51.1606 146.084 50.9853 146.174 50.7777C146.264 50.57 146.267 50.3266 146.382 50.1287C146.514 49.8999 146.766 49.7766 146.965 49.6046C147.467 49.1682 147.592 48.4332 147.573 47.7663C147.554 47.0995 147.425 46.4229 147.551 45.7674C147.626 45.3667 147.797 44.9886 147.89 44.5911C147.984 44.1936 147.995 43.7474 147.774 43.4051C147.452 42.9037 146.775 42.8031 146.184 42.7561C145.512 42.6977 144.912 42.7723 144.483 42.2028C144.282 41.906 144.056 41.627 143.807 41.3688C143.719 41.2828 142.86 40.7474 142.86 40.7117Z" fill="#512E4E"/>
<path opacity="0.1" d="M125.355 74.9265L123.674 71.7935L123.141 76.6285C123.141 76.6285 123.437 78.7767 123.377 79.106C123.318 79.4354 124.591 82.3883 124.591 82.3883C124.591 82.3883 128.799 89.941 130.517 90.3288L136.313 86.1493L134.774 84.1796C134.774 84.1796 134.241 83.9703 134.107 84.1796C134.107 84.1796 131.248 79.2245 130.953 78.8675C130.658 78.5106 130.715 77.7918 130.715 77.7918C130.715 77.7918 130.27 77.3148 130.418 76.867C130.567 76.4192 129.568 74.8681 129.568 74.8681L130.486 74.0033L125.355 74.9265Z" fill="black"/>
<path d="M123.763 71.4351L123.318 71.7936L122.785 76.6287C122.785 76.6287 123.081 78.7768 123.022 79.1062C122.962 79.4356 124.237 82.3885 124.237 82.3885C124.237 82.3885 128.443 89.9412 130.161 90.329L135.967 86.1494L134.426 84.1797C134.426 84.1797 133.893 83.9704 133.76 84.1797C133.76 84.1797 130.902 79.2246 130.606 78.8677C130.309 78.5107 130.369 77.792 130.369 77.792C130.369 77.792 129.924 77.315 130.073 76.8672C130.221 76.4194 129.213 74.8683 129.213 74.8683L130.131 74.0035L123.763 71.4351Z" fill="white"/>
<path opacity="0.1" d="M151.339 90.3827C151.661 90.7769 151.458 92.5487 151.458 92.5487L150.57 94.03C150.57 94.03 150.623 94.9873 150.626 96.2788L149.132 96.7493C148.997 96.7918 148.853 96.8011 148.714 96.7764C148.574 96.7517 148.442 96.6938 148.33 96.6074C148.217 96.521 148.126 96.4088 148.065 96.2799C148.004 96.1511 147.975 96.0094 147.979 95.8667L148.238 87.4946L151.724 88.8364C151.428 89.0441 151.753 89.5536 151.753 89.5536C151.753 89.5536 151.014 89.9884 151.339 90.3827Z" fill="black"/>
<path d="M151.517 90.2041C151.839 90.5968 151.636 92.3685 151.636 92.3685L150.75 93.8515C150.75 93.8515 150.803 94.8071 150.808 96.0986L149.287 96.5772C149.155 96.619 149.014 96.6283 148.878 96.6043C148.742 96.5804 148.613 96.5239 148.503 96.4395C148.392 96.3552 148.304 96.2455 148.244 96.1196C148.184 95.9936 148.155 95.8552 148.16 95.7157L148.419 87.3145L151.903 88.6595C151.605 88.8672 151.931 89.3766 151.931 89.3766C151.931 89.3766 151.191 89.8098 151.517 90.2041Z" fill="white"/>
<path d="M152.672 86.2093C152.672 86.2093 152.435 87.7328 151.843 87.8221C151.25 87.9113 150.985 90.2866 150.394 90.2039C149.803 90.1211 150.194 87.994 150.215 87.5819C150.236 87.1698 149.571 85.463 150.067 85.0752C150.563 84.6874 152.141 85.0752 152.141 85.0752L152.672 86.2093Z" fill="#CF6F80"/>
<path opacity="0.1" d="M153.925 74.479L155.041 72.2075C155.041 72.2075 155.487 73.9387 155.487 74.8635C155.487 75.7884 156.108 75.8792 156.108 75.8792C156.108 75.8792 156.789 76.6905 156.43 77.2827C156.071 77.8749 155.928 79.3416 155.928 79.3416C155.928 79.3416 156.045 82.1469 155.513 82.5347C154.98 82.9225 154.86 83.8489 154.86 83.8489C154.86 83.8489 153.883 85.6093 153.914 86.0279C153.944 86.4465 152.551 89.281 152.551 89.281C152.551 89.281 153.233 85.7586 149.264 84.2367C149.264 84.2367 149.233 83.0425 149.529 82.7148C149.826 82.387 150.288 82.228 149.998 80.5796C149.708 78.9311 149.914 76.9436 149.914 76.5461C149.914 76.1486 150.803 73.671 150.803 73.671L153.925 74.479Z" fill="black"/>
<path d="M154.421 71.8828L155.396 72.2073C155.396 72.2073 155.842 73.9385 155.842 74.8633C155.842 75.7882 156.464 75.879 156.464 75.879C156.464 75.879 157.145 76.6903 156.786 77.2825C156.427 77.8747 156.282 79.3414 156.282 79.3414C156.282 79.3414 156.401 82.1467 155.868 82.5345C155.335 82.9222 155.224 83.8487 155.224 83.8487C155.224 83.8487 154.247 85.6091 154.277 86.0277C154.308 86.4463 152.914 89.2808 152.914 89.2808C152.914 89.2808 153.595 85.7584 149.626 84.2365C149.626 84.2365 149.597 83.0423 149.893 82.7146C150.189 82.3868 150.651 82.2278 150.362 80.5794C150.072 78.9309 150.278 76.9434 150.278 76.5459C150.278 76.1483 151.167 73.6708 151.167 73.6708L154.421 71.8828Z" fill="white"/>
<path opacity="0.1" d="M132.865 130.758C132.865 130.758 134.421 129.774 135.441 130.489C136.462 131.205 132.865 130.758 132.865 130.758Z" fill="black"/>
<path opacity="0.1" d="M144.953 127.713C144.953 127.713 146.33 127.534 147.486 128.789C148.642 130.043 144.953 127.713 144.953 127.713Z" fill="black"/>
<path opacity="0.1" d="M146.965 49.2477C146.767 49.4213 146.512 49.543 146.38 49.7718C146.268 49.9681 146.264 50.2115 146.174 50.4208C146.084 50.6301 145.822 50.8037 145.638 50.6706C145.596 49.2104 144.883 47.8394 144.005 46.6712C143.76 46.3191 143.462 46.0077 143.121 45.748C142.777 45.4863 142.348 45.3637 141.919 45.404C141.436 45.4705 141.011 45.8015 140.523 45.8437C139.879 45.8973 139.301 45.4478 138.661 45.4267C138.402 45.4287 138.145 45.4868 137.91 45.5971C137.674 45.7074 137.465 45.8673 137.296 46.066C136.96 46.4655 136.71 46.9314 136.563 47.4338C136.31 48.1961 136.173 48.9925 136.154 49.7961C136.145 50.2488 136.103 50.8134 135.688 50.9822C135.697 51.1026 135.697 51.2236 135.688 51.344C136.108 51.1817 136.15 50.609 136.159 50.1547C136.177 49.351 136.315 48.5547 136.568 47.7923C136.715 47.2899 136.965 46.8241 137.301 46.4246C137.47 46.2259 137.679 46.0659 137.915 45.9554C138.15 45.8448 138.406 45.7863 138.666 45.7837C139.31 45.8064 139.89 46.2558 140.528 46.2007C141.011 46.1601 141.439 45.8291 141.924 45.7626C142.353 45.7218 142.782 45.8439 143.126 46.1049C143.467 46.3652 143.765 46.6772 144.01 47.0298C144.888 48.198 145.601 49.5641 145.643 51.0292C145.826 51.1623 146.089 50.987 146.179 50.7794C146.269 50.5717 146.272 50.3283 146.385 50.1304C146.517 49.9016 146.772 49.7783 146.97 49.6063C147.472 49.1698 147.598 48.4348 147.578 47.768C147.578 47.7469 147.578 47.7274 147.578 47.7063C147.546 48.2872 147.393 48.8762 146.965 49.2477Z" fill="black"/>
<path opacity="0.1" d="M135.077 49.1339C134.708 48.7234 134.203 48.4476 133.863 48.0127C133.576 47.6289 133.413 47.1658 133.395 46.6855C133.344 47.286 133.51 47.8847 133.863 48.3713C134.203 48.8061 134.708 49.0803 135.077 49.4908C135.433 49.8921 135.647 50.4011 135.686 50.9381C135.71 50.6116 135.669 50.2835 135.564 49.9735C135.459 49.6635 135.294 49.3779 135.077 49.1339Z" fill="black"/>
<path opacity="0.1" d="M147.891 44.234C147.796 44.6316 147.627 45.0096 147.549 45.4103C147.503 45.6813 147.486 45.9567 147.5 46.2313C147.505 46.0762 147.521 45.9216 147.549 45.7689C147.627 45.3682 147.796 44.9901 147.891 44.5926C147.945 44.3732 147.963 44.1462 147.944 43.9209C147.934 44.0264 147.916 44.131 147.891 44.234V44.234Z" fill="black"/>
<path opacity="0.1" d="M22.3717 136.108C31.0365 136.108 38.0608 134.971 38.0608 133.569C38.0608 132.166 31.0365 131.029 22.3717 131.029C13.7069 131.029 6.68262 132.166 6.68262 133.569C6.68262 134.971 13.7069 136.108 22.3717 136.108Z" fill="#06D6A0"/>
<path d="M22.8767 84.9243H21.8672V107.829H22.8767V84.9243Z" fill="#535461"/>
<path d="M29.2224 107.761L29.158 108.793L29.0695 110.253L29.0324 110.86L28.9423 112.32L28.9036 112.927L28.8151 114.387L27.7959 130.948C27.7524 131.66 27.4408 132.329 26.9247 132.818C26.4086 133.307 25.7268 133.58 25.0184 133.58H19.7259C19.0155 133.58 18.3319 133.306 17.8155 132.815C17.299 132.323 16.9887 131.651 16.9484 130.937L15.9292 114.376L15.8407 112.916L15.8036 112.309L15.7119 110.848L15.6748 110.242L15.5863 108.781L15.5219 107.75C15.5107 107.552 15.5396 107.354 15.6068 107.168C15.6741 106.981 15.7782 106.811 15.9128 106.667C16.0475 106.522 16.2099 106.407 16.3901 106.328C16.5704 106.249 16.7647 106.208 16.9613 106.207H27.7846C27.9821 106.208 28.1772 106.249 28.3581 106.329C28.5389 106.409 28.7017 106.526 28.8363 106.671C28.971 106.817 29.0747 106.988 29.1411 107.176C29.2075 107.363 29.2352 107.562 29.2224 107.761V107.761Z" fill="#3F3D56"/>
<path d="M29.1583 108.792L29.0682 110.248H15.6751L15.585 108.792H29.1583Z" fill="#9D9CB5"/>
<path d="M29.0309 110.855L28.9423 112.312H15.8021L15.7119 110.855H29.0309Z" fill="#9D9CB5"/>
<path d="M28.9034 112.92L28.8149 114.376H15.929L15.8389 112.92H28.9034Z" fill="#9D9CB5"/>
<path d="M14.0503 93.5106C19.9305 97.7973 22.3795 104.501 22.3795 104.501C22.3795 104.501 15.2949 104.256 9.41312 99.9698C3.53132 95.6832 1.0791 88.9839 1.0791 88.9839C1.0791 88.9839 8.16366 89.224 14.0503 93.5106Z" fill="#06D6A0"/>
<path d="M1.0791 88.9839C1.0791 88.9839 8.43255 93.0969 10.7914 96.5025C13.1502 99.9081 22.373 104.505 22.373 104.505" stroke="#535461" stroke-width="2" stroke-miterlimit="10"/>
<path d="M17.8384 84.8759C21.0394 87.2074 22.3726 90.8564 22.3726 90.8564C22.3726 90.8564 18.5083 90.7233 15.3154 88.3918C12.1225 86.0603 10.7812 82.4097 10.7812 82.4097C10.7812 82.4097 14.6391 82.5427 17.8384 84.8759Z" fill="#06D6A0"/>
<path d="M10.7812 82.4097C10.7812 82.4097 14.784 84.6487 16.0689 86.5016C17.3538 88.3545 22.3726 90.8564 22.3726 90.8564" stroke="#535461" stroke-width="2" stroke-miterlimit="10"/>
<path d="M27.0229 90.6711C23.347 94.742 22.5693 100.062 22.5693 100.062C22.5693 100.062 27.7523 98.7803 31.425 94.7079C35.0977 90.6354 35.8786 85.3169 35.8786 85.3169C35.8786 85.3169 30.6989 86.6003 27.0229 90.6711Z" fill="#06D6A0"/>
<path d="M35.8819 85.3188C35.8819 85.3188 31.0933 89.4919 29.8761 92.3669C28.6588 95.242 22.5693 100.062 22.5693 100.062" stroke="#535461" stroke-width="2" stroke-miterlimit="10"/>
<defs>
<linearGradient id="paint0_linear" x1="75.9558" y1="135.569" x2="75.9558" y2="41.8456" gradientUnits="userSpaceOnUse">
<stop stop-color="#808080" stop-opacity="0.25"/>
<stop offset="0.54" stop-color="#808080" stop-opacity="0.12"/>
<stop offset="1" stop-color="#808080" stop-opacity="0.1"/>
</linearGradient>
<linearGradient id="paint1_linear" x1="30638.4" y1="87833.8" x2="30638.4" y2="26402.7" gradientUnits="userSpaceOnUse">
<stop stop-color="#808080" stop-opacity="0.25"/>
<stop offset="0.54" stop-color="#808080" stop-opacity="0.12"/>
<stop offset="1" stop-color="#808080" stop-opacity="0.1"/>
</linearGradient>
</defs>
</svg>
