<svg width="301" height="226" viewBox="0 0 301 226" fill="none" xmlns="http://www.w3.org/2000/svg">
<path opacity="0.1" d="M282.079 122.521C271.531 136.884 275.012 157.387 281.109 173.722C283.151 179.189 285.471 184.973 284.412 190.922C283.119 198.195 277.041 203.644 270.723 206.612C259.206 212.021 245.6 211.158 235.298 204.342C226.407 198.46 220.148 188.684 211.085 183.083C195.917 173.711 176.225 177.898 159.344 185.053C147.4 190.115 134.318 196.633 122.679 191.96C114.489 188.671 108.974 180.299 106.072 171.35C104.671 167.029 103.69 162.339 100.899 158.957C99.2396 156.946 97.0465 155.545 94.7915 154.374C74.2108 143.679 47.7379 150.363 27.7849 138.43C14.3141 130.371 5.92985 114.732 2.4463 98.2907C-1.03726 81.8495 -0.175127 64.4938 1.21237 47.4349C2.19843 35.3119 3.75836 22.3573 11.1027 12.8305C18.8699 2.75826 31.8881 -1.24443 43.5296 0.333113C55.1711 1.91066 65.6083 8.3278 74.7388 15.9883C86.1594 25.5444 96.6667 37.5418 110.87 41.1702C120.545 43.6408 130.823 41.8921 140.881 41.1194C157.692 39.8306 174.445 41.3146 191.094 42.991C207.033 44.5953 223.082 46.3868 238.178 51.6462C248.86 55.3681 257.328 62.4029 267.385 67.2104C273.94 70.3441 281.152 71.0714 287.322 75.1195C294.936 80.1062 301.817 88.9404 299.583 99.5421C297.474 109.62 287.683 114.898 282.079 122.521Z" fill="#06D6A0"/>
<path opacity="0.5" d="M230.348 188.036C230.348 188.036 231.237 161.896 245.486 147.126C251.467 140.928 255.395 133.057 256.435 124.538C256.921 120.495 257.033 116.417 256.769 112.354" stroke="#535461" stroke-width="2" stroke-miterlimit="10"/>
<path opacity="0.5" d="M265.696 102.997C264.721 105.917 256.568 112.623 256.568 112.623C256.568 112.623 254.071 102.406 255.046 99.489C255.278 98.795 255.646 98.1531 256.127 97.6C256.609 97.0469 257.196 96.5934 257.855 96.2654C258.513 95.9374 259.23 95.7414 259.965 95.6884C260.7 95.6355 261.438 95.7267 262.137 95.9569C262.837 96.187 263.483 96.5517 264.041 97.0299C264.598 97.5081 265.055 98.0906 265.385 98.7441C265.716 99.3976 265.913 100.109 265.967 100.839C266.02 101.568 265.928 102.3 265.696 102.994V102.997Z" fill="#06D6A0"/>
<path opacity="0.5" d="M269.092 122.062C266.667 123.987 256.16 125.223 256.16 125.223C256.16 125.223 259.663 115.3 262.087 113.378C262.658 112.885 263.322 112.512 264.042 112.281C264.761 112.049 265.52 111.965 266.273 112.032C267.026 112.099 267.757 112.317 268.424 112.672C269.09 113.027 269.677 113.512 270.149 114.098C270.622 114.684 270.97 115.358 271.173 116.081C271.376 116.804 271.43 117.56 271.331 118.304C271.233 119.047 270.983 119.764 270.599 120.41C270.214 121.056 269.701 121.618 269.092 122.062Z" fill="#06D6A0"/>
<path opacity="0.5" d="M259.48 149.559C256.414 150.009 246.707 145.816 246.707 145.816C246.707 145.816 254.773 139.003 257.839 138.554C258.568 138.447 259.311 138.484 260.026 138.662C260.74 138.84 261.413 139.156 262.004 139.592C262.596 140.027 263.095 140.575 263.473 141.202C263.852 141.829 264.102 142.525 264.21 143.248C264.317 143.971 264.281 144.708 264.101 145.418C263.922 146.127 263.603 146.794 263.164 147.381C262.725 147.968 262.174 148.464 261.542 148.839C260.909 149.215 260.209 149.463 259.48 149.57V149.559Z" fill="#06D6A0"/>
<path opacity="0.5" d="M247.482 168.741C244.537 169.699 234.254 167.185 234.254 167.185C234.254 167.185 241.046 159.118 243.991 158.161C245.404 157.7 246.945 157.815 248.273 158.482C249.601 159.148 250.608 160.31 251.072 161.713C251.537 163.116 251.42 164.645 250.749 165.963C250.078 167.281 248.907 168.28 247.493 168.741H247.482Z" fill="#06D6A0"/>
<path opacity="0.5" d="M244.79 122.108C246.221 124.835 255.354 130.175 255.354 130.175C255.354 130.175 256.184 119.696 254.754 116.966C254.414 116.318 253.948 115.742 253.384 115.272C252.82 114.802 252.168 114.447 251.465 114.227C250.763 114.007 250.023 113.926 249.29 113.99C248.556 114.053 247.842 114.26 247.188 114.597C246.535 114.935 245.955 115.397 245.481 115.956C245.007 116.516 244.65 117.163 244.428 117.861C244.206 118.558 244.125 119.291 244.189 120.02C244.253 120.748 244.461 121.457 244.801 122.105L244.79 122.108Z" fill="#06D6A0"/>
<path opacity="0.5" d="M231.046 144.714C233.233 146.893 243.547 149.278 243.547 149.278C243.547 149.278 241.178 139.032 238.994 136.853C237.944 135.807 236.518 135.218 235.03 135.215C233.542 135.212 232.114 135.796 231.061 136.838C230.007 137.88 229.413 139.295 229.41 140.772C229.407 142.248 229.996 143.665 231.046 144.711V144.714Z" fill="#06D6A0"/>
<path opacity="0.5" d="M220.727 168.507C222.51 171.02 232.271 175.103 232.271 175.103C232.271 175.103 231.684 164.608 229.898 162.092C229.484 161.469 228.949 160.934 228.323 160.52C227.697 160.105 226.994 159.82 226.255 159.681C225.516 159.542 224.756 159.552 224.021 159.711C223.286 159.869 222.591 160.172 221.976 160.603C221.362 161.033 220.841 161.582 220.444 162.217C220.048 162.851 219.784 163.558 219.668 164.296C219.553 165.033 219.588 165.787 219.771 166.51C219.955 167.234 220.284 167.914 220.738 168.51L220.727 168.507Z" fill="#06D6A0"/>
<path opacity="0.5" d="M233.481 177.219C233.481 177.219 225.398 165.55 226.815 154.572C227.44 149.97 226.544 145.292 224.261 141.24C223.162 139.324 221.889 137.513 220.457 135.828" stroke="#535461" stroke-width="2" stroke-miterlimit="10"/>
<path opacity="0.5" d="M221.31 128.902C221.83 130.485 220.456 136.009 220.456 136.009C220.456 136.009 216.057 132.356 215.537 130.776C215.287 130.016 215.351 129.189 215.716 128.476C216.08 127.763 216.715 127.223 217.481 126.975C218.246 126.727 219.08 126.791 219.798 127.153C220.516 127.514 221.06 128.144 221.31 128.904V128.902Z" fill="#06D6A0"/>
<path opacity="0.5" d="M228.97 136.116C228.542 137.721 224.36 141.622 224.36 141.622C224.36 141.622 222.668 136.183 223.097 134.573C223.303 133.801 223.81 133.141 224.507 132.739C225.203 132.337 226.032 132.226 226.811 132.43C227.59 132.635 228.255 133.138 228.66 133.83C229.065 134.521 229.176 135.343 228.97 136.116Z" fill="#06D6A0"/>
<path opacity="0.5" d="M233.696 151.163C232.508 152.337 226.918 153.607 226.918 153.607C226.918 153.607 228.222 148.064 229.413 146.89C229.696 146.611 230.031 146.39 230.401 146.24C230.77 146.089 231.165 146.012 231.564 146.014C231.963 146.015 232.358 146.094 232.726 146.247C233.094 146.4 233.429 146.623 233.71 146.904C233.991 147.185 234.214 147.518 234.366 147.884C234.517 148.25 234.594 148.643 234.593 149.039C234.592 149.435 234.512 149.827 234.358 150.192C234.204 150.557 233.98 150.889 233.696 151.168V151.163Z" fill="#06D6A0"/>
<path opacity="0.5" d="M234.688 163.346C233.715 164.701 228.41 166.886 228.41 166.886C228.41 166.886 228.752 161.204 229.725 159.848C229.956 159.526 230.249 159.251 230.587 159.041C230.925 158.831 231.301 158.688 231.694 158.622C232.087 158.556 232.49 158.568 232.879 158.656C233.268 158.744 233.635 158.908 233.96 159.137C234.285 159.367 234.562 159.657 234.774 159.992C234.986 160.328 235.129 160.701 235.196 161.092C235.262 161.482 235.251 161.881 235.162 162.267C235.073 162.653 234.908 163.018 234.677 163.34L234.688 163.346Z" fill="#06D6A0"/>
<path opacity="0.5" d="M218.398 143.891C219.904 144.623 225.608 144.035 225.608 144.035C225.608 144.035 222.571 139.206 221.065 138.476C220.342 138.125 219.508 138.074 218.746 138.333C217.984 138.593 217.358 139.142 217.004 139.86C216.65 140.578 216.598 141.406 216.86 142.162C217.121 142.918 217.675 143.54 218.398 143.891Z" fill="#06D6A0"/>
<path opacity="0.5" d="M219.745 158.13C221.404 158.381 226.669 156.127 226.669 156.127C226.669 156.127 222.315 152.421 220.658 152.181C219.862 152.061 219.05 152.259 218.401 152.733C217.752 153.207 217.32 153.917 217.199 154.708C217.077 155.498 217.278 156.304 217.755 156.947C218.233 157.591 218.948 158.021 219.745 158.141V158.13Z" fill="#06D6A0"/>
<path opacity="0.5" d="M222.963 171.785C224.555 172.32 230.129 170.983 230.129 170.983C230.129 170.983 226.471 166.6 224.878 166.074C224.114 165.822 223.28 165.881 222.559 166.24C221.839 166.598 221.292 167.225 221.038 167.984C220.784 168.743 220.844 169.571 221.205 170.286C221.566 171 222.198 171.544 222.963 171.796V171.785Z" fill="#06D6A0"/>
<path opacity="0.5" d="M221.31 128.902C221.83 130.485 220.456 136.009 220.456 136.009C220.456 136.009 216.057 132.356 215.537 130.776C215.287 130.016 215.351 129.189 215.716 128.476C216.08 127.763 216.715 127.223 217.481 126.975C218.246 126.727 219.08 126.791 219.798 127.153C220.516 127.514 221.06 128.144 221.31 128.904V128.902Z" fill="white"/>
<path opacity="0.5" d="M228.97 136.116C228.542 137.721 224.36 141.622 224.36 141.622C224.36 141.622 222.668 136.183 223.097 134.573C223.303 133.801 223.81 133.141 224.507 132.739C225.203 132.337 226.032 132.226 226.811 132.43C227.59 132.635 228.255 133.138 228.66 133.83C229.065 134.521 229.176 135.343 228.97 136.116Z" fill="white"/>
<path opacity="0.5" d="M233.696 151.163C232.508 152.337 226.918 153.607 226.918 153.607C226.918 153.607 228.222 148.064 229.413 146.89C229.696 146.611 230.031 146.39 230.401 146.24C230.77 146.089 231.165 146.012 231.564 146.014C231.963 146.015 232.358 146.094 232.726 146.247C233.094 146.4 233.429 146.623 233.71 146.904C233.991 147.185 234.214 147.518 234.366 147.884C234.517 148.25 234.594 148.643 234.593 149.039C234.592 149.435 234.512 149.827 234.358 150.192C234.204 150.557 233.98 150.889 233.696 151.168V151.163Z" fill="white"/>
<path opacity="0.5" d="M234.688 163.346C233.715 164.701 228.41 166.886 228.41 166.886C228.41 166.886 228.752 161.204 229.725 159.848C229.956 159.526 230.249 159.251 230.587 159.041C230.925 158.831 231.301 158.688 231.694 158.622C232.087 158.556 232.49 158.568 232.879 158.656C233.268 158.744 233.635 158.908 233.96 159.137C234.285 159.367 234.562 159.657 234.774 159.992C234.986 160.328 235.129 160.701 235.196 161.092C235.262 161.482 235.251 161.881 235.162 162.267C235.073 162.653 234.908 163.018 234.677 163.34L234.688 163.346Z" fill="white"/>
<path opacity="0.5" d="M218.398 143.891C219.904 144.623 225.608 144.035 225.608 144.035C225.608 144.035 222.571 139.206 221.065 138.476C220.342 138.125 219.508 138.074 218.746 138.333C217.984 138.593 217.358 139.142 217.004 139.86C216.65 140.578 216.598 141.406 216.86 142.162C217.121 142.918 217.675 143.54 218.398 143.891Z" fill="white"/>
<path opacity="0.5" d="M219.745 158.13C221.404 158.381 226.669 156.127 226.669 156.127C226.669 156.127 222.315 152.421 220.658 152.181C219.862 152.061 219.05 152.259 218.401 152.733C217.752 153.207 217.32 153.917 217.199 154.708C217.077 155.498 217.278 156.304 217.755 156.947C218.233 157.591 218.948 158.021 219.745 158.141V158.13Z" fill="white"/>
<path opacity="0.5" d="M222.963 171.785C224.555 172.32 230.129 170.983 230.129 170.983C230.129 170.983 226.471 166.6 224.878 166.074C224.114 165.822 223.28 165.881 222.559 166.24C221.839 166.598 221.292 167.225 221.038 167.984C220.784 168.743 220.844 169.571 221.205 170.286C221.566 171 222.198 171.544 222.963 171.796V171.785Z" fill="white"/>
<path opacity="0.5" d="M218.524 208.857H241.513L247.263 174.062H212.777L218.524 208.857Z" fill="#474059"/>
<path opacity="0.1" d="M217.177 174.062L222.546 206.576H241.891L241.513 208.857H218.524L212.777 174.062H217.177Z" fill="black"/>
<path d="M222.881 10.5078H54.2266V212.461H222.881V10.5078Z" fill="url(#paint0_linear)"/>
<path d="M220.727 13.0898H56.3828V209.882H220.727V13.0898Z" fill="white"/>
<path d="M186.511 35.2832H120.234V38.4918H186.511V35.2832Z" fill="#C0BCCF"/>
<path d="M186.511 45.4434H120.234V48.6519H186.511V45.4434Z" fill="#C0BCCF"/>
<path d="M170.614 55.6035H136.129V58.8121H170.614V55.6035Z" fill="#06D6A0"/>
<path opacity="0.5" d="M186.511 99.7227H120.234V102.931H186.511V99.7227Z" fill="#C0BCCF"/>
<path opacity="0.5" d="M186.511 109.883H120.234V113.091H186.511V109.883Z" fill="#C0BCCF"/>
<path opacity="0.5" d="M170.614 120.043H136.129V123.252H170.614V120.043Z" fill="#06D6A0"/>
<path opacity="0.5" d="M186.511 164.162H120.234V167.371H186.511V164.162Z" fill="#C0BCCF"/>
<path opacity="0.5" d="M186.511 174.322H120.234V177.531H186.511V174.322Z" fill="#C0BCCF"/>
<path opacity="0.5" d="M170.614 184.48H136.129V187.689H170.614V184.48Z" fill="#06D6A0"/>
<path opacity="0.5" d="M96.9031 117.619L95.5129 116.999C95.5341 116.789 95.5431 116.579 95.5398 116.368C95.5495 116.19 95.5495 116.011 95.5398 115.833C95.4024 114.427 94.4999 113.202 93.8613 111.916C93.2767 110.742 92.9055 109.475 92.7648 108.173C92.5951 106.569 92.7648 104.905 92.1721 103.397C91.6899 102.181 90.7361 101.165 89.715 100.266C88.5689 99.1989 87.2297 98.3562 85.7681 97.7824C84.2755 97.2476 82.5593 97.1113 81.0668 97.6567C79.7197 98.1487 78.6824 99.13 77.6802 100.085C76.9524 100.721 76.3096 101.447 75.7673 102.245C75.1558 103.24 74.8944 104.384 74.6897 105.512C74.368 107.319 74.1467 109.142 74.0269 110.972C73.9218 112.499 73.7575 114.232 72.4427 115.168C71.8015 115.625 70.899 115.881 70.6053 116.574C70.5221 116.782 70.4889 117.006 70.5083 117.229C70.5002 117.414 70.5138 117.6 70.5487 117.782C70.5676 117.889 70.5891 117.994 70.6161 118.101C70.2388 119.031 69.922 119.985 69.6677 120.956C69.4711 121.678 69.2906 122.387 69.1289 123.074H69.5654H69.7971L72.308 123.133H72.343L75.0372 123.194H75.0507L77.5616 123.253H77.6236L78.3483 123.304H78.5854L88.6266 123.534H88.6805L89.3486 123.55H89.583L91.5929 123.595L94.5564 123.662H94.578L96.8088 123.716H97.0459H97.5039L97.3853 121.395C97.8757 117.841 96.9031 117.619 96.9031 117.619ZM85.6226 117.336C85.6226 119.304 83.4996 121.713 83.4996 121.713L81.3631 118.825L81.4412 118.713L83.4996 121.494C83.4996 121.494 85.6226 119.087 85.6226 117.117C85.6721 117.017 85.7288 116.92 85.7923 116.828L85.8408 116.978C85.7593 117.092 85.6863 117.211 85.6226 117.336ZM88.8879 125.058C88.8879 124.959 88.8879 124.857 88.8691 124.758C88.8502 124.66 88.8529 124.571 88.8394 124.475C88.826 124.379 88.8152 124.285 88.8017 124.189C88.7882 124.093 88.7694 123.999 88.7505 123.903C88.7317 123.807 88.7128 123.713 88.6913 123.617C88.6913 123.585 88.6778 123.555 88.6697 123.52C88.6401 123.395 88.6077 123.269 88.5727 123.143C88.5377 123.018 88.5161 122.94 88.4838 122.841C88.4838 122.796 88.4569 122.75 88.4407 122.708C88.4245 122.665 88.3949 122.563 88.3706 122.491L88.3221 122.352C88.3006 122.291 88.279 122.226 88.2548 122.165C88.2144 122.053 88.1713 121.943 88.1282 121.831C88.0851 121.718 88.0393 121.609 87.9935 121.499C87.9019 121.274 87.8022 121.053 87.7025 120.828C87.3118 119.962 86.8727 119.109 86.4686 118.264C86.2518 117.822 86.0594 117.368 85.892 116.905L85.8408 116.972C85.7592 117.087 85.6862 117.208 85.6226 117.333C85.6226 119.301 83.4996 121.71 83.4996 121.71L81.3631 118.823L79.4934 121.496C79.2239 121.63 78.9545 122.085 78.7444 122.732C78.6851 122.905 78.6285 123.098 78.5747 123.299C78.5369 123.435 78.5019 123.566 78.4696 123.718C78.4507 123.791 78.4346 123.863 78.4184 123.938L78.3699 124.165V124.2C78.3376 124.355 78.3052 124.515 78.2756 124.678C78.246 124.841 78.2109 125.029 78.1813 125.213C78.1598 125.329 78.1409 125.444 78.1247 125.558C78.087 125.78 78.0547 126.004 78.0224 126.229C78.0035 126.36 77.9846 126.496 77.9685 126.617L77.9038 127.114C78.0412 127.523 78.1948 127.916 78.3537 128.328C78.4548 128.544 78.5142 128.777 78.5289 129.015C81.8432 129.892 85.3311 129.892 88.6454 129.015C88.6444 129.007 88.6444 128.999 88.6454 128.991C88.5958 128.767 88.5741 128.538 88.5808 128.309C88.6352 127.667 88.7252 127.028 88.8502 126.395C88.89 126.083 88.9072 125.768 88.9014 125.454V125.341C88.8933 125.24 88.8906 125.149 88.8879 125.061V125.058ZM88.8879 125.058C88.8879 124.959 88.8879 124.857 88.8691 124.758C88.8502 124.66 88.8529 124.571 88.8394 124.475C88.826 124.379 88.8152 124.285 88.8017 124.189C88.7882 124.093 88.7694 123.999 88.7505 123.903C88.7317 123.807 88.7128 123.713 88.6913 123.617C88.6913 123.585 88.6778 123.555 88.6697 123.52C88.6401 123.395 88.6077 123.269 88.5727 123.143C88.5377 123.018 88.5161 122.94 88.4838 122.841C88.4838 122.796 88.4569 122.75 88.4407 122.708C88.4245 122.665 88.3949 122.563 88.3706 122.491L88.3221 122.352C88.3006 122.291 88.279 122.226 88.2548 122.165C88.2144 122.053 88.1713 121.943 88.1282 121.831C88.0851 121.718 88.0393 121.609 87.9935 121.499C87.9019 121.274 87.8022 121.053 87.7025 120.828C87.3118 119.962 86.8727 119.109 86.4686 118.264C86.2518 117.822 86.0594 117.368 85.892 116.905L85.8408 116.972C85.7592 117.087 85.6862 117.208 85.6226 117.333C85.6226 119.301 83.4996 121.71 83.4996 121.71L81.3631 118.823L79.4934 121.496C79.2239 121.63 78.9545 122.085 78.7444 122.732C78.6851 122.905 78.6285 123.098 78.5747 123.299C78.5369 123.435 78.5019 123.566 78.4696 123.718C78.4507 123.791 78.4346 123.863 78.4184 123.938L78.3699 124.165V124.2C78.3376 124.355 78.3052 124.515 78.2756 124.678C78.246 124.841 78.2109 125.029 78.1813 125.213C78.1598 125.329 78.1409 125.444 78.1247 125.558C78.087 125.78 78.0547 126.004 78.0224 126.229C78.0035 126.36 77.9846 126.496 77.9685 126.617L77.9038 127.114C78.0412 127.523 78.1948 127.916 78.3537 128.328C78.4548 128.544 78.5142 128.777 78.5289 129.015C81.8432 129.892 85.3311 129.892 88.6454 129.015C88.6444 129.007 88.6444 128.999 88.6454 128.991C88.5958 128.767 88.5741 128.538 88.5808 128.309C88.6352 127.667 88.7252 127.028 88.8502 126.395C88.89 126.083 88.9072 125.768 88.9014 125.454V125.341C88.8933 125.24 88.8906 125.149 88.8879 125.061V125.058ZM88.8879 125.058C88.8879 124.959 88.8879 124.857 88.8691 124.758C88.8502 124.66 88.8529 124.571 88.8394 124.475C88.826 124.379 88.8152 124.285 88.8017 124.189C88.7882 124.093 88.7694 123.999 88.7505 123.903C88.7317 123.807 88.7128 123.713 88.6913 123.617C88.6913 123.585 88.6778 123.555 88.6697 123.52C88.6401 123.395 88.6077 123.269 88.5727 123.143C88.5377 123.018 88.5161 122.94 88.4838 122.841C88.4838 122.796 88.4569 122.75 88.4407 122.708C88.4245 122.665 88.3949 122.563 88.3706 122.491L88.3221 122.352C88.3006 122.291 88.279 122.226 88.2548 122.165C88.2144 122.053 88.1713 121.943 88.1282 121.831C88.0851 121.718 88.0393 121.609 87.9935 121.499C87.9019 121.274 87.8022 121.053 87.7025 120.828C87.3118 119.962 86.8727 119.109 86.4686 118.264C86.2518 117.822 86.0594 117.368 85.892 116.905L85.8408 116.972C85.7592 117.087 85.6862 117.208 85.6226 117.333C85.6226 119.301 83.4996 121.71 83.4996 121.71L81.3631 118.823L79.4934 121.496C79.2239 121.63 78.9545 122.085 78.7444 122.732C78.6851 122.905 78.6285 123.098 78.5747 123.299C78.5369 123.435 78.5019 123.566 78.4696 123.718C78.4507 123.791 78.4346 123.863 78.4184 123.938L78.3699 124.165V124.2C78.3376 124.355 78.3052 124.515 78.2756 124.678C78.246 124.841 78.2109 125.029 78.1813 125.213C78.1598 125.329 78.1409 125.444 78.1247 125.558C78.087 125.78 78.0547 126.004 78.0224 126.229C78.0035 126.36 77.9846 126.496 77.9685 126.617L77.9038 127.114C78.0412 127.523 78.1948 127.916 78.3537 128.328C78.4548 128.544 78.5142 128.777 78.5289 129.015C81.8432 129.892 85.3311 129.892 88.6454 129.015C88.6444 129.007 88.6444 128.999 88.6454 128.991C88.5958 128.767 88.5741 128.538 88.5808 128.309C88.6352 127.667 88.7252 127.028 88.8502 126.395C88.89 126.083 88.9072 125.768 88.9014 125.454V125.341C88.8933 125.24 88.8906 125.149 88.8879 125.061V125.058ZM88.8879 125.058C88.8879 124.959 88.8879 124.857 88.8691 124.758C88.8502 124.66 88.8529 124.571 88.8394 124.475C88.826 124.379 88.8152 124.285 88.8017 124.189C88.7882 124.093 88.7694 123.999 88.7505 123.903C88.7317 123.807 88.7128 123.713 88.6913 123.617C88.6913 123.585 88.6778 123.555 88.6697 123.52C88.6401 123.395 88.6077 123.269 88.5727 123.143C88.5377 123.018 88.5161 122.94 88.4838 122.841C88.4838 122.796 88.4569 122.75 88.4407 122.708C88.4245 122.665 88.3949 122.563 88.3706 122.491L88.3221 122.352C88.3006 122.291 88.279 122.226 88.2548 122.165C88.2144 122.053 88.1713 121.943 88.1282 121.831C88.0851 121.718 88.0393 121.609 87.9935 121.499C87.9019 121.274 87.8022 121.053 87.7025 120.828C87.3118 119.962 86.8727 119.109 86.4686 118.264C86.2518 117.822 86.0594 117.368 85.892 116.905L85.8408 116.972C85.7592 117.087 85.6862 117.208 85.6226 117.333C85.6226 119.301 83.4996 121.71 83.4996 121.71L81.3631 118.823L79.4934 121.496C79.2239 121.63 78.9545 122.085 78.7444 122.732C78.6851 122.905 78.6285 123.098 78.5747 123.299C78.5369 123.435 78.5019 123.566 78.4696 123.718C78.4507 123.791 78.4346 123.863 78.4184 123.938L78.3699 124.165V124.2C78.3376 124.355 78.3052 124.515 78.2756 124.678C78.246 124.841 78.2109 125.029 78.1813 125.213C78.1598 125.329 78.1409 125.444 78.1247 125.558C78.087 125.78 78.0547 126.004 78.0224 126.229C78.0035 126.36 77.9846 126.496 77.9685 126.617L77.9038 127.114C78.0412 127.523 78.1948 127.916 78.3537 128.328C78.4548 128.544 78.5142 128.777 78.5289 129.015C81.8432 129.892 85.3311 129.892 88.6454 129.015C88.6444 129.007 88.6444 128.999 88.6454 128.991C88.5958 128.767 88.5741 128.538 88.5808 128.309C88.6352 127.667 88.7252 127.028 88.8502 126.395C88.89 126.083 88.9072 125.768 88.9014 125.454V125.341C88.8933 125.24 88.8906 125.149 88.8879 125.061V125.058Z" fill="url(#paint1_linear)"/>
<path opacity="0.5" d="M88.983 106.408H76.5898V114.697H88.983V106.408Z" fill="#493545"/>
<path opacity="0.5" d="M91.0421 115.549L85.8558 122.8L80.4351 122.332C80.4351 122.332 73.363 122.797 78.0777 117.42C80.3435 114.835 81.0844 112.68 81.2434 111.142C81.4158 109.479 80.9066 108.533 80.9066 108.533L86.7987 107.832C86.5329 108.62 86.4992 109.467 86.7018 110.273C87.44 113.311 91.0421 115.549 91.0421 115.549Z" fill="#C77485"/>
<path opacity="0.1" d="M86.6975 110.265C85.929 110.842 85.0295 111.224 84.0778 111.376C83.1261 111.528 82.1513 111.445 81.2391 111.136C81.4115 109.473 80.9023 108.527 80.9023 108.527L86.7945 107.826C86.5291 108.613 86.4955 109.459 86.6975 110.265Z" fill="black"/>
<path opacity="0.5" d="M83.146 111.217C86.4002 111.217 89.0382 108.599 89.0382 105.369C89.0382 102.14 86.4002 99.5215 83.146 99.5215C79.8919 99.5215 77.2539 102.14 77.2539 105.369C77.2539 108.599 79.8919 111.217 83.146 111.217Z" fill="#C77485"/>
<path opacity="0.1" d="M90.8249 115.848L90.6875 115.313L90.5689 114.843L90.3938 114.148L90.3615 114.019L90.3345 113.912C90.3345 113.912 90.4746 113.492 89.5505 113.629L89.3781 113.658C89.2326 113.688 89.0629 113.728 88.8689 113.781L88.6938 113.835L88.4621 113.907C87.7285 114.144 87.0595 114.545 86.5061 115.078C86.2577 115.314 86.038 115.578 85.8514 115.864C85.8326 115.891 85.8191 115.915 85.8029 115.936C85.7391 116.036 85.6824 116.139 85.6332 116.246C85.6332 118.353 83.5102 120.926 83.5102 120.926L81.4384 117.955L81.398 117.896L80.9049 117.185L80.7298 116.955L80.6706 116.875L79.5929 115.439L79.3235 115.081L79.2346 114.96L79.1025 114.787L78.7927 114.377L77.5803 115.081L75.9638 116.017L75.0209 122.099V122.268L75.0505 122.771L75.2472 126.075V126.121L74.9023 127.49L74.9535 127.517C75.7673 127.952 76.614 128.324 77.486 128.629L77.7151 128.709C77.9845 128.797 78.2377 128.878 78.5017 128.955C78.5115 128.995 78.5187 129.035 78.5233 129.075C78.5233 129.038 78.5233 128.998 78.5233 128.96C81.8293 129.898 85.3339 129.898 88.6399 128.96L88.7019 128.942C88.8554 128.899 89.0117 128.854 89.1626 128.803L89.4077 128.725C90.0725 128.505 90.7238 128.246 91.3583 127.95L91.5846 123.164L91.7463 119.712V119.514L90.8249 115.848Z" fill="black"/>
<path opacity="0.5" d="M88.8844 124.738C88.8844 124.631 88.8844 124.524 88.8655 124.417C88.8467 124.31 88.8494 124.216 88.8359 124.115C88.8224 124.013 88.8116 123.912 88.7982 123.81C88.7847 123.708 88.7658 123.607 88.747 123.505C88.7281 123.404 88.7093 123.302 88.6877 123.2C88.6877 123.166 88.6742 123.134 88.6662 123.099C88.6365 122.965 88.6042 122.831 88.5692 122.695C88.5341 122.559 88.5126 122.478 88.4803 122.371C88.4803 122.323 88.4533 122.275 88.4371 122.23C88.421 122.184 88.3913 122.075 88.3671 121.997L88.3186 121.847C88.297 121.781 88.2755 121.714 88.2512 121.647C88.2108 121.527 88.1677 121.409 88.1246 121.289C88.0815 121.168 88.0357 121.051 87.9899 120.933C87.8983 120.692 87.7986 120.454 87.6989 120.216C87.3083 119.291 86.8691 118.38 86.465 117.476C86.2478 117.002 86.0554 116.517 85.8885 116.024L85.8373 116.096C85.7554 116.219 85.6824 116.348 85.6191 116.481C85.6191 118.585 83.496 121.16 83.496 121.16L81.3596 118.072L79.4898 120.925C79.2204 121.067 78.951 121.553 78.7408 122.246C78.6816 122.433 78.625 122.636 78.5711 122.853C78.5334 122.997 78.4984 123.15 78.466 123.302C78.4472 123.38 78.431 123.457 78.4149 123.537L78.3664 123.781V123.818C78.334 123.984 78.3017 124.155 78.2721 124.329C78.2424 124.503 78.2074 124.703 78.1778 124.893C78.1562 125.016 78.1374 125.139 78.1212 125.262C78.0835 125.5 78.0511 125.74 78.0188 125.978C78 126.118 77.9811 126.246 77.9649 126.393L77.9003 126.928C78.0377 127.366 78.1912 127.799 78.3502 128.224C78.4517 128.457 78.511 128.706 78.5253 128.96C81.8313 129.897 85.3359 129.897 88.6419 128.96C88.6407 128.951 88.6407 128.942 88.6419 128.933C88.5921 128.693 88.5704 128.448 88.5772 128.203C88.6316 127.517 88.7216 126.834 88.8467 126.158C88.8864 125.824 88.9035 125.488 88.8979 125.152V125.032C88.8898 124.93 88.8871 124.834 88.8844 124.738ZM88.8844 124.738C88.8844 124.631 88.8844 124.524 88.8655 124.417C88.8467 124.31 88.8494 124.216 88.8359 124.115C88.8224 124.013 88.8116 123.912 88.7982 123.81C88.7847 123.708 88.7658 123.607 88.747 123.505C88.7281 123.404 88.7093 123.302 88.6877 123.2C88.6877 123.166 88.6742 123.134 88.6662 123.099C88.6365 122.965 88.6042 122.831 88.5692 122.695C88.5341 122.559 88.5126 122.478 88.4803 122.371C88.4803 122.323 88.4533 122.275 88.4371 122.23C88.421 122.184 88.3913 122.075 88.3671 121.997L88.3186 121.847C88.297 121.781 88.2755 121.714 88.2512 121.647C88.2108 121.527 88.1677 121.409 88.1246 121.289C88.0815 121.168 88.0357 121.051 87.9899 120.933C87.8983 120.692 87.7986 120.454 87.6989 120.216C87.3083 119.291 86.8691 118.38 86.465 117.476C86.2478 117.002 86.0554 116.517 85.8885 116.024L85.8373 116.096C85.7554 116.219 85.6824 116.348 85.6191 116.481C85.6191 118.585 83.496 121.16 83.496 121.16L81.3596 118.072L79.4898 120.925C79.2204 121.067 78.951 121.553 78.7408 122.246C78.6816 122.433 78.625 122.636 78.5711 122.853C78.5334 122.997 78.4984 123.15 78.466 123.302C78.4472 123.38 78.431 123.457 78.4149 123.537L78.3664 123.781V123.818C78.334 123.984 78.3017 124.155 78.2721 124.329C78.2424 124.503 78.2074 124.703 78.1778 124.893C78.1562 125.016 78.1374 125.139 78.1212 125.262C78.0835 125.5 78.0511 125.74 78.0188 125.978C78 126.118 77.9811 126.246 77.9649 126.393L77.9003 126.928C78.0377 127.366 78.1912 127.799 78.3502 128.224C78.4517 128.457 78.511 128.706 78.5253 128.96C81.8313 129.897 85.3359 129.897 88.6419 128.96C88.6407 128.951 88.6407 128.942 88.6419 128.933C88.5921 128.693 88.5704 128.448 88.5772 128.203C88.6316 127.517 88.7216 126.834 88.8467 126.158C88.8864 125.824 88.9035 125.488 88.8979 125.152V125.032C88.8898 124.93 88.8871 124.834 88.8844 124.738ZM88.8844 124.738C88.8844 124.631 88.8844 124.524 88.8655 124.417C88.8467 124.31 88.8494 124.216 88.8359 124.115C88.8224 124.013 88.8116 123.912 88.7982 123.81C88.7847 123.708 88.7658 123.607 88.747 123.505C88.7281 123.404 88.7093 123.302 88.6877 123.2C88.6877 123.166 88.6742 123.134 88.6662 123.099C88.6365 122.965 88.6042 122.831 88.5692 122.695C88.5341 122.559 88.5126 122.478 88.4803 122.371C88.4803 122.323 88.4533 122.275 88.4371 122.23C88.421 122.184 88.3913 122.075 88.3671 121.997L88.3186 121.847C88.297 121.781 88.2755 121.714 88.2512 121.647C88.2108 121.527 88.1677 121.409 88.1246 121.289C88.0815 121.168 88.0357 121.051 87.9899 120.933C87.8983 120.692 87.7986 120.454 87.6989 120.216C87.3083 119.291 86.8691 118.38 86.465 117.476C86.2478 117.002 86.0554 116.517 85.8885 116.024L85.8373 116.096C85.7554 116.219 85.6824 116.348 85.6191 116.481C85.6191 118.585 83.496 121.16 83.496 121.16L81.3596 118.072L79.4898 120.925C79.2204 121.067 78.951 121.553 78.7408 122.246C78.6816 122.433 78.625 122.636 78.5711 122.853C78.5334 122.997 78.4984 123.15 78.466 123.302C78.4472 123.38 78.431 123.457 78.4149 123.537L78.3664 123.781V123.818C78.334 123.984 78.3017 124.155 78.2721 124.329C78.2424 124.503 78.2074 124.703 78.1778 124.893C78.1562 125.016 78.1374 125.139 78.1212 125.262C78.0835 125.5 78.0511 125.74 78.0188 125.978C78 126.118 77.9811 126.246 77.9649 126.393L77.9003 126.928C78.0377 127.366 78.1912 127.799 78.3502 128.224C78.4517 128.457 78.511 128.706 78.5253 128.96C81.8313 129.897 85.3359 129.897 88.6419 128.96C88.6407 128.951 88.6407 128.942 88.6419 128.933C88.5921 128.693 88.5704 128.448 88.5772 128.203C88.6316 127.517 88.7216 126.834 88.8467 126.158C88.8864 125.824 88.9035 125.488 88.8979 125.152V125.032C88.8898 124.93 88.8871 124.834 88.8844 124.738ZM91.7402 119.719L90.7784 115.909L90.614 115.257L90.5682 115.077L90.3338 114.147C90.3344 114.139 90.3344 114.131 90.3338 114.123C90.3394 114.082 90.3329 114.04 90.315 114.002C90.28 113.933 90.1911 113.861 89.9836 113.842C89.9047 113.837 89.8254 113.837 89.7465 113.842C89.5124 113.865 89.2808 113.908 89.0541 113.97C88.9437 114 88.8251 114.032 88.6985 114.072L88.4668 114.144H88.4452C87.8247 114.346 87.2486 114.664 86.7479 115.08C86.4171 115.354 86.1269 115.672 85.8858 116.027L85.8346 116.099C85.7527 116.222 85.6797 116.35 85.6164 116.484C85.6164 118.588 83.4934 121.163 83.4934 121.163L81.3569 118.075L81.2356 117.901L81.2141 117.871L80.9043 117.42L80.6699 117.109L80.6079 117.029L79.5033 115.567L79.1531 115.093V115.077L79.0318 114.914L78.8001 114.609L77.9919 115.077L75.9712 116.246L75.0391 122.265V122.329L75.066 122.767L75.2654 126.118V126.307L74.9609 127.513C75.7747 127.949 76.6214 128.321 77.4935 128.626L77.7225 128.706C77.9919 128.794 78.2451 128.874 78.5091 128.952C78.5189 128.991 78.5261 129.032 78.5307 129.072C78.5307 129.035 78.5307 128.995 78.5307 128.957C81.8367 129.895 85.3413 129.895 88.6473 128.957L88.7093 128.938C88.8628 128.896 89.0191 128.85 89.17 128.799L89.4151 128.722C90.0799 128.501 90.7312 128.242 91.3657 127.946L91.5893 123.166L91.751 119.751L91.7402 119.719ZM78.4903 128.952C78.5001 128.991 78.5073 129.032 78.5118 129.072C78.5118 129.035 78.5118 128.995 78.5118 128.957L78.4903 128.952ZM88.8844 124.738C88.8844 124.631 88.8844 124.524 88.8655 124.417C88.8467 124.31 88.8494 124.216 88.8359 124.115C88.8224 124.013 88.8116 123.912 88.7982 123.81C88.7847 123.708 88.7658 123.607 88.747 123.505C88.7281 123.404 88.7093 123.302 88.6877 123.2C88.6877 123.166 88.6742 123.134 88.6662 123.099C88.6365 122.965 88.6042 122.831 88.5692 122.695C88.5341 122.559 88.5126 122.478 88.4803 122.371C88.4803 122.323 88.4533 122.275 88.4371 122.23C88.421 122.184 88.3913 122.075 88.3671 121.997L88.3186 121.847C88.297 121.781 88.2755 121.714 88.2512 121.647C88.2108 121.527 88.1677 121.409 88.1246 121.289C88.0815 121.168 88.0357 121.051 87.9899 120.933C87.8983 120.692 87.7986 120.454 87.6989 120.216C87.3083 119.291 86.8691 118.38 86.465 117.476C86.2478 117.002 86.0554 116.517 85.8885 116.024L85.8373 116.096C85.7554 116.219 85.6824 116.348 85.6191 116.481C85.6191 118.585 83.496 121.16 83.496 121.16L81.3596 118.072L79.4898 120.925C79.2204 121.067 78.951 121.553 78.7408 122.246C78.6816 122.433 78.625 122.636 78.5711 122.853C78.5334 122.997 78.4984 123.15 78.466 123.302C78.4472 123.38 78.431 123.457 78.4149 123.537L78.3664 123.781V123.818C78.334 123.984 78.3017 124.155 78.2721 124.329C78.2424 124.503 78.2074 124.703 78.1778 124.893C78.1562 125.016 78.1374 125.139 78.1212 125.262C78.0835 125.5 78.0511 125.74 78.0188 125.978C78 126.118 77.9811 126.246 77.9649 126.393L77.9003 126.928C78.0377 127.366 78.1912 127.799 78.3502 128.224C78.4517 128.457 78.511 128.706 78.5253 128.96C81.8313 129.897 85.3359 129.897 88.6419 128.96C88.6407 128.951 88.6407 128.942 88.6419 128.933C88.5921 128.693 88.5704 128.448 88.5772 128.203C88.6316 127.517 88.7216 126.834 88.8467 126.158C88.8864 125.824 88.9035 125.488 88.8979 125.152V125.032C88.8898 124.93 88.8871 124.834 88.8844 124.738ZM88.8844 124.738C88.8844 124.631 88.8844 124.524 88.8655 124.417C88.8467 124.31 88.8494 124.216 88.8359 124.115C88.8224 124.013 88.8116 123.912 88.7982 123.81C88.7847 123.708 88.7658 123.607 88.747 123.505C88.7281 123.404 88.7093 123.302 88.6877 123.2C88.6877 123.166 88.6742 123.134 88.6662 123.099C88.6365 122.965 88.6042 122.831 88.5692 122.695C88.5341 122.559 88.5126 122.478 88.4803 122.371C88.4803 122.323 88.4533 122.275 88.4371 122.23C88.421 122.184 88.3913 122.075 88.3671 121.997L88.3186 121.847C88.297 121.781 88.2755 121.714 88.2512 121.647C88.2108 121.527 88.1677 121.409 88.1246 121.289C88.0815 121.168 88.0357 121.051 87.9899 120.933C87.8983 120.692 87.7986 120.454 87.6989 120.216C87.3083 119.291 86.8691 118.38 86.465 117.476C86.2478 117.002 86.0554 116.517 85.8885 116.024L85.8373 116.096C85.7554 116.219 85.6824 116.348 85.6191 116.481C85.6191 118.585 83.496 121.16 83.496 121.16L81.3596 118.072L79.4898 120.925C79.2204 121.067 78.951 121.553 78.7408 122.246C78.6816 122.433 78.625 122.636 78.5711 122.853C78.5334 122.997 78.4984 123.15 78.466 123.302C78.4472 123.38 78.431 123.457 78.4149 123.537L78.3664 123.781V123.818C78.334 123.984 78.3017 124.155 78.2721 124.329C78.2424 124.503 78.2074 124.703 78.1778 124.893C78.1562 125.016 78.1374 125.139 78.1212 125.262C78.0835 125.5 78.0511 125.74 78.0188 125.978C78 126.118 77.9811 126.246 77.9649 126.393L77.9003 126.928C78.0377 127.366 78.1912 127.799 78.3502 128.224C78.4517 128.457 78.511 128.706 78.5253 128.96C81.8313 129.897 85.3359 129.897 88.6419 128.96C88.6407 128.951 88.6407 128.942 88.6419 128.933C88.5921 128.693 88.5704 128.448 88.5772 128.203C88.6316 127.517 88.7216 126.834 88.8467 126.158C88.8864 125.824 88.9035 125.488 88.8979 125.152V125.032C88.8898 124.93 88.8871 124.834 88.8844 124.738ZM88.8844 124.738C88.8844 124.631 88.8844 124.524 88.8655 124.417C88.8467 124.31 88.8494 124.216 88.8359 124.115C88.8224 124.013 88.8116 123.912 88.7982 123.81C88.7847 123.708 88.7658 123.607 88.747 123.505C88.7281 123.404 88.7093 123.302 88.6877 123.2C88.6877 123.166 88.6742 123.134 88.6662 123.099C88.6365 122.965 88.6042 122.831 88.5692 122.695C88.5341 122.559 88.5126 122.478 88.4803 122.371C88.4803 122.323 88.4533 122.275 88.4371 122.23C88.421 122.184 88.3913 122.075 88.3671 121.997L88.3186 121.847C88.297 121.781 88.2755 121.714 88.2512 121.647C88.2108 121.527 88.1677 121.409 88.1246 121.289C88.0815 121.168 88.0357 121.051 87.9899 120.933C87.8983 120.692 87.7986 120.454 87.6989 120.216C87.3083 119.291 86.8691 118.38 86.465 117.476C86.2478 117.002 86.0554 116.517 85.8885 116.024L85.8373 116.096C85.7554 116.219 85.6824 116.348 85.6191 116.481C85.6191 118.585 83.496 121.16 83.496 121.16L81.3596 118.072L79.4898 120.925C79.2204 121.067 78.951 121.553 78.7408 122.246C78.6816 122.433 78.625 122.636 78.5711 122.853C78.5334 122.997 78.4984 123.15 78.466 123.302C78.4472 123.38 78.431 123.457 78.4149 123.537L78.3664 123.781V123.818C78.334 123.984 78.3017 124.155 78.2721 124.329C78.2424 124.503 78.2074 124.703 78.1778 124.893C78.1562 125.016 78.1374 125.139 78.1212 125.262C78.0835 125.5 78.0511 125.74 78.0188 125.978C78 126.118 77.9811 126.246 77.9649 126.393L77.9003 126.928C78.0377 127.366 78.1912 127.799 78.3502 128.224C78.4517 128.457 78.511 128.706 78.5253 128.96C81.8313 129.897 85.3359 129.897 88.6419 128.96C88.6407 128.951 88.6407 128.942 88.6419 128.933C88.5921 128.693 88.5704 128.448 88.5772 128.203C88.6316 127.517 88.7216 126.834 88.8467 126.158C88.8864 125.824 88.9035 125.488 88.8979 125.152V125.032C88.8898 124.93 88.8871 124.834 88.8844 124.738ZM88.8844 124.738C88.8844 124.631 88.8844 124.524 88.8655 124.417C88.8467 124.31 88.8494 124.216 88.8359 124.115C88.8224 124.013 88.8116 123.912 88.7982 123.81C88.7847 123.708 88.7658 123.607 88.747 123.505C88.7281 123.404 88.7093 123.302 88.6877 123.2C88.6877 123.166 88.6742 123.134 88.6662 123.099C88.6365 122.965 88.6042 122.831 88.5692 122.695C88.5341 122.559 88.5126 122.478 88.4803 122.371C88.4803 122.323 88.4533 122.275 88.4371 122.23C88.421 122.184 88.3913 122.075 88.3671 121.997L88.3186 121.847C88.297 121.781 88.2755 121.714 88.2512 121.647C88.2108 121.527 88.1677 121.409 88.1246 121.289C88.0815 121.168 88.0357 121.051 87.9899 120.933C87.8983 120.692 87.7986 120.454 87.6989 120.216C87.3083 119.291 86.8691 118.38 86.465 117.476C86.2478 117.002 86.0554 116.517 85.8885 116.024L85.8373 116.096C85.7554 116.219 85.6824 116.348 85.6191 116.481C85.6191 118.585 83.496 121.16 83.496 121.16L81.3596 118.072L79.4898 120.925C79.2204 121.067 78.951 121.553 78.7408 122.246C78.6816 122.433 78.625 122.636 78.5711 122.853C78.5334 122.997 78.4984 123.15 78.466 123.302C78.4472 123.38 78.431 123.457 78.4149 123.537L78.3664 123.781V123.818C78.334 123.984 78.3017 124.155 78.2721 124.329C78.2424 124.503 78.2074 124.703 78.1778 124.893C78.1562 125.016 78.1374 125.139 78.1212 125.262C78.0835 125.5 78.0511 125.74 78.0188 125.978C78 126.118 77.9811 126.246 77.9649 126.393L77.9003 126.928C78.0377 127.366 78.1912 127.799 78.3502 128.224C78.4517 128.457 78.511 128.706 78.5253 128.96C81.8313 129.897 85.3359 129.897 88.6419 128.96C88.6407 128.951 88.6407 128.942 88.6419 128.933C88.5921 128.693 88.5704 128.448 88.5772 128.203C88.6316 127.517 88.7216 126.834 88.8467 126.158C88.8864 125.824 88.9035 125.488 88.8979 125.152V125.032C88.8898 124.93 88.8871 124.834 88.8844 124.738ZM88.8844 124.738C88.8844 124.631 88.8844 124.524 88.8655 124.417C88.8467 124.31 88.8494 124.216 88.8359 124.115C88.8224 124.013 88.8116 123.912 88.7982 123.81C88.7847 123.708 88.7658 123.607 88.747 123.505C88.7281 123.404 88.7093 123.302 88.6877 123.2C88.6877 123.166 88.6742 123.134 88.6662 123.099C88.6365 122.965 88.6042 122.831 88.5692 122.695C88.5341 122.559 88.5126 122.478 88.4803 122.371C88.4803 122.323 88.4533 122.275 88.4371 122.23C88.421 122.184 88.3913 122.075 88.3671 121.997L88.3186 121.847C88.297 121.781 88.2755 121.714 88.2512 121.647C88.2108 121.527 88.1677 121.409 88.1246 121.289C88.0815 121.168 88.0357 121.051 87.9899 120.933C87.8983 120.692 87.7986 120.454 87.6989 120.216C87.3083 119.291 86.8691 118.38 86.465 117.476C86.2478 117.002 86.0554 116.517 85.8885 116.024L85.8373 116.096C85.7554 116.219 85.6824 116.348 85.6191 116.481C85.6191 118.585 83.496 121.16 83.496 121.16L81.3596 118.072L79.4898 120.925C79.2204 121.067 78.951 121.553 78.7408 122.246C78.6816 122.433 78.625 122.636 78.5711 122.853C78.5334 122.997 78.4984 123.15 78.466 123.302C78.4472 123.38 78.431 123.457 78.4149 123.537L78.3664 123.781V123.818C78.334 123.984 78.3017 124.155 78.2721 124.329C78.2424 124.503 78.2074 124.703 78.1778 124.893C78.1562 125.016 78.1374 125.139 78.1212 125.262C78.0835 125.5 78.0511 125.74 78.0188 125.978C78 126.118 77.9811 126.246 77.9649 126.393L77.9003 126.928C78.0377 127.366 78.1912 127.799 78.3502 128.224C78.4517 128.457 78.511 128.706 78.5253 128.96C81.8313 129.897 85.3359 129.897 88.6419 128.96C88.6407 128.951 88.6407 128.942 88.6419 128.933C88.5921 128.693 88.5704 128.448 88.5772 128.203C88.6316 127.517 88.7216 126.834 88.8467 126.158C88.8864 125.824 88.9035 125.488 88.8979 125.152V125.032C88.8898 124.93 88.8871 124.834 88.8844 124.738ZM88.8844 124.738C88.8844 124.631 88.8844 124.524 88.8655 124.417C88.8467 124.31 88.8494 124.216 88.8359 124.115C88.8224 124.013 88.8116 123.912 88.7982 123.81C88.7847 123.708 88.7658 123.607 88.747 123.505C88.7281 123.404 88.7093 123.302 88.6877 123.2C88.6877 123.166 88.6742 123.134 88.6662 123.099C88.6365 122.965 88.6042 122.831 88.5692 122.695C88.5341 122.559 88.5126 122.478 88.4803 122.371C88.4803 122.323 88.4533 122.275 88.4371 122.23C88.421 122.184 88.3913 122.075 88.3671 121.997L88.3186 121.847C88.297 121.781 88.2755 121.714 88.2512 121.647C88.2108 121.527 88.1677 121.409 88.1246 121.289C88.0815 121.168 88.0357 121.051 87.9899 120.933C87.8983 120.692 87.7986 120.454 87.6989 120.216C87.3083 119.291 86.8691 118.38 86.465 117.476C86.2478 117.002 86.0554 116.517 85.8885 116.024L85.8373 116.096C85.7554 116.219 85.6824 116.348 85.6191 116.481C85.6191 118.585 83.496 121.16 83.496 121.16L81.3596 118.072L79.4898 120.925C79.2204 121.067 78.951 121.553 78.7408 122.246C78.6816 122.433 78.625 122.636 78.5711 122.853C78.5334 122.997 78.4984 123.15 78.466 123.302C78.4472 123.38 78.431 123.457 78.4149 123.537L78.3664 123.781V123.818C78.334 123.984 78.3017 124.155 78.2721 124.329C78.2424 124.503 78.2074 124.703 78.1778 124.893C78.1562 125.016 78.1374 125.139 78.1212 125.262C78.0835 125.5 78.0511 125.74 78.0188 125.978C78 126.118 77.9811 126.246 77.9649 126.393L77.9003 126.928C78.0377 127.366 78.1912 127.799 78.3502 128.224C78.4517 128.457 78.511 128.706 78.5253 128.96C81.8313 129.897 85.3359 129.897 88.6419 128.96C88.6407 128.951 88.6407 128.942 88.6419 128.933C88.5921 128.693 88.5704 128.448 88.5772 128.203C88.6316 127.517 88.7216 126.834 88.8467 126.158C88.8864 125.824 88.9035 125.488 88.8979 125.152V125.032C88.8898 124.93 88.8871 124.834 88.8844 124.738ZM88.8844 124.738C88.8844 124.631 88.8844 124.524 88.8655 124.417C88.8467 124.31 88.8494 124.216 88.8359 124.115C88.8224 124.013 88.8116 123.912 88.7982 123.81C88.7847 123.708 88.7658 123.607 88.747 123.505C88.7281 123.404 88.7093 123.302 88.6877 123.2C88.6877 123.166 88.6742 123.134 88.6662 123.099C88.6365 122.965 88.6042 122.831 88.5692 122.695C88.5341 122.559 88.5126 122.478 88.4803 122.371C88.4803 122.323 88.4533 122.275 88.4371 122.23C88.421 122.184 88.3913 122.075 88.3671 121.997L88.3186 121.847C88.297 121.781 88.2755 121.714 88.2512 121.647C88.2108 121.527 88.1677 121.409 88.1246 121.289C88.0815 121.168 88.0357 121.051 87.9899 120.933C87.8983 120.692 87.7986 120.454 87.6989 120.216C87.3083 119.291 86.8691 118.38 86.465 117.476C86.2478 117.002 86.0554 116.517 85.8885 116.024L85.8373 116.096C85.7554 116.219 85.6824 116.348 85.6191 116.481C85.6191 118.585 83.496 121.16 83.496 121.16L81.3596 118.072L79.4898 120.925C79.2204 121.067 78.951 121.553 78.7408 122.246C78.6816 122.433 78.625 122.636 78.5711 122.853C78.5334 122.997 78.4984 123.15 78.466 123.302C78.4472 123.38 78.431 123.457 78.4149 123.537L78.3664 123.781V123.818C78.334 123.984 78.3017 124.155 78.2721 124.329C78.2424 124.503 78.2074 124.703 78.1778 124.893C78.1562 125.016 78.1374 125.139 78.1212 125.262C78.0835 125.5 78.0511 125.74 78.0188 125.978C78 126.118 77.9811 126.246 77.9649 126.393L77.9003 126.928C78.0377 127.366 78.1912 127.799 78.3502 128.224C78.4517 128.457 78.511 128.706 78.5253 128.96C81.8313 129.897 85.3359 129.897 88.6419 128.96C88.6407 128.951 88.6407 128.942 88.6419 128.933C88.5921 128.693 88.5704 128.448 88.5772 128.203C88.6316 127.517 88.7216 126.834 88.8467 126.158C88.8864 125.824 88.9035 125.488 88.8979 125.152V125.032C88.8898 124.93 88.8871 124.834 88.8844 124.738ZM88.8844 124.738C88.8844 124.631 88.8844 124.524 88.8655 124.417C88.8467 124.31 88.8494 124.216 88.8359 124.115C88.8224 124.013 88.8116 123.912 88.7982 123.81C88.7847 123.708 88.7658 123.607 88.747 123.505C88.7281 123.404 88.7093 123.302 88.6877 123.2C88.6877 123.166 88.6742 123.134 88.6662 123.099C88.6365 122.965 88.6042 122.831 88.5692 122.695C88.5341 122.559 88.5126 122.478 88.4803 122.371C88.4803 122.323 88.4533 122.275 88.4371 122.23C88.421 122.184 88.3913 122.075 88.3671 121.997L88.3186 121.847C88.297 121.781 88.2755 121.714 88.2512 121.647C88.2108 121.527 88.1677 121.409 88.1246 121.289C88.0815 121.168 88.0357 121.051 87.9899 120.933C87.8983 120.692 87.7986 120.454 87.6989 120.216C87.3083 119.291 86.8691 118.38 86.465 117.476C86.2478 117.002 86.0554 116.517 85.8885 116.024L85.8373 116.096C85.7554 116.219 85.6824 116.348 85.6191 116.481C85.6191 118.585 83.496 121.16 83.496 121.16L81.3596 118.072L79.4898 120.925C79.2204 121.067 78.951 121.553 78.7408 122.246C78.6816 122.433 78.625 122.636 78.5711 122.853C78.5334 122.997 78.4984 123.15 78.466 123.302C78.4472 123.38 78.431 123.457 78.4149 123.537L78.3664 123.781V123.818C78.334 123.984 78.3017 124.155 78.2721 124.329C78.2424 124.503 78.2074 124.703 78.1778 124.893C78.1562 125.016 78.1374 125.139 78.1212 125.262C78.0835 125.5 78.0511 125.74 78.0188 125.978C78 126.118 77.9811 126.246 77.9649 126.393L77.9003 126.928C78.0377 127.366 78.1912 127.799 78.3502 128.224C78.4517 128.457 78.511 128.706 78.5253 128.96C81.8313 129.897 85.3359 129.897 88.6419 128.96C88.6407 128.951 88.6407 128.942 88.6419 128.933C88.5921 128.693 88.5704 128.448 88.5772 128.203C88.6316 127.517 88.7216 126.834 88.8467 126.158C88.8864 125.824 88.9035 125.488 88.8979 125.152V125.032C88.8898 124.93 88.8871 124.834 88.8844 124.738Z" fill="white"/>
<path opacity="0.1" d="M81.3977 117.893L81.2172 117.869C80.9447 117.832 80.6747 117.779 80.4089 117.708L80.3093 117.682C79.6519 117.497 78.9325 117.166 78.7709 116.583C78.7228 116.395 78.7284 116.198 78.7871 116.013C78.8775 115.695 79.0003 115.387 79.1535 115.093V115.077C79.1737 115.036 79.1962 114.996 79.2208 114.957C79.4431 114.526 79.7793 114.163 80.1934 113.906L79.8701 113.957L77.1328 114.398L72.8895 115.077C72.8895 115.077 72.1352 114.928 71.1087 117.735C71.1087 117.77 71.0844 117.802 71.0737 117.839C70.8258 118.527 70.5645 119.385 70.295 120.457C70.1091 121.2 69.9394 121.93 69.7831 122.639C69.7373 122.853 69.6915 123.064 69.6484 123.273C70.1342 123.841 70.6571 124.377 71.2137 124.877L71.3027 124.96C72.393 125.94 73.5978 126.786 74.8913 127.481L74.9425 127.508C75.7562 127.944 76.6029 128.315 77.475 128.62L77.704 128.7C77.7525 128.206 77.8064 127.658 77.871 127.096C77.871 127.04 77.871 126.984 77.8926 126.928L77.9573 126.393C77.9734 126.257 77.9923 126.126 78.0111 125.979C78.0435 125.741 78.0758 125.5 78.1135 125.262C78.1297 125.139 78.1485 125.016 78.1701 124.893C78.1997 124.703 78.2321 124.513 78.2644 124.329C78.2967 124.144 78.3264 123.984 78.3587 123.818V123.781L78.4072 123.537C78.4233 123.457 78.4395 123.38 78.4584 123.302C78.4907 123.15 78.5257 122.997 78.5634 122.853C78.6173 122.636 78.6739 122.433 78.7332 122.246C78.9487 121.553 79.1993 121.067 79.4822 120.925L81.3519 118.072L81.43 117.952L81.4651 117.898L81.3977 117.893Z" fill="black"/>
<path opacity="0.1" d="M77.9949 98.9539C77.7255 99.3228 77.747 99.8309 77.6258 100.291C77.3375 101.336 76.1952 101.991 75.9339 103.045C75.7803 103.66 75.9581 104.312 75.8531 104.938C75.6618 106.09 74.6003 106.871 74.0075 107.879C73.7071 108.398 73.5289 108.978 73.4865 109.576C73.444 110.173 73.5383 110.772 73.7624 111.328C73.901 111.609 74.0155 111.9 74.1045 112.2C74.1725 112.646 74.1441 113.102 74.021 113.537C73.819 114.489 73.6115 115.537 74.0749 116.395C74.4656 117.12 75.2765 117.545 76.0928 117.679C76.9172 117.771 77.751 117.733 78.5634 117.566C79.4551 117.43 80.3685 117.272 81.1444 116.818L78.2266 109.828C77.9329 109.122 77.6312 108.392 77.6339 107.628C77.6577 107.064 77.7807 106.508 77.9976 105.986C78.5625 104.474 79.3824 103.068 80.4224 101.828C80.8453 102.315 80.813 103.055 81.1659 103.596C81.4778 103.995 81.8931 104.303 82.3675 104.486C83.75 105.155 85.1704 105.745 86.6216 106.251C86.7127 106.262 86.7995 106.295 86.8744 106.348C86.9493 106.401 87.01 106.471 87.051 106.552C87.092 106.634 87.1122 106.724 87.1097 106.815C87.1071 106.906 87.082 106.995 87.0365 107.074L85.9373 111.577C85.6948 112.569 85.482 113.716 86.1043 114.518C86.7267 115.32 88.1304 115.7 88.1384 116.735C88.127 116.899 88.127 117.063 88.1384 117.227C88.2112 117.711 88.7904 117.943 89.2835 117.967C90.0928 117.983 90.8815 117.713 91.5088 117.205C92.136 116.697 92.5609 115.985 92.7077 115.195C92.9772 113.425 91.7971 111.794 91.3041 110.069C90.4743 107.168 91.5735 103.764 89.9435 101.216C88.6234 99.149 86.2175 98.5875 83.9328 98.3309C82.3298 98.1437 79.1238 97.4752 77.9949 98.9539Z" fill="black"/>
<path opacity="0.5" d="M77.9949 98.6882C77.7255 99.0572 77.747 99.5652 77.6258 100.025C77.3375 101.071 76.1952 101.726 75.9339 102.779C75.7803 103.394 75.9581 104.047 75.8531 104.672C75.6618 105.825 74.6003 106.605 74.0075 107.613C73.7071 108.133 73.5289 108.713 73.4865 109.31C73.444 109.907 73.5383 110.507 73.7624 111.063C73.901 111.343 74.0155 111.635 74.1045 111.934C74.1725 112.381 74.1441 112.836 74.021 113.271C73.819 114.223 73.6115 115.271 74.0749 116.129C74.4656 116.854 75.2765 117.279 76.0928 117.413C76.9172 117.505 77.751 117.467 78.5634 117.301C79.4551 117.164 80.3685 117.006 81.1444 116.552L78.2266 109.563C77.9329 108.857 77.6312 108.127 77.6339 107.362C77.6577 106.798 77.7807 106.242 77.9976 105.72C78.5625 104.208 79.3824 102.802 80.4224 101.563C80.8453 102.049 80.813 102.79 81.1659 103.33C81.4778 103.729 81.8931 104.037 82.3675 104.22C83.75 104.89 85.1704 105.479 86.6216 105.985C86.7127 105.996 86.7995 106.03 86.8744 106.082C86.9493 106.135 87.01 106.205 87.051 106.287C87.092 106.368 87.1122 106.458 87.1097 106.549C87.1071 106.64 87.082 106.729 87.0365 106.809L85.9373 111.311C85.6948 112.303 85.482 113.45 86.1043 114.252C86.7267 115.055 88.1304 115.434 88.1384 116.469C88.127 116.633 88.127 116.797 88.1384 116.961C88.2112 117.445 88.7904 117.678 89.2835 117.702C90.0928 117.718 90.8815 117.447 91.5088 116.94C92.136 116.432 92.5609 115.719 92.7077 114.929C92.9772 113.159 91.7971 111.528 91.3041 109.803C90.4743 106.902 91.5735 103.498 89.9435 100.95C88.6234 98.8834 86.2175 98.3219 83.9328 98.0652C82.3298 97.8781 79.1238 97.2096 77.9949 98.6882Z" fill="#493545"/>
<path opacity="0.5" d="M76.3381 170.306C76.3624 171.202 75.7481 171.967 75.2605 172.713C74.7728 173.459 74.4118 174.477 74.9129 175.223C75.0773 175.469 75.3251 175.659 75.4733 175.916C75.9933 176.812 75.1285 177.841 74.8133 178.825C74.4495 179.961 74.8725 181.231 75.6377 182.154C76.4028 183.076 77.4589 183.699 78.5258 184.247C80.769 185.434 83.1767 186.284 85.6707 186.772C86.9747 187.009 88.3649 187.116 89.588 186.598C90.4367 186.211 91.1299 185.553 91.5565 184.729C91.983 183.905 92.1181 182.962 91.94 182.052C91.6302 180.646 90.593 179.515 90.0541 178.186C89.9283 177.925 89.8674 177.638 89.8763 177.349C89.9221 176.844 90.3128 176.448 90.6172 176.039C91.3807 174.925 91.6924 173.566 91.4901 172.234C91.2774 170.902 90.7634 169.635 89.9868 168.528C89.7092 168.069 89.343 167.669 88.9091 167.352C88.3218 166.959 87.5944 166.846 86.8939 166.747C83.968 166.341 80.9371 165.897 77.987 165.747C77.0548 165.699 76.3705 165.881 75.9098 166.747C75.2066 168.039 76.3031 169.009 76.3381 170.306Z" fill="#444176"/>
<path opacity="0.5" d="M91.4061 179.399L85.8534 187.236L80.4328 186.768C80.4328 186.768 80.2549 188.64 78.0754 181.857C76.8576 178.062 79.3335 179.381 79.8212 178.33C80.3088 177.279 81.1683 176.351 81.241 175.576C81.4134 173.913 80.9042 172.966 80.9042 172.966L86.7964 172.266C86.5305 173.054 86.4969 173.901 86.6994 174.707C87.4376 177.75 91.4061 179.399 91.4061 179.399Z" fill="#C77485"/>
<path opacity="0.5" d="M83.0556 172.717C86.9243 172.717 90.0605 170.262 90.0605 167.235C90.0605 164.208 86.9243 161.754 83.0556 161.754C79.187 161.754 76.0508 164.208 76.0508 167.235C76.0508 170.262 79.187 172.717 83.0556 172.717Z" fill="#444176"/>
<path opacity="0.1" d="M86.6975 174.704C85.929 175.282 85.0295 175.663 84.0778 175.815C83.1261 175.967 82.1513 175.885 81.2391 175.576C81.4115 173.913 80.9023 172.966 80.9023 172.966L86.7945 172.266C86.5291 173.053 86.4955 173.899 86.6975 174.704Z" fill="black"/>
<path opacity="0.5" d="M83.146 175.656C86.4002 175.656 89.0382 173.038 89.0382 169.809C89.0382 166.579 86.4002 163.961 83.146 163.961C79.8919 163.961 77.2539 166.579 77.2539 169.809C77.2539 173.038 79.8919 175.656 83.146 175.656Z" fill="#C77485"/>
<path opacity="0.1" d="M90.8249 180.288L90.6875 179.753L90.5689 179.282L90.3938 178.587L90.3615 178.459L90.3345 178.352C90.3345 178.352 90.4746 177.932 89.5505 178.068L89.3781 178.098C89.2326 178.127 89.0629 178.167 88.8689 178.221L88.6938 178.274L88.4621 178.346C87.7285 178.583 87.0594 178.984 86.5061 179.517C86.2577 179.753 86.038 180.017 85.8514 180.304C85.8326 180.33 85.8191 180.354 85.8029 180.376C85.7391 180.475 85.6824 180.579 85.6332 180.686C85.6332 182.793 83.5102 185.365 83.5102 185.365L81.4384 182.394L81.398 182.336L80.9049 181.624L80.7298 181.394L80.6706 181.314L79.5929 179.878L79.3235 179.52L79.2346 179.4L79.1025 179.226L78.7927 178.817L77.5803 179.52L75.9638 180.456L75.0209 186.539V186.707L75.0505 187.21L75.2472 190.515V190.56L74.9023 191.929L74.9535 191.956C75.7673 192.392 76.614 192.763 77.486 193.068L77.7151 193.149C77.9845 193.237 78.2377 193.317 78.5017 193.395C78.5115 193.434 78.5187 193.474 78.5233 193.515C78.5233 193.477 78.5233 193.437 78.5233 193.4C81.8293 194.337 85.3339 194.337 88.6399 193.4L88.7019 193.381C88.8554 193.338 89.0117 193.293 89.1626 193.242L89.4077 193.165C90.0725 192.944 90.7238 192.685 91.3583 192.389L91.5846 187.603L91.7463 184.151V183.953L90.8249 180.288Z" fill="black"/>
<path opacity="0.5" d="M88.8883 189.177C88.8883 189.07 88.8883 188.963 88.8694 188.856C88.8506 188.749 88.8533 188.656 88.8398 188.554C88.8263 188.453 88.8155 188.351 88.8021 188.25C88.7886 188.148 88.7697 188.046 88.7509 187.945C88.732 187.843 88.7132 187.741 88.6916 187.64C88.6916 187.605 88.6781 187.573 88.6701 187.538C88.6404 187.405 88.6081 187.271 88.5731 187.135C88.538 186.998 88.5165 186.918 88.4842 186.811C88.4842 186.763 88.4572 186.715 88.441 186.669C88.4249 186.624 88.3953 186.514 88.371 186.437L88.3225 186.287C88.301 186.22 88.2794 186.153 88.2552 186.086C88.2147 185.966 88.1716 185.848 88.1285 185.728C88.0854 185.608 88.0396 185.49 87.9938 185.372C87.9022 185.132 87.8025 184.894 87.7029 184.656C87.3122 183.731 86.8731 182.819 86.4689 181.915C86.2517 181.441 86.0593 180.957 85.8924 180.463L85.8412 180.536C85.7593 180.659 85.6863 180.787 85.623 180.921C85.623 183.025 83.5 185.6 83.5 185.6L81.3635 182.511L79.4937 185.364C79.2243 185.506 78.9549 185.993 78.7448 186.685C78.6855 186.872 78.6289 187.076 78.575 187.292C78.5373 187.437 78.5023 187.589 78.47 187.741C78.4511 187.819 78.4349 187.897 78.4188 187.977L78.3703 188.22V188.258C78.3379 188.423 78.3056 188.594 78.276 188.768C78.2463 188.942 78.2113 189.143 78.1817 189.332C78.1601 189.455 78.1413 189.578 78.1251 189.701C78.0874 189.939 78.0551 190.18 78.0227 190.418C78.0039 190.557 77.985 190.685 77.9688 190.832L77.9042 191.367C78.0416 191.806 78.1951 192.239 78.3541 192.664C78.4556 192.897 78.5149 193.146 78.5292 193.399C81.8352 194.337 85.3398 194.337 88.6458 193.399C88.6446 193.39 88.6446 193.381 88.6458 193.373C88.596 193.132 88.5743 192.888 88.5812 192.643C88.6355 191.957 88.7255 191.274 88.8506 190.597C88.8903 190.264 88.9074 189.928 88.9018 189.592V189.471C88.8937 189.37 88.891 189.274 88.8883 189.177ZM88.8883 189.177C88.8883 189.07 88.8883 188.963 88.8694 188.856C88.8506 188.749 88.8533 188.656 88.8398 188.554C88.8263 188.453 88.8155 188.351 88.8021 188.25C88.7886 188.148 88.7697 188.046 88.7509 187.945C88.732 187.843 88.7132 187.741 88.6916 187.64C88.6916 187.605 88.6781 187.573 88.6701 187.538C88.6404 187.405 88.6081 187.271 88.5731 187.135C88.538 186.998 88.5165 186.918 88.4842 186.811C88.4842 186.763 88.4572 186.715 88.441 186.669C88.4249 186.624 88.3953 186.514 88.371 186.437L88.3225 186.287C88.301 186.22 88.2794 186.153 88.2552 186.086C88.2147 185.966 88.1716 185.848 88.1285 185.728C88.0854 185.608 88.0396 185.49 87.9938 185.372C87.9022 185.132 87.8025 184.894 87.7029 184.656C87.3122 183.731 86.8731 182.819 86.4689 181.915C86.2517 181.441 86.0593 180.957 85.8924 180.463L85.8412 180.536C85.7593 180.659 85.6863 180.787 85.623 180.921C85.623 183.025 83.5 185.6 83.5 185.6L81.3635 182.511L79.4937 185.364C79.2243 185.506 78.9549 185.993 78.7448 186.685C78.6855 186.872 78.6289 187.076 78.575 187.292C78.5373 187.437 78.5023 187.589 78.47 187.741C78.4511 187.819 78.4349 187.897 78.4188 187.977L78.3703 188.22V188.258C78.3379 188.423 78.3056 188.594 78.276 188.768C78.2463 188.942 78.2113 189.143 78.1817 189.332C78.1601 189.455 78.1413 189.578 78.1251 189.701C78.0874 189.939 78.0551 190.18 78.0227 190.418C78.0039 190.557 77.985 190.685 77.9688 190.832L77.9042 191.367C78.0416 191.806 78.1951 192.239 78.3541 192.664C78.4556 192.897 78.5149 193.146 78.5292 193.399C81.8352 194.337 85.3398 194.337 88.6458 193.399C88.6446 193.39 88.6446 193.381 88.6458 193.373C88.596 193.132 88.5743 192.888 88.5812 192.643C88.6355 191.957 88.7255 191.274 88.8506 190.597C88.8903 190.264 88.9074 189.928 88.9018 189.592V189.471C88.8937 189.37 88.891 189.274 88.8883 189.177ZM88.8883 189.177C88.8883 189.07 88.8883 188.963 88.8694 188.856C88.8506 188.749 88.8533 188.656 88.8398 188.554C88.8263 188.453 88.8155 188.351 88.8021 188.25C88.7886 188.148 88.7697 188.046 88.7509 187.945C88.732 187.843 88.7132 187.741 88.6916 187.64C88.6916 187.605 88.6781 187.573 88.6701 187.538C88.6404 187.405 88.6081 187.271 88.5731 187.135C88.538 186.998 88.5165 186.918 88.4842 186.811C88.4842 186.763 88.4572 186.715 88.441 186.669C88.4249 186.624 88.3953 186.514 88.371 186.437L88.3225 186.287C88.301 186.22 88.2794 186.153 88.2552 186.086C88.2147 185.966 88.1716 185.848 88.1285 185.728C88.0854 185.608 88.0396 185.49 87.9938 185.372C87.9022 185.132 87.8025 184.894 87.7029 184.656C87.3122 183.731 86.8731 182.819 86.4689 181.915C86.2517 181.441 86.0593 180.957 85.8924 180.463L85.8412 180.536C85.7593 180.659 85.6863 180.787 85.623 180.921C85.623 183.025 83.5 185.6 83.5 185.6L81.3635 182.511L79.4937 185.364C79.2243 185.506 78.9549 185.993 78.7448 186.685C78.6855 186.872 78.6289 187.076 78.575 187.292C78.5373 187.437 78.5023 187.589 78.47 187.741C78.4511 187.819 78.4349 187.897 78.4188 187.977L78.3703 188.22V188.258C78.3379 188.423 78.3056 188.594 78.276 188.768C78.2463 188.942 78.2113 189.143 78.1817 189.332C78.1601 189.455 78.1413 189.578 78.1251 189.701C78.0874 189.939 78.0551 190.18 78.0227 190.418C78.0039 190.557 77.985 190.685 77.9688 190.832L77.9042 191.367C78.0416 191.806 78.1951 192.239 78.3541 192.664C78.4556 192.897 78.5149 193.146 78.5292 193.399C81.8352 194.337 85.3398 194.337 88.6458 193.399C88.6446 193.39 88.6446 193.381 88.6458 193.373C88.596 193.132 88.5743 192.888 88.5812 192.643C88.6355 191.957 88.7255 191.274 88.8506 190.597C88.8903 190.264 88.9074 189.928 88.9018 189.592V189.471C88.8937 189.37 88.891 189.274 88.8883 189.177ZM91.7441 184.159L90.7823 180.348L90.6179 179.696L90.5721 179.517L90.3377 178.586C90.3383 178.578 90.3383 178.57 90.3377 178.562C90.3433 178.521 90.3368 178.479 90.3189 178.442C90.2839 178.372 90.195 178.3 89.9875 178.282C89.9086 178.276 89.8293 178.276 89.7504 178.282C89.5163 178.305 89.2847 178.347 89.058 178.41C88.9476 178.439 88.829 178.471 88.7024 178.511L88.4707 178.584H88.4491C87.8286 178.786 87.2525 179.103 86.7518 179.519C86.421 179.793 86.1308 180.112 85.8897 180.466L85.8385 180.538C85.7566 180.661 85.6836 180.79 85.6203 180.923C85.6203 183.028 83.4973 185.602 83.4973 185.602L81.3608 182.514L81.2396 182.34L81.218 182.311L80.9082 181.859L80.6738 181.549L80.6118 181.469L79.5072 180.006L79.157 179.533V179.517L79.0357 179.354L78.804 179.049L77.9958 179.517L75.9752 180.685L75.043 186.704V186.768L75.0699 187.207L75.2693 190.557V190.747L74.9648 191.953C75.7786 192.388 76.6253 192.76 77.4974 193.065L77.7264 193.145C77.9958 193.233 78.249 193.314 78.5131 193.391C78.5228 193.431 78.53 193.471 78.5346 193.512C78.5346 193.474 78.5346 193.434 78.5346 193.397C81.8406 194.334 85.3452 194.334 88.6512 193.397L88.7132 193.378C88.8667 193.335 89.023 193.29 89.1739 193.239L89.419 193.161C90.0838 192.941 90.7351 192.682 91.3696 192.386L91.5932 187.605L91.7549 184.191L91.7441 184.159ZM78.4942 193.391C78.504 193.431 78.5112 193.471 78.5157 193.512C78.5157 193.474 78.5157 193.434 78.5157 193.397L78.4942 193.391ZM88.8883 189.177C88.8883 189.07 88.8883 188.963 88.8694 188.856C88.8506 188.749 88.8533 188.656 88.8398 188.554C88.8263 188.453 88.8155 188.351 88.8021 188.25C88.7886 188.148 88.7697 188.046 88.7509 187.945C88.732 187.843 88.7132 187.741 88.6916 187.64C88.6916 187.605 88.6781 187.573 88.6701 187.538C88.6404 187.405 88.6081 187.271 88.5731 187.135C88.538 186.998 88.5165 186.918 88.4842 186.811C88.4842 186.763 88.4572 186.715 88.441 186.669C88.4249 186.624 88.3953 186.514 88.371 186.437L88.3225 186.287C88.301 186.22 88.2794 186.153 88.2552 186.086C88.2147 185.966 88.1716 185.848 88.1285 185.728C88.0854 185.608 88.0396 185.49 87.9938 185.372C87.9022 185.132 87.8025 184.894 87.7029 184.656C87.3122 183.731 86.8731 182.819 86.4689 181.915C86.2517 181.441 86.0593 180.957 85.8924 180.463L85.8412 180.536C85.7593 180.659 85.6863 180.787 85.623 180.921C85.623 183.025 83.5 185.6 83.5 185.6L81.3635 182.511L79.4937 185.364C79.2243 185.506 78.9549 185.993 78.7448 186.685C78.6855 186.872 78.6289 187.076 78.575 187.292C78.5373 187.437 78.5023 187.589 78.47 187.741C78.4511 187.819 78.4349 187.897 78.4188 187.977L78.3703 188.22V188.258C78.3379 188.423 78.3056 188.594 78.276 188.768C78.2463 188.942 78.2113 189.143 78.1817 189.332C78.1601 189.455 78.1413 189.578 78.1251 189.701C78.0874 189.939 78.0551 190.18 78.0227 190.418C78.0039 190.557 77.985 190.685 77.9688 190.832L77.9042 191.367C78.0416 191.806 78.1951 192.239 78.3541 192.664C78.4556 192.897 78.5149 193.146 78.5292 193.399C81.8352 194.337 85.3398 194.337 88.6458 193.399C88.6446 193.39 88.6446 193.381 88.6458 193.373C88.596 193.132 88.5743 192.888 88.5812 192.643C88.6355 191.957 88.7255 191.274 88.8506 190.597C88.8903 190.264 88.9074 189.928 88.9018 189.592V189.471C88.8937 189.37 88.891 189.274 88.8883 189.177ZM88.8883 189.177C88.8883 189.07 88.8883 188.963 88.8694 188.856C88.8506 188.749 88.8533 188.656 88.8398 188.554C88.8263 188.453 88.8155 188.351 88.8021 188.25C88.7886 188.148 88.7697 188.046 88.7509 187.945C88.732 187.843 88.7132 187.741 88.6916 187.64C88.6916 187.605 88.6781 187.573 88.6701 187.538C88.6404 187.405 88.6081 187.271 88.5731 187.135C88.538 186.998 88.5165 186.918 88.4842 186.811C88.4842 186.763 88.4572 186.715 88.441 186.669C88.4249 186.624 88.3953 186.514 88.371 186.437L88.3225 186.287C88.301 186.22 88.2794 186.153 88.2552 186.086C88.2147 185.966 88.1716 185.848 88.1285 185.728C88.0854 185.608 88.0396 185.49 87.9938 185.372C87.9022 185.132 87.8025 184.894 87.7029 184.656C87.3122 183.731 86.8731 182.819 86.4689 181.915C86.2517 181.441 86.0593 180.957 85.8924 180.463L85.8412 180.536C85.7593 180.659 85.6863 180.787 85.623 180.921C85.623 183.025 83.5 185.6 83.5 185.6L81.3635 182.511L79.4937 185.364C79.2243 185.506 78.9549 185.993 78.7448 186.685C78.6855 186.872 78.6289 187.076 78.575 187.292C78.5373 187.437 78.5023 187.589 78.47 187.741C78.4511 187.819 78.4349 187.897 78.4188 187.977L78.3703 188.22V188.258C78.3379 188.423 78.3056 188.594 78.276 188.768C78.2463 188.942 78.2113 189.143 78.1817 189.332C78.1601 189.455 78.1413 189.578 78.1251 189.701C78.0874 189.939 78.0551 190.18 78.0227 190.418C78.0039 190.557 77.985 190.685 77.9688 190.832L77.9042 191.367C78.0416 191.806 78.1951 192.239 78.3541 192.664C78.4556 192.897 78.5149 193.146 78.5292 193.399C81.8352 194.337 85.3398 194.337 88.6458 193.399C88.6446 193.39 88.6446 193.381 88.6458 193.373C88.596 193.132 88.5743 192.888 88.5812 192.643C88.6355 191.957 88.7255 191.274 88.8506 190.597C88.8903 190.264 88.9074 189.928 88.9018 189.592V189.471C88.8937 189.37 88.891 189.274 88.8883 189.177ZM88.8883 189.177C88.8883 189.07 88.8883 188.963 88.8694 188.856C88.8506 188.749 88.8533 188.656 88.8398 188.554C88.8263 188.453 88.8155 188.351 88.8021 188.25C88.7886 188.148 88.7697 188.046 88.7509 187.945C88.732 187.843 88.7132 187.741 88.6916 187.64C88.6916 187.605 88.6781 187.573 88.6701 187.538C88.6404 187.405 88.6081 187.271 88.5731 187.135C88.538 186.998 88.5165 186.918 88.4842 186.811C88.4842 186.763 88.4572 186.715 88.441 186.669C88.4249 186.624 88.3953 186.514 88.371 186.437L88.3225 186.287C88.301 186.22 88.2794 186.153 88.2552 186.086C88.2147 185.966 88.1716 185.848 88.1285 185.728C88.0854 185.608 88.0396 185.49 87.9938 185.372C87.9022 185.132 87.8025 184.894 87.7029 184.656C87.3122 183.731 86.8731 182.819 86.4689 181.915C86.2517 181.441 86.0593 180.957 85.8924 180.463L85.8412 180.536C85.7593 180.659 85.6863 180.787 85.623 180.921C85.623 183.025 83.5 185.6 83.5 185.6L81.3635 182.511L79.4937 185.364C79.2243 185.506 78.9549 185.993 78.7448 186.685C78.6855 186.872 78.6289 187.076 78.575 187.292C78.5373 187.437 78.5023 187.589 78.47 187.741C78.4511 187.819 78.4349 187.897 78.4188 187.977L78.3703 188.22V188.258C78.3379 188.423 78.3056 188.594 78.276 188.768C78.2463 188.942 78.2113 189.143 78.1817 189.332C78.1601 189.455 78.1413 189.578 78.1251 189.701C78.0874 189.939 78.0551 190.18 78.0227 190.418C78.0039 190.557 77.985 190.685 77.9688 190.832L77.9042 191.367C78.0416 191.806 78.1951 192.239 78.3541 192.664C78.4556 192.897 78.5149 193.146 78.5292 193.399C81.8352 194.337 85.3398 194.337 88.6458 193.399C88.6446 193.39 88.6446 193.381 88.6458 193.373C88.596 193.132 88.5743 192.888 88.5812 192.643C88.6355 191.957 88.7255 191.274 88.8506 190.597C88.8903 190.264 88.9074 189.928 88.9018 189.592V189.471C88.8937 189.37 88.891 189.274 88.8883 189.177ZM88.8883 189.177C88.8883 189.07 88.8883 188.963 88.8694 188.856C88.8506 188.749 88.8533 188.656 88.8398 188.554C88.8263 188.453 88.8155 188.351 88.8021 188.25C88.7886 188.148 88.7697 188.046 88.7509 187.945C88.732 187.843 88.7132 187.741 88.6916 187.64C88.6916 187.605 88.6781 187.573 88.6701 187.538C88.6404 187.405 88.6081 187.271 88.5731 187.135C88.538 186.998 88.5165 186.918 88.4842 186.811C88.4842 186.763 88.4572 186.715 88.441 186.669C88.4249 186.624 88.3953 186.514 88.371 186.437L88.3225 186.287C88.301 186.22 88.2794 186.153 88.2552 186.086C88.2147 185.966 88.1716 185.848 88.1285 185.728C88.0854 185.608 88.0396 185.49 87.9938 185.372C87.9022 185.132 87.8025 184.894 87.7029 184.656C87.3122 183.731 86.8731 182.819 86.4689 181.915C86.2517 181.441 86.0593 180.957 85.8924 180.463L85.8412 180.536C85.7593 180.659 85.6863 180.787 85.623 180.921C85.623 183.025 83.5 185.6 83.5 185.6L81.3635 182.511L79.4937 185.364C79.2243 185.506 78.9549 185.993 78.7448 186.685C78.6855 186.872 78.6289 187.076 78.575 187.292C78.5373 187.437 78.5023 187.589 78.47 187.741C78.4511 187.819 78.4349 187.897 78.4188 187.977L78.3703 188.22V188.258C78.3379 188.423 78.3056 188.594 78.276 188.768C78.2463 188.942 78.2113 189.143 78.1817 189.332C78.1601 189.455 78.1413 189.578 78.1251 189.701C78.0874 189.939 78.0551 190.18 78.0227 190.418C78.0039 190.557 77.985 190.685 77.9688 190.832L77.9042 191.367C78.0416 191.806 78.1951 192.239 78.3541 192.664C78.4556 192.897 78.5149 193.146 78.5292 193.399C81.8352 194.337 85.3398 194.337 88.6458 193.399C88.6446 193.39 88.6446 193.381 88.6458 193.373C88.596 193.132 88.5743 192.888 88.5812 192.643C88.6355 191.957 88.7255 191.274 88.8506 190.597C88.8903 190.264 88.9074 189.928 88.9018 189.592V189.471C88.8937 189.37 88.891 189.274 88.8883 189.177ZM88.8883 189.177C88.8883 189.07 88.8883 188.963 88.8694 188.856C88.8506 188.749 88.8533 188.656 88.8398 188.554C88.8263 188.453 88.8155 188.351 88.8021 188.25C88.7886 188.148 88.7697 188.046 88.7509 187.945C88.732 187.843 88.7132 187.741 88.6916 187.64C88.6916 187.605 88.6781 187.573 88.6701 187.538C88.6404 187.405 88.6081 187.271 88.5731 187.135C88.538 186.998 88.5165 186.918 88.4842 186.811C88.4842 186.763 88.4572 186.715 88.441 186.669C88.4249 186.624 88.3953 186.514 88.371 186.437L88.3225 186.287C88.301 186.22 88.2794 186.153 88.2552 186.086C88.2147 185.966 88.1716 185.848 88.1285 185.728C88.0854 185.608 88.0396 185.49 87.9938 185.372C87.9022 185.132 87.8025 184.894 87.7029 184.656C87.3122 183.731 86.8731 182.819 86.4689 181.915C86.2517 181.441 86.0593 180.957 85.8924 180.463L85.8412 180.536C85.7593 180.659 85.6863 180.787 85.623 180.921C85.623 183.025 83.5 185.6 83.5 185.6L81.3635 182.511L79.4937 185.364C79.2243 185.506 78.9549 185.993 78.7448 186.685C78.6855 186.872 78.6289 187.076 78.575 187.292C78.5373 187.437 78.5023 187.589 78.47 187.741C78.4511 187.819 78.4349 187.897 78.4188 187.977L78.3703 188.22V188.258C78.3379 188.423 78.3056 188.594 78.276 188.768C78.2463 188.942 78.2113 189.143 78.1817 189.332C78.1601 189.455 78.1413 189.578 78.1251 189.701C78.0874 189.939 78.0551 190.18 78.0227 190.418C78.0039 190.557 77.985 190.685 77.9688 190.832L77.9042 191.367C78.0416 191.806 78.1951 192.239 78.3541 192.664C78.4556 192.897 78.5149 193.146 78.5292 193.399C81.8352 194.337 85.3398 194.337 88.6458 193.399C88.6446 193.39 88.6446 193.381 88.6458 193.373C88.596 193.132 88.5743 192.888 88.5812 192.643C88.6355 191.957 88.7255 191.274 88.8506 190.597C88.8903 190.264 88.9074 189.928 88.9018 189.592V189.471C88.8937 189.37 88.891 189.274 88.8883 189.177ZM88.8883 189.177C88.8883 189.07 88.8883 188.963 88.8694 188.856C88.8506 188.749 88.8533 188.656 88.8398 188.554C88.8263 188.453 88.8155 188.351 88.8021 188.25C88.7886 188.148 88.7697 188.046 88.7509 187.945C88.732 187.843 88.7132 187.741 88.6916 187.64C88.6916 187.605 88.6781 187.573 88.6701 187.538C88.6404 187.405 88.6081 187.271 88.5731 187.135C88.538 186.998 88.5165 186.918 88.4842 186.811C88.4842 186.763 88.4572 186.715 88.441 186.669C88.4249 186.624 88.3953 186.514 88.371 186.437L88.3225 186.287C88.301 186.22 88.2794 186.153 88.2552 186.086C88.2147 185.966 88.1716 185.848 88.1285 185.728C88.0854 185.608 88.0396 185.49 87.9938 185.372C87.9022 185.132 87.8025 184.894 87.7029 184.656C87.3122 183.731 86.8731 182.819 86.4689 181.915C86.2517 181.441 86.0593 180.957 85.8924 180.463L85.8412 180.536C85.7593 180.659 85.6863 180.787 85.623 180.921C85.623 183.025 83.5 185.6 83.5 185.6L81.3635 182.511L79.4937 185.364C79.2243 185.506 78.9549 185.993 78.7448 186.685C78.6855 186.872 78.6289 187.076 78.575 187.292C78.5373 187.437 78.5023 187.589 78.47 187.741C78.4511 187.819 78.4349 187.897 78.4188 187.977L78.3703 188.22V188.258C78.3379 188.423 78.3056 188.594 78.276 188.768C78.2463 188.942 78.2113 189.143 78.1817 189.332C78.1601 189.455 78.1413 189.578 78.1251 189.701C78.0874 189.939 78.0551 190.18 78.0227 190.418C78.0039 190.557 77.985 190.685 77.9688 190.832L77.9042 191.367C78.0416 191.806 78.1951 192.239 78.3541 192.664C78.4556 192.897 78.5149 193.146 78.5292 193.399C81.8352 194.337 85.3398 194.337 88.6458 193.399C88.6446 193.39 88.6446 193.381 88.6458 193.373C88.596 193.132 88.5743 192.888 88.5812 192.643C88.6355 191.957 88.7255 191.274 88.8506 190.597C88.8903 190.264 88.9074 189.928 88.9018 189.592V189.471C88.8937 189.37 88.891 189.274 88.8883 189.177ZM88.8883 189.177C88.8883 189.07 88.8883 188.963 88.8694 188.856C88.8506 188.749 88.8533 188.656 88.8398 188.554C88.8263 188.453 88.8155 188.351 88.8021 188.25C88.7886 188.148 88.7697 188.046 88.7509 187.945C88.732 187.843 88.7132 187.741 88.6916 187.64C88.6916 187.605 88.6781 187.573 88.6701 187.538C88.6404 187.405 88.6081 187.271 88.5731 187.135C88.538 186.998 88.5165 186.918 88.4842 186.811C88.4842 186.763 88.4572 186.715 88.441 186.669C88.4249 186.624 88.3953 186.514 88.371 186.437L88.3225 186.287C88.301 186.22 88.2794 186.153 88.2552 186.086C88.2147 185.966 88.1716 185.848 88.1285 185.728C88.0854 185.608 88.0396 185.49 87.9938 185.372C87.9022 185.132 87.8025 184.894 87.7029 184.656C87.3122 183.731 86.8731 182.819 86.4689 181.915C86.2517 181.441 86.0593 180.957 85.8924 180.463L85.8412 180.536C85.7593 180.659 85.6863 180.787 85.623 180.921C85.623 183.025 83.5 185.6 83.5 185.6L81.3635 182.511L79.4937 185.364C79.2243 185.506 78.9549 185.993 78.7448 186.685C78.6855 186.872 78.6289 187.076 78.575 187.292C78.5373 187.437 78.5023 187.589 78.47 187.741C78.4511 187.819 78.4349 187.897 78.4188 187.977L78.3703 188.22V188.258C78.3379 188.423 78.3056 188.594 78.276 188.768C78.2463 188.942 78.2113 189.143 78.1817 189.332C78.1601 189.455 78.1413 189.578 78.1251 189.701C78.0874 189.939 78.0551 190.18 78.0227 190.418C78.0039 190.557 77.985 190.685 77.9688 190.832L77.9042 191.367C78.0416 191.806 78.1951 192.239 78.3541 192.664C78.4556 192.897 78.5149 193.146 78.5292 193.399C81.8352 194.337 85.3398 194.337 88.6458 193.399C88.6446 193.39 88.6446 193.381 88.6458 193.373C88.596 193.132 88.5743 192.888 88.5812 192.643C88.6355 191.957 88.7255 191.274 88.8506 190.597C88.8903 190.264 88.9074 189.928 88.9018 189.592V189.471C88.8937 189.37 88.891 189.274 88.8883 189.177ZM88.8883 189.177C88.8883 189.07 88.8883 188.963 88.8694 188.856C88.8506 188.749 88.8533 188.656 88.8398 188.554C88.8263 188.453 88.8155 188.351 88.8021 188.25C88.7886 188.148 88.7697 188.046 88.7509 187.945C88.732 187.843 88.7132 187.741 88.6916 187.64C88.6916 187.605 88.6781 187.573 88.6701 187.538C88.6404 187.405 88.6081 187.271 88.5731 187.135C88.538 186.998 88.5165 186.918 88.4842 186.811C88.4842 186.763 88.4572 186.715 88.441 186.669C88.4249 186.624 88.3953 186.514 88.371 186.437L88.3225 186.287C88.301 186.22 88.2794 186.153 88.2552 186.086C88.2147 185.966 88.1716 185.848 88.1285 185.728C88.0854 185.608 88.0396 185.49 87.9938 185.372C87.9022 185.132 87.8025 184.894 87.7029 184.656C87.3122 183.731 86.8731 182.819 86.4689 181.915C86.2517 181.441 86.0593 180.957 85.8924 180.463L85.8412 180.536C85.7593 180.659 85.6863 180.787 85.623 180.921C85.623 183.025 83.5 185.6 83.5 185.6L81.3635 182.511L79.4937 185.364C79.2243 185.506 78.9549 185.993 78.7448 186.685C78.6855 186.872 78.6289 187.076 78.575 187.292C78.5373 187.437 78.5023 187.589 78.47 187.741C78.4511 187.819 78.4349 187.897 78.4188 187.977L78.3703 188.22V188.258C78.3379 188.423 78.3056 188.594 78.276 188.768C78.2463 188.942 78.2113 189.143 78.1817 189.332C78.1601 189.455 78.1413 189.578 78.1251 189.701C78.0874 189.939 78.0551 190.18 78.0227 190.418C78.0039 190.557 77.985 190.685 77.9688 190.832L77.9042 191.367C78.0416 191.806 78.1951 192.239 78.3541 192.664C78.4556 192.897 78.5149 193.146 78.5292 193.399C81.8352 194.337 85.3398 194.337 88.6458 193.399C88.6446 193.39 88.6446 193.381 88.6458 193.373C88.596 193.132 88.5743 192.888 88.5812 192.643C88.6355 191.957 88.7255 191.274 88.8506 190.597C88.8903 190.264 88.9074 189.928 88.9018 189.592V189.471C88.8937 189.37 88.891 189.274 88.8883 189.177Z" fill="#444176"/>
<path opacity="0.1" d="M81.3977 182.334L81.2172 182.31C80.9447 182.274 80.6747 182.22 80.4089 182.15L80.3093 182.123C79.6519 181.939 78.9325 181.607 78.7709 181.024C78.7228 180.837 78.7284 180.639 78.7871 180.455C78.8775 180.137 79.0003 179.828 79.1535 179.535V179.519C79.1737 179.478 79.1962 179.437 79.2208 179.398C79.4431 178.967 79.7793 178.604 80.1934 178.348L79.8701 178.398L77.1328 178.84L72.8895 179.519C72.8895 179.519 72.1352 179.369 71.1087 182.177C71.1087 182.211 71.0844 182.243 71.0737 182.281C70.8258 182.968 70.5645 183.826 70.295 184.898C70.1091 185.642 69.9394 186.372 69.7831 187.08C69.7373 187.294 69.6915 187.505 69.6484 187.714C70.1342 188.282 70.6571 188.818 71.2137 189.318L71.3027 189.401C72.393 190.381 73.5978 191.228 74.8913 191.923L74.9425 191.949C75.7562 192.385 76.6029 192.757 77.475 193.062L77.704 193.142C77.7525 192.647 77.8064 192.099 77.871 191.538C77.871 191.481 77.871 191.425 77.8926 191.369L77.9573 190.834C77.9734 190.698 77.9923 190.567 78.0111 190.42C78.0435 190.182 78.0758 189.941 78.1135 189.703C78.1297 189.58 78.1485 189.457 78.1701 189.334C78.1997 189.145 78.2321 188.955 78.2644 188.77C78.2967 188.586 78.3264 188.425 78.3587 188.259V188.222L78.4072 187.979C78.4233 187.899 78.4395 187.821 78.4584 187.743C78.4907 187.591 78.5257 187.439 78.5634 187.294C78.6173 187.078 78.6739 186.874 78.7332 186.687C78.9487 185.995 79.1993 185.508 79.4822 185.366L81.3519 182.513L81.43 182.393L81.4651 182.34L81.3977 182.334Z" fill="black"/>
<path opacity="0.1" d="M81.8491 168.097C82.6897 167.955 83.5357 167.65 84.3708 167.829C85.0713 167.974 85.656 168.436 86.2972 168.757C86.9162 169.066 87.5934 169.244 88.2855 169.279C88.5379 169.311 88.7943 169.262 89.0156 169.137C89.3497 168.907 89.3982 168.436 89.3416 168.035C89.1799 166.896 88.4633 165.918 87.7251 165.03C87.4305 164.651 87.0903 164.309 86.7121 164.011C85.7449 163.303 84.4651 163.182 83.2662 163.236C81.8976 163.297 80.5074 163.559 79.3193 164.241C78.511 164.701 76.6574 166.15 77.3014 167.198C77.9776 168.295 80.7903 168.276 81.8491 168.097Z" fill="black"/>
<path opacity="0.5" d="M81.8491 167.829C82.6897 167.687 83.5357 167.383 84.3708 167.562C85.0713 167.706 85.656 168.169 86.2972 168.49C86.9162 168.799 87.5934 168.976 88.2855 169.011C88.5379 169.044 88.7943 168.994 89.0156 168.869C89.3497 168.639 89.3982 168.169 89.3416 167.768C89.1799 166.629 88.4633 165.65 87.7251 164.762C87.4305 164.383 87.0903 164.041 86.7121 163.744C85.7449 163.035 84.4651 162.915 83.2662 162.968C81.8976 163.03 80.5074 163.292 79.3193 163.974C78.511 164.433 76.6574 165.883 77.3014 166.931C77.9776 168.027 80.7903 168.008 81.8491 167.829Z" fill="#444176"/>
<path d="M155.833 154.737H155.874C155.933 156.529 156.189 158.149 156.682 158.598C157.857 159.668 162.728 157.529 162.394 156.235C162.326 155.967 162.213 155.529 162.07 154.975C163.385 154.812 164.509 154.441 164.956 153.676L165.802 156.264L165.861 156.449H165.877H165.926C166.483 161.695 167.747 172.588 168.757 174.048C170.104 175.981 171.654 184.358 171.654 184.358L174.55 201.542C174.55 201.542 175.665 211.436 176.333 212.505C176.528 212.709 176.786 212.842 177.066 212.882C176.675 214.043 176.115 215.398 175.45 216.155C174.103 217.658 172.33 220.666 170.77 220.452C169.21 220.238 168.765 223.46 171.662 223.887C173.265 224.125 175.821 223.837 177.785 223.532C177.785 224.393 178.389 225.382 179.906 225.607C182.802 226.037 188.818 224.748 188.818 224.748C188.818 224.748 193.937 222.609 194.166 221.096C194.328 220 193.544 215.599 193.107 213.291C193.915 212.005 193.053 200.906 193.053 200.906L191.493 179.641C191.493 179.641 192.385 167.828 191.493 165.679C190.936 164.342 190.728 158.192 190.65 153.794L191.728 153.863C191.789 153.79 191.845 153.712 191.895 153.631L192.164 153.649C192.164 153.649 193.511 152.147 192.388 149.783C191.561 148.026 191.717 140.096 191.849 136.146L192.008 134.275C192.067 134.218 192.112 134.148 192.14 134.072C194.23 133.792 196.261 133.181 198.156 132.264C198.728 132.028 199.26 131.707 199.735 131.312C200.85 130.243 200.179 123.793 197.951 114.128C195.723 104.462 193.719 105.32 193.719 105.32C193.719 105.32 188.371 104.89 185.919 101.668C183.467 98.4458 181.821 98.4886 181.821 98.4886C181.759 98.0661 181.716 97.6677 181.687 97.2961C181.687 97.157 181.665 97.0287 181.657 96.8896C182.491 96.1204 183.126 95.1641 183.511 94.1009C184.012 93.8335 184.629 93.7453 185.108 93.4084C185.231 93.3202 185.342 93.2178 185.44 93.1035C185.92 92.6635 186.225 92.0665 186.299 91.4217C186.375 90.7176 186.342 90.006 186.199 89.3121C186.03 88.2853 185.779 87.2345 185.176 86.427C184.572 85.6195 183.67 85.1329 182.799 84.681C180.443 83.4529 178.08 82.2372 175.711 81.034C175.248 80.7533 174.732 80.5712 174.194 80.4992C173.246 80.4457 172.394 81.0901 171.629 81.7024C171.324 81.9408 171.032 82.1952 170.754 82.4645C170.517 82.6725 170.302 82.9026 170.11 83.1516C169.215 84.3415 168.835 86.5821 169.229 88.0688C169.353 88.5393 169.619 88.6757 169.948 88.6704C169.46 89.6326 169.207 90.6949 169.207 91.772C169.213 92.9513 169.517 94.1103 170.091 95.1424C170.666 96.1746 171.493 97.0466 172.497 97.6784C172.497 97.8282 172.497 97.9752 172.51 98.1169C172.521 98.6656 172.503 99.2145 172.456 99.7613C172.456 99.7613 166.529 102.94 165.864 104.443C165.198 105.946 162.744 107.021 162.744 107.021C162.744 107.021 158.064 109.384 158.064 117.761L155.612 129.574L155.168 152.128C155.168 152.128 155.475 151.86 155.976 151.481C155.96 151.631 155.947 151.786 155.933 151.943C155.866 152.805 155.844 153.67 155.866 154.534L155.833 154.737ZM185.766 213.109C185.674 213.454 185.539 213.911 185.37 214.446C185.294 214.002 185.219 213.564 185.143 213.147C185.337 213.128 185.545 213.117 185.766 213.109Z" fill="url(#paint2_linear)"/>
<path d="M177.673 210.338C177.673 210.338 176.814 214.173 175.518 215.662C174.222 217.151 172.524 220.135 171.026 219.921C169.528 219.707 169.095 222.903 171.886 223.328C174.677 223.753 180.456 222.477 180.456 222.477C180.456 222.477 185.392 220.338 185.605 218.857C185.817 217.376 184.317 209.699 184.317 209.699L177.673 210.338Z" fill="#53526B"/>
<path opacity="0.05" d="M177.673 210.338C177.673 210.338 176.814 214.173 175.518 215.662C174.222 217.151 172.524 220.135 171.026 219.921C169.528 219.707 169.095 222.903 171.886 223.328C174.677 223.753 180.456 222.477 180.456 222.477C180.456 222.477 185.392 220.338 185.605 218.857C185.817 217.376 184.317 209.699 184.317 209.699L177.673 210.338Z" fill="black"/>
<path d="M185.611 212.04C185.611 212.04 184.751 215.874 183.456 217.364C182.16 218.853 180.454 221.837 178.959 221.623C177.464 221.409 177.027 224.604 179.818 225.03C182.61 225.455 188.402 224.177 188.402 224.177C188.402 224.177 193.338 222.038 193.551 220.556C193.763 219.075 192.263 211.398 192.263 211.398L185.611 212.04Z" fill="#53526B"/>
<path d="M166.086 153.695C166.086 153.695 167.802 172.008 169.09 173.925C170.378 175.842 171.878 184.147 171.878 184.147L174.667 201.182C174.667 201.182 175.745 210.979 176.383 212.043C177.022 213.107 184.986 212.65 184.986 212.65L180.034 156.249L166.086 153.695Z" fill="#5F5D7E"/>
<path opacity="0.05" d="M166.086 153.695C166.086 153.695 167.802 172.008 169.09 173.925C170.378 175.842 171.878 184.147 171.878 184.147L174.667 201.182C174.667 201.182 175.745 210.979 176.383 212.043C177.022 213.107 184.986 212.65 184.986 212.65L180.034 156.249L166.086 153.695Z" fill="black"/>
<path d="M162.652 144.961L163.213 146.728L166.244 156.276L166.303 156.458H166.319C166.726 156.549 175.315 158.509 177.169 159.111C177.269 159.141 177.367 159.178 177.462 159.22C178.322 159.646 179.394 174.977 179.394 174.977C179.394 174.977 180.038 189.458 180.472 190.523C180.905 191.587 182.627 213.517 183.691 212.881C184.755 212.245 192.488 212.881 192.488 212.881C193.347 212.028 192.488 200.531 192.488 200.531L190.963 179.453C190.963 179.453 191.822 167.742 190.963 165.611C190.103 163.48 190.103 149.215 190.103 149.215L172.54 146.49L170.843 146.223L162.652 144.961Z" fill="#5F5D7E"/>
<path opacity="0.02" d="M163.215 146.731L166.246 156.279L166.319 156.466C166.725 156.557 175.314 158.517 177.168 159.118H177.354L172.555 146.493L172.418 146.129L170.858 146.228L163.215 146.731Z" fill="black"/>
<path opacity="0.1" d="M183.25 102.375C183.25 102.375 175.31 110.894 170.375 103.864L165.654 107.06L166.514 111.958L163.723 149.009C163.723 149.009 171.018 148.795 176.167 150.498C177.601 151.003 179.15 151.091 180.633 150.751C182.115 150.411 183.469 149.659 184.535 148.581L183.686 116.003L185.618 105.995L183.25 102.375Z" fill="black"/>
<path d="M183.25 101.736C183.25 101.736 175.31 110.255 170.375 103.226L165.654 106.421L166.514 111.319L163.723 148.37C163.723 148.37 171.018 148.156 176.167 149.86C177.601 150.364 179.15 150.452 180.633 150.112C182.115 149.773 183.469 149.02 184.535 147.942L183.686 115.365L185.618 105.357L183.25 101.736Z" fill="#53526B"/>
<path d="M167.402 139.672V141.014H166.971V140.121H165.395V141.014H164.961V139.675L167.402 139.672Z" fill="#E82127"/>
<path d="M167.016 139.239H165.351C165.242 139.213 165.142 139.158 165.062 139.08C164.983 139.001 164.926 138.903 164.898 138.795H167.466C167.438 138.903 167.382 139.001 167.302 139.079C167.222 139.157 167.122 139.213 167.013 139.239" fill="#E82127"/>
<path d="M182.073 138.812C182.045 138.919 181.988 139.016 181.909 139.094C181.83 139.172 181.731 139.227 181.623 139.254H180.923L180.887 139.267V141.021H180.456V139.267L180.416 139.254H179.716C179.608 139.226 179.51 139.171 179.431 139.093C179.352 139.016 179.295 138.919 179.266 138.812H182.073Z" fill="#E82127"/>
<path d="M166.729 145.816C166.729 145.816 166.729 151.354 165.441 153.696C164.153 156.038 156.645 154.766 156.645 154.766L158.145 146.886L166.729 145.816Z" fill="#D6DBE6"/>
<path d="M157.461 158.599C158.593 159.668 163.283 157.529 162.96 156.257C162.734 155.355 161.942 152.131 161.492 150.302L161.179 149.016C161.179 149.016 158.431 148.163 157.461 149.016C157.108 149.326 156.86 150.548 156.745 152.024C156.545 154.588 156.747 157.92 157.461 158.599Z" fill="#FDC2CC"/>
<path d="M167.793 105.568L175.302 111.317C175.302 111.317 186.458 110.678 183.67 105.354C182.455 103.013 181.723 100.455 181.514 97.83C181.424 96.8615 181.424 95.8867 181.514 94.9182C181.514 94.9182 171.215 85.5599 172.502 96.1963C172.604 97.0127 172.663 97.8338 172.68 98.6562C172.834 106.64 167.793 105.568 167.793 105.568Z" fill="#FDC2CC"/>
<path opacity="0.1" d="M172.522 96.1971C172.623 97.0136 172.682 97.8346 172.699 98.657C173.855 99.4168 175.212 99.8205 176.598 99.8175C178.519 99.8175 179.933 97.9618 181.21 96.7292C181.068 94.9618 181.531 94.919 181.531 94.919C181.531 94.919 171.234 85.55 172.522 96.1971Z" fill="black"/>
<path d="M176.6 99.3934C180.51 99.3934 183.68 96.2474 183.68 92.3666C183.68 88.4858 180.51 85.3398 176.6 85.3398C172.689 85.3398 169.52 88.4858 169.52 92.3666C169.52 96.2474 172.689 99.3934 176.6 99.3934Z" fill="#FDC2CC"/>
<path opacity="0.1" d="M181.641 99.0723C181.641 99.0723 182.821 99.1792 185.181 102.372C187.541 105.564 192.69 105.992 192.69 105.992C192.69 105.992 194.621 105.139 196.766 114.722C198.911 124.305 199.554 130.693 198.482 131.757C197.41 132.821 193.118 134.316 190.963 134.316C190.963 134.316 190.319 147.73 191.391 150.072C192.463 152.415 191.176 153.907 191.176 153.907L181.746 153.268C181.746 153.268 178.526 149.222 177.883 142.195C177.239 135.169 175.094 115.15 176.166 112.808C177.239 110.465 181.959 104.503 181.746 103.864C181.533 103.225 181.641 99.0723 181.641 99.0723Z" fill="black"/>
<path d="M181.664 99.0078C181.664 99.0078 183.251 98.9651 185.611 102.16C187.972 105.355 193.117 105.781 193.117 105.781C193.117 105.781 195.049 104.928 197.194 114.511C199.338 124.094 199.982 130.481 198.91 131.545C197.838 132.61 193.546 134.102 191.401 134.102C191.401 134.102 190.757 147.516 191.83 149.858C192.902 152.201 191.614 153.693 191.614 153.693L182.184 153.054C182.184 153.054 178.965 149.008 178.321 141.981C177.677 134.955 175.527 114.938 176.599 112.607C177.672 110.275 182.392 104.302 182.179 103.663C181.966 103.024 181.664 99.0078 181.664 99.0078Z" fill="#D6DBE6"/>
<path opacity="0.1" d="M156.746 152.02C157.773 151.242 159.71 150.031 161.493 150.298L161.181 149.012C161.181 149.012 158.433 148.159 157.463 149.012C157.104 149.322 156.859 150.541 156.746 152.02Z" fill="black"/>
<path opacity="0.1" d="M172.641 100.352C172.641 100.352 167.169 103.865 166.525 105.357C165.881 106.849 163.521 107.913 163.521 107.913C163.521 107.913 159.016 110.255 159.016 118.56L156.656 130.271L167.384 145.178C167.384 145.178 168.672 130.271 169.316 126.651C169.96 123.031 170.817 116.223 170.817 116.223C170.817 116.223 174.036 112.178 173.605 111.114C173.174 110.049 172.641 100.352 172.641 100.352Z" fill="black"/>
<path d="M172.641 100.287C172.641 100.287 166.934 103.44 166.293 104.929C165.652 106.418 163.289 107.485 163.289 107.485C163.289 107.485 158.785 109.827 158.785 118.132L156.424 129.843L155.996 152.202C155.996 152.202 159.86 148.581 162.648 150.285C165.436 151.988 167.153 144.747 167.153 144.747C167.153 144.747 168.44 129.841 169.084 126.22C169.728 122.6 170.585 115.793 170.585 115.793C170.585 115.793 173.805 111.747 173.373 110.683C172.942 109.619 172.641 100.287 172.641 100.287Z" fill="#D6DBE6"/>
<path opacity="0.1" d="M170.386 83.8187C170.749 83.3601 171.169 82.9486 171.636 82.5941C172.375 81.9845 173.191 81.3481 174.107 81.4016C174.625 81.4701 175.123 81.6469 175.567 81.9203C177.848 83.1128 180.123 84.3178 182.391 85.5353C183.229 85.9845 184.094 86.4604 184.679 87.2679C185.263 88.0754 185.5 89.1129 185.665 90.1289C185.802 90.8171 185.835 91.522 185.762 92.2198C185.695 92.904 185.36 93.5348 184.83 93.9765C184.218 94.4177 183.38 94.4204 182.868 94.9979C182.572 95.3321 182.443 95.8001 182.232 96.2065C182.022 96.6129 181.659 97.0086 181.244 96.9364C180.829 96.8642 180.578 96.4284 180.519 95.9872C180.493 95.5401 180.519 95.0914 180.597 94.6503C180.678 93.8482 180.576 92.9979 180.107 92.4016C179.783 91.9952 179.32 91.7492 179.008 91.3321C178.259 90.3268 178.601 88.6583 177.779 87.7144C177.54 87.4677 177.24 87.2882 176.909 87.1943C176.577 87.1004 176.227 87.0953 175.893 87.1797C175.228 87.3187 174.619 87.677 174.007 87.9818C173.181 88.3955 172.315 88.7269 171.423 88.9711C170.674 89.1744 169.807 89.661 169.551 88.6717C169.16 87.2198 169.524 84.9979 170.386 83.8187Z" fill="black"/>
<path d="M170.598 83.6058C170.962 83.1472 171.382 82.7357 171.848 82.3812C172.587 81.7716 173.403 81.1352 174.319 81.1887C174.837 81.2572 175.335 81.434 175.779 81.7074C178.058 82.8999 179.952 81.7716 182.603 85.3224C183.169 86.0818 184.306 86.2475 184.891 87.055C185.475 87.8625 185.713 88.9 185.877 89.916C186.014 90.6043 186.047 91.3091 185.974 92.0069C185.907 92.6911 185.572 93.3219 185.042 93.7636C184.43 94.2048 183.592 94.2075 183.08 94.785C182.784 95.1192 182.655 95.5872 182.445 95.9936C182.234 96.4 181.871 96.7957 181.456 96.7235C181.041 96.6513 180.79 96.2155 180.731 95.7743C180.705 95.3272 180.731 94.8785 180.809 94.4374C180.89 93.6353 180.788 92.785 180.319 92.1888C179.996 91.7823 179.532 91.5363 179.22 91.1192C178.471 90.1139 178.813 88.4454 177.991 87.5016C177.752 87.2548 177.452 87.0754 177.121 86.9814C176.79 86.8875 176.439 86.8824 176.105 86.9668C175.44 87.1058 174.831 87.4641 174.219 87.7689C173.393 88.1826 172.528 88.514 171.636 88.7583C170.887 88.9615 170.019 89.4481 169.763 88.4588C169.37 87.0069 169.736 84.7823 170.598 83.6058Z" fill="#865A61"/>
<path opacity="0.1" d="M189.94 116.109C189.94 116.109 192.801 123.35 190.654 126.331L185.934 125.262C185.934 125.262 190.225 126.54 189.581 123.984C188.938 121.428 189.94 116.109 189.94 116.109Z" fill="black"/>
<path opacity="0.1" d="M191.502 133.997C191.502 133.997 185.279 134.423 183.562 133.145C185.822 134.857 188.491 135.958 191.308 136.34L191.502 133.997Z" fill="black"/>
<path opacity="0.1" d="M164.69 120.361C164.69 120.361 161.471 130.158 161.686 131.647C161.902 133.137 162.33 149.535 162.33 149.535L162.974 149.321L162.758 131.434L164.69 120.361Z" fill="black"/>
<path d="M192.257 132.336L118.706 73.5119C118.278 73.0872 117.769 72.7505 117.21 72.5211C116.651 72.2917 116.051 72.1741 115.446 72.175H112.321C118.566 64.2321 121.524 54.2242 120.59 44.1918C119.657 34.1595 114.903 24.8582 107.298 18.1845C99.6925 11.5108 89.8088 7.96731 79.6618 8.27647C69.5149 8.58562 59.8688 12.7242 52.6905 19.8483C45.5121 26.9724 41.342 36.5456 41.0305 46.6159C40.719 56.6862 44.2895 66.4952 51.014 74.0429C57.7385 81.5906 67.1106 86.3086 77.2193 87.2349C87.3281 88.1612 97.4122 85.2261 105.416 79.028V82.1269C105.415 82.7276 105.533 83.3226 105.764 83.8777C105.995 84.4329 106.335 84.9374 106.763 85.3622L180.313 144.186C180.739 144.612 181.246 144.95 181.804 145.181C182.362 145.412 182.961 145.531 183.565 145.531C184.17 145.531 184.768 145.412 185.327 145.181C185.885 144.95 186.391 144.612 186.817 144.186L192.238 138.812C193.103 137.954 193.59 136.791 193.594 135.578C193.597 134.364 193.117 133.198 192.257 132.336ZM80.8609 72.175C76.0045 72.175 71.2571 70.7458 67.2191 68.0681C63.1811 65.3904 60.0339 61.5844 58.1754 57.1316C56.3169 52.6787 55.8307 47.7789 56.7781 43.0517C57.7256 38.3246 60.0642 33.9824 63.4982 30.5744C66.9322 27.1663 71.3074 24.8454 76.0706 23.9051C80.8337 22.9648 85.7708 23.4474 90.2576 25.2918C94.7443 27.1363 98.5793 30.2597 101.277 34.2672C103.975 38.2746 105.416 42.9862 105.416 47.8059C105.418 51.007 104.785 54.1773 103.552 57.1353C102.319 60.0933 100.51 62.781 98.2295 65.0448C95.949 67.3086 93.2412 69.1041 90.2609 70.3284C87.2807 71.5528 84.0864 72.1821 80.8609 72.1803V72.175Z" fill="url(#paint3_linear)"/>
<path d="M192.796 131.801L119.245 72.9768C118.817 72.5521 118.309 72.2154 117.749 71.986C117.19 71.7566 116.59 71.639 115.985 71.6399H112.86C119.105 63.697 122.063 53.6891 121.129 43.6567C120.196 33.6243 115.442 24.3231 107.837 17.6494C100.232 10.9757 90.3478 7.43215 80.2009 7.74131C70.0539 8.05047 60.4079 12.189 53.2295 19.3132C46.0512 26.4373 41.8811 36.0105 41.5696 46.0807C41.2581 56.151 44.8286 65.96 51.5531 73.5078C58.2776 81.0555 67.6497 85.7735 77.7584 86.6998C87.8671 87.6261 97.9513 84.691 105.955 78.4928V81.5918C105.954 82.1925 106.072 82.7874 106.303 83.3426C106.535 83.8978 106.874 84.4022 107.302 84.8271L180.852 143.651C181.278 144.077 181.785 144.415 182.343 144.646C182.901 144.877 183.5 144.995 184.104 144.995C184.709 144.995 185.308 144.877 185.866 144.646C186.424 144.415 186.93 144.077 187.356 143.651L192.777 138.277C193.642 137.419 194.129 136.256 194.133 135.042C194.136 133.829 193.656 132.663 192.796 131.801ZM81.4 71.6399C76.5435 71.6399 71.7962 70.2106 67.7582 67.5329C63.7202 64.8552 60.573 61.0493 58.7145 56.5964C56.856 52.1435 56.3697 47.2437 57.3172 42.5166C58.2646 37.7895 60.6032 33.4473 64.0372 30.0392C67.4713 26.6311 71.8465 24.3102 76.6096 23.3699C81.3727 22.4296 86.3099 22.9122 90.7966 24.7567C95.2834 26.6011 99.1183 29.7245 101.816 33.732C104.514 37.7395 105.955 42.451 105.955 47.2708C105.957 50.4719 105.324 53.6421 104.091 56.6001C102.858 59.5581 101.049 62.2459 98.7686 64.5097C96.488 66.7735 93.7802 68.5689 90.8 69.7933C87.8197 71.0177 84.6255 71.647 81.4 71.6452V71.6399Z" fill="#06D6A0"/>
<path d="M187.33 126.436C187.33 126.436 176.594 114.216 178.102 122.602C179.18 128.564 183.251 131.759 185.183 132.398C187.114 133.037 187.33 126.436 187.33 126.436Z" fill="#FDC2CC"/>
<path d="M189.904 115.148C189.904 115.148 190.12 123.028 191.192 124.092C192.265 125.157 190.548 126.435 190.548 126.435L186.257 125.365C186.257 125.365 187.334 132.392 182.824 131.542C182.824 131.542 185.828 134.309 188.832 134.737C191.836 135.165 191.621 134.098 191.621 134.098L196.125 128.774L189.904 115.148Z" fill="#D6DBE6"/>
<path d="M191.093 134.216L195.446 133.267L194.865 131.275L192.17 130.205L188.668 131.809L191.093 134.216Z" fill="#D6DBE6"/>
<path d="M84.09 57.3696L89.8852 52.9338C89.8852 52.9338 86.0029 53.76 86.1133 47.6022C86.112 47.5817 86.112 47.5612 86.1133 47.5407C86.1133 46.9845 86.1672 46.3749 86.248 45.7038C87.2422 37.4872 79.2944 44.7171 79.2944 44.7171C79.3628 45.4446 79.3628 46.1768 79.2944 46.9043C79.2944 46.923 79.2944 46.9444 79.2944 46.9631C79.1372 48.988 78.5748 50.9614 77.6402 52.768C75.4821 56.8749 84.09 57.3696 84.09 57.3696Z" fill="#FDC2CC"/>
<path opacity="0.1" d="M80.0314 45.7626C81.0148 46.7118 81.6156 48.4364 83.0947 48.4364C84.1649 48.4387 85.2119 48.1271 86.1041 47.5407C86.1041 46.9845 86.158 46.3749 86.2388 45.7038C87.233 37.4872 79.2852 44.7171 79.2852 44.7171C79.2852 44.7171 80.1365 44.4257 80.0314 45.7626Z" fill="black"/>
<path d="M83.0966 48.1672C86.1141 48.1672 88.5603 45.7395 88.5603 42.7447C88.5603 39.75 86.1141 37.3223 83.0966 37.3223C80.079 37.3223 77.6328 39.75 77.6328 42.7447C77.6328 45.7395 80.079 48.1672 83.0966 48.1672Z" fill="#FDC2CC"/>
<path opacity="0.1" d="M88.3359 35.801C88.0226 35.408 87.6605 35.0558 87.2582 34.7529C86.6278 34.2315 85.9273 33.6833 85.1433 33.7315C84.6996 33.7901 84.2736 33.9413 83.8932 34.1753C81.9399 35.1967 80.3207 34.2315 78.0495 37.2689C77.5646 37.9187 76.592 38.0711 76.0909 38.7529C75.5898 39.4347 75.3877 40.3304 75.2449 41.2021C75.1269 41.7917 75.0987 42.3956 75.1614 42.9935C75.2212 43.5804 75.5116 44.1203 75.9696 44.4962C76.4923 44.8732 77.2116 44.8759 77.6508 45.3706C77.8716 45.6928 78.0525 46.0402 78.1896 46.4053C78.3674 46.7529 78.68 47.0818 79.0356 47.031C79.3912 46.9802 79.6041 46.5978 79.6552 46.2289C79.6775 45.847 79.6549 45.4638 79.5879 45.0871C79.5205 44.4107 79.6068 43.6727 80.0082 43.162C80.2776 42.8117 80.6817 42.6032 80.9485 42.2476C81.5897 41.3893 81.2987 39.9481 82.0019 39.1513C82.2075 38.9417 82.4655 38.79 82.7494 38.7116C83.0334 38.6331 83.3332 38.6308 83.6184 38.7048C84.1847 38.8652 84.728 39.097 85.2349 39.3946C85.9422 39.7489 86.6831 40.0329 87.4468 40.2422C88.088 40.416 88.8316 40.8331 89.0498 39.9748C89.392 38.7128 89.0714 36.809 88.3359 35.801Z" fill="black"/>
<path d="M88.3359 35.5354C88.0226 35.1423 87.6605 34.7902 87.2582 34.4872C86.6278 33.9659 85.9273 33.4177 85.1433 33.4658C84.6996 33.5244 84.2736 33.6757 83.8932 33.9097C81.9399 34.9311 80.3207 33.9659 78.0495 37.0033C77.5646 37.653 76.592 37.8054 76.0909 38.4873C75.5898 39.1691 75.3877 40.0648 75.2449 40.9365C75.1269 41.5261 75.0987 42.13 75.1614 42.7279C75.2212 43.3148 75.5116 43.8547 75.9696 44.2306C76.4923 44.6076 77.2116 44.6103 77.6508 45.1049C77.8716 45.4271 78.0525 45.7746 78.1896 46.1397C78.3674 46.4873 78.68 46.8162 79.0356 46.7654C79.3912 46.7146 79.6041 46.3322 79.6552 45.9632C79.6775 45.5814 79.6549 45.1982 79.5879 44.8215C79.5205 44.145 79.6068 43.4071 80.0082 42.8964C80.2776 42.5461 80.6817 42.3375 80.9485 41.9819C81.5897 41.1236 81.2987 39.6825 82.0019 38.8857C82.2075 38.6761 82.4655 38.5244 82.7494 38.4459C83.0334 38.3675 83.3332 38.3652 83.6184 38.4391C84.1847 38.5996 84.728 38.8314 85.2349 39.129C85.9422 39.4833 86.6831 39.7672 87.4468 39.9766C88.088 40.1504 88.8316 40.5675 89.0498 39.7092C89.392 38.4472 89.0714 36.5434 88.3359 35.5354Z" fill="#865A61"/>
<path opacity="0.1" d="M77.6302 60.2224L77.5225 64.3267C79.0882 64.749 80.7037 64.9621 82.3262 64.9604C82.5956 64.9604 82.8785 64.9604 83.1533 64.9417C84.5921 64.8801 86.0184 64.6486 87.402 64.2518H87.4289C87.6848 64.177 87.9381 64.0994 88.1887 64.0139H88.2156L88.4446 63.9336C89.3167 63.6288 90.1634 63.2569 90.9771 62.8213L91.0283 62.7946C91.1172 62.7465 91.2061 62.6983 91.2977 62.6475L90.8801 57.1154L91.5456 53.3213L87.9031 50.8587C87.6986 51.1518 87.4697 51.4272 87.2188 51.6823C86.8592 52.055 86.4383 52.3642 85.9741 52.5967C83.3607 53.8748 80.3864 51.8427 78.9073 50.586L78.5705 50.2892C78.1879 49.9443 77.9697 49.709 77.9697 49.709L76.1484 52.5004L77.6302 60.2224Z" fill="black"/>
<path d="M77.6302 60.488L77.5225 64.5923C79.0882 65.0146 80.7037 65.2277 82.3262 65.226C82.5956 65.226 82.8785 65.226 83.1533 65.2073C84.5921 65.1458 86.0184 64.9142 87.402 64.5175H87.4289C87.6848 64.4426 87.9381 64.3651 88.1887 64.2795H88.2156L88.4446 64.1993C89.3167 63.8945 90.1634 63.5226 90.9771 63.087L91.0283 63.0602C91.1172 63.0121 91.2061 62.964 91.2977 62.9132L90.8801 57.3811L91.5456 53.5869L87.9031 51.1243C87.6986 51.4174 87.4697 51.6929 87.2188 51.9479C86.8592 52.3206 86.4383 52.6298 85.9741 52.8623C83.3607 54.1404 80.3864 52.1083 78.9073 50.8516L78.5705 50.5548C78.1879 50.2099 77.9697 49.9746 77.9697 49.9746L76.1484 52.7661L77.6302 60.488Z" fill="#53526B"/>
<path d="M87.7301 60.8177C87.7301 60.8177 87.9295 62.3925 88.1909 64.2749H88.2178L88.4468 64.1947C89.3189 63.8899 90.1656 63.518 90.9793 63.0824L91.0305 63.0556C91.1194 63.0075 91.2083 62.9594 91.2999 62.9086C92.4943 62.2433 93.6095 61.4468 94.6245 60.5342L94.7134 60.4514C95.2701 59.9512 95.793 59.4153 96.2787 58.8471L96.3353 58.7802C95.3735 55.4674 93.3717 54.4246 93.3717 54.4246C93.3717 54.4246 91.5505 53.6011 91.0521 52.4513C90.5536 51.3016 86.1541 48.8711 86.1541 48.8711V48.8898C86.1541 49.0957 86.084 50.9807 85.9789 52.8765C85.9116 54.1091 85.8281 55.3471 85.7311 56.1332C85.7101 56.3885 85.6631 56.6412 85.591 56.8872C85.2488 57.6973 87.7301 60.8177 87.7301 60.8177Z" fill="#555388"/>
<defs>
<linearGradient id="paint0_linear" x1="138.554" y1="212.463" x2="138.554" y2="10.5078" gradientUnits="userSpaceOnUse">
<stop stop-color="#808080" stop-opacity="0.25"/>
<stop offset="0.54" stop-color="#808080" stop-opacity="0.12"/>
<stop offset="1" stop-color="#808080" stop-opacity="0.1"/>
</linearGradient>
<linearGradient id="paint1_linear" x1="10077.1" y1="16564.3" x2="10077.1" y2="12648.2" gradientUnits="userSpaceOnUse">
<stop stop-color="#808080" stop-opacity="0.25"/>
<stop offset="0.54" stop-color="#808080" stop-opacity="0.12"/>
<stop offset="1" stop-color="#808080" stop-opacity="0.1"/>
</linearGradient>
<linearGradient id="paint2_linear" x1="-47109.9" y1="126113" x2="-47109.9" y2="47270.1" gradientUnits="userSpaceOnUse">
<stop stop-color="#808080" stop-opacity="0.25"/>
<stop offset="0.54" stop-color="#808080" stop-opacity="0.12"/>
<stop offset="1" stop-color="#808080" stop-opacity="0.1"/>
</linearGradient>
<linearGradient id="paint3_linear" x1="73053" y1="77999.8" x2="73053" y2="7499.23" gradientUnits="userSpaceOnUse">
<stop stop-color="#808080" stop-opacity="0.25"/>
<stop offset="0.54" stop-color="#808080" stop-opacity="0.12"/>
<stop offset="1" stop-color="#808080" stop-opacity="0.1"/>
</linearGradient>
</defs>
</svg>
