<svg width="271" height="175" viewBox="0 0 271 175" fill="none" xmlns="http://www.w3.org/2000/svg">
<path d="M247.181 174.482L239.441 151.219C239.441 151.219 247.955 159.698 247.955 166.655L246.427 150.566C246.427 150.566 250.793 156.437 250.356 165.351C249.92 174.265 247.181 174.482 247.181 174.482Z" fill="#E6E6E6"/>
<path d="M80.9642 153.3L73.4102 130.596C73.4102 130.596 81.7191 138.871 81.7191 145.661L80.2277 129.959C80.2277 129.959 84.4887 135.688 84.0626 144.388C83.6365 153.088 80.9642 153.3 80.9642 153.3Z" fill="#E6E6E6"/>
<path d="M198.87 163.776C198.882 178.712 169.14 174.117 132.729 174.149C96.3171 174.18 67.0247 178.825 67.0117 163.889C66.9988 148.954 96.7302 145.68 133.142 145.649C169.553 145.617 198.857 148.84 198.87 163.776Z" fill="#E6E6E6"/>
<path d="M271 174.141H0V174.824H271V174.141Z" fill="#3F3D56"/>
<path d="M173.35 143.608H168.59L166.324 125.32H173.35V143.608Z" fill="#A0616A"/>
<path d="M164.662 142.252H174.371V148.009H159.41V147.482C159.41 146.095 159.963 144.765 160.948 143.784C161.933 142.803 163.269 142.252 164.662 142.252Z" fill="#2F2E41"/>
<path d="M208.338 170.598H203.578L201.312 152.311H208.338V170.598Z" fill="#A0616A"/>
<path d="M199.65 169.242H209.359V174.999H194.398V174.473C194.398 173.085 194.952 171.755 195.937 170.774C196.921 169.793 198.257 169.242 199.65 169.242Z" fill="#2F2E41"/>
<path d="M230.298 116.27C230.627 115.872 230.865 115.408 230.994 114.909C231.124 114.41 231.142 113.889 231.047 113.382C230.952 112.876 230.747 112.396 230.446 111.977C230.145 111.558 229.756 111.21 229.305 110.957L218.249 66.0996L211.18 69.1289L224.33 112.502C223.954 113.284 223.879 114.177 224.119 115.011C224.359 115.845 224.898 116.562 225.634 117.026C226.37 117.491 227.251 117.67 228.11 117.531C228.97 117.391 229.749 116.943 230.298 116.27Z" fill="#A0616A"/>
<path d="M221.673 25.6128C221.278 25.202 220.798 24.8823 220.266 24.6763C219.734 24.4704 219.163 24.3831 218.593 24.4206C218.024 24.4581 217.469 24.6196 216.969 24.8936C216.469 25.1676 216.035 25.5475 215.699 26.0066L198.586 27.9633L201.189 34.5373L216.752 31.6363C217.564 32.1487 218.536 32.3467 219.485 32.1928C220.433 32.0389 221.292 31.5438 221.899 30.8013C222.505 30.0589 222.817 29.1206 222.775 28.1643C222.734 27.208 222.341 26.3002 221.673 25.6128Z" fill="#A0616A"/>
<path d="M193.473 111.617L200.94 167.435L210.234 165.529C210.234 165.529 208.867 124.878 213.514 119.978C218.161 115.077 207.537 106.492 207.537 106.492L193.473 111.617Z" fill="#2F2E41"/>
<path d="M196.562 96.2425L193.132 101.367C193.132 101.367 166.718 90.4345 166.718 107.859C166.718 125.283 165.206 137.108 164.66 137.925C164.113 138.742 170.984 140.861 174.265 140.316C174.265 140.316 178.312 112.226 178.038 110.592C178.038 110.592 203.949 123.245 208.869 122.156C213.79 121.067 214.952 117.212 215.772 115.034C216.592 112.856 215.429 95.5591 215.429 95.5591L199.029 90.5742L196.562 96.2425Z" fill="#2F2E41"/>
<path d="M197.023 65.473L196.045 64.3044C196.045 64.3044 185.094 39.7637 189.396 33.1416C193.698 26.5196 212.471 25.5457 213.058 25.9353C213.645 26.3248 211.657 31.3822 213.026 33.7195C213.026 33.7195 198.483 36.8597 197.505 37.2492C196.527 37.6388 205.04 52.034 205.04 52.034L204.063 60.7986L197.023 65.473Z" fill="#CCCCCC"/>
<path d="M216.188 53.3966C216.188 53.3966 206.019 54.5652 205.628 54.5652C205.237 54.5652 205.041 52.0332 205.041 52.0332L196.046 64.3035C196.046 64.3035 191.614 99.9012 192.788 99.3169C193.961 98.7326 215.601 102.088 215.797 100.53C215.992 98.9721 215.601 91.1814 216.188 90.7919C216.775 90.4023 226.357 66.2512 226.357 66.2512C226.357 66.2512 225.379 61.1873 222.055 59.4344C218.73 57.6814 216.188 53.3966 216.188 53.3966Z" fill="#CCCCCC"/>
<path d="M223.228 62.9395L226.357 66.2505C226.357 66.2505 231.005 104.297 228.463 105.466C225.921 106.635 220.916 106.491 220.916 106.491L215.992 88.4539L223.228 62.9395Z" fill="#CCCCCC"/>
<path d="M206.415 50.988C211.386 50.988 215.416 46.9744 215.416 42.0233C215.416 37.0722 211.386 33.0586 206.415 33.0586C201.444 33.0586 197.414 37.0722 197.414 42.0233C197.414 46.9744 201.444 50.988 206.415 50.988Z" fill="#A0616A"/>
<path d="M204.305 43.4213C204.183 41.5611 201.827 41.4974 199.955 41.4798C198.084 41.4622 195.846 41.5287 194.787 39.9917C194.087 38.976 194.221 37.5658 194.799 36.4768C195.377 35.3878 196.328 34.5502 197.264 33.7444C199.68 31.6641 202.169 29.6003 205.069 28.2688C207.969 26.9373 211.367 26.3993 214.375 27.4681C218.069 28.7812 223.064 35.5401 223.495 39.4234C223.926 43.3066 222.368 47.2653 219.741 50.1671C217.115 53.0689 211.103 51.8981 207.32 52.9304C209.62 49.6882 208.104 43.797 204.419 42.283L204.305 43.4213Z" fill="#2F2E41"/>
<path d="M124.084 159.381C136.018 159.381 145.692 149.746 145.692 137.861C145.692 125.975 136.018 116.34 124.084 116.34C112.151 116.34 102.477 125.975 102.477 137.861C102.477 149.746 112.151 159.381 124.084 159.381Z" fill="#06D6A0"/>
<path d="M109.655 114.811C106.66 114.811 103.73 113.947 101.218 112.323C98.7064 110.699 96.7212 108.384 95.5028 105.66L61.2155 28.7551C60.0797 26.2077 59.479 23.4558 59.4503 20.6686C59.4216 17.8814 59.9656 15.1178 61.0487 12.5477C62.1318 9.97759 63.7312 7.65525 65.7487 5.72343C67.7661 3.79162 70.1589 2.29114 72.7799 1.31422C75.401 0.337301 78.195 -0.0954115 80.9901 0.0426818C83.7853 0.180775 86.5226 0.886755 89.0337 2.11723C91.5448 3.3477 93.7768 5.07667 95.5923 7.19785C97.4079 9.31904 98.7687 11.7876 99.5912 14.4519L124.419 94.8823C125.13 97.1845 125.289 99.6206 124.883 101.995C124.477 104.369 123.518 106.616 122.082 108.554C120.646 110.492 118.774 112.068 116.615 113.155C114.457 114.241 112.073 114.809 109.655 114.811H109.655Z" fill="#06D6A0"/>
</svg>
