<svg width="64" height="64" viewBox="0 0 64 64" fill="none" xmlns="http://www.w3.org/2000/svg">
<path fill-rule="evenodd" clip-rule="evenodd" d="M57.188 38.0996C57.1619 38.0996 57.1359 38.1001 57.1094 38.1001V42.1184C57.1359 42.118 57.1619 42.1175 57.188 42.1171V38.0996Z" fill="#007934"/>
<path fill-rule="evenodd" clip-rule="evenodd" d="M4.98828 55.8281C5.00086 55.8227 5.01389 55.8174 5.02647 55.812V43.7207H4.98828V55.8281Z" fill="#007934"/>
<path fill-rule="evenodd" clip-rule="evenodd" d="M56.9619 38.0503C56.8729 38.044 56.8095 38.0364 56.7466 38.0364C55.1161 38.0364 53.4856 38.0185 51.8555 38.0494C51.2957 38.0601 50.7238 38.1375 50.1823 38.2802C48.6367 38.6868 47.3598 39.4746 46.8409 41.0778C46.6387 41.7023 46.5524 42.384 46.5336 43.0429C46.4945 44.3934 46.9469 45.5636 48.0589 46.4135C49.1009 47.2093 50.1608 47.9823 51.1906 48.7938C51.8057 49.2782 52.4199 49.7783 52.9554 50.3451C53.3917 50.8076 53.1945 51.4169 52.5843 51.6204C52.2312 51.7385 51.8398 51.7842 51.4647 51.7891C50.0053 51.8079 48.546 51.7967 47.0862 51.7967H46.6755V55.9018C48.7365 55.9018 50.7723 55.9233 52.8072 55.8893C53.4317 55.879 54.0612 55.752 54.6749 55.6182C56.0174 55.3265 57.027 54.5656 57.6497 53.3413C58.1678 52.3232 58.3205 51.2259 58.2141 50.0968C58.1318 49.2263 57.8672 48.3733 57.1914 47.8186C55.8584 46.724 54.4381 45.7354 53.0646 44.6891C52.5237 44.2771 51.9733 43.8651 51.4966 43.3847C51.0185 42.9029 51.2431 42.3419 51.9157 42.2136C52.0946 42.1796 52.2819 42.1818 52.4657 42.1814C53.8329 42.1787 55.2006 42.18 56.5678 42.18H56.9619V38.0503Z" fill="#007934"/>
<path fill-rule="evenodd" clip-rule="evenodd" d="M45.3443 38.0589H40.7183V44.843H37.0574V38.0352H32.4062V55.9193H37.0511V49.1718H40.7143V55.9328H45.3443V38.0589Z" fill="#007934"/>
<path fill-rule="evenodd" clip-rule="evenodd" d="M9.79187 52.191V55.8148C9.81388 55.8143 9.8359 55.8143 9.85837 55.8139V52.1798H13.5876V55.9127H18.2113C18.2113 51.8295 18.2419 47.7736 18.196 43.7186C18.179 42.1726 17.6389 40.7702 16.5323 39.6322C15.0509 38.1091 13.1976 37.6264 11.138 37.7512C9.11657 37.8733 7.42271 38.6387 6.22307 40.3189C5.39905 41.4725 5.12273 42.789 5.12184 44.1789C5.12049 47.9745 5.12139 51.77 5.12139 55.5656V55.9163H9.73256C9.73256 54.7815 9.73076 53.6703 9.73526 52.5591C9.73571 52.4366 9.7721 52.3135 9.79187 52.191Z" fill="#007934"/>
<path fill-rule="evenodd" clip-rule="evenodd" d="M30.9264 42.2463C30.9497 42.2454 30.9735 42.2476 30.996 42.2427C31.0028 42.2414 31.0104 42.2221 31.0104 42.211C31.0109 40.8766 31.0122 39.5418 31.0068 38.2074C31.0063 38.1573 30.9412 38.1076 30.9062 38.0575C29.5663 38.0674 28.2229 38.0155 26.8881 38.1009C24.8163 38.2333 23.0694 39.1217 21.6793 40.6516C19.1219 43.4657 18.6299 46.7411 19.8152 50.2369C20.8032 53.1495 22.8893 55.0278 25.9337 55.7418C27.5786 56.1274 29.2545 55.8692 30.925 55.9207V51.6411C30.748 51.6411 30.606 51.642 30.4636 51.6411C29.6881 51.633 28.9099 51.6621 28.1371 51.6093C26.1301 51.4729 24.6784 50.3452 24.2673 48.5483C24.1118 47.8692 24.0611 47.1437 24.1015 46.4472C24.2439 43.9869 25.878 42.4315 28.3532 42.3438C29.0757 42.3183 29.7995 42.3407 30.5229 42.3304C30.6577 42.3282 30.792 42.2754 30.9264 42.2463Z" fill="#007934"/>
<path fill-rule="evenodd" clip-rule="evenodd" d="M0 63.0952V0H63.0952V63.0934H62.5396C41.6932 63.0938 20.8464 63.0952 0 63.0952Z" fill="#007934"/>
<path fill-rule="evenodd" clip-rule="evenodd" d="M13.5736 46.9045C13.5691 46.5529 13.5925 46.1986 13.5552 45.8506C13.437 44.7381 12.6674 44.0367 11.6142 44.0555C10.5287 44.0743 9.87454 44.7278 9.78333 45.8846C9.76491 45.987 9.73076 46.0895 9.73076 46.1919C9.72717 47.5661 9.72807 48.9399 9.73121 50.3141C9.73121 50.3467 9.76581 50.3794 9.78243 50.4084H13.5736V46.9045ZM9.79187 54.2362C9.7721 54.3588 9.73571 54.4814 9.73526 54.6039C9.73076 55.7151 9.73256 56.8263 9.73256 57.9611H5.12139V57.6104C5.12139 53.8148 5.12049 50.0193 5.12184 46.2241C5.12229 44.8343 5.39906 43.5173 6.22307 42.3637C7.42271 40.6835 9.11657 39.9181 11.138 39.796C13.1976 39.6717 15.0509 40.1539 16.5323 41.677C17.6389 42.815 18.179 44.2179 18.196 45.7634C18.2419 49.8184 18.2113 53.8748 18.2113 57.9576H13.5876V54.2246H9.85792C9.83231 54.2072 9.81029 54.2112 9.79187 54.2362Z" fill="#FDFEFD"/>
<path fill-rule="evenodd" clip-rule="evenodd" d="M45.3443 40.1023V57.9762H40.7143V51.2148H37.0511V57.9628H32.4062V40.0781H37.0574V46.8865H40.7183V40.1023H45.3443Z" fill="#FDFDFD"/>
<path fill-rule="evenodd" clip-rule="evenodd" d="M56.9618 40.0928V44.2226H56.5678C55.2006 44.2226 53.8329 44.2212 52.4657 44.2239C52.2819 44.2244 52.0946 44.2221 51.9157 44.2566C51.2431 44.3845 51.0185 44.9455 51.4965 45.4272C51.9733 45.9081 52.5236 46.3197 53.0646 46.7316C54.4381 47.7779 55.8584 48.767 57.1914 49.8612C57.8672 50.4158 58.1318 51.2689 58.214 52.1394C58.3201 53.2689 58.1678 54.3658 57.6497 55.3839C57.027 56.6082 56.0174 57.3691 54.6749 57.6608C54.0607 57.7945 53.4317 57.9216 52.8072 57.9319C50.7723 57.9659 48.736 57.9448 46.6756 57.9448V53.8393H47.0862C48.546 53.8393 50.0053 53.8504 51.4646 53.8316C51.8398 53.8272 52.2312 53.7811 52.5843 53.663C53.1945 53.4595 53.3917 52.8507 52.9554 52.3877C52.4199 51.8209 51.8057 51.3212 51.1906 50.8363C50.1608 50.0249 49.1009 49.2523 48.0589 48.4561C46.9469 47.6062 46.4945 46.4364 46.5336 45.0855C46.5524 44.4266 46.6387 43.7448 46.8409 43.1204C47.3598 41.5171 48.6368 40.7294 50.1823 40.3228C50.7238 40.1801 51.2957 40.1027 51.8555 40.0924C53.4856 40.0615 55.1161 40.0794 56.7466 40.079C56.8095 40.079 56.8729 40.0866 56.9618 40.0928Z" fill="#FDFDFD"/>
<path fill-rule="evenodd" clip-rule="evenodd" d="M30.9222 44.2893C30.7879 44.3188 30.6535 44.3716 30.5188 44.3734C29.7954 44.3837 29.0716 44.3613 28.3491 44.3868C25.8739 44.475 24.2398 46.0303 24.0974 48.4902C24.0569 49.1867 24.1077 49.9127 24.2631 50.5917C24.6743 52.3882 26.1259 53.5159 28.133 53.6528C28.9058 53.7052 29.684 53.6765 30.4594 53.6841C30.6019 53.6855 30.7443 53.6841 30.9209 53.6841V57.9637C29.2504 57.9127 27.5745 58.1704 25.9296 57.7848C22.8851 57.0713 20.799 55.193 19.8115 52.2804C18.6258 48.7841 19.1182 45.5087 21.6752 42.6946C23.0653 41.1647 24.8122 40.2768 26.8839 40.1439C28.2188 40.0585 29.5622 40.1104 30.9016 40.1001C30.9083 41.4962 30.915 42.8928 30.9222 44.2893Z" fill="#FDFDFD"/>
<path fill-rule="evenodd" clip-rule="evenodd" d="M9.78125 45.8842C9.87201 44.7278 10.5262 44.0738 11.6122 44.055C12.6649 44.0367 13.435 44.7377 13.5531 45.8502C13.5904 46.1982 13.5671 46.5529 13.5716 46.9041C13.5477 47.8833 13.506 48.8625 13.51 49.8417C13.5118 50.2125 13.3882 50.31 13.0337 50.302C12.1145 50.2814 11.1943 50.2836 10.2746 50.3011C9.95019 50.3074 9.84011 50.2049 9.8446 49.877C9.86078 48.7131 9.85359 47.5487 9.84775 46.3843C9.84685 46.2174 9.80461 46.051 9.78125 45.8842Z" fill="#007934"/>
</svg>
