<svg width="296" height="197" viewBox="0 0 296 197" fill="none" xmlns="http://www.w3.org/2000/svg">
<g clip-path="url(#clip0)">
<path opacity="0.1" d="M172.536 39.2906C155.123 38.6715 138.537 33.0494 122.711 26.9104C106.885 20.7715 91.1876 13.9409 74.1908 10.6817C63.2587 8.58515 50.7553 8.28911 41.9489 14.1508C33.4707 19.8026 30.7316 29.5318 29.2598 38.5693C28.1513 45.3676 27.5001 52.5211 30.5352 58.8861C32.6446 63.3053 36.3846 67.0193 38.973 71.2528C47.9786 85.9798 41.6125 104.141 31.8563 118.521C27.2822 125.268 21.9682 131.708 18.4354 138.883C14.9026 146.058 13.2693 154.291 16.3609 161.617C19.4228 168.884 26.7225 174.331 34.6303 178.166C50.6908 185.955 69.6087 188.186 88.0691 189.448C128.921 192.244 169.988 191.033 210.948 189.822C226.107 189.373 241.331 188.918 256.242 186.574C264.524 185.271 273.072 183.204 279.086 178.217C286.716 171.884 288.608 161.159 283.493 153.22C274.915 139.901 251.205 136.593 245.203 122.297C241.904 114.43 245.291 105.664 250.089 98.368C260.378 82.7152 277.622 68.9813 278.529 51.0866C279.153 38.798 270.863 26.4906 258.045 20.6746C244.611 14.5788 225.978 15.3458 216.071 25.4356C205.852 35.8134 187.913 39.81 172.536 39.2906Z" fill="#06D6A0"/>
<path d="M46.081 197.001C56.96 197.001 65.7792 195.304 65.7792 193.211C65.7792 191.118 56.96 189.422 46.081 189.422C35.202 189.422 26.3828 191.118 26.3828 193.211C26.3828 195.304 35.202 197.001 46.081 197.001Z" fill="#06D6A0"/>
<path d="M45.7495 194.605C47.0155 194.605 48.0419 193.26 48.0419 191.601C48.0419 189.942 47.0155 188.598 45.7495 188.598C44.4834 188.598 43.457 189.942 43.457 191.601C43.457 193.26 44.4834 194.605 45.7495 194.605Z" fill="#3F3D56"/>
<path d="M45.7495 190.933C47.0155 190.933 48.0419 189.588 48.0419 187.929C48.0419 186.271 47.0155 184.926 45.7495 184.926C44.4834 184.926 43.457 186.271 43.457 187.929C43.457 189.588 44.4834 190.933 45.7495 190.933Z" fill="#3F3D56"/>
<path d="M45.7495 187.261C47.0155 187.261 48.0419 185.916 48.0419 184.257C48.0419 182.599 47.0155 181.254 45.7495 181.254C44.4834 181.254 43.457 182.599 43.457 184.257C43.457 185.916 44.4834 187.261 45.7495 187.261Z" fill="#3F3D56"/>
<path d="M45.7495 183.593C47.0155 183.593 48.0419 182.248 48.0419 180.589C48.0419 178.931 47.0155 177.586 45.7495 177.586C44.4834 177.586 43.457 178.931 43.457 180.589C43.457 182.248 44.4834 183.593 45.7495 183.593Z" fill="#3F3D56"/>
<path d="M45.7495 179.925C47.0155 179.925 48.0419 178.58 48.0419 176.921C48.0419 175.263 47.0155 173.918 45.7495 173.918C44.4834 173.918 43.457 175.263 43.457 176.921C43.457 178.58 44.4834 179.925 45.7495 179.925Z" fill="#3F3D56"/>
<path d="M45.7495 176.253C47.0155 176.253 48.0419 174.908 48.0419 173.25C48.0419 171.591 47.0155 170.246 45.7495 170.246C44.4834 170.246 43.457 171.591 43.457 173.25C43.457 174.908 44.4834 176.253 45.7495 176.253Z" fill="#3F3D56"/>
<path d="M45.7495 172.581C47.0155 172.581 48.0419 171.237 48.0419 169.578C48.0419 167.919 47.0155 166.574 45.7495 166.574C44.4834 166.574 43.457 167.919 43.457 169.578C43.457 171.237 44.4834 172.581 45.7495 172.581Z" fill="#3F3D56"/>
<path d="M54.3348 144.461C54.649 144.062 54.9349 143.642 55.1904 143.204L49.1634 142.213L55.6801 142.262C56.3058 140.901 56.6471 139.427 56.6832 137.93C56.7193 136.433 56.4494 134.944 55.89 133.555L47.1481 138.093L55.22 132.172C54.4639 130.868 53.4475 129.733 52.234 128.838C51.0205 127.944 49.636 127.308 48.1666 126.972C46.6971 126.636 45.1742 126.606 43.6926 126.883C42.2109 127.161 40.8023 127.741 39.5543 128.587C38.3063 129.432 37.2457 130.526 36.4384 131.799C35.6311 133.073 35.0945 134.499 34.8619 135.988C34.6293 137.478 34.7056 139 35.0863 140.459C35.4669 141.918 36.1436 143.283 37.0743 144.469C36.5861 145.09 36.1658 145.763 35.8205 146.474L43.6449 150.538L35.3039 147.739C34.7171 149.47 34.5717 151.321 34.8809 153.123C35.19 154.924 35.944 156.621 37.0743 158.057C35.7995 159.678 35.0065 161.625 34.7858 163.675C34.5651 165.726 34.9258 167.797 35.8265 169.652C36.7272 171.507 38.1316 173.071 39.8792 174.166C41.6267 175.26 43.6468 175.84 45.7086 175.84C47.7703 175.84 49.7905 175.26 51.538 174.166C53.2856 173.071 54.69 171.507 55.5907 169.652C56.4914 167.797 56.852 165.726 56.6314 163.675C56.4107 161.625 55.6176 159.678 54.3429 158.057C55.8662 156.12 56.6944 153.727 56.6944 151.263C56.6944 148.799 55.8662 146.406 54.3429 144.469L54.3348 144.461Z" fill="#06D6A0"/>
<path opacity="0.1" d="M34.7266 151.251C34.7233 153.716 35.5519 156.109 37.0782 158.044C35.8034 159.665 35.0103 161.612 34.7897 163.662C34.569 165.712 34.9296 167.784 35.8303 169.639C36.7311 171.494 38.1355 173.058 39.883 174.152C41.6306 175.247 43.6507 175.827 45.7125 175.827C47.7742 175.827 49.7943 175.247 51.5419 174.152C53.2894 173.058 54.6939 171.494 55.5946 169.639C56.4953 167.784 56.8559 165.712 56.6352 163.662C56.4146 161.612 55.6215 159.665 54.3467 158.044C55.8104 156.179 34.7266 150.021 34.7266 151.251Z" fill="black"/>
<path d="M141.512 147.48C141.679 149.633 142.508 151.861 144.251 153.132C145.995 154.402 148.769 154.378 150.101 152.672C150.548 152.031 150.877 151.315 151.072 150.559C152.194 147.012 152.99 143.131 151.761 139.619C148.987 139.438 145.771 138.133 143.689 140.426C142.007 142.294 141.318 144.991 141.512 147.48Z" fill="#3F3D56"/>
<path d="M154.392 125.782C154.023 128.912 153.396 132.029 153.461 135.18C153.485 136.397 153.614 137.602 153.617 138.824C153.622 141.997 152.786 145.114 151.195 147.859C151.028 148.182 150.804 148.472 150.533 148.715C149.896 149.232 148.935 149.188 148.219 148.793C147.52 148.358 146.952 147.741 146.575 147.009C144.571 143.574 144.514 139.4 143.721 135.506C143.113 132.526 142.047 129.639 141.662 126.624C141.412 124.684 141.45 122.706 141.052 120.79C140.93 120.211 140.591 119.342 140.368 118.488C140.164 117.727 140.051 116.979 140.261 116.465C140.688 115.412 142.09 115.821 143.002 115.886C146.214 116.124 149.44 116.116 152.651 115.862C152.968 115.838 153.329 115.824 153.552 116.05C153.65 116.164 153.723 116.297 153.768 116.44C154.023 117.14 154.219 117.86 154.351 118.593C154.795 120.938 154.672 123.395 154.392 125.782Z" fill="#FABDBD"/>
<g opacity="0.1">
<path opacity="0.1" d="M153.153 115.861C152.987 115.843 152.82 115.843 152.655 115.861C151.116 115.985 149.574 116.046 148.035 116.055C149.741 116.058 151.447 115.994 153.153 115.861Z" fill="black"/>
<path opacity="0.1" d="M148.761 148.792C148.062 148.357 147.494 147.741 147.117 147.008C145.113 143.574 145.056 139.4 144.263 135.505C143.655 132.526 142.589 129.638 142.204 126.624C141.954 124.684 141.992 122.705 141.594 120.789C141.473 120.211 141.134 119.341 140.91 118.488C140.706 117.726 140.593 116.978 140.803 116.464C140.892 116.253 141.042 116.074 141.234 115.949C141.425 115.825 141.65 115.76 141.879 115.764C141.198 115.719 140.533 115.799 140.264 116.464C140.055 116.978 140.168 117.726 140.372 118.488C140.595 119.341 140.934 120.211 141.055 120.789C141.454 122.705 141.416 124.684 141.666 126.624C142.051 129.641 143.117 132.529 143.725 135.505C144.518 139.4 144.575 143.579 146.579 147.008C146.956 147.741 147.524 148.357 148.223 148.792C148.653 149.03 149.145 149.13 149.633 149.078C149.327 149.038 149.032 148.941 148.761 148.792Z" fill="black"/>
</g>
<path d="M164.565 142.287C162.95 145.516 163.219 150.091 163.219 150.091C163.488 160.857 159.183 183.464 159.183 183.464H155.417C155.417 183.464 154.878 158.434 155.417 156.281C155.955 154.128 155.147 146.593 154.34 136.096C153.74 128.292 155.373 121.219 156.251 118.116C156.552 117.039 156.762 116.45 156.762 116.45C156.762 116.45 162.95 107.299 166.448 111.605C167.255 112.607 167.683 114.628 167.831 117.179C168.31 125.598 165.802 139.808 164.565 142.287Z" fill="#FABDBD"/>
<path opacity="0.1" d="M167.83 117.181C167.682 114.63 167.259 112.606 166.447 111.607C165.667 110.649 164.752 110.358 163.805 110.485C164.539 110.607 165.197 111.009 165.64 111.607C166.447 112.608 166.875 114.63 167.023 117.181C167.502 125.599 164.994 139.81 163.756 142.288C162.142 145.518 162.411 150.093 162.411 150.093C162.68 160.859 158.375 183.466 158.375 183.466H159.182C159.182 183.466 163.487 160.859 163.218 150.093C163.218 150.093 162.949 145.518 164.563 142.288C165.801 139.81 168.309 125.599 167.83 117.181Z" fill="black"/>
<path d="M153.458 182.483C153.157 182.719 152.897 183.002 152.688 183.323C152.207 184.232 152.89 185.319 153.622 186.043C154.354 186.767 155.236 187.543 155.236 188.573C155.236 189.402 154.61 190.113 153.907 190.554C153.531 190.791 153.057 191.092 153.135 191.539C153.162 191.652 153.211 191.759 153.278 191.854C153.88 192.777 154.949 193.318 156.03 193.523C157.112 193.727 158.228 193.638 159.329 193.55C159.494 193.555 159.655 193.5 159.781 193.393C159.861 193.286 159.903 193.156 159.902 193.022C159.956 192.452 159.921 191.849 160.171 191.335C160.521 190.632 161.325 190.274 161.785 189.644C162.431 188.783 162.342 187.586 162.098 186.539C161.559 184.259 160.362 181.659 158.565 180.079C156.482 178.265 154.849 181.172 153.458 182.483Z" fill="#3F3D56"/>
<path d="M161.612 46.826C163.113 44.5815 162.723 41.4434 161.189 39.2096C159.655 36.9758 157.191 35.5709 154.648 34.6639C151.22 33.442 147.44 33.0249 143.918 33.9426C141.114 34.672 138.596 36.198 135.954 37.3768C131.279 39.4629 126.197 40.4746 121.08 40.3372C115.4 40.1784 109.176 38.7224 104.411 41.8282C95.6881 47.5042 99.568 62.9525 91.3158 69.2798C89.0907 70.9861 86.2897 71.7316 83.8143 73.0476C81.3389 74.3637 78.9927 76.654 79.0519 79.4584C79.0788 80.8041 79.6707 82.0878 80.3972 83.2263C83.4914 88.1326 89.2763 91.1684 95.0693 91.1119C100.862 91.0553 106.515 87.9738 109.854 83.2316C110.691 82.0448 111.428 80.7233 112.642 79.9321C115.063 78.3442 118.255 79.4557 121.144 79.6925C127.578 80.2174 134.014 75.3864 135.294 69.0483C135.832 66.3435 135.738 63.1113 137.915 61.413C139.672 60.0431 142.145 60.3365 144.373 60.1023C148.446 59.6798 151.662 57.1419 153.873 53.8262C154.888 52.3056 155.006 50.4889 156.389 49.2913C157.88 47.9752 160.185 48.9468 161.612 46.826Z" fill="#3F3D56"/>
<g opacity="0.1">
<path opacity="0.1" d="M115.696 40.8541C118.056 40.9188 120.416 40.7384 122.738 40.3158C122.097 40.3346 121.452 40.3346 120.809 40.3158C116.35 40.192 111.558 39.2716 107.398 40.3804C110.143 40.4073 112.982 40.7787 115.696 40.8541Z" fill="black"/>
<path opacity="0.1" d="M107.255 80.4688C106.042 81.2601 105.304 82.5815 104.468 83.7684C101.896 87.3795 98.1366 89.9716 93.8477 91.0915C94.1625 91.105 94.4773 91.1131 94.7948 91.1104C100.593 91.0539 106.241 87.9723 109.58 83.2302C110.417 82.0433 111.154 80.7218 112.367 79.9306L112.577 79.8014C110.678 79.5403 108.813 79.4488 107.255 80.4688Z" fill="black"/>
<path opacity="0.1" d="M160.918 39.2017C159.387 36.9787 156.92 35.5631 154.377 34.6561C150.949 33.4342 147.169 33.0171 143.647 33.9348C143.566 33.9537 143.488 33.9779 143.41 33.9994C145.409 34.1109 147.381 34.5135 149.265 35.1944C151.807 36.1013 154.275 37.517 155.806 39.74C157.337 41.9631 157.729 45.1227 156.228 47.3565C154.802 49.4853 152.496 48.5138 150.987 49.8244C149.604 51.0221 149.485 52.8387 148.471 54.3593C146.569 57.2041 143.921 59.4729 140.625 60.3341C141.758 60.1995 142.952 60.2157 144.082 60.0972C148.156 59.6747 151.371 57.1368 153.583 53.8211C154.597 52.3005 154.716 50.4838 156.099 49.2862C157.608 47.9755 159.914 48.9471 161.34 46.8182C162.844 44.5736 162.454 41.4248 160.918 39.2017Z" fill="black"/>
<path opacity="0.1" d="M138.973 60.6339C136.759 60.8653 134.286 60.5746 132.516 61.9445C130.339 63.6428 130.444 66.875 129.895 69.5798C128.951 74.3085 125.114 78.2082 120.559 79.6589L120.879 79.6885C127.312 80.2133 133.748 75.3823 135.029 69.0443C135.567 66.3395 135.473 63.1072 137.65 61.409C138.149 61.035 138.717 60.7608 139.32 60.6016C139.199 60.6043 139.089 60.6231 138.973 60.6339Z" fill="black"/>
</g>
<path d="M203.984 37.1915C203.984 37.1915 197.527 50.1098 195.374 54.9542C193.222 59.7986 173.58 67.0652 170.889 67.3344C170.168 67.4333 169.495 67.7573 168.968 68.2602C167.448 69.6058 166.584 71.9096 166.584 71.9096C166.584 71.9096 167.661 79.1762 166.315 91.2872C166.288 91.5213 166.264 91.7555 166.243 91.9816C165.07 103.506 167.526 106.224 167.526 106.224C167.526 106.224 141.427 116.182 142.234 103.264C142.487 99.197 142.449 96.2258 142.199 93.7417C141.925 91.1987 141.408 88.6878 140.655 86.2436C140.017 84.0125 139.256 81.5661 138.467 78.2342C138.088 76.5718 137.588 74.9393 136.971 73.3495C136.952 73.301 136.934 73.2526 136.917 73.2068C135.572 69.8669 134.227 68.7877 133.457 68.4378C132.731 68.1217 132.038 67.7321 131.391 67.2752C128.905 65.48 123.569 61.4565 118.817 56.7036C112.36 50.2444 105.902 34.9038 105.902 34.9038C105.902 34.9038 104.019 26.0224 108.324 18.7558C112.629 11.4893 110.746 33.0199 110.746 33.0199C110.746 33.0199 118.548 43.5161 120.432 48.3605C121.4 50.8527 122.939 52.1283 124.199 52.7904C126.279 53.8736 128.271 55.1191 130.156 56.5152C131.43 57.4781 132.768 58.3522 134.162 59.1312C137.17 60.746 140.773 62.568 143.776 63.0471C144.245 63.1245 144.719 63.165 145.194 63.1682C145.419 63.1754 145.643 63.1306 145.848 63.0372C146.054 62.9439 146.235 62.8045 146.378 62.6299C147.185 61.6799 147.166 59.6345 146.98 57.9524C146.881 57.081 146.734 56.2157 146.539 55.3606C146.539 55.3606 155.284 49.8434 155.015 56.5717C154.973 57.3152 155.042 58.0608 155.219 58.784C155.362 59.4478 155.679 60.0617 156.137 60.563C156.595 61.0642 157.178 61.4348 157.826 61.6368C158.876 61.9449 159.987 61.981 161.055 61.7418C161.388 61.6849 161.71 61.5749 162.008 61.4161C162.815 60.8779 170.887 58.4557 173.308 58.1865C175.73 57.9174 187.838 51.9965 187.838 51.9965L201.022 33.6954C201.022 33.6954 200.753 22.9301 206.134 18.624C211.515 14.3178 203.984 37.1915 203.984 37.1915Z" fill="#FABDBD"/>
<g opacity="0.1">
<path opacity="0.1" d="M166.244 90.3693C166.009 92.5321 165.905 94.7071 165.934 96.8823C165.961 95.4613 166.056 93.8385 166.244 91.9841C166.265 91.7581 166.29 91.5239 166.317 91.2898C166.787 87.145 167.012 82.976 166.989 78.8047C166.948 82.4371 166.723 86.0651 166.317 89.675C166.3 89.9091 166.265 90.1433 166.244 90.3693Z" fill="black"/>
<path opacity="0.1" d="M146.82 55.1875C146.64 55.2925 146.551 55.3571 146.551 55.3571C146.812 56.5083 146.985 57.678 147.067 58.8558C147.122 57.6276 147.039 56.3972 146.82 55.1875Z" fill="black"/>
<path opacity="0.1" d="M110.875 31.558C111.007 29.6741 111.203 26.2965 111.165 23.293C111.12 27.3084 110.762 31.4046 110.762 31.4046L110.875 31.558Z" fill="black"/>
<path opacity="0.1" d="M142.252 102.949C142.252 103.054 142.252 103.159 142.233 103.264C141.426 116.182 167.525 106.225 167.525 106.225C167.22 105.812 166.99 105.349 166.844 104.857C162.913 106.257 143.159 112.764 142.252 102.949Z" fill="black"/>
<path opacity="0.1" d="M203.986 35.5773C203.986 35.5773 197.528 48.4957 195.376 53.3401C193.223 58.1845 173.582 65.4511 170.891 65.7202C170.169 65.8192 169.497 66.1432 168.97 66.6461C167.45 67.9917 166.586 70.2955 166.586 70.2955C166.586 70.2955 166.651 70.7342 166.729 71.5685C167.03 70.8768 167.805 69.289 168.97 68.2609C169.497 67.758 170.169 67.434 170.891 67.335C173.582 67.0659 193.223 59.7993 195.376 54.9549C197.528 50.1105 203.986 37.1921 203.986 37.1921C203.986 37.1921 208.536 23.3722 208.035 19.2383C207.621 24.5348 203.986 35.5773 203.986 35.5773Z" fill="black"/>
<path opacity="0.1" d="M142.2 92.129C141.926 89.586 141.408 87.0752 140.655 84.631C140.017 82.3999 139.256 79.9534 138.468 76.6216C138.088 74.9592 137.588 73.3266 136.972 71.7368C136.953 71.6884 136.934 71.6399 136.918 71.5942C135.572 68.2542 134.227 67.175 133.458 66.8251C132.731 66.509 132.039 66.1194 131.391 65.6625C128.905 63.8674 123.57 59.8438 118.818 55.0909C112.36 48.6317 105.903 33.2911 105.903 33.2911C105.664 31.9961 105.531 30.6838 105.505 29.3672C105.439 31.2224 105.572 33.0793 105.903 34.9059C105.903 34.9059 112.36 50.2465 118.818 56.7057C123.57 61.4586 128.905 65.4822 131.391 67.2773C132.044 67.7352 132.742 68.1248 133.474 68.4399C134.241 68.7898 135.583 69.869 136.934 73.209C136.95 73.2547 136.969 73.3032 136.988 73.3516C137.602 74.9416 138.099 76.5742 138.476 78.2364C139.264 81.5682 140.025 84.0147 140.663 86.2458C141.417 88.69 141.934 91.2008 142.208 93.7438C142.321 94.8688 142.388 96.0934 142.407 97.4713C142.439 95.6881 142.37 93.9044 142.2 92.129Z" fill="black"/>
</g>
<path d="M168.847 80.4337C168.436 81.113 168.077 81.8218 167.771 82.5544C167.365 83.6848 167.362 84.9147 167.287 86.1124C167.179 87.7931 166.923 89.4611 166.522 91.0967C166.458 91.398 166.368 91.6933 166.253 91.9795C166.173 92.1722 166.067 92.3532 165.939 92.5177C165.795 92.6932 165.626 92.8465 165.438 92.9726C165.149 93.1652 164.844 93.3318 164.526 93.4705C160.781 95.2198 156.696 96.7647 152.609 96.1618C150.881 95.8597 149.209 95.297 147.65 94.4932C146.17 93.7746 144.497 92.9214 142.963 93.5189C142.728 93.6384 142.474 93.7176 142.212 93.7531C142.162 93.7539 142.111 93.7494 142.062 93.7396C141.556 93.6427 141.556 91.9364 141.44 91.4331C140.999 89.5008 140.932 87.9344 140.668 86.255C140.528 85.3263 140.311 84.4108 140.02 83.5179C138.943 80.2614 138.618 76.7896 138.618 73.377C138.618 73.2074 137.407 73.377 137.003 73.3609C136.901 73.3609 136.845 73.3447 136.869 73.3097C136.892 73.2763 136.919 73.2456 136.95 73.2182C137.09 73.1038 137.255 73.022 137.431 72.9787L137.749 72.8845C139.412 72.4135 141.247 72.217 142.49 71.0463C143.781 69.8379 144.104 67.9082 144.047 66.1427C144.031 65.5748 143.754 64.1969 143.8 63.0531C144.269 63.1305 144.743 63.171 145.218 63.1742C145.443 63.1814 145.667 63.1365 145.873 63.0432C146.078 62.9499 146.259 62.8105 146.402 62.6359C146.851 63.5052 147.239 64.4044 147.564 65.3272C148.022 66.4522 148.371 67.6364 149.041 68.6537C150.118 70.3116 152.103 71.4016 154.078 71.2347C156.053 71.0678 157.891 69.5499 158.243 67.6014C158.553 65.8924 157.834 63.4325 157.85 61.6562C158.9 61.9643 160.011 62.0004 161.079 61.7612C161.125 61.8709 161.163 61.9832 161.195 62.0976C161.8 64.1753 162.608 66.5599 164.639 67.2973C165.952 67.771 167.504 67.4157 168.718 68.1047C168.811 68.1583 168.901 68.2176 168.987 68.2823C169.267 68.4907 169.508 68.7466 169.7 69.0386C170.199 69.8617 170.495 70.7915 170.564 71.7514C170.874 74.7522 170.276 77.7771 168.847 80.4337Z" fill="#06D6A0"/>
<path opacity="0.1" d="M155.219 58.783C153.877 59.3005 152.432 59.4948 151.001 59.3503C149.569 59.2059 148.192 58.7266 146.98 57.9513C146.881 57.0799 146.734 56.2147 146.539 55.3596C146.539 55.3596 155.284 49.8424 155.015 56.5707C154.973 57.3142 155.042 58.0597 155.219 58.783Z" fill="black"/>
<path d="M151.918 58.8557C156.97 58.8557 161.066 54.7589 161.066 49.7052C161.066 44.6515 156.97 40.5547 151.918 40.5547C146.865 40.5547 142.77 44.6515 142.77 49.7052C142.77 54.7589 146.865 58.8557 151.918 58.8557Z" fill="#FABDBD"/>
<path d="M135.91 72.4491C135.91 72.4491 153.668 61.1455 208.827 73.2565C263.985 85.3675 296.003 75.6787 296.003 75.6787V88.328C296.003 88.328 234.119 95.0563 210.441 88.328C186.763 81.5996 153.058 77.7187 141.254 88.1369L135.91 72.4491Z" fill="#F86D70"/>
<path opacity="0.1" d="M135.91 72.4491C135.91 72.4491 153.668 61.1455 208.827 73.2565C263.985 85.3675 296.003 75.6787 296.003 75.6787V88.328C296.003 88.328 234.119 95.0563 210.441 88.328C186.763 81.5996 153.058 77.7187 141.254 88.1369L135.91 72.4491Z" fill="black"/>
<path d="M136.445 72.9843C136.445 72.9843 153.665 61.6807 208.824 73.7917C263.982 85.9027 295.462 76.2139 295.462 76.2139L295.731 87.7866C295.731 87.7866 234.385 94.5149 210.707 87.7866C187.029 81.0583 153.593 76.37 141.789 86.7881L136.445 72.9843Z" fill="#F86D70"/>
<path d="M129.975 90.3731C129.975 90.3731 112.217 101.677 57.059 89.5657C1.90093 77.4547 4.59157 87.1435 4.59157 87.1435V74.4943C4.59157 74.4943 31.767 67.7659 55.4447 74.4943C79.1223 81.2226 112.828 85.1035 124.632 74.6854L129.975 90.3731Z" fill="#F86D70"/>
<path opacity="0.1" d="M129.975 90.3731C129.975 90.3731 112.217 101.677 57.059 89.5657C1.90093 77.4547 4.59157 87.1435 4.59157 87.1435V74.4943C4.59157 74.4943 31.767 67.7659 55.4447 74.4943C79.1223 81.2226 112.828 85.1035 124.632 74.6854L129.975 90.3731Z" fill="black"/>
<path d="M129.436 89.8317C129.436 89.8317 112.216 101.135 57.0578 89.0243C1.89967 76.9134 5.12844 86.6021 5.12844 86.6021L4.85938 75.0294C4.85938 75.0294 31.4967 68.3011 55.1743 75.0294C78.852 81.7578 112.289 86.4461 124.092 76.0279L129.436 89.8317Z" fill="#F86D70"/>
<path d="M144.047 51.2215C143.778 49.5421 143.363 47.4268 144.768 46.466C145.269 46.1621 145.848 46.0124 146.433 46.0353C149.342 46.0057 152.121 48.0323 154.974 47.4402C155.881 47.25 156.715 46.8015 157.374 46.1487C158.032 45.496 158.489 44.6667 158.688 43.7607C158.887 42.8547 158.82 41.9104 158.495 41.0416C158.17 40.1727 157.601 39.4162 156.857 38.8629C155.735 38.0286 154.317 37.7272 152.945 37.4446C149.337 36.7018 145.57 35.9617 142.007 36.9063C138.445 37.851 135.189 41.0456 135.474 44.7112C135.609 46.466 136.502 48.0592 137.436 49.5556C138.146 50.6913 140.912 56.0148 142.255 56.0955C144.149 56.2059 144.233 52.3196 144.047 51.2215Z" fill="#3F3D56"/>
<path d="M166.718 101.648C166.718 101.648 148.153 106.224 141.964 101.648C141.964 101.648 139.274 112.145 140.081 117.527C140.081 117.527 153.265 118.335 154.61 119.142C154.61 119.142 154.879 116.989 156.225 118.066C156.225 118.066 160.799 112.683 169.14 117.527C169.14 117.527 170.754 104.878 166.718 101.648Z" fill="#06D6A0"/>
<path opacity="0.1" d="M156.866 38.8651C156.675 38.7263 156.475 38.6004 156.266 38.4883C156.822 39.1196 157.201 39.8857 157.368 40.7099C157.534 41.5341 157.482 42.3876 157.215 43.185C156.948 43.9825 156.477 44.6959 155.848 45.2541C155.22 45.8123 154.456 46.1956 153.632 46.3658C150.78 46.9579 148.001 44.9313 145.092 44.9609C144.507 44.938 143.928 45.0877 143.427 45.3915C142.022 46.3524 142.434 48.4677 142.703 50.1471C142.88 51.2452 142.808 55.1315 140.919 55.0265H140.887C141.406 55.659 141.89 56.0869 142.264 56.103C144.148 56.208 144.226 52.3352 144.048 51.2237C143.779 49.5443 143.367 47.4289 144.772 46.4681C145.273 46.1643 145.852 46.0145 146.438 46.0375C149.346 46.0079 152.126 48.0344 154.978 47.4423C155.885 47.2521 156.719 46.8036 157.378 46.1509C158.036 45.4981 158.493 44.6688 158.692 43.7628C158.891 42.8568 158.824 41.9126 158.499 41.0437C158.174 40.1748 157.605 39.4183 156.861 38.8651H156.866Z" fill="black"/>
<g opacity="0.1">
<path opacity="0.1" d="M23.2368 26.078C23.2368 26.078 3.1189 17.6164 0.482075 32.8763C0.482075 32.8763 -0.892842 35.2527 1.0202 37.2174C1.0202 37.2174 1.43187 36.1651 3.3772 37.2551C4.07165 37.637 4.80856 37.936 5.57277 38.1459C6.60546 38.4308 7.70277 38.3723 8.69929 37.979C8.69929 37.979 15.3156 37.6211 20.8798 28.9631C20.8798 28.9631 23.2637 27.4882 23.3848 26.9365L19.3973 27.2056C19.3973 27.2056 19.7013 30.1257 18.052 31.8778C18.052 31.8778 19.5184 27.3483 18.8134 27.2191C18.6708 27.1922 16.7066 27.4532 16.7066 27.4532C16.7066 27.4532 17.2152 32.5291 14.5541 35.1558C14.5541 35.1558 17.0241 29.9912 15.9479 27.5447L13.007 28.1126C13.007 28.1126 13.8142 33.4522 10.9029 36.5607C10.9029 36.5607 13.2949 31.0704 12.372 28.2795L9.55222 29.2268C9.55222 29.2268 10.233 34.4534 7.79792 37.0317C7.79792 37.0317 9.92353 30.4083 8.92261 29.496C8.92261 29.496 6.38803 30.524 5.84452 31.1108C5.84452 31.1108 6.24812 34.8786 4.69831 36.2243C4.69831 36.2243 5.65079 31.649 5.17993 31.4606C5.17993 31.4606 2.23368 33.6783 1.3377 35.5918C1.3377 35.5918 2.457 32.669 4.80862 31.0166C4.80862 31.0166 2.83369 30.6828 1.31079 31.5091C1.31079 31.5091 2.33054 29.5686 5.52164 30.4891C5.52164 30.4891 7.88672 28.8527 8.36027 28.8743C8.36027 28.8743 5.34137 27.5286 3.15926 27.6928C3.15926 27.6928 5.49743 26.3471 9.10019 28.5971L11.9092 27.5797C11.9092 27.5797 8.01049 25.5801 6.05439 25.5881C6.05439 25.5881 8.65355 24.5843 12.6411 27.3833L15.5174 26.7939C15.5174 26.7939 12.2886 24.8157 10.1119 24.3555C10.1119 24.3555 12.7245 23.9437 16.3488 26.6593L18.3183 26.4924C18.3183 26.4924 15.9344 25.0902 15.2133 24.7485C14.4922 24.4067 14.5245 24.1833 14.5245 24.1833C16.2408 24.4813 17.8404 25.251 19.1444 26.4063C19.1444 26.4063 23.218 26.3283 23.2368 26.078Z" fill="#06D6A0"/>
</g>
<g opacity="0.1">
<path opacity="0.1" d="M22.4954 10.9116C22.4954 10.9116 15.3544 -5.57814 5.10576 1.9845C5.10576 1.9845 2.93441 2.61427 2.95325 4.86422C2.95325 4.86422 3.79811 4.47398 4.33085 6.22873C4.53004 6.85187 4.80092 7.44977 5.13805 8.01039C5.58393 8.76445 6.26296 9.35296 7.07262 9.68709C7.07262 9.68709 11.2054 13.245 19.4496 11.2723C19.4496 11.2723 21.707 11.7567 22.0945 11.4957L19.5733 9.38027C19.5733 9.38027 18.0935 11.2884 16.1078 11.3826C16.1078 11.3826 19.5599 9.52561 19.2128 9.04655C19.1428 8.94966 17.8298 7.98617 17.8298 7.98617C17.8298 7.98617 15.2387 11.2911 12.1795 11.3423C12.1795 11.3423 16.5894 9.67901 17.3428 7.61476L15.2737 6.2691C15.2737 6.2691 12.7068 9.8997 9.21167 10.0881C9.21167 10.0881 13.7589 8.20416 14.8001 6.00804L12.5857 4.9638C12.5857 4.9638 10.0135 8.46253 7.1049 8.59441C7.1049 8.59441 12.1391 5.87078 12.0611 4.75926C12.0611 4.75926 9.97044 3.92495 9.30854 3.97339C9.30854 3.97339 7.40626 6.43596 5.70846 6.36599C5.70846 6.36599 8.88073 4.1887 8.70583 3.80922C8.70583 3.80922 5.69232 3.44858 4.06986 4.07835C4.06986 4.07835 6.39996 2.98029 8.73812 3.34093C8.73812 3.34093 7.75604 2.0141 6.3865 1.64539C6.3865 1.64539 8.09775 1.07214 9.46998 3.43782C9.46998 3.43782 11.8055 3.81191 12.0772 4.09181C12.0772 4.09181 11.0548 1.56465 9.65563 0.426217C9.65563 0.426217 11.8081 0.964485 12.6691 4.34749L14.9158 5.34597C14.9158 5.34597 13.74 1.93605 12.5588 0.829916C12.5588 0.829916 14.6764 1.71267 15.4513 5.6474L17.4935 6.93655C17.4935 6.93655 16.6997 3.92226 15.6719 2.42049C15.6719 2.42049 17.4585 3.6612 18.0666 7.34025L19.3312 8.36295C19.3312 8.36295 18.7123 6.17221 18.4782 5.55859C18.2442 4.94496 18.3921 4.83193 18.3921 4.83193C19.2405 5.9878 19.7519 7.35636 19.8693 8.78549C19.8693 8.78549 22.3501 11.0516 22.4954 10.9116Z" fill="#06D6A0"/>
</g>
</g>
<defs>
<clipPath id="clip0">
<rect width="296" height="197" fill="white"/>
</clipPath>
</defs>
</svg>
