<svg width="248" height="208" viewBox="0 0 248 208" fill="none" xmlns="http://www.w3.org/2000/svg">
<path fill-rule="evenodd" clip-rule="evenodd" d="M135.59 0.52922C168.413 4.5374 180.201 39.6661 199.107 64.5964C215.485 86.1933 239.12 105.841 235.216 131.902C231 160.052 207.184 181.918 179.597 194.852C151.089 208.219 117.349 213.46 88.5218 200.683C59.7363 187.924 44.7665 160.128 37.0579 131.673C29.115 102.353 27.9191 70.8517 46.6103 45.9741C66.876 19.0009 100.185 -3.79436 135.59 0.52922Z" fill="#DFF3F2"/>
<g clip-path="url(#clip0)">
<path opacity="0.1" d="M16.199 77.5039H37.7094V107.05H17.7718C17.721 107.356 17.6701 107.659 17.6128 107.965H37.7094V131.789C37.6754 131.789 37.6415 131.763 37.6097 131.75C37.0445 131.524 36.4792 131.284 35.914 131.031C35.7932 130.975 35.6745 130.917 35.5515 130.864C34.9863 130.595 34.4211 130.31 33.8558 130.01C33.6587 129.905 33.4616 129.796 33.2687 129.685C30.1307 127.92 27.2786 125.683 24.8112 123.051C24.737 122.98 24.6692 122.903 24.5993 122.837C24.2559 122.461 23.9188 122.081 23.5924 121.692C23.4695 121.549 23.3508 121.404 23.23 121.265C22.8442 120.791 22.4711 120.3 22.1108 119.806C22.0557 119.731 22.0048 119.659 21.9518 119.593C20.4757 117.534 19.2515 115.304 18.306 112.95C18.2763 112.879 18.2487 112.802 18.2212 112.736C17.9287 111.989 17.6637 111.23 17.4348 110.457C17.3373 110.135 17.2419 109.816 17.1614 109.481C17.1317 109.385 17.1084 109.287 17.0829 109.191C15.8917 104.459 15.7539 99.5425 15.7539 94.6491C15.7539 94.0795 15.7539 93.5099 15.7539 92.9403C15.7709 90.9425 15.7942 88.9468 15.8239 86.9533C15.8352 86.4407 15.8458 85.9259 15.8557 85.409C15.8853 84.1004 15.9277 82.7889 15.9828 81.4746C15.9955 81.1115 16.0125 80.7463 16.0316 80.3853C16.0401 80.176 16.0507 79.9666 16.0634 79.7573C16.1015 79.0012 16.1468 78.2501 16.199 77.5039Z" fill="#06D6A0"/>
<path opacity="0.1" d="M37.7103 44.6062H25.9102C27.8292 41.5828 29.925 38.6771 32.1865 35.9044C33.9415 33.7343 35.7899 31.6197 37.7103 29.582V44.6062Z" fill="#06D6A0"/>
<path opacity="0.1" d="M37.7081 45.5156V76.5893H16.2656C16.2656 76.4996 16.2783 76.4077 16.2868 76.318C16.3059 76.0724 16.325 75.8289 16.3462 75.5832C16.3674 75.297 16.3949 75.0108 16.4225 74.7289C16.45 74.4469 16.4776 74.1052 16.5115 73.7955C16.5454 73.4858 16.573 73.1718 16.6069 72.8621C16.6408 72.5524 16.6747 72.2426 16.7129 71.9351C16.751 71.6275 16.7849 71.3156 16.8273 71.0081C16.8591 70.7539 16.8909 70.4976 16.927 70.2413C16.9757 69.8803 17.0266 69.5193 17.0796 69.1605C17.0796 69.1049 17.0965 69.0515 17.105 68.9981C17.4924 66.3715 18.0188 63.7677 18.682 61.1977C19.3785 58.5022 20.2675 55.861 21.3422 53.2947C22.4842 50.6059 23.8218 48.0058 25.3441 45.5156H37.7081Z" fill="#06D6A0"/>
<path opacity="0.1" d="M42.8477 77.5024V107.049H88.7934V77.5024H42.8477ZM42.8477 107.963V133.338C43.1105 133.391 43.3691 133.445 43.6298 133.49C43.9796 133.558 44.3314 133.62 44.6896 133.673L44.9016 133.703C45.0415 133.727 45.1835 133.746 45.3255 133.763C45.6795 133.814 46.0335 133.853 46.3854 133.887C46.5507 133.904 46.7224 133.917 46.8899 133.932L47.2989 133.962C47.5215 133.979 47.742 133.992 47.9624 134C48.0981 134 48.2337 134.011 48.3715 134.015C48.5093 134.019 48.5835 134.015 48.6937 134.015H49.0943C49.2766 134.015 49.4589 134.015 49.6391 134.015H49.8722C50.0545 134.015 50.2368 134.015 50.417 133.998H50.4276C50.5547 133.998 50.6798 133.998 50.807 133.983C50.843 133.985 50.8791 133.985 50.9151 133.983C51.0211 133.983 51.1271 133.983 51.2288 133.97C51.2528 133.968 51.2769 133.968 51.3009 133.97C51.5361 133.955 51.7735 133.936 52.0131 133.915C52.2526 133.893 52.4794 133.868 52.7189 133.842L53.2001 133.782C55.1663 133.505 57.1106 133.088 59.0185 132.535C63.3066 131.33 67.4972 129.645 71.7831 128.413C77.3197 126.821 83.4413 126.037 88.7913 127.975V107.963H42.8477ZM88.7934 44.6047V5.26923C83.7637 5.21346 78.7475 5.80564 73.8668 7.03138C62.2319 9.97684 51.7841 16.3654 42.8477 24.5247V44.6026H45.1602V45.5146H42.8477V76.5882H88.7934V45.5146H54.6203V44.6004L88.7934 44.6047ZM147.822 31.317C144.943 31.2145 142.082 30.2982 139.491 28.8778C134.544 26.1673 130.589 21.9765 126.172 18.4437C116.993 11.0811 105.611 6.63623 93.9336 5.53408V44.6047H159.518L159.681 44.4317L147.822 31.317ZM153.797 30.249L160.133 37.2571V28.4057C158 28.677 156.144 29.3071 153.797 30.2405V30.249ZM160.133 139.639V107.963H146.622C146.588 107.828 146.55 107.692 146.508 107.555C146.548 107.692 146.584 107.828 146.62 107.963H93.9336V130.869C94.4338 131.243 94.9277 131.638 95.4174 132.035C95.9459 132.471 96.4708 132.912 96.9923 133.357L97.5179 133.795C97.7702 134.009 98.0267 134.222 98.281 134.425C98.7911 134.84 99.3048 135.25 99.822 135.656C100.081 135.861 100.341 136.062 100.602 136.26C104.742 139.448 109.109 142.326 113.668 144.87C114.689 145.445 115.722 145.998 116.76 146.538C117.451 146.897 118.147 147.249 118.848 147.593C119.899 148.11 120.959 148.609 122.028 149.088C131.877 153.544 142.292 156.6 152.975 158.17C155.346 158.522 157.728 158.8 160.12 159.003V139.635H160.332L160.133 139.639ZM93.9336 45.5146V76.5882H160.133V45.5146H93.9336ZM93.9336 77.4982V107.049H160.133V77.5024L93.9336 77.4982ZM165.271 28.363V38.2524L173.355 29.3092C170.676 28.8635 167.981 28.5481 165.271 28.363ZM165.271 77.5024V107.049H229.655V77.5024H165.271ZM229.429 141.982L229.655 107.963H165.271V159.347C169.418 159.521 173.571 159.471 177.713 159.196H177.785C179.764 159.068 181.733 158.885 183.693 158.649H183.737C194.197 157.422 204.424 154.669 214.097 150.477L229.429 141.982ZM242.077 82.3553C241.832 81.7857 241.581 81.2161 241.324 80.6465C240.845 79.5786 240.341 78.5405 239.819 77.5046H234.796V107.049H247.495C247.484 98.6803 245.381 90.1365 242.077 82.3553ZM234.796 107.963V137.225C238.372 133.772 241.396 129.818 243.571 125.298C246.189 119.854 247.386 113.963 247.486 107.961L234.796 107.963ZM234.796 68.8925V76.5818H239.349C237.968 73.9385 236.449 71.3717 234.796 68.8925ZM191.131 34.1621C190.796 34.0318 190.459 33.9015 190.122 33.7776C186.568 32.4542 182.937 31.3542 179.248 30.484L166.873 44.1668L166.632 44.4295L166.791 44.6026H210.833C204.699 40.3491 198.085 36.8444 191.131 34.1621ZM212.126 45.5146H166.174L165.271 46.3455V76.5882H173.188H229.655V61.9357C224.55 55.7136 218.656 50.1928 212.126 45.5146Z" fill="#06D6A0"/>
<path opacity="0.1" d="M37.7081 61.1914V76.5894H16.2656C16.2656 76.4997 16.2783 76.4078 16.2868 76.3181C16.3059 76.0725 16.325 75.829 16.3462 75.5834C16.3674 75.2971 16.3949 75.0109 16.4225 74.729C16.45 74.447 16.4776 74.1053 16.5115 73.7956C16.5454 73.4859 16.573 73.1719 16.6069 72.8622C16.6408 72.5525 16.6747 72.2427 16.7129 71.9352C16.751 71.6276 16.7849 71.3158 16.8273 71.0082C16.8591 70.754 16.8909 70.4977 16.927 70.2414C16.9757 69.8804 17.0266 69.5194 17.0796 69.1606C17.0796 69.1051 17.0965 69.0517 17.105 68.9983C17.4924 66.3717 18.0188 63.7678 18.682 61.1978L37.7081 61.1914Z" fill="#06D6A0"/>
<path opacity="0.1" d="M16.199 77.5039H37.7094V107.05H17.7718C17.721 107.356 17.6701 107.659 17.6128 107.965H37.7094V131.789C37.6754 131.789 37.6415 131.763 37.6097 131.75C37.0445 131.524 36.4792 131.284 35.914 131.031C35.7932 130.975 35.6745 130.917 35.5515 130.864C34.9863 130.595 34.4211 130.31 33.8558 130.01C33.6587 129.905 33.4616 129.796 33.2687 129.685C30.1307 127.92 27.2786 125.683 24.8112 123.051C24.737 122.98 24.6692 122.903 24.5993 122.837C24.2559 122.461 23.9188 122.081 23.5924 121.692C23.4695 121.549 23.3508 121.404 23.23 121.265C22.8442 120.791 22.4711 120.3 22.1108 119.806C22.0557 119.731 22.0048 119.659 21.9518 119.593C20.4757 117.534 19.2515 115.304 18.306 112.95C18.2763 112.879 18.2487 112.802 18.2212 112.736C17.9287 111.989 17.6637 111.23 17.4348 110.457C17.3373 110.135 17.2419 109.816 17.1614 109.481C17.1317 109.385 17.1084 109.287 17.0829 109.191C15.8917 104.459 15.7539 99.5425 15.7539 94.6491C15.7539 94.0795 15.7539 93.5099 15.7539 92.9403C15.7709 90.9425 15.7942 88.9468 15.8239 86.9533C15.8352 86.4407 15.8458 85.9259 15.8557 85.409C15.8853 84.1004 15.9277 82.7889 15.9828 81.4746C15.9955 81.1115 16.0125 80.7463 16.0316 80.3853C16.0401 80.176 16.0507 79.9666 16.0634 79.7573C16.1015 79.0012 16.1468 78.2501 16.199 77.5039Z" fill="#06D6A0"/>
<path opacity="0.1" d="M59.0189 49.9668V76.5891H42.8438V49.9668H45.1499V40.9531H54.6163V49.9668H59.0189Z" fill="#06D6A0"/>
<path opacity="0.1" d="M59.0168 77.5H42.8438V107.046H59.0168V77.5Z" fill="#06D6A0"/>
<path opacity="0.1" d="M42.8477 107.963H59.0207V132.526C57.1129 133.08 55.1685 133.496 53.2022 133.771C53.0411 133.795 52.8821 133.814 52.721 133.831C52.4836 133.859 52.2484 133.885 52.0131 133.906L51.303 133.964H51.2309L50.9172 133.981H50.8091C50.6819 133.981 50.5569 133.996 50.4297 133.998H50.4191C50.2368 133.998 50.0566 134.011 49.8743 134.015H49.6412C49.461 134.015 49.2808 134.015 49.0964 134.015H48.6979H48.3736C48.2358 134.015 48.1002 134.015 47.9624 133.998C47.7448 133.989 47.5243 133.976 47.3011 133.959L46.892 133.929C46.7224 133.917 46.5528 133.9 46.3854 133.882C46.0293 133.851 45.676 133.811 45.3255 133.761L44.9016 133.701L44.6896 133.671C44.3357 133.618 43.9838 133.558 43.6298 133.489C43.367 133.443 43.1084 133.389 42.8477 133.334V107.963Z" fill="#06D6A0"/>
<path opacity="0.1" d="M160.13 46.8223H146.793V76.5866H160.13V46.8223Z" fill="#06D6A0"/>
<path opacity="0.1" d="M160.133 77.5V107.049H93.9336V94.3034H129.194V101.822H146.794V77.5H160.133Z" fill="#06D6A0"/>
<path opacity="0.1" d="M160.342 139.647C160.273 139.647 160.203 139.647 160.131 139.634V159.018C157.741 158.82 155.36 158.543 152.987 158.187C142.301 156.617 131.882 153.562 122.028 149.109C119.183 147.816 116.396 146.407 113.668 144.882C109.111 142.337 104.744 139.459 100.604 136.272C99.5613 135.469 98.534 134.648 97.5222 133.809C96.8206 133.224 96.1253 132.626 95.4174 132.047C94.9298 131.648 94.436 131.253 93.9336 130.877V107.965H146.62C146.582 107.828 146.548 107.693 146.51 107.557C146.55 107.693 146.588 107.828 146.622 107.965H160.133V139.632C160.203 139.634 160.273 139.641 160.342 139.647Z" fill="#06D6A0"/>
<path opacity="0.1" d="M194.917 44.6064H186.227V41.8852H190.12V33.7793C190.458 33.9046 190.794 34.0328 191.129 34.1638V41.8852H194.915L194.917 44.6064Z" fill="#06D6A0"/>
<path opacity="0.1" d="M215.855 76.5893H173.186C173.191 76.5903 173.195 76.5903 173.199 76.5893H173.18H165.27V46.825H167.512V68.8251H177.759V55.7959H186.227V45.5156H194.917V55.8023H203.381V68.8315H215.857L215.855 76.5893Z" fill="#06D6A0"/>
<path opacity="0.1" d="M165.27 77.5039V107.05H215.857V77.5039H165.27ZM229.582 141.828L229.654 118.439H215.857V107.973H165.27V159.349C169.417 159.523 173.57 159.472 177.712 159.197H177.784C179.762 159.069 181.732 158.887 183.691 158.65H183.736C194.196 157.424 204.423 154.671 214.096 150.478" fill="#06D6A0"/>
<path opacity="0.1" d="M235.683 107.963H247.483C247.382 113.963 246.186 119.856 243.568 125.298C241.394 129.82 238.369 133.774 234.793 137.227V118.431H235.683V107.963Z" fill="#06D6A0"/>
<path opacity="0.1" d="M247.492 107.049H235.684V82.3555H242.074C245.379 90.1367 247.482 98.6805 247.492 107.049Z" fill="#06D6A0"/>
<path opacity="0.1" d="M160.13 55.0977H152.984V64.4296H160.13V55.0977Z" fill="#06D6A0"/>
<path opacity="0.1" d="M160.13 74.4395H152.984V76.5882H160.13V74.4395Z" fill="#06D6A0"/>
<path opacity="0.1" d="M160.13 77.5H152.984V83.769H160.13V77.5Z" fill="#06D6A0"/>
<path opacity="0.1" d="M160.13 93.7832H152.984V103.115H160.13V93.7832Z" fill="#06D6A0"/>
<path opacity="0.1" d="M160.13 113.127H152.984V122.459H160.13V113.127Z" fill="#06D6A0"/>
<path opacity="0.1" d="M160.13 139.631C160.2 139.631 160.27 139.631 160.342 139.646C160.272 139.646 160.202 139.646 160.13 139.633V141.801H152.984V132.469H160.13V139.631Z" fill="#06D6A0"/>
<path opacity="0.1" d="M160.13 151.811V159.017C157.739 158.819 155.357 158.542 152.984 158.186V151.811H160.13Z" fill="#06D6A0"/>
<path opacity="0.1" d="M124.556 106.363H93.9336V107.049H124.556V106.363Z" fill="#06D6A0"/>
<path opacity="0.1" d="M124.556 107.961H93.9336V110.588H124.556V107.961Z" fill="#06D6A0"/>
<path opacity="0.1" d="M124.556 119.201H93.9336V123.426H124.556V119.201Z" fill="#06D6A0"/>
<path opacity="0.1" d="M124.557 132.037V136.262H100.605C99.5619 135.462 98.5346 134.64 97.5228 133.797C96.8191 133.214 96.1238 132.616 95.418 132.037H124.557Z" fill="#06D6A0"/>
<path opacity="0.1" d="M124.557 144.873V149.109H122.028C119.183 147.816 116.397 146.407 113.668 144.882L124.557 144.873Z" fill="#06D6A0"/>
<path opacity="0.1" d="M183.739 80.3652H177.711V86.4398H183.739V80.3652Z" fill="#06D6A0"/>
<path opacity="0.1" d="M53.2158 52.0625H47.1875V58.1371H53.2158V52.0625Z" fill="#06D6A0"/>
<path opacity="0.1" d="M53.2158 66.1719H47.1875V72.2465H53.2158V66.1719Z" fill="#06D6A0"/>
<path opacity="0.1" d="M53.2158 80.2812H47.1875V86.3559H53.2158V80.2812Z" fill="#06D6A0"/>
<path opacity="0.1" d="M53.2158 94.3906H47.1875V100.465H53.2158V94.3906Z" fill="#06D6A0"/>
<path opacity="0.1" d="M53.2158 108.5H47.1875V114.575H53.2158V108.5Z" fill="#06D6A0"/>
<path opacity="0.1" d="M53.2158 122.609H47.1875V128.684H53.2158V122.609Z" fill="#06D6A0"/>
<path opacity="0.1" d="M206.755 80.3652H200.727V86.4398H206.755V80.3652Z" fill="#06D6A0"/>
<path opacity="0.1" d="M183.739 95.3496H177.711V101.424H183.739V95.3496Z" fill="#06D6A0"/>
<path opacity="0.1" d="M206.755 95.3496H200.727V101.424H206.755V95.3496Z" fill="#06D6A0"/>
<path opacity="0.1" d="M183.739 110.33H177.711V116.405H183.739V110.33Z" fill="#06D6A0"/>
<path opacity="0.1" d="M206.755 110.33H200.727V116.405H206.755V110.33Z" fill="#06D6A0"/>
<path opacity="0.1" d="M183.739 125.314H177.711V131.389H183.739V125.314Z" fill="#06D6A0"/>
<path opacity="0.1" d="M206.755 125.314H200.727V131.389H206.755V125.314Z" fill="#06D6A0"/>
<path opacity="0.1" d="M183.739 140.297H177.711V146.371H183.739V140.297Z" fill="#06D6A0"/>
<path opacity="0.1" d="M206.755 140.297H200.727V146.371H206.755V140.297Z" fill="#06D6A0"/>
<path opacity="0.1" d="M177.711 159.197V155.279H183.737V158.639L177.711 159.197Z" fill="#06D6A0"/>
<path opacity="0.1" d="M17.082 68.9922V72.4674H37.7106V68.9922H17.082ZM19.136 72.2495H17.4403V69.2122H19.136V72.2495ZM21.1899 72.2495H19.4942V69.2122H21.1899V72.2495ZM23.2396 72.2495H21.5439V69.2122H23.2396V72.2495ZM25.2936 72.2495H23.5979V69.2122H25.2936V72.2495ZM27.3454 72.2495H25.6497V69.2122H27.3454V72.2495ZM29.3994 72.2495H27.7036V69.2122H29.3994V72.2495ZM31.4533 72.2495H29.7576V69.2122H31.4533V72.2495ZM33.5051 72.2495H31.8094V69.2122H33.5051V72.2495ZM35.557 72.2495H33.8613V69.2122H35.557V72.2495ZM37.6109 72.2495H35.9152V69.2122H37.6109V72.2495Z" fill="#06D6A0"/>
<path opacity="0.1" d="M17.082 79.1074V82.5826H37.7106V79.1074H17.082ZM19.136 82.3647H17.4403V79.3274H19.136V82.3647ZM21.1899 82.3647H19.4942V79.3274H21.1899V82.3647ZM23.2396 82.3647H21.5439V79.3274H23.2396V82.3647ZM25.2936 82.3647H23.5979V79.3274H25.2936V82.3647ZM27.3454 82.3647H25.6497V79.3274H27.3454V82.3647ZM29.3994 82.3647H27.7036V79.3274H29.3994V82.3647ZM31.4533 82.3647H29.7576V79.3274H31.4533V82.3647ZM33.5051 82.3647H31.8094V79.3274H33.5051V82.3647ZM35.557 82.3647H33.8613V79.3274H35.557V82.3647ZM37.6109 82.3647H35.9152V79.3274H37.6109V82.3647Z" fill="#06D6A0"/>
<path opacity="0.1" d="M17.082 89.2246V92.6976H37.7106V89.2246H17.082ZM19.136 92.4776H17.4403V89.4403H19.136V92.4776ZM21.1899 92.4776H19.4942V89.4403H21.1899V92.4776ZM23.2396 92.4776H21.5439V89.4403H23.2396V92.4776ZM25.2936 92.4776H23.5979V89.4403H25.2936V92.4776ZM27.3454 92.4776H25.6497V89.4403H27.3454V92.4776ZM29.3994 92.4776H27.7036V89.4403H29.3994V92.4776ZM31.4533 92.4776H29.7576V89.4403H31.4533V92.4776ZM33.5051 92.4776H31.8094V89.4403H33.5051V92.4776ZM35.557 92.4776H33.8613V89.4403H35.557V92.4776ZM37.6109 92.4776H35.9152V89.4403H37.6109V92.4776Z" fill="#06D6A0"/>
<path opacity="0.1" d="M17.082 99.3418V102.815H37.7106V99.3418H17.082ZM19.136 102.597H17.4403V99.5554H19.136V102.597ZM21.1899 102.597H19.4942V99.5554H21.1899V102.597ZM23.2396 102.597H21.5439V99.5554H23.2396V102.597ZM25.2936 102.597H23.5979V99.5554H25.2936V102.597ZM27.3454 102.597H25.6497V99.5554H27.3454V102.597ZM29.3994 102.597H27.7036V99.5554H29.3994V102.597ZM31.4533 102.597H29.7576V99.5554H31.4533V102.597ZM33.5051 102.597H31.8094V99.5554H33.5051V102.597ZM35.557 102.597H33.8613V99.5554H35.557V102.597ZM37.6109 102.597H35.9152V99.5554H37.6109V102.597Z" fill="#06D6A0"/>
<path opacity="0.1" d="M17.1797 109.453C17.2602 109.782 17.3556 110.107 17.4531 110.429V109.673H19.1489V112.708H18.2395C18.265 112.781 18.2925 112.856 18.3222 112.922H37.7171V109.453H17.1797ZM21.207 112.708H19.5113V109.673H21.207V112.708ZM23.2568 112.708H21.561V109.673H23.2568V112.708ZM25.3107 112.708H23.615V109.673H25.3107V112.708ZM27.3625 112.708H25.6668V109.673H27.3625V112.708ZM29.4165 112.708H27.7208V109.673H29.4165V112.708ZM31.4704 112.708H29.7747V109.673H31.4704V112.708ZM33.5223 112.708H31.8265V109.673H33.5223V112.708ZM35.5741 112.708H33.8784V109.673H35.5741V112.708ZM37.628 112.708H35.9323V109.673H37.628V112.708Z" fill="#06D6A0"/>
<path opacity="0.1" d="M21.957 119.568C22.0121 119.637 22.063 119.714 22.116 119.782H23.2373V121.241L23.5998 121.668V119.773H25.2955V122.836H24.5981C24.666 122.907 24.7317 122.982 24.8101 123.05H37.704V119.568H21.957ZM27.3537 122.836H25.658V119.786H27.3537V122.836ZM29.4076 122.836H27.7119V119.786H29.4076V122.836ZM31.4616 122.836H29.7659V119.786H31.4616V122.836ZM33.5134 122.836H31.8177V119.786H33.5134V122.836ZM35.5653 122.836H33.8695V119.786H35.5653V122.836ZM37.6192 122.836H35.9235V119.786H37.6192V122.836Z" fill="#06D6A0"/>
<path opacity="0.1" d="M33.2734 129.684C33.4684 129.795 33.6656 129.897 33.8627 130.006V129.899H35.5584V130.863C35.6814 130.916 35.7979 130.974 35.9188 131.029V129.899H37.6145V131.749C37.6467 131.764 37.68 131.776 37.7141 131.785V129.684H33.2734Z" fill="#06D6A0"/>
<path opacity="0.1" d="M160.131 139.632H160.343H160.131ZM146.507 107.556C146.548 107.693 146.584 107.83 146.62 107.964C146.588 107.83 146.55 107.693 146.507 107.556ZM45.1602 44.6058V45.5157H54.6287V44.6016L45.1602 44.6058ZM160.133 139.632H160.345H160.133ZM146.507 107.556C146.548 107.693 146.584 107.83 146.62 107.964C146.588 107.83 146.55 107.693 146.507 107.556ZM160.131 139.632H160.343H160.131ZM146.507 107.556C146.548 107.693 146.584 107.83 146.62 107.964C146.588 107.83 146.55 107.693 146.507 107.556Z" fill="#06D6A0"/>
<path opacity="0.1" d="M186.408 189.57C197.815 189.57 207.062 188.074 207.062 186.227C207.062 184.381 197.815 182.885 186.408 182.885C175.001 182.885 165.754 184.381 165.754 186.227C165.754 188.074 175.001 189.57 186.408 189.57Z" fill="#06D6A0"/>
<path opacity="0.1" d="M93.2595 186.227C104.666 186.227 113.913 184.73 113.913 182.884C113.913 181.038 104.666 179.541 93.2595 179.541C81.8526 179.541 72.6055 181.038 72.6055 182.884C72.6055 184.73 81.8526 186.227 93.2595 186.227Z" fill="#06D6A0"/>
<path d="M117.036 94.4948C117.031 94.4736 117.02 94.4543 117.004 94.4393C116.689 94.1253 112.661 88.386 112.661 88.386C112.661 88.386 112.449 87.7452 112.106 86.9122C112.216 86.7686 112.299 86.6057 112.35 86.4316C112.368 86.3579 112.382 86.283 112.39 86.2074C112.39 86.1839 112.407 86.1647 112.413 86.1412C112.487 85.8515 112.479 85.5469 112.392 85.2611C112.368 85.3345 112.339 85.4059 112.305 85.4747C112.225 85.2259 112.119 84.9867 111.987 84.7613C111.453 83.8343 110.69 83.0526 110.128 82.1491C109.278 80.7453 108.94 79.0865 109.172 77.4586C109.172 77.5419 109.172 77.6273 109.172 77.7106C109.193 77.3877 109.236 77.0666 109.299 76.7494C109.388 76.3884 109.506 76.0354 109.653 75.6943C110.158 74.5302 110.974 73.5156 111.47 72.3473C111.636 71.9532 111.763 71.5431 111.847 71.1234C112.022 70.4223 112.086 69.6978 112.036 68.9767C112.036 69.1476 112.008 69.3185 111.983 69.4872C111.929 67.7535 111.234 66.1026 110.035 64.8587C108.303 63.1051 105.817 62.4237 103.439 62.0649C102.439 61.9473 101.485 61.5803 100.662 60.9969C99.7482 60.401 98.5675 60.2578 97.4992 60.3881C96.2714 60.5219 95.1304 61.0903 94.2795 61.9922C93.1497 63.2439 92.66 65.0167 91.3416 66.0719C90.5425 66.7127 89.5293 67.0117 88.5988 67.4474C87.6682 67.8831 86.7886 68.5154 86.4897 69.4509C86.4897 69.4509 86.4897 69.4381 86.4897 69.4317V69.4851L86.477 69.5193C86.1675 70.6257 86.7653 71.7513 87.0769 72.8556C87.4012 73.9983 87.4224 75.2051 87.4393 76.3863C87.4626 77.8302 87.4838 79.2762 87.4605 80.7223C87.4499 81.2904 87.4308 81.865 87.3884 82.431C86.8867 82.5839 86.3994 82.7811 85.9322 83.0205C85.4574 83.3324 83.6812 85.2654 83.6812 85.2654L80.207 98.6407L80.2537 98.6941L80.207 98.8756L80.383 98.835C80.8747 99.369 82.3436 100.89 83.9292 101.838L84.0775 104.461C84.0775 104.461 84.2556 107.093 86.6572 108.18C86.7123 109.092 86.884 112.796 86.0891 114.263C85.5387 115.335 85.2798 116.535 85.3387 117.74C85.3387 117.74 85.6164 119.966 85.3006 121.136C85.1161 121.919 85.1023 122.732 85.2603 123.52C85.2603 123.52 85.2603 123.779 85.2603 124.223C85.2603 126.592 85.2879 134.183 85.2603 135.041C85.22 136.056 85.2603 151.061 85.2603 151.061C85.2603 151.061 85.0632 158.56 84.4315 160.591C83.7999 162.623 83.9588 169.349 83.9588 169.349C83.9588 169.349 83.5625 177.361 84.9636 178.941C84.9636 179.012 84.9508 179.084 84.9487 179.155C84.9487 179.187 84.9487 179.223 84.9487 179.255C84.9318 179.864 85.0483 180.511 85.5677 180.71C86.6275 181.12 88.0286 182.35 88.2935 182.703C88.5585 183.055 90.0995 183.933 92.1089 183.698C93.3677 183.555 94.6345 183.497 95.901 183.523C95.901 183.523 96.6938 183.378 96.4373 182.384C96.2719 181.765 95.653 180.812 95.2121 180.187C95.2927 180.208 95.3711 180.225 95.4453 180.24L95.5216 180.255H95.5809C95.6134 180.257 95.646 180.257 95.6784 180.255H95.7208C95.7603 180.258 95.8 180.258 95.8395 180.255C96.3716 180.204 98.3556 181.135 98.7096 181.75C99.0635 182.365 100.312 182.833 101.253 182.95C101.813 183.019 103.224 182.903 104.409 182.75C105.006 182.688 105.597 182.579 106.177 182.425C106.457 182.318 106.516 181.976 106.436 181.592C106.341 181.104 106.082 180.663 105.702 180.345C105.359 180.099 104.905 179.452 104.57 178.922L104.481 178.779C105.073 178.211 106.141 176.353 106.465 175.968C106.86 175.5 105.829 158.394 105.829 158.394V149.818L107.409 141.701L108.513 137.406L109.46 130.921C109.46 130.921 111.118 123.347 110.607 122.604C110.607 122.589 110.183 114.791 109.738 112.917C109.545 112.082 109.594 110.203 109.708 108.374C109.828 108.254 109.912 108.103 109.949 107.937C109.987 107.772 109.977 107.599 109.92 107.439C109.889 107.329 109.848 107.223 109.798 107.12C109.798 107.088 109.798 107.054 109.798 107.022C110.713 106.598 111.67 106.27 112.653 106.044C114.232 105.732 113.838 104.912 113.838 104.912C113.838 104.912 114.194 104.209 114.429 103.78C114.664 103.35 114.469 99.5613 114.429 99.2494C114.414 99.1234 114.317 98.4271 114.204 97.6368C114.711 97.2737 115.37 96.823 116.089 96.3958C117.456 95.5799 117.148 94.7191 117.036 94.4948ZM96.433 148.647C96.433 148.647 95.2481 151.693 95.723 152.473C96.1978 153.252 95.6445 156.147 95.6445 156.147L95.2481 160.442C95.2481 160.442 94.1438 168.409 94.5381 170.282C94.8475 171.752 94.962 176.141 94.998 177.972C94.9709 177.982 94.9447 177.995 94.9196 178.01L94.8666 178.038C95.0489 177.318 94.9726 175.861 94.0675 172.931L93.9912 160.826C93.9912 160.826 93.8513 146.845 94.9472 145.281C96.043 143.718 96.4309 141.063 96.4309 141.063C96.4309 141.063 96.1935 144.892 96.0388 145.907C95.884 146.921 96.433 148.647 96.433 148.647ZM94.2265 178.734C94.2159 178.76 94.2032 178.785 94.1947 178.809L94.1353 178.732C94.1656 178.735 94.1961 178.736 94.2265 178.734Z" fill="url(#paint0_linear)"/>
<path d="M106.312 183.53C105.699 183.768 102.378 184.171 101.449 184.058C100.521 183.945 99.2913 183.471 98.9416 182.851C98.5918 182.232 96.6312 181.296 96.1055 181.356C95.89 181.363 95.675 181.332 95.4696 181.266C95.1069 181.156 94.7527 181.019 94.4098 180.856C94.3619 180.587 94.3698 180.311 94.4331 180.045C94.4453 179.991 94.4609 179.938 94.4797 179.887C94.6034 179.536 94.8594 179.249 95.1919 179.088L95.2682 179.051C95.4152 178.987 95.5687 178.94 95.7261 178.91C97.3921 178.588 104.266 179.235 104.266 179.235C104.266 179.235 104.459 179.583 104.724 180.015C105.055 180.549 105.504 181.2 105.843 181.446C106.219 181.769 106.474 182.212 106.566 182.702C106.647 183.08 106.587 183.426 106.312 183.53Z" fill="white"/>
<path opacity="0.1" d="M106.313 183.532C105.7 183.769 102.381 184.172 101.452 184.059C100.524 183.946 99.2947 183.47 98.9428 182.852C98.591 182.235 96.6345 181.297 96.1088 181.357C95.5831 181.417 94.4131 180.857 94.4131 180.857C94.4131 180.857 94.2308 180.003 94.7607 179.42L95.8206 180.178C95.8206 180.178 98.6567 181.065 99.1823 181.887C99.708 182.709 100.666 183.169 102.05 183.252C103.085 183.32 105.461 182.914 106.574 182.711C106.648 183.081 106.591 183.427 106.313 183.532Z" fill="black"/>
<path d="M96.1634 184.621C94.9131 184.596 93.6626 184.655 92.4201 184.798C90.4297 185.033 88.9099 184.157 88.645 183.796C88.38 183.435 87.0086 182.216 85.9551 181.788C85.4401 181.588 85.3192 180.934 85.3426 180.323C85.3426 180.291 85.3426 180.255 85.3426 180.223C85.3621 179.836 85.4189 179.452 85.5121 179.076L93.7597 178.898L94.474 179.875L94.5843 180.024L95.0188 180.62C95.0188 180.62 95.2159 180.881 95.4745 181.261C95.9112 181.902 96.5216 182.848 96.6848 183.474C96.9456 184.475 96.1634 184.621 96.1634 184.621Z" fill="white"/>
<path opacity="0.1" d="M96.1634 184.621C94.9131 184.597 93.6626 184.656 92.4201 184.799C90.4319 185.034 88.9099 184.158 88.6471 183.797C88.3843 183.436 87.0086 182.206 85.9551 181.793C85.4401 181.593 85.3192 180.939 85.3426 180.328C85.9318 180.467 87.1697 180.822 87.6551 181.439C88.291 182.263 89.4293 183.65 91.0466 183.737C92.3523 183.808 95.5318 183.573 96.6976 183.479C96.9477 184.476 96.1634 184.621 96.1634 184.621Z" fill="black"/>
<path opacity="0.1" d="M95.1821 179.08C95.0867 179.794 94.7921 179.986 94.5801 180.029C94.5283 180.039 94.4751 180.039 94.4233 180.029C94.3954 180.027 94.3678 180.022 94.3406 180.016C94.3406 180.016 86.9345 181.665 85.438 180.33C85.4 180.296 85.3646 180.258 85.332 180.219C85.3516 179.832 85.4083 179.448 85.5016 179.072L93.7492 178.895L94.4635 179.871C94.5872 179.52 94.8432 179.233 95.1757 179.072L95.1821 179.08Z" fill="black"/>
<path opacity="0.1" d="M104.72 180.006C104.555 180.189 104.417 180.294 104.33 180.258C103.94 180.1 100.744 179.551 99.7282 180.023C98.7129 180.495 95.2769 180.1 95.2769 180.1C95.2769 180.1 95.2769 179.69 95.2578 179.032C95.4048 178.968 95.5583 178.921 95.7157 178.891C97.3817 178.568 104.256 179.216 104.256 179.216C104.256 179.216 104.457 179.574 104.72 180.006Z" fill="black"/>
<path d="M109.559 131.692L108.622 138.215L107.533 142.539L105.972 150.711V159.361C105.972 159.361 106.986 176.573 106.596 177.042C106.206 177.512 104.724 180.189 104.334 180.033C103.944 179.877 100.747 179.326 99.7322 179.796C98.7169 180.266 95.2809 179.875 95.2809 179.875C95.2809 179.875 95.2025 173.196 94.8124 171.31C94.4224 169.424 95.5141 161.407 95.5141 161.407L95.9041 157.086C95.9041 157.086 96.4509 154.177 95.9825 153.391C95.5141 152.605 96.6841 149.547 96.6841 149.547C96.6841 149.547 96.1394 147.814 96.2962 146.793C96.4531 145.772 96.6841 141.921 96.6841 141.921C96.6841 141.921 96.2962 144.595 95.2131 146.165C94.1299 147.735 94.2677 161.805 94.2677 161.805L94.344 173.98C96.2962 180.426 94.344 179.796 94.344 179.796C94.344 179.796 86.9379 181.447 85.4414 180.11C83.945 178.773 84.3731 170.357 84.3731 170.357C84.3731 170.357 84.2184 163.599 84.8416 161.557C85.4647 159.515 85.6619 151.969 85.6619 151.969C85.6619 151.969 85.6216 136.878 85.6619 135.859C85.6916 135.005 85.6619 127.356 85.6619 124.966C85.6619 124.522 85.6619 124.259 85.6619 124.259L86.5564 122.021L97.1547 120.684H102.225C102.225 120.684 109.856 122.491 110.644 123.27C110.661 123.283 110.675 123.299 110.687 123.317C111.197 124.071 109.559 131.692 109.559 131.692Z" fill="#06D6A0"/>
<path opacity="0.1" d="M96.6914 165.957C96.6914 165.957 99.023 171.615 100.123 172.008C101.223 172.401 96.6914 165.957 96.6914 165.957Z" fill="black"/>
<path opacity="0.1" d="M97.5508 174.287C97.5508 174.287 105.423 174.68 105.345 175.545C105.266 176.41 97.5508 174.287 97.5508 174.287Z" fill="black"/>
<path opacity="0.1" d="M87.0195 172.025C87.3311 172.322 93.0245 172.88 92.5561 173.422C92.0876 173.965 87.488 175.02 87.488 175.02L87.0195 172.025Z" fill="black"/>
<path opacity="0.1" d="M86.0859 162.264C86.0859 162.499 87.256 169.808 87.5697 170.122C87.8834 170.436 90.4546 170.75 90.4546 170.75L86.0859 162.264Z" fill="black"/>
<path d="M94.5751 62.3576C93.458 63.6157 92.9748 65.3992 91.6733 66.4629C90.8826 67.1037 89.8822 67.4091 88.9622 67.8449C88.0423 68.2806 87.1308 68.9449 86.8574 69.9317C86.5522 71.0424 87.1414 72.1765 87.4509 73.2872C87.771 74.4364 87.7901 75.6368 87.8091 76.8393C87.8303 78.2939 87.8536 79.7484 87.8282 81.203C87.7901 83.4693 87.6035 85.8401 86.4102 87.7604C90.7194 89.1423 95.3021 89.3303 99.8213 89.5076C100.69 89.57 101.562 89.5478 102.426 89.4413C103.175 89.291 103.916 89.1021 104.646 88.8753C106.088 88.4907 107.575 88.2989 109.067 88.305C109.718 88.305 110.381 88.3456 111.009 88.1747C111.636 88.0039 112.24 87.566 112.41 86.9337C112.56 86.3656 112.34 85.7611 112.052 85.2506C111.526 84.3194 110.78 83.5419 110.216 82.6234C109.64 81.6533 109.299 80.5605 109.219 79.433C109.139 78.3056 109.323 77.175 109.756 76.1323C110.256 74.9597 111.062 73.9387 111.554 72.7639C112.057 71.5026 112.191 70.1221 111.939 68.7864C111.688 67.4507 111.061 66.2158 110.133 65.2283C108.423 63.464 105.968 62.7805 103.62 62.4174C102.631 62.2997 101.687 61.9324 100.877 61.3495C99.976 60.7514 98.8081 60.6062 97.7525 60.7386C96.5347 60.8761 95.4068 61.4508 94.5751 62.3576Z" fill="#3F3D56"/>
<g opacity="0.1">
<path opacity="0.1" d="M109.823 74.8985C109.391 75.9278 109.206 77.0452 109.283 78.1601C109.33 77.3629 109.513 76.5797 109.823 75.8448C110.321 74.6721 111.127 73.6512 111.618 72.4764C112.02 71.4954 112.19 70.4334 112.112 69.375C112.069 70.1169 111.902 70.8461 111.618 71.5323C111.127 72.7071 110.321 73.7259 109.823 74.8985Z" fill="black"/>
<path opacity="0.1" d="M87.8733 76.5485C87.886 77.3858 87.8987 78.2252 87.9008 79.0625C87.9008 77.9091 87.8902 76.7578 87.8733 75.6065C87.8563 74.4125 87.8351 73.2036 87.515 72.0523C87.3031 71.3218 86.9894 70.5807 86.8791 69.8438C86.6905 70.8904 87.2268 71.9519 87.515 72.9964C87.8351 74.137 87.8563 75.3545 87.8733 76.5485Z" fill="black"/>
<path opacity="0.1" d="M111.082 86.9516C110.446 87.1246 109.793 87.0862 109.143 87.0819C107.651 87.0724 106.166 87.2605 104.723 87.6415C103.993 87.8673 103.253 88.0555 102.504 88.2054C101.639 88.3136 100.766 88.3365 99.8966 88.2738C95.5301 88.1007 91.1021 87.9149 86.92 86.6569C86.7959 86.9361 86.6543 87.2072 86.4961 87.4685C90.8054 88.8483 95.3881 89.0384 99.9051 89.2157C100.774 89.2785 101.647 89.2556 102.512 89.1473C103.258 88.9989 103.996 88.8114 104.723 88.5856C106.162 88.2032 107.645 88.0129 109.134 88.0196C109.785 88.0196 110.446 88.0602 111.074 87.8872C111.701 87.7141 112.305 87.2805 112.475 86.6483C112.546 86.3555 112.539 86.0488 112.453 85.7598C112.265 86.3578 111.682 86.7743 111.082 86.9516Z" fill="black"/>
</g>
<path d="M104.8 84.4214C104.644 84.7759 103.982 87.8389 103.825 88.1529C103.669 88.4668 102.812 93.4927 102.734 93.7747C102.655 94.0566 97.0891 92.5956 97.0891 92.5956L93.738 89.7655L90.2935 86.3117C90.2935 86.3117 90.1918 83.1954 92.729 82.1957C92.9015 82.1275 93.0786 82.0718 93.2589 82.0291C96.3367 81.2837 96.0272 71.8535 96.0272 71.8535L102.344 74.6025C102.344 74.6025 101.174 80.1046 101.214 81.1662C101.225 81.5229 101.502 81.745 101.865 81.8796C102.425 82.0403 103.009 82.1038 103.59 82.0676C103.59 82.0676 104.957 84.0689 104.8 84.4214Z" fill="#FBBEBE"/>
<path d="M116.111 94.7551L117.007 94.9922C117.007 94.9922 117.671 96.0089 116.111 96.9551C115.12 97.5614 114.169 98.2314 113.264 98.9607L108.654 100.375L107.766 97.566L112.056 94.2852L116.111 94.7551Z" fill="#06D6A0"/>
<path opacity="0.1" d="M116.111 94.7551L117.007 94.9922C117.007 94.9922 117.671 96.0089 116.111 96.9551C115.12 97.5614 114.169 98.2314 113.264 98.9607L108.654 100.375L107.766 97.566L112.056 94.2852L116.111 94.7551Z" fill="black"/>
<path d="M82.4651 97.4675L80.6719 99.2361C80.6719 99.2361 83.9065 103.008 86.395 103.243C88.8835 103.478 90.488 100.375 90.488 100.375L88.3345 96.957L82.4651 97.4675Z" fill="#06D6A0"/>
<path opacity="0.1" d="M82.4651 97.4675L80.6719 99.2361C80.6719 99.2361 83.9065 103.008 86.395 103.243C88.8835 103.478 90.488 100.375 90.488 100.375L88.3345 96.957L82.4651 97.4675Z" fill="black"/>
<path opacity="0.1" d="M99.4999 78.0155C102.945 78.0155 105.738 75.2011 105.738 71.7294C105.738 68.2577 102.945 65.4434 99.4999 65.4434C96.0546 65.4434 93.2617 68.2577 93.2617 71.7294C93.2617 75.2011 96.0546 78.0155 99.4999 78.0155Z" fill="black"/>
<path d="M99.4999 77.5428C102.945 77.5428 105.738 74.7285 105.738 71.2568C105.738 67.7851 102.945 64.9707 99.4999 64.9707C96.0546 64.9707 93.2617 67.7851 93.2617 71.2568C93.2617 74.7285 96.0546 77.5428 99.4999 77.5428Z" fill="#FBBEBE"/>
<path opacity="0.1" d="M110.691 124.03C109.271 124.194 107.872 124.51 106.518 124.972C104.186 125.754 85.9145 124.985 85.6602 124.972C85.6602 124.528 85.6602 124.265 85.6602 124.265L86.5547 122.027L97.153 120.689H102.223C102.223 120.689 109.854 122.496 110.642 123.276C110.674 123.746 110.691 124.03 110.691 124.03Z" fill="black"/>
<path opacity="0.1" d="M104.8 84.4207C104.644 84.7752 103.982 87.8382 103.825 88.1522C103.669 88.4661 102.812 93.492 102.734 93.7739C102.655 94.0559 97.0891 92.5949 97.0891 92.5949L93.738 89.7648L90.2935 86.311C90.2935 86.311 90.1918 83.1946 92.729 82.195L99.0286 89.4935L101.865 81.8789C102.425 82.0396 103.009 82.1031 103.59 82.0669C103.59 82.0669 104.957 84.0682 104.8 84.4207Z" fill="black"/>
<path d="M99.0289 89.7291L92.5809 82.2533C92.2034 82.0105 91.772 81.8661 91.3255 81.8329C90.8789 81.7997 90.4311 81.8788 90.0224 82.0632C88.5789 82.6933 86.7857 83.2038 86.3173 83.5178C85.8488 83.8318 84.0938 85.7755 84.0938 85.7755L89.3208 99.5544L87.0189 108.63C87.0189 108.63 87.3707 113.267 86.4741 114.957C85.9282 116.037 85.6724 117.242 85.7322 118.453C85.7322 118.453 86.0057 120.694 85.6941 121.871C85.512 122.658 85.4983 123.475 85.6538 124.267C85.6538 124.267 104.178 125.053 106.515 124.267C107.869 123.804 109.268 123.488 110.689 123.325C110.689 123.325 110.265 115.465 109.841 113.579C109.417 111.693 110.193 104.503 110.193 104.503L109.687 96.8012L112.726 88.8982C112.726 88.8982 111.079 83.8318 109.362 83.3213C109.362 83.3213 106.244 82.5737 105.581 82.2213C104.917 81.8689 102.967 81.5527 102.967 81.5527L101.943 81.8988L99.0289 89.7291Z" fill="#06D6A0"/>
<path opacity="0.1" d="M108.026 96.5407L94.4577 95.611C94.1143 95.5874 93.817 95.8489 93.7937 96.1949L92.337 117.782C92.3136 118.128 92.573 118.428 92.9164 118.451L106.485 119.381C106.828 119.404 107.126 119.143 107.149 118.797L108.606 97.2098C108.629 96.8638 108.369 96.5642 108.026 96.5407Z" fill="black"/>
<path d="M108.495 96.0719L94.9264 95.1422C94.5831 95.1187 94.2858 95.3801 94.2624 95.7261L92.8057 117.313C92.7824 117.659 93.0418 117.959 93.3852 117.982L106.954 118.912C107.297 118.936 107.594 118.674 107.618 118.328L109.074 96.741C109.098 96.395 108.838 96.0954 108.495 96.0719Z" fill="#3F3D56"/>
<path d="M108.045 97.7651L95.1406 96.8809L93.8145 116.533L106.719 117.417L108.045 97.7651Z" fill="white"/>
<path opacity="0.1" d="M106.889 102.781L96.3477 102.037L96.142 104.998L106.683 105.741L106.889 102.781Z" fill="black"/>
<path opacity="0.1" d="M106.509 114.546L104.836 114.432L104.732 115.974L106.405 116.089L106.509 114.546Z" fill="black"/>
<path opacity="0.1" d="M104.86 110.821L96.2969 110.234L96.1928 111.777L104.756 112.364L104.86 110.821Z" fill="black"/>
<path d="M106.451 97.0289L97.5352 96.418L97.3751 98.7898L106.291 99.4007L106.451 97.0289Z" fill="#3F3D56"/>
<path opacity="0.1" d="M106.451 97.0289L97.5352 96.418L97.3751 98.7898L106.291 99.4007L106.451 97.0289Z" fill="black"/>
<path opacity="0.1" d="M99.8115 123.596C99.8115 123.596 99.7331 135.228 96.6914 141.907C96.6914 141.907 100.358 133.105 100.358 132.752C100.358 132.4 102.385 128.705 101.842 127.605C101.3 126.505 99.8115 123.596 99.8115 123.596Z" fill="black"/>
<path opacity="0.1" d="M99.9745 69.6855C99.858 68.6559 100.108 67.6181 100.68 66.7571C100.612 67.6201 100.855 68.479 101.363 69.177C101.871 69.875 102.611 70.3655 103.449 70.5591C103.377 70.4966 103.326 70.4138 103.302 70.3215C103.279 70.2292 103.283 70.1319 103.315 70.0422C103.75 70.5377 104.082 71.1251 104.574 71.5609C105.066 71.9966 105.804 72.2572 106.382 71.9475C107.169 71.5203 107.177 70.3946 106.974 69.5189C106.537 67.6539 105.641 65.9298 104.369 64.5058C104.051 64.0754 103.639 63.7249 103.165 63.4818C102.69 63.2387 102.166 63.1096 101.634 63.1047C100.43 63.0107 99.1797 63.1175 98.1007 63.6621C97.4936 63.996 96.9249 64.3964 96.405 64.8561L93.4375 67.2954C93.152 67.5027 92.9075 67.762 92.7168 68.06C92.5894 68.3092 92.513 68.5816 92.4921 68.861C92.4163 69.6599 92.563 70.4642 92.9157 71.1837C93.2684 71.9033 93.8132 72.5094 94.4888 72.9343C94.4745 72.3029 94.6469 71.6815 94.9839 71.149C95.321 70.6165 95.8075 70.1971 96.3817 69.9439C96.4716 70.0197 96.5444 70.114 96.5953 70.2205C96.6461 70.3269 96.6737 70.4431 96.6763 70.5612L97.3016 69.4377C97.3946 69.2333 97.5412 69.0583 97.7256 68.9315C98.1113 68.7179 98.5925 68.97 98.9211 69.2711C99.2496 69.5723 99.5697 69.9482 100.011 69.9952L100.028 68.3228" fill="black"/>
<path d="M99.9777 69.4514C99.8608 68.4211 100.111 67.3825 100.684 66.5209C100.493 68.2296 101.771 69.9939 103.454 70.3228C103.382 70.2609 103.331 70.1784 103.307 70.0864C103.284 69.9945 103.288 69.8974 103.32 69.8081C103.755 70.3036 104.088 70.8889 104.579 71.3267C105.071 71.7646 105.809 72.023 106.388 71.7112C107.174 71.284 107.182 70.1584 106.979 69.2848C106.542 67.4198 105.646 65.6957 104.374 64.2717C103.979 63.7867 103.481 63.397 102.918 63.1311C102.51 62.979 102.081 62.8911 101.646 62.8705C100.442 62.7766 99.1913 62.8812 98.1124 63.4259C97.5056 63.7612 96.937 64.1623 96.4167 64.622L93.4491 67.0612C93.1631 67.268 92.9186 67.5275 92.7284 67.8259C92.6008 68.075 92.5244 68.3474 92.5038 68.6269C92.4281 69.4254 92.5749 70.2294 92.9276 70.9486C93.2803 71.6677 93.825 72.2735 94.5005 72.698C94.4867 72.0667 94.6593 71.4455 94.9963 70.9132C95.3333 70.3808 95.8195 69.9613 96.3933 69.7077C96.483 69.7837 96.5556 69.8781 96.6063 69.9845C96.6571 70.0909 96.6849 70.2069 96.688 70.325L97.3111 69.2057C97.4036 69.0009 97.5503 68.8258 97.7351 68.6995C98.1209 68.4859 98.602 68.738 98.9306 69.0391C99.2591 69.3403 99.5792 69.7141 100.02 69.7632L100.037 68.0886" fill="#3F3D56"/>
<path d="M102.933 109.1C102.388 108.823 93.3793 110.239 93.3793 110.239C93.3793 110.239 91.8956 109.812 88.3091 109.218C84.7226 108.624 84.4937 105.091 84.4937 105.091L84.1016 98.0191L85.3119 96.9512L90.4966 100.369C90.4966 100.369 90.5771 102.097 90.4966 102.408C90.4457 102.622 90.3101 102.876 90.3228 103.049C90.3267 103.096 90.3459 103.14 90.3773 103.175C90.4087 103.21 90.4507 103.233 90.4966 103.242C90.8484 103.331 95.6431 104.113 95.6431 104.113C95.6431 104.113 106.757 103.346 109.527 107.118C109.746 107.395 109.912 107.711 110.017 108.05C110.703 110.628 103.427 109.346 102.933 109.1Z" fill="#FBBEBE"/>
<path opacity="0.1" d="M110.021 108.065C109.597 108.255 109.334 108.391 109.334 108.391C109.334 108.391 105.358 108.274 103.124 107.458C100.89 106.642 98.1744 106.787 98.1744 106.787C98.1744 106.787 88.8648 105.173 90.3083 103.064C90.3122 103.111 90.3314 103.156 90.3628 103.19C90.3943 103.225 90.4362 103.248 90.4821 103.257C90.834 103.346 95.6286 104.128 95.6286 104.128C95.6286 104.128 106.742 103.361 109.512 107.133C109.739 107.409 109.911 107.725 110.021 108.065Z" fill="black"/>
<path d="M113.888 95.6211C113.888 95.6211 114.435 99.5106 114.473 99.8268C114.511 100.143 114.709 103.951 114.473 104.385C114.238 104.818 113.888 105.523 113.888 105.523C113.888 105.523 114.278 106.348 112.718 106.664C111.158 106.98 109.327 107.92 109.327 107.92C109.327 107.92 105.348 107.802 103.127 106.978C100.905 106.153 98.1752 106.309 98.1752 106.309C98.1752 106.309 86.3581 104.265 91.4283 101.77C96.4986 99.2757 100.085 102.655 100.085 102.655L105.738 102.302C105.738 102.302 107.845 101.004 108.43 101.123C108.843 101.176 109.263 101.108 109.638 100.927L109.679 96.8001L113.888 95.6211Z" fill="#FBBEBE"/>
<path opacity="0.1" d="M85.2217 86.0735L84.0898 86.0137L80.6602 99.4701C80.6602 99.4701 84.3632 98.526 85.9593 99.4701C87.5554 100.414 90.4827 100.609 90.4827 100.609L89.3911 89.8819L85.2217 86.0735Z" fill="black"/>
<path d="M85.2217 85.8352L84.0898 85.7754L80.6602 99.2318C80.6602 99.2318 84.3632 98.2878 85.9593 99.2318C87.5554 100.176 90.4827 100.37 90.4827 100.37L89.3911 89.6436L85.2217 85.8352Z" fill="#06D6A0"/>
<path opacity="0.1" d="M111.161 88.7832L112.719 89.1378C112.719 89.1378 116.697 94.9048 117.009 95.2273C117.321 95.5499 115.525 96.7225 114.785 96.7225C114.046 96.7225 110.419 97.1497 109.365 98.1365C108.312 99.1233 108.751 94.1572 108.751 94.044C108.751 93.9308 110.059 90.7974 110.059 90.7974L111.161 88.7832Z" fill="black"/>
<path d="M111.161 88.5488L112.719 88.9013C112.719 88.9013 116.697 94.679 117.009 94.993C117.321 95.3069 115.525 96.4881 114.785 96.4881C114.046 96.4881 110.419 96.9153 109.365 97.9021C108.312 98.8889 108.751 93.9229 108.751 93.8097C108.751 93.6964 110.067 90.5523 110.067 90.5523L111.161 88.5488Z" fill="#06D6A0"/>
<g opacity="0.1">
<path opacity="0.1" d="M100.669 66.5401C100.66 66.3763 100.664 66.2121 100.68 66.0488C100.357 66.5368 100.135 67.0852 100.027 67.6615V68.157C100.027 68.157 100.027 68.1463 100.027 68.1399V68.2574C100.027 68.6034 100.027 68.9516 100.017 69.2976H99.987V69.4578C99.987 69.4023 99.987 69.3489 99.9764 69.2933C99.5524 69.225 99.2493 68.8661 98.9335 68.5799C98.6177 68.2937 98.1238 68.0203 97.738 68.2403C97.5532 68.3666 97.4065 68.5417 97.3141 68.7465L96.6845 69.8658C96.6818 69.748 96.654 69.6322 96.6032 69.5261C96.5524 69.42 96.4797 69.3261 96.3899 69.2506C95.8157 69.5037 95.3292 69.9232 94.9921 70.4557C94.6551 70.9881 94.4827 71.6095 94.497 72.2409C93.9179 71.8753 93.4334 71.376 93.0836 70.7843C92.7339 70.1927 92.5288 69.5257 92.4855 68.8384C92.4486 69.6058 92.6156 70.3692 92.9692 71.05C93.3228 71.7307 93.8502 72.304 94.497 72.7108C94.4833 72.0796 94.6559 71.4584 94.9928 70.926C95.3298 70.3937 95.816 69.9741 96.3899 69.7205C96.4795 69.7966 96.5521 69.8909 96.6029 69.9973C96.6537 70.1037 96.6815 70.2198 96.6845 70.3378L97.3077 69.2186C97.4002 69.0138 97.5468 68.8386 97.7316 68.7123C98.1174 68.4988 98.5986 68.7508 98.9271 69.052C99.2557 69.3531 99.5757 69.7269 100.017 69.776C100.017 69.2292 100.022 68.6839 100.034 68.1399C100.138 67.5693 100.354 67.0253 100.669 66.5401Z" fill="black"/>
<path opacity="0.1" d="M99.954 68.6905C99.9646 68.5453 99.9817 68.4 100.003 68.2633L100.027 67.6738C99.9624 68.0087 99.938 68.35 99.954 68.6905Z" fill="black"/>
<path opacity="0.1" d="M106.384 71.2391C105.805 71.5509 105.068 71.2903 104.576 70.8546C104.084 70.4189 103.751 69.8315 103.317 69.3359C103.285 69.4256 103.28 69.523 103.304 69.6152C103.328 69.7075 103.379 69.7903 103.45 69.8528C103.408 69.8528 103.368 69.8315 103.328 69.8208C103.751 70.3121 104.088 70.8888 104.576 71.3159C105.064 71.7431 105.805 72.0123 106.384 71.7004C106.963 71.3886 107.128 70.6581 107.077 69.9468C107.039 70.5064 106.84 70.9913 106.384 71.2391Z" fill="black"/>
<path opacity="0.1" d="M103.313 69.8166C102.604 69.6219 101.972 69.2136 101.499 68.6463C101.027 68.079 100.739 67.3799 100.672 66.6426C100.551 68.3193 101.806 70.0003 103.449 70.3228C103.379 70.2616 103.329 70.1807 103.304 70.0905C103.28 70.0004 103.283 69.905 103.313 69.8166Z" fill="black"/>
</g>
<path d="M205.11 104.725C205.11 104.725 204.274 104.608 204.274 103.384C204.274 102.16 203.677 99.8682 203.677 99.8682C203.677 99.8682 203.16 95.8804 202.445 95.2482C201.731 94.6159 200.813 90.9037 200.813 90.9037C200.813 90.9037 200.656 88.8895 200.336 88.4559C200.016 88.0223 199.584 86.9607 198.946 85.4463C198.308 83.932 195.654 82.8939 195.654 82.8939C195.654 82.8939 190.844 80.083 189.481 79.1667C189.357 79.0907 189.24 79.002 189.134 78.9018C188.896 78.59 187.862 78.5836 187.862 78.5836C187.754 77.8937 187.65 77.1034 187.616 76.3878C187.616 76.3109 187.616 76.234 187.616 76.1571C189.136 75.2519 190.281 73.8246 190.84 72.1373C190.865 72.0561 190.887 71.9728 190.91 71.8895C191.003 71.8606 191.089 71.8121 191.162 71.7473C191.235 71.6826 191.294 71.6029 191.334 71.5136C191.455 71.2381 191.459 70.9177 191.612 70.6592C191.79 70.3559 192.129 70.1936 192.396 69.9672C193.07 69.3883 193.244 68.4165 193.212 67.5343C193.191 66.8167 193.076 66.0947 193.121 65.3835C193.121 65.3236 193.121 65.2638 193.134 65.204C193.146 65.0994 193.161 64.9904 193.18 64.8879C193.284 64.3582 193.511 63.8584 193.638 63.333C193.765 62.8075 193.778 62.2159 193.481 61.763C193.047 61.0988 192.142 60.9663 191.347 60.9087C190.446 60.8318 189.651 60.93 189.064 60.176C188.794 59.7822 188.491 59.4134 188.157 59.0739C188.038 58.9628 186.885 58.2516 186.885 58.2067C185.757 57.6781 184.477 57.5787 183.281 57.9269C182.681 58.102 182.12 58.3883 181.511 58.5314C180.206 58.8432 178.701 58.5057 177.59 59.2597C176.971 59.6869 176.6 60.3683 176.253 61.0283C175.97 61.5722 175.683 62.1169 175.392 62.6623C174.921 63.5572 174.447 64.4671 174.249 65.4582C174.208 65.6747 174.182 65.8938 174.171 66.1139C174.171 66.193 174.171 66.272 174.171 66.351C174.171 66.3852 174.171 66.4194 174.171 66.4536C174.171 66.5262 174.171 66.5988 174.184 66.6672C174.196 66.7355 174.184 66.7547 174.199 66.7996C174.213 66.8444 174.218 66.9448 174.23 67.0132C174.243 67.0815 174.269 67.2033 174.294 67.2951C174.294 67.3357 174.319 67.3741 174.332 67.4147C174.345 67.4553 174.379 67.5578 174.406 67.6283C174.434 67.6988 174.436 67.7031 174.453 67.7394C174.485 67.8141 174.523 67.8868 174.561 67.953C174.578 67.9808 174.591 68.0085 174.608 68.0363C174.666 68.1363 174.731 68.2319 174.803 68.3225C175.254 68.8928 175.924 69.2559 176.418 69.7899C176.418 69.8113 176.418 69.8326 176.418 69.854C176.418 69.9116 176.418 69.9693 176.418 70.0291C176.448 71.2201 176.767 72.3857 177.346 73.4243C177.925 74.4629 178.748 75.3431 179.742 75.9884C179.742 76.0696 179.752 76.1529 179.756 76.2362C179.798 76.8695 179.79 77.5051 179.733 78.1371C179.647 78.0349 179.538 77.9535 179.417 77.8988C179.295 77.8441 179.163 77.8175 179.029 77.821C178.938 77.8165 178.847 77.8244 178.758 77.8445L178.739 77.8296V77.8488C178.273 77.9641 177.698 78.4533 177.149 79.8438C177.149 79.8438 175.479 81.7405 174.207 81.6614C172.935 81.5824 169.716 83.6372 169.716 83.6372C169.716 83.6372 166.574 85.6898 165.9 87.7831C165.523 88.9703 165.071 90.1318 164.546 91.2604L160.652 99.3171L159.938 105.725C159.938 105.725 160.334 108.568 160.255 109.004C160.177 109.439 161.885 113.348 161.885 113.348C161.885 113.348 167.53 123.34 169.836 123.853L170.002 123.737C170.101 123.788 170.205 123.826 170.313 123.853L170.788 123.517C170.817 123.893 170.805 124.27 170.75 124.643C170.434 125.632 170.871 132.07 171.426 133.332C171.981 134.594 171.784 151.148 171.784 151.148L171.706 152.607C171.706 152.607 171.706 152.654 171.725 152.735L171.706 153.081L171.763 153.111C171.822 153.575 171.803 154.046 171.706 154.503C171.507 155.144 171.426 156.953 171.426 156.953C171.426 156.953 169.836 167.18 170.591 169.235C171.346 171.29 171.984 173.541 171.984 173.541C171.984 173.541 172.778 176.104 172.022 176.531C171.265 176.959 169.122 177.717 169.559 178.783C169.961 179.769 171.49 182.414 171.716 182.8L171.697 183.014L171.386 186.416C171.436 186.866 171.557 187.304 171.744 187.715C172.085 188.458 172.747 189.225 174.01 189.142C174.222 189.127 174.466 189.103 174.705 189.071C177.014 188.757 179.854 187.719 179.854 187.719C179.707 187.625 179.572 187.513 179.453 187.384C179.34 187.273 179.25 187.14 179.189 186.994C179.128 186.847 179.098 186.689 179.099 186.53C179.133 185.908 177.982 182.958 177.694 182.23L177.628 182.068C177.628 182.068 180.252 179.302 179.816 176.854C179.816 176.854 176.912 175.145 177.868 174.205C178.824 173.265 180.532 170.574 180.532 170.574C180.532 170.574 180.611 160.503 180.532 159.002C180.45 157.957 180.5 156.907 180.678 155.875C180.71 155.721 180.748 155.569 180.789 155.418C182.112 155.619 183.448 155.721 184.786 155.723C185.275 155.723 185.77 155.713 186.27 155.693C186.27 155.836 186.276 155.989 186.289 156.154C186.399 158.649 186.605 163.026 186.772 164.651C187.01 166.979 188.322 173.261 188.322 173.261C188.322 173.261 185.819 174.878 188.759 178.87C188.759 178.87 188.759 180.314 188.564 180.526C188.355 181.21 188.187 181.907 188.061 182.612C187.938 183.362 187.887 184.125 188.087 184.518C188.564 185.462 191.425 185.385 191.425 185.385C191.448 185.379 191.471 185.376 191.495 185.374C192.035 185.317 192.581 185.368 193.101 185.526C193.621 185.684 194.105 185.944 194.524 186.293C195.611 187.173 199.736 186.788 201.973 186.506C202.848 186.393 203.433 186.293 203.433 186.293C203.461 186.193 203.471 186.088 203.463 185.985C203.439 185.432 203.009 184.219 200.092 183.136C200.092 183.136 197.35 181.277 197.388 179.658H197.326H197.01C197.21 179.652 197.35 179.652 197.35 179.652C197.35 179.652 196.275 175.703 196.714 175.38C197.152 175.058 195.838 170.681 195.838 170.681C195.838 170.681 195.086 163.333 195.043 162.821C195.046 162.379 195.113 161.94 195.243 161.518L195.043 157.487C195.043 157.487 195.005 156.148 195.043 155.712C195.039 155.334 195.009 154.957 194.954 154.582C194.935 154.433 194.916 154.277 194.895 154.123C195.923 153.86 196.591 153.619 196.591 153.619L196.472 139.597C197.345 137.888 197.506 134.137 197.502 131.48C197.502 129.771 197.426 128.507 197.426 128.507L198.619 126.544C198.619 126.544 198.895 124.194 198.458 123.68C198.265 123.447 198.352 123.205 198.511 123.007C198.595 122.938 198.683 122.875 198.776 122.819C198.766 122.804 198.756 122.788 198.749 122.772C198.832 122.702 198.92 122.638 199.013 122.582C199.013 122.582 198.59 121.92 198.969 121.64C199.325 121.883 199.643 122.078 199.885 122.217C199.868 122.372 199.851 122.462 199.851 122.462L199.952 122.249C200.186 122.381 200.328 122.462 200.328 122.462C200.328 122.462 202.197 118.709 202.157 118.158C202.117 117.607 203.429 115.275 203.429 115.275C203.429 115.275 203.588 114.049 204.304 113.536C205.021 113.023 204.86 109.309 204.86 109.309C204.86 109.309 205.059 107.374 205.536 106.586C206.013 105.798 205.11 104.725 205.11 104.725ZM169.338 103.079L169.374 103.973C169.162 103.63 169.01 103.384 169.01 103.384L169.338 103.079Z" fill="url(#paint1_linear)"/>
<path d="M200.439 120.839L199.982 122.804C199.982 122.804 196.315 120.913 195.655 118.521C194.996 116.129 196.76 115.217 196.76 115.217L200.179 116.674L200.439 120.839Z" fill="white"/>
<path opacity="0.1" d="M200.439 120.839L199.982 122.804C199.982 122.804 196.315 120.913 195.655 118.521C194.996 116.129 196.76 115.217 196.76 115.217L200.179 116.674L200.439 120.839Z" fill="black"/>
<path d="M179.861 187.718C179.861 187.718 176.47 188.974 174.138 189.132C172.9 189.215 172.249 188.45 171.914 187.714C171.732 187.307 171.614 186.875 171.562 186.432L171.87 183.047L172.031 181.246L176.985 179.947L177.686 182.111L177.752 182.273C178.032 182.997 179.164 185.932 179.13 186.545C179.127 186.704 179.156 186.861 179.216 187.008C179.275 187.155 179.363 187.288 179.475 187.4C179.59 187.522 179.72 187.629 179.861 187.718Z" fill="white"/>
<path d="M203.013 185.997C203.022 186.1 203.011 186.205 202.983 186.304C202.983 186.304 195.73 187.522 194.246 186.304C193.829 185.949 193.343 185.685 192.819 185.529C192.294 185.374 191.744 185.33 191.202 185.401C191.202 185.401 188.396 185.478 187.927 184.547C187.732 184.156 187.783 183.397 187.904 182.652C188.027 181.951 188.191 181.258 188.396 180.576L188.508 180.486L189.176 179.946L196.993 179.713H197.052C197.014 181.323 199.704 183.171 199.704 183.171C202.568 184.239 202.989 185.446 203.013 185.997Z" fill="white"/>
<path opacity="0.1" d="M203.016 185.995C203.024 186.099 203.013 186.203 202.984 186.303C202.984 186.303 195.731 187.521 194.249 186.303C193.832 185.947 193.345 185.683 192.821 185.527C192.296 185.372 191.746 185.328 191.203 185.4C191.203 185.4 188.395 185.476 187.926 184.545C187.733 184.154 187.782 183.396 187.903 182.648C188.984 182.757 190.69 183.029 191.36 183.678C192.373 184.661 194.09 185.643 195.142 185.722C195.973 185.773 200.914 185.931 203.016 185.995Z" fill="black"/>
<path opacity="0.1" d="M179.861 187.717C179.861 187.717 176.469 188.973 174.138 189.131C172.9 189.215 172.249 188.45 171.914 187.713C172.779 188.006 173.976 188.311 174.606 188.031C175.352 187.696 177.998 187.482 179.481 187.391C179.593 187.516 179.721 187.626 179.861 187.717Z" fill="black"/>
<path d="M184.893 86.4974C182.095 85.4017 178.496 81.7813 179.394 80.0896C179.593 79.6624 179.712 79.2018 179.744 78.7312C179.802 78.092 179.81 77.4493 179.77 76.8088C179.706 75.7592 179.581 74.7143 179.394 73.6797C179.394 73.6797 188.13 73.8783 187.621 75.1748C187.472 75.5572 187.447 76.2172 187.489 76.9541C187.532 77.691 187.636 78.5304 187.746 79.2374C187.896 80.205 188.051 80.9461 188.051 80.9461C188.051 80.9461 187.515 81.7001 187.203 81.7407C186.892 81.7813 188.907 88.0674 184.893 86.4974Z" fill="#CF6F80"/>
<path opacity="0.1" d="M177.741 182.262L177.676 182.334C175.064 179.152 171.906 183.12 171.906 183.12L171.859 183.035L172.02 181.234L176.974 179.936L177.676 182.099L177.741 182.262Z" fill="black"/>
<path opacity="0.1" d="M197.057 179.936C197.057 179.936 195.15 179.897 194.132 180.803C193.115 181.709 188.197 180.997 188.409 180.803C188.471 180.704 188.509 180.592 188.519 180.476L189.187 179.936L197.004 179.703C197.034 179.853 197.057 179.936 197.057 179.936Z" fill="black"/>
<path d="M180.99 154.943C180.849 155.297 180.741 155.664 180.668 156.039C180.491 157.065 180.442 158.11 180.522 159.149C180.6 160.644 180.522 170.664 180.522 170.664C180.522 170.664 178.845 173.336 177.908 174.278C176.971 175.22 179.816 176.911 179.816 176.911C180.24 179.348 177.671 182.099 177.671 182.099C175.06 178.917 171.901 182.883 171.901 182.883C171.901 182.883 170.184 179.893 169.756 178.825C169.328 177.757 171.433 177.02 172.173 176.584C172.912 176.149 172.134 173.594 172.134 173.594C172.134 173.594 171.511 171.354 170.769 169.309C170.027 167.265 171.588 157.092 171.588 157.092C171.588 157.092 171.668 155.283 171.861 154.653C171.957 154.198 171.977 153.73 171.918 153.269C171.905 153.113 171.891 152.984 171.88 152.895C171.869 152.805 171.861 152.767 171.861 152.767L171.891 152.715L172.95 150.725C172.95 150.725 181.499 153.689 180.99 154.943Z" fill="#06D6A0"/>
<path d="M197.059 179.701C197.059 179.701 195.152 179.66 194.134 180.555C193.117 181.45 188.199 180.752 188.411 180.555C188.623 180.359 188.604 178.906 188.604 178.906C185.719 174.935 188.18 173.325 188.18 173.325C188.18 173.325 186.893 167.077 186.66 164.76C186.497 163.143 186.296 158.779 186.187 156.308C186.141 155.24 186.113 154.503 186.113 154.503L188.449 154.035L188.752 153.975L194.437 152.824C194.437 152.824 194.594 153.892 194.7 154.766C194.754 155.139 194.783 155.515 194.787 155.891C194.751 156.319 194.787 157.658 194.787 157.658L194.982 161.665C194.856 162.086 194.79 162.522 194.787 162.961C194.827 163.474 195.567 170.781 195.567 170.781C195.567 170.781 196.854 175.143 196.415 175.457C195.976 175.771 197.059 179.701 197.059 179.701Z" fill="#06D6A0"/>
<path opacity="0.1" d="M187.621 75.1807C187.473 75.563 187.447 76.223 187.489 76.9599C186.319 77.6699 184.974 78.0329 183.609 78.0072C182.243 77.9815 180.913 77.5682 179.77 76.8147C179.707 75.765 179.581 74.7201 179.395 73.6855C179.395 73.6855 188.13 73.8842 187.621 75.1807Z" fill="black"/>
<path d="M190.991 70.4654C191.014 72.4034 190.272 74.2712 188.928 75.6579C187.585 77.0447 185.75 77.8368 183.826 77.86C181.903 77.8833 180.05 77.1357 178.674 75.7818C177.297 74.4279 176.511 72.5785 176.488 70.6406C176.488 70.5808 176.488 70.5252 176.488 70.4654C176.488 68.5269 177.252 66.6678 178.613 65.2971C179.973 63.9263 181.818 63.1562 183.742 63.1562C185.665 63.1562 187.51 63.9263 188.871 65.2971C190.231 66.6678 190.995 68.5269 190.995 70.4654H190.991Z" fill="#CF6F80"/>
<path opacity="0.1" d="M184.893 86.4967C182.095 85.401 178.496 81.7806 179.394 80.0889C179.593 79.6617 179.712 79.2011 179.744 78.7305L183.574 81.9045L185.944 83.8631L187.746 79.2431C187.896 80.2107 188.051 80.9518 188.051 80.9518C188.051 80.9518 187.515 81.7058 187.203 81.7464C186.892 81.787 188.907 88.0667 184.893 86.4967Z" fill="black"/>
<path d="M194.799 100.524L191.6 154.67L187.429 154.946L176.625 123.55L178.397 86.2756L178.772 78.4004L183.575 82.3754L185.945 84.334L187.8 79.5773L191.249 82.6061L194.799 100.524Z" fill="#06D6A0"/>
<path opacity="0.1" d="M180.989 154.944C180.847 155.298 180.739 155.665 180.667 156.039C177.629 155.568 174.678 154.64 171.913 153.286L171.855 153.256L171.875 152.912V152.733L172.934 150.742C172.934 150.742 181.498 153.69 180.989 154.944Z" fill="black"/>
<path opacity="0.1" d="M188.52 156.047C187.744 156.181 186.962 156.271 186.176 156.318C186.129 155.251 186.102 154.514 186.102 154.514L188.45 154.035L188.52 156.047Z" fill="black"/>
<path opacity="0.1" d="M194.709 154.766C193.202 155.161 190.873 155.605 188.791 155.328L188.762 153.975L194.447 152.824C194.447 152.824 194.597 153.884 194.709 154.766Z" fill="black"/>
<path opacity="0.1" d="M188.752 155.576C180.061 157.071 172.102 152.785 172.102 152.785L172.178 151.332C172.178 151.332 172.375 134.866 171.828 133.604C171.281 132.341 170.855 125.949 171.165 124.972C171.474 123.996 170.035 109.258 170.035 109.258L169.802 103.278L161.262 99.7812L165.077 91.765C165.592 90.6413 166.036 89.4855 166.404 88.3047C167.067 86.2222 170.147 84.1781 170.147 84.1781C170.147 84.1781 173.306 82.1362 174.554 82.213C175.803 82.2899 177.439 80.406 177.439 80.406C178.647 77.3025 179.741 78.6973 179.741 78.6973C179.741 78.8468 179.741 78.6973 179.682 79.1565C179.258 82.5633 186.537 93.3285 186.64 93.5207L187.342 110.536L188.044 132.068L188.752 155.576Z" fill="black"/>
<path d="M188.52 155.576C179.829 157.071 171.868 152.785 171.868 152.785L171.946 151.332C171.946 151.332 172.141 134.866 171.594 133.604C171.047 132.341 170.621 125.942 170.933 124.957C171.244 123.973 169.797 109.25 169.797 109.25L169.561 103.269L161.023 99.7726L164.839 91.7564C165.353 90.633 165.796 89.478 166.166 88.2983C166.829 86.2222 169.92 84.176 169.92 84.176C169.92 84.176 173.078 82.134 174.324 82.2109C175.571 82.2878 177.216 80.406 177.216 80.406C178.426 77.3025 179.759 78.6973 179.759 78.6973C179.759 78.8468 179.632 78.9109 179.7 79.1565C180.632 82.4608 186.322 93.3285 186.425 93.5207L187.127 110.536L187.814 132.079L188.52 155.576Z" fill="white"/>
<path opacity="0.1" d="M186.178 94.0019C185.243 93.6089 180.292 87.9123 180.292 87.9123V86.6158C180.111 86.1886 179.039 86.4492 178.172 86.7483L178.545 78.873L178.969 79.2276C179.895 82.5298 186.076 93.8118 186.178 94.0019Z" fill="black"/>
<path d="M186.41 93.5306C185.474 93.1355 180.522 87.4411 180.522 87.4411V86.1424C180.342 85.7152 179.271 85.9758 178.402 86.2749L178.769 78.4082L179.193 78.7606C180.128 82.0585 186.307 93.3384 186.41 93.5306Z" fill="white"/>
<path opacity="0.1" d="M172.102 121.939C172.219 121.939 178.145 121.311 178.145 121.311C178.145 121.311 181.734 128.423 181.498 130.151C181.263 131.879 180.837 133.413 179.394 133.141C177.95 132.87 171.625 133.355 171.625 133.355L172.102 121.939Z" fill="black"/>
<path d="M171.868 121.468C171.986 121.468 177.913 120.84 177.913 120.84C177.913 120.84 181.499 127.963 181.266 129.672C181.033 131.381 180.603 132.934 179.161 132.662C177.72 132.391 171.391 132.876 171.391 132.876L171.868 121.468Z" fill="white"/>
<path d="M176.335 118.137C176.335 118.137 181.774 121.084 181.89 121.981C182.007 122.878 179.122 121.588 178.499 121.43C178.088 121.332 177.671 121.266 177.25 121.234L173.094 121.347L176.335 118.137Z" fill="#CF6F80"/>
<path opacity="0.1" d="M184.654 94.3683C184.97 94.3683 185.227 94.1101 185.227 93.7915C185.227 93.473 184.97 93.2148 184.654 93.2148C184.338 93.2148 184.082 93.473 184.082 93.7915C184.082 94.1101 184.338 94.3683 184.654 94.3683Z" fill="black"/>
<path d="M184.654 94.1339C184.97 94.1339 185.227 93.8757 185.227 93.5572C185.227 93.2387 184.97 92.9805 184.654 92.9805C184.338 92.9805 184.082 93.2387 184.082 93.5572C184.082 93.8757 184.338 94.1339 184.654 94.1339Z" fill="#3F3D56"/>
<path opacity="0.1" d="M185.709 119.333C186.025 119.333 186.281 119.075 186.281 118.756C186.281 118.438 186.025 118.18 185.709 118.18C185.393 118.18 185.137 118.438 185.137 118.756C185.137 119.075 185.393 119.333 185.709 119.333Z" fill="black"/>
<path d="M185.709 119.097C186.025 119.097 186.281 118.839 186.281 118.52C186.281 118.202 186.025 117.943 185.709 117.943C185.393 117.943 185.137 118.202 185.137 118.52C185.137 118.839 185.393 119.097 185.709 119.097Z" fill="#3F3D56"/>
<path opacity="0.1" d="M185.229 106.851C185.545 106.851 185.801 106.593 185.801 106.274C185.801 105.955 185.545 105.697 185.229 105.697C184.912 105.697 184.656 105.955 184.656 106.274C184.656 106.593 184.912 106.851 185.229 106.851Z" fill="black"/>
<path d="M185.229 106.616C185.545 106.616 185.801 106.358 185.801 106.04C185.801 105.721 185.545 105.463 185.229 105.463C184.912 105.463 184.656 105.721 184.656 106.04C184.656 106.358 184.912 106.616 185.229 106.616Z" fill="#3F3D56"/>
<path d="M198.421 121.115C198.421 121.115 198.811 121.705 198.421 121.969C198.031 122.234 198.459 122.914 198.459 122.914C198.459 122.914 197.487 123.486 197.915 124.005C198.343 124.524 198.072 126.854 198.072 126.854L196.902 128.817C196.902 128.817 196.971 130.075 196.976 131.776C196.976 134.428 196.821 138.158 195.965 139.858L196.079 153.808C196.079 153.808 191.982 155.318 188.552 154.856L188.044 132.472C188.044 132.472 188.785 119.778 189.059 117.343C189.219 116.079 189.284 114.804 189.254 113.53C189.254 113.53 189.137 109.72 188.745 107.953C188.745 107.953 188.321 100.29 188.279 98.1687C188.26 97.1541 188.313 94.1937 188.372 91.3785C188.438 88.3006 188.512 85.3979 188.512 85.3979L187.738 79.2271C187.738 79.2271 188.512 79.1502 188.745 79.4621C188.85 79.5604 188.963 79.6484 189.084 79.7248C190.422 80.6347 195.14 83.4328 195.14 83.4328C195.14 83.4328 197.752 84.4794 198.377 85.9788C199.002 87.4783 199.437 88.542 199.74 88.9692C200.043 89.3964 200.208 91.4041 200.208 91.4041C200.208 91.4041 201.107 95.0993 201.809 95.7251C202.51 96.351 203.015 100.324 203.015 100.324L196.815 105.236C196.815 105.236 196.27 113.409 196.153 113.725C196.037 114.041 198.421 121.115 198.421 121.115Z" fill="white"/>
<path d="M198.655 121.116C198.655 121.116 199.043 121.705 198.655 121.97C198.267 122.235 198.691 122.914 198.691 122.914C198.691 122.914 197.718 123.487 198.146 124.006C198.575 124.525 198.303 126.855 198.303 126.855L197.138 128.818C197.138 128.818 197.207 130.076 197.214 131.776C197.214 134.429 197.059 138.158 196.203 139.859L196.319 153.808C196.319 153.808 192.222 155.319 188.792 154.857L188.286 132.473C188.286 132.473 189.026 119.779 189.301 117.344C189.461 116.08 189.526 114.805 189.494 113.531C189.494 113.531 189.377 109.721 188.987 107.954C188.987 107.954 188.564 100.29 188.519 98.1693C188.5 97.1548 188.553 94.1944 188.612 91.3792C188.678 88.3013 188.752 85.3986 188.752 85.3986L187.73 79.1445C187.73 79.1445 188.752 79.1445 188.987 79.4628C189.091 79.5623 189.205 79.6503 189.327 79.7255C190.662 80.6354 195.38 83.4335 195.38 83.4335C195.38 83.4335 197.985 84.4801 198.621 85.9795C199.257 87.479 199.681 88.5427 199.984 88.9699C200.287 89.397 200.453 91.4048 200.453 91.4048C200.453 91.4048 201.351 95.1 202.053 95.7258C202.755 96.3517 203.261 100.325 203.261 100.325L197.061 105.237C197.061 105.237 196.516 113.409 196.398 113.725C196.279 114.042 198.655 121.116 198.655 121.116Z" fill="white"/>
<path opacity="0.1" d="M191.233 87.2108L191.795 88.8555L188.847 91.8458C188.912 88.7679 188.987 85.8652 188.987 85.8652L187.965 79.6133C187.965 79.6133 188.987 79.6133 189.222 79.9315C189.325 80.031 189.439 80.1191 189.561 80.1943L192.066 87.4757L191.233 87.2108Z" fill="black"/>
<path d="M190.991 86.7385L191.553 88.3811L188.607 91.3714C188.67 88.2935 188.746 85.3907 188.746 85.3907L187.723 79.1367C187.723 79.1367 188.746 79.1367 188.98 79.455C189.084 79.5538 189.197 79.6419 189.319 79.7177L191.839 87.0055L190.991 86.7385Z" fill="white"/>
<path opacity="0.1" d="M190.991 70.4654C190.992 71.2351 190.872 72 190.635 72.7317C190.595 72.7384 190.554 72.737 190.515 72.7274C190.475 72.7179 190.438 72.7004 190.406 72.6761C190.349 70.7538 189.412 68.9468 188.257 67.4111C187.932 66.9478 187.539 66.5373 187.091 66.1936C186.637 65.8507 186.074 65.6901 185.509 65.7429C184.874 65.8305 184.312 66.2662 183.67 66.3217C182.822 66.3922 182.063 65.8005 181.221 65.7728C180.879 65.7756 180.542 65.8522 180.231 65.9974C179.921 66.1425 179.645 66.3529 179.422 66.6143C178.979 67.1403 178.651 67.7536 178.457 68.4149C178.124 69.4185 177.943 70.4669 177.919 71.5249C177.908 72.1229 177.851 72.8727 177.3 73.0905C177.342 72.651 177.292 72.2075 177.155 71.7883C177.017 71.3691 176.795 70.9834 176.501 70.6555L176.488 70.6406C176.488 70.5808 176.488 70.5253 176.488 70.4654C176.488 68.5269 177.252 66.6678 178.613 65.2971C179.973 63.9263 181.818 63.1562 183.742 63.1562C185.665 63.1562 187.51 63.9263 188.871 65.2971C190.231 66.6678 190.995 68.5269 190.995 70.4654H190.991Z" fill="black"/>
<path d="M186.752 58.8615C185.65 58.3394 184.397 58.2406 183.229 58.5838C182.642 58.7589 182.088 59.043 181.493 59.1861C180.221 59.4958 178.737 59.1605 177.645 59.9102C177.039 60.3374 176.675 61.0123 176.336 61.6702L175.488 63.2957C175.026 64.1863 174.559 65.092 174.366 66.0724C174.173 67.0528 174.29 68.1507 174.907 68.9409C175.354 69.5134 176.02 69.8743 176.507 70.4147C176.8 70.7442 177.022 71.1312 177.159 71.5514C177.296 71.9715 177.346 72.4158 177.304 72.8561C177.855 72.6425 177.91 71.8885 177.923 71.2905C177.947 70.2325 178.128 69.1841 178.462 68.1805C178.655 67.5192 178.983 66.9059 179.426 66.38C179.649 66.1182 179.925 65.9075 180.235 65.762C180.546 65.6165 180.883 65.5395 181.226 65.5363C182.073 65.5662 182.834 66.1578 183.674 66.0852C184.31 66.0318 184.874 65.5961 185.514 65.5085C186.078 65.4547 186.642 65.6154 187.095 65.9592C187.543 66.3018 187.936 66.7125 188.259 67.1767C189.416 68.7145 190.355 70.513 190.41 72.4417C190.65 72.6169 190.995 72.3862 191.114 72.1128C191.233 71.8394 191.237 71.519 191.387 71.2584C191.561 70.9573 191.894 70.7949 192.155 70.5685C192.816 69.994 192.981 69.0264 192.956 68.1485C192.93 67.2706 192.761 66.38 192.926 65.517C193.026 64.9895 193.25 64.4918 193.373 63.9685C193.496 63.4452 193.511 62.8578 193.221 62.4071C192.797 61.7471 191.904 61.6147 191.127 61.5527C190.243 61.4758 189.452 61.5741 188.888 60.8244C188.623 60.4337 188.325 60.0664 187.998 59.7265C187.881 59.6133 186.752 58.9084 186.752 58.8615Z" fill="#512E4E"/>
<path opacity="0.1" d="M163.707 103.904L161.495 99.7793L160.793 106.144C160.793 106.144 161.183 108.972 161.105 109.406C161.026 109.84 162.703 113.727 162.703 113.727C162.703 113.727 168.241 123.67 170.503 124.18L178.134 118.678L176.107 116.085C176.107 116.085 175.406 115.81 175.23 116.085C175.23 116.085 171.465 109.562 171.078 109.092C170.69 108.622 170.764 107.676 170.764 107.676C170.764 107.676 170.179 107.048 170.374 106.458C170.569 105.869 169.255 103.827 169.255 103.827L170.463 102.688L163.707 103.904Z" fill="black"/>
<path d="M161.611 99.3066L161.026 99.7787L160.324 106.144C160.324 106.144 160.714 108.972 160.636 109.405C160.557 109.839 162.236 113.726 162.236 113.726C162.236 113.726 167.773 123.669 170.034 124.18L177.678 118.677L175.649 116.084C175.649 116.084 174.948 115.809 174.772 116.084C174.772 116.084 171.009 109.561 170.619 109.091C170.229 108.621 170.308 107.675 170.308 107.675C170.308 107.675 169.723 107.047 169.918 106.458C170.113 105.868 168.786 103.826 168.786 103.826L169.994 102.688L161.611 99.3066Z" fill="white"/>
<path opacity="0.1" d="M197.916 124.249C198.34 124.768 198.073 127.101 198.073 127.101L196.903 129.051C196.903 129.051 196.973 130.311 196.977 132.011L195.01 132.631C194.832 132.687 194.644 132.699 194.46 132.666C194.276 132.634 194.103 132.558 193.954 132.444C193.806 132.33 193.687 132.182 193.606 132.013C193.526 131.843 193.487 131.657 193.493 131.469L193.834 120.447L198.423 122.214C198.033 122.487 198.461 123.158 198.461 123.158C198.461 123.158 197.488 123.73 197.916 124.249Z" fill="black"/>
<path d="M198.147 124.015C198.571 124.532 198.303 126.864 198.303 126.864L197.138 128.817C197.138 128.817 197.208 130.075 197.214 131.775L195.211 132.405C195.037 132.46 194.852 132.472 194.673 132.441C194.493 132.409 194.324 132.335 194.179 132.224C194.033 132.113 193.917 131.968 193.838 131.802C193.76 131.637 193.721 131.454 193.727 131.271L194.068 120.211L198.655 121.982C198.263 122.255 198.691 122.926 198.691 122.926C198.691 122.926 197.718 123.496 198.147 124.015Z" fill="white"/>
<path d="M199.668 118.757C199.668 118.757 199.357 120.763 198.577 120.88C197.797 120.998 197.447 124.125 196.669 124.016C195.891 123.907 196.406 121.107 196.434 120.564C196.461 120.021 195.586 117.774 196.239 117.264C196.891 116.754 198.969 117.264 198.969 117.264L199.668 118.757Z" fill="#CF6F80"/>
<path opacity="0.1" d="M201.317 103.315L202.786 100.324C202.786 100.324 203.373 102.603 203.373 103.821C203.373 105.038 204.192 105.158 204.192 105.158C204.192 105.158 205.088 106.226 204.616 107.005C204.143 107.785 203.954 109.716 203.954 109.716C203.954 109.716 204.109 113.409 203.407 113.919C202.706 114.43 202.549 115.65 202.549 115.65C202.549 115.65 201.262 117.967 201.302 118.518C201.343 119.069 199.509 122.801 199.509 122.801C199.509 122.801 200.406 118.164 195.181 116.16C195.181 116.16 195.141 114.588 195.531 114.157C195.921 113.725 196.529 113.516 196.147 111.346C195.766 109.176 196.037 106.559 196.037 106.036C196.037 105.512 197.207 102.251 197.207 102.251L201.317 103.315Z" fill="black"/>
<path d="M201.974 99.8965L203.258 100.324C203.258 100.324 203.845 102.603 203.845 103.82C203.845 105.038 204.663 105.157 204.663 105.157C204.663 105.157 205.56 106.225 205.087 107.005C204.615 107.785 204.424 109.715 204.424 109.715C204.424 109.715 204.581 113.408 203.879 113.919C203.177 114.429 203.031 115.649 203.031 115.649C203.031 115.649 201.745 117.967 201.785 118.518C201.825 119.069 199.99 122.8 199.99 122.8C199.99 122.8 200.886 118.163 195.661 116.16C195.661 116.16 195.623 114.587 196.013 114.156C196.403 113.725 197.011 113.515 196.63 111.345C196.248 109.175 196.52 106.558 196.52 106.035C196.52 105.512 197.69 102.25 197.69 102.25L201.974 99.8965Z" fill="white"/>
<path opacity="0.1" d="M173.594 177.403C173.594 177.403 175.641 176.106 176.985 177.048C178.329 177.99 173.594 177.403 173.594 177.403Z" fill="black"/>
<path opacity="0.1" d="M189.508 173.394C189.508 173.394 191.32 173.159 192.842 174.81C194.364 176.462 189.508 173.394 189.508 173.394Z" fill="black"/>
<g opacity="0.1">
<path opacity="0.1" d="M192.159 70.0973C191.898 70.3259 191.563 70.4861 191.389 70.7872C191.241 71.0457 191.237 71.3661 191.118 71.6416C190.999 71.9171 190.654 72.1457 190.412 71.9705C190.357 70.0482 189.418 68.2433 188.263 66.7054C187.94 66.242 187.547 65.832 187.099 65.4901C186.646 65.1456 186.081 64.9841 185.516 65.0373C184.88 65.1248 184.32 65.5606 183.678 65.6161C182.83 65.6866 182.069 65.0949 181.228 65.0672C180.886 65.0698 180.548 65.1463 180.238 65.2914C179.928 65.4366 179.653 65.6471 179.43 65.9087C178.988 66.4346 178.659 67.048 178.466 67.7093C178.133 68.7129 177.951 69.7613 177.927 70.8193C177.914 71.4152 177.859 72.1585 177.312 72.3806C177.325 72.5392 177.325 72.6985 177.312 72.857C177.866 72.6434 177.921 71.8894 177.934 71.2913C177.957 70.2333 178.139 69.185 178.472 68.1814C178.665 67.52 178.994 66.9067 179.436 66.3808C179.659 66.1192 179.935 65.9086 180.245 65.7631C180.555 65.6176 180.892 65.5405 181.234 65.5371C182.082 65.567 182.845 66.1586 183.684 66.086C184.32 66.0326 184.884 65.5969 185.522 65.5093C186.087 65.4556 186.652 65.6163 187.105 65.96C187.553 66.3026 187.946 66.7134 188.269 67.1775C189.424 68.7154 190.363 70.5138 190.418 72.4426C190.66 72.6177 191.005 72.3871 191.124 72.1137C191.243 71.8403 191.247 71.5199 191.396 71.2593C191.569 70.9581 191.904 70.7958 192.165 70.5694C192.826 69.9948 192.992 69.0272 192.966 68.1493C192.966 68.1216 192.966 68.0959 192.966 68.0682C192.924 68.8328 192.722 69.6082 192.159 70.0973Z" fill="black"/>
<path opacity="0.1" d="M176.508 69.9477C176.023 69.4073 175.357 69.0442 174.91 68.4718C174.532 67.9665 174.317 67.3568 174.293 66.7246C174.226 67.5151 174.445 68.3032 174.91 68.9438C175.357 69.5163 176.023 69.8772 176.508 70.4176C176.977 70.9459 177.259 71.616 177.309 72.3229C177.341 71.893 177.287 71.4611 177.149 71.053C177.011 70.6449 176.793 70.269 176.508 69.9477Z" fill="black"/>
<path opacity="0.1" d="M193.376 63.4982C193.251 64.0215 193.029 64.5192 192.927 65.0467C192.866 65.4035 192.844 65.7659 192.861 66.1275C192.868 65.9233 192.89 65.7198 192.927 65.5188C193.029 64.9912 193.251 64.4935 193.376 63.9702C193.448 63.6814 193.472 63.3826 193.446 63.0859C193.433 63.2248 193.409 63.3626 193.376 63.4982Z" fill="black"/>
</g>
<path opacity="0.1" d="M28.1344 184.445C39.5413 184.445 48.7884 182.949 48.7884 181.103C48.7884 179.256 39.5413 177.76 28.1344 177.76C16.7276 177.76 7.48047 179.256 7.48047 181.103C7.48047 182.949 16.7276 184.445 28.1344 184.445Z" fill="#06D6A0"/>
<path d="M28.8017 117.064H27.4727V147.218H28.8017V117.064Z" fill="#535461"/>
<path d="M37.1525 147.128L37.0678 148.487L36.9512 150.409L36.9024 151.208L36.7837 153.13L36.7328 153.929L36.6163 155.851L35.2745 177.653C35.2173 178.591 34.8072 179.472 34.1277 180.115C33.4483 180.759 32.5507 181.118 31.6181 181.117H24.6508C23.7156 181.118 22.8157 180.758 22.1358 180.111C21.4558 179.464 21.0474 178.579 20.9944 177.638L19.6526 155.836L19.536 153.914L19.4873 153.115L19.3665 151.193L19.3177 150.394L19.2011 148.472L19.1163 147.113C19.1017 146.853 19.1397 146.592 19.2282 146.347C19.3167 146.102 19.4537 145.878 19.631 145.688C19.8083 145.498 20.0221 145.346 20.2594 145.242C20.4967 145.138 20.7525 145.083 21.0113 145.082H35.2597C35.5196 145.084 35.7766 145.139 36.0147 145.244C36.2528 145.349 36.467 145.502 36.6443 145.694C36.8215 145.885 36.958 146.111 37.0455 146.358C37.1329 146.605 37.1693 146.867 37.1525 147.128Z" fill="#3F3D56"/>
<path d="M37.0679 148.484L36.9492 150.402H19.3179L19.1992 148.484H37.0679Z" fill="#9D9CB5"/>
<path d="M36.901 151.201L36.7844 153.119H19.4859L19.3672 151.201H36.901Z" fill="#9D9CB5"/>
<path d="M36.7341 153.92L36.6175 155.836H19.6539L19.5352 153.92H36.7341Z" fill="#9D9CB5"/>
<path d="M17.1815 128.369C24.9225 134.013 28.1465 142.838 28.1465 142.838C28.1465 142.838 18.8199 142.516 11.0768 136.873C3.33371 131.229 0.105469 122.41 0.105469 122.41C0.105469 122.41 9.43197 122.726 17.1815 128.369Z" fill="#06D6A0"/>
<path d="M0.105469 122.41C0.105469 122.41 9.78596 127.825 12.8913 132.308C15.9966 136.791 28.138 142.843 28.138 142.843" stroke="#535461" stroke-width="2" stroke-miterlimit="10"/>
<path d="M22.1655 117.001C26.3794 120.07 28.1344 124.874 28.1344 124.874C28.1344 124.874 23.0473 124.698 18.844 121.629C14.6407 118.56 12.875 113.754 12.875 113.754C12.875 113.754 17.9537 113.929 22.1655 117.001Z" fill="#06D6A0"/>
<path d="M12.875 113.754C12.875 113.754 18.1445 116.702 19.836 119.141C21.5275 121.58 28.1344 124.874 28.1344 124.874" stroke="#535461" stroke-width="2" stroke-miterlimit="10"/>
<path d="M34.2575 124.631C29.4183 129.99 28.3945 136.993 28.3945 136.993C28.3945 136.993 35.2177 135.306 40.0527 129.945C44.8876 124.584 45.9156 117.582 45.9156 117.582C45.9156 117.582 39.0967 119.272 34.2575 124.631Z" fill="#06D6A0"/>
<path d="M45.9199 117.584C45.9199 117.584 39.616 123.078 38.0135 126.862C36.4111 130.647 28.3945 136.993 28.3945 136.993" stroke="#535461" stroke-width="2" stroke-miterlimit="10"/>
</g>
<defs>
<linearGradient id="paint0_linear" x1="98.6756" y1="183.736" x2="98.6756" y2="60.354" gradientUnits="userSpaceOnUse">
<stop stop-color="#808080" stop-opacity="0.25"/>
<stop offset="0.54" stop-color="#808080" stop-opacity="0.12"/>
<stop offset="1" stop-color="#808080" stop-opacity="0.1"/>
</linearGradient>
<linearGradient id="paint1_linear" x1="40332.8" y1="115635" x2="40332.8" y2="34763.2" gradientUnits="userSpaceOnUse">
<stop stop-color="#808080" stop-opacity="0.25"/>
<stop offset="0.54" stop-color="#808080" stop-opacity="0.12"/>
<stop offset="1" stop-color="#808080" stop-opacity="0.1"/>
</linearGradient>
<clipPath id="clip0">
<rect width="247.494" height="184.304" fill="white" transform="translate(0 5.26562)"/>
</clipPath>
</defs>
</svg>
