<svg width="227" height="233" viewBox="0 0 227 233" fill="none" xmlns="http://www.w3.org/2000/svg">
<g clip-path="url(#clip0)">
<path d="M97.2172 15.0769L0.0195312 42.5L35.9605 170.693L133.158 143.27L97.2172 15.0769Z" fill="url(#paint0_linear)"/>
<path d="M97.8476 16.0878L-0.00390625 43.0703L13.4441 92.1474L111.296 65.1649L97.8476 16.0878Z" fill="url(#paint1_linear)"/>
<path d="M96.797 17.5826L1.66797 43.8145L36.1292 169.577L131.258 143.345L96.797 17.5826Z" fill="#EEEEEE"/>
<path d="M96.8716 17.4343L1.52344 43.7266L14.6579 91.6595L110.006 65.3672L96.8716 17.4343Z" fill="#007A33"/>
<path d="M64.2826 92.5202L38.418 99.6523L38.96 101.631L64.8247 94.4984L64.2826 92.5202Z" fill="#BDBDBD"/>
<path d="M66.4545 100.438L40.5898 107.57L41.1319 109.549L66.9965 102.416L66.4545 100.438Z" fill="#F5F5F5"/>
<path d="M107.015 84.995L39.5039 103.611L40.046 105.59L107.557 86.9733L107.015 84.995Z" fill="#69F0AE"/>
<path d="M69.6693 44.2077L43.8047 51.3398L44.3468 53.3181L70.2114 46.1859L69.6693 44.2077Z" fill="white"/>
<path d="M86.6547 44.2522L45.0078 55.7363L45.5499 57.7146L87.1968 46.2305L86.6547 44.2522Z" fill="white"/>
<path opacity="0.2" d="M79.4059 52.4048L55.3962 59.0255C54.884 59.1667 54.5829 59.6978 54.7237 60.2117L54.8161 60.5489C54.9569 61.0628 55.4863 61.3648 55.9986 61.2236L80.0082 54.6029C80.5204 54.4617 80.8216 53.9306 80.6807 53.4167L80.5883 53.0795C80.4475 52.5656 79.9181 52.2636 79.4059 52.4048Z" fill="black"/>
<path d="M29.2491 109.632C31.792 108.931 33.2868 106.295 32.5878 103.744C31.8888 101.193 29.2607 99.6932 26.7177 100.394C24.1748 101.096 22.6799 103.732 23.379 106.283C24.078 108.834 26.7061 110.334 29.2491 109.632Z" fill="#69F0AE"/>
<path d="M69.5287 111.651L43.6641 118.783L44.2061 120.761L70.0708 113.629L69.5287 111.651Z" fill="#BDBDBD"/>
<path d="M71.6966 119.569L45.832 126.701L46.3741 128.679L72.2387 121.547L71.6966 119.569Z" fill="#F5F5F5"/>
<path d="M112.258 104.126L44.7461 122.742L45.2882 124.72L112.8 106.104L112.258 104.126Z" fill="#E0E0E0"/>
<path d="M34.4912 128.765C37.0342 128.064 38.529 125.427 37.83 122.876C37.131 120.326 34.5028 118.826 31.9599 119.527C29.4169 120.228 27.9221 122.865 28.6211 125.416C29.3202 127.967 31.9483 129.466 34.4912 128.765Z" fill="#E0E0E0"/>
<path d="M74.7709 130.78L48.9062 137.912L49.4483 139.89L75.313 132.758L74.7709 130.78Z" fill="#BDBDBD"/>
<path d="M76.9388 138.694L51.0742 145.826L51.6163 147.804L77.4809 140.672L76.9388 138.694Z" fill="#F5F5F5"/>
<path d="M117.5 123.255L49.9883 141.871L50.5304 143.849L118.042 125.233L117.5 123.255Z" fill="#E0E0E0"/>
<path d="M39.7334 147.896C42.2764 147.195 43.7712 144.558 43.0722 142.007C42.3732 139.456 39.745 137.957 37.2021 138.658C34.6591 139.359 33.1643 141.996 33.8633 144.547C34.5623 147.098 37.1905 148.597 39.7334 147.896Z" fill="#E0E0E0"/>
<path d="M12.2102 65.6472C12.878 67.9695 14.1686 70.0633 15.9411 71.7004C17.7136 73.3375 19.9001 74.4551 22.2623 74.9314C24.6244 75.4077 27.0716 75.2244 29.337 74.4014C31.6025 73.5785 33.5992 72.1475 35.1097 70.2644C36.6202 68.3814 37.5864 66.1185 37.9031 63.7225C38.2197 61.3265 37.8746 58.8892 36.9054 56.6764C35.9362 54.4635 34.3801 52.5601 32.4067 51.1734C30.4333 49.7867 28.1183 48.9701 25.714 48.8125L26.6479 52.082C26.9712 53.2215 26.8319 54.4432 26.2603 55.48C25.6887 56.5168 24.7313 57.2845 23.5972 57.6155C22.4613 57.9399 21.2435 57.8001 20.2099 57.2267C19.1764 56.6533 18.411 55.6929 18.0811 54.5552L17.1473 51.2857C14.951 52.8788 13.2983 55.113 12.4147 57.6832C11.5312 60.2535 11.4597 63.0347 12.2102 65.6472Z" fill="url(#paint2_linear)"/>
<path d="M37.2334 57.3015C36.5936 54.9708 35.3283 52.861 33.5753 51.2022C31.8223 49.5434 29.6489 48.3992 27.2922 47.8945C24.9355 47.3898 22.4859 47.5438 20.2104 48.3398C17.935 49.1358 15.9211 50.5433 14.3883 52.4087C12.8555 54.2741 11.8627 56.5259 11.5181 58.9185C11.1735 61.3111 11.4903 63.7527 12.4341 65.977C13.3778 68.2014 14.9122 70.1231 16.87 71.5327C18.8278 72.9423 21.1338 73.7856 23.5366 73.9706L22.6369 70.6918C22.3272 69.549 22.4807 68.3296 23.0639 67.3C23.6471 66.2703 24.6127 65.5138 25.7498 65.1957C26.889 64.885 28.1045 65.039 29.131 65.624C30.1574 66.2091 30.9115 67.1777 31.2286 68.3185L32.1282 71.5974C34.3418 70.0307 36.0197 67.8173 36.9333 65.2589C37.847 62.7005 37.9517 59.9218 37.2334 57.3015Z" fill="#007A33"/>
<path d="M25.4028 63.9546C28.0966 63.2118 29.6801 60.419 28.9396 57.7167C28.1992 55.0143 25.4151 53.4259 22.7213 54.1687C20.0275 54.9115 18.444 57.7043 19.1845 60.4066C19.925 63.1089 22.709 64.6974 25.4028 63.9546Z" fill="white" stroke="white" stroke-miterlimit="10"/>
<path d="M25.7422 65.1967C24.605 65.5148 23.6394 66.2713 23.0562 67.301C22.473 68.3306 22.3195 69.55 22.6293 70.6928L23.5289 73.9716C26.581 74.2042 29.619 73.3665 32.1237 71.6015L31.224 68.3226C30.9076 67.1806 30.1534 66.2106 29.1261 65.6249C28.0989 65.0391 26.8822 64.8852 25.7422 65.1967Z" fill="white" stroke="white" stroke-miterlimit="10"/>
<path d="M19.0737 60.1366C18.4749 59.4861 18.0619 58.6856 17.8784 57.8195C17.6993 56.9461 17.868 56.0371 18.3484 55.2869C18.8932 54.4844 19.7959 54.0035 20.708 53.6725C21.6201 53.3415 22.5758 53.126 23.4412 52.692C24.1566 52.3291 24.7931 51.8273 25.3136 51.2156C25.8341 50.604 26.2282 49.8947 26.4731 49.1289C26.7609 49.8196 26.9526 50.5467 27.0428 51.2898C27.086 51.6617 27.0531 52.0386 26.946 52.3973C26.8389 52.7559 26.66 53.0889 26.4202 53.3758C27.0677 52.8262 27.2078 53.6569 27.1798 54.1846C27.6685 54.5281 28.5806 54.3564 28.786 54.9185C29.0179 55.4715 29.114 56.0723 29.0662 56.6703C28.9884 57.2636 29.4833 58.1318 28.923 58.3316" fill="white"/>
<path d="M19.0737 60.1366C18.4749 59.4861 18.0619 58.6856 17.8784 57.8195C17.6993 56.9461 17.868 56.0371 18.3484 55.2869C18.8932 54.4844 19.7959 54.0035 20.708 53.6725C21.6201 53.3415 22.5758 53.126 23.4412 52.692C24.1566 52.3291 24.7931 51.8273 25.3136 51.2156C25.8341 50.604 26.2282 49.8947 26.4731 49.1289C26.7609 49.8196 26.9526 50.5467 27.0428 51.2898C27.086 51.6617 27.0531 52.0386 26.946 52.3973C26.8389 52.7559 26.66 53.0889 26.4202 53.3758C27.0677 52.8262 27.2078 53.6569 27.1798 54.1846C27.6685 54.5281 28.5806 54.3564 28.786 54.9185C29.0179 55.4715 29.114 56.0723 29.0662 56.6703C28.9884 57.2636 29.4833 58.1318 28.923 58.3316" stroke="white" stroke-miterlimit="10"/>
<path d="M26.6484 53.1834C26.6484 53.1834 30.1349 52.5433 29.0983 58.2797L26.6484 53.1834Z" fill="white"/>
<path d="M198.53 223.042H165.711V89.2422H226.998L198.53 223.042Z" fill="url(#paint3_linear)"/>
<path d="M196.899 223.042H164.727V89.2422H224.803L196.899 223.042Z" fill="#BDBDBD"/>
<path d="M204.57 47.6409L103.887 58.3457L117.916 191.137L218.6 180.432L204.57 47.6409Z" fill="url(#paint4_linear)"/>
<path d="M204.674 47.5049L103.758 58.2344L109.105 108.848L210.021 98.1189L204.674 47.5049Z" fill="url(#paint5_linear)"/>
<path d="M203.393 48.8054L105.285 59.2363L118.988 188.937L217.097 178.506L203.393 48.8054Z" fill="#F5F5F5"/>
<path d="M203.49 48.67L105.156 59.125L110.379 108.559L208.713 98.104L203.49 48.67Z" fill="#007A33"/>
<path d="M159.214 117.473L132.539 120.309L132.755 122.349L159.429 119.513L159.214 117.473Z" fill="#BDBDBD"/>
<path d="M160.077 125.637L133.402 128.473L133.618 130.513L160.292 127.677L160.077 125.637Z" fill="#F5F5F5"/>
<path d="M202.595 116.988L132.969 124.391L133.184 126.431L202.81 119.028L202.595 116.988Z" fill="#69F0AE"/>
<path d="M172.327 70.6737L145.652 73.5098L145.868 75.55L172.542 72.7139L172.327 70.6737Z" fill="white"/>
<path d="M189.08 73.4803L146.129 78.0469L146.344 80.0871L189.296 75.5205L189.08 73.4803Z" fill="white"/>
<path opacity="0.2" d="M180.609 80.3399L155.847 82.9725C155.319 83.0287 154.936 83.5038 154.992 84.0338L155.029 84.3816C155.085 84.9115 155.558 85.2956 156.087 85.2394L180.848 82.6068C181.377 82.5506 181.759 82.0754 181.703 81.5455L181.667 81.1977C181.611 80.6678 181.137 80.2837 180.609 80.3399Z" fill="black"/>
<path d="M121.876 128.667C124.499 128.388 126.4 126.029 126.122 123.398C125.844 120.768 123.492 118.861 120.87 119.14C118.247 119.418 116.346 121.777 116.624 124.408C116.902 127.039 119.254 128.946 121.876 128.667Z" fill="#69F0AE"/>
<path d="M161.3 137.199L134.625 140.035L134.841 142.075L161.515 139.239L161.3 137.199Z" fill="#BDBDBD"/>
<path d="M162.159 145.363L135.484 148.199L135.7 150.239L162.375 147.403L162.159 145.363Z" fill="#F5F5F5"/>
<path d="M204.68 136.715L135.055 144.117L135.27 146.157L204.896 138.755L204.68 136.715Z" fill="#E0E0E0"/>
<path d="M123.962 148.393C126.585 148.115 128.485 145.756 128.207 143.125C127.93 140.494 125.578 138.587 122.956 138.866C120.333 139.145 118.432 141.504 118.71 144.135C118.988 146.766 121.34 148.672 123.962 148.393Z" fill="#E0E0E0"/>
<path d="M163.382 156.928L136.707 159.764L136.923 161.804L163.597 158.968L163.382 156.928Z" fill="#BDBDBD"/>
<path d="M164.245 165.09L137.57 167.926L137.786 169.966L164.46 167.13L164.245 165.09Z" fill="#F5F5F5"/>
<path d="M206.762 156.443L137.137 163.846L137.352 165.886L206.978 158.483L206.762 156.443Z" fill="#E0E0E0"/>
<path d="M126.044 168.122C128.667 167.843 130.568 165.484 130.29 162.853C130.012 160.223 127.66 158.316 125.038 158.595C122.415 158.874 120.514 161.232 120.792 163.863C121.07 166.494 123.422 168.401 126.044 168.122Z" fill="#E0E0E0"/>
<path d="M112.157 82.4997C112.438 84.901 113.371 87.1787 114.855 89.0844C116.338 90.9902 118.314 92.4508 120.568 93.3069C122.822 94.1631 125.267 94.3819 127.637 93.9395C130.006 93.4972 132.209 92.4106 134.005 90.7983C135.801 89.1861 137.121 87.11 137.822 84.7966C138.522 82.4832 138.576 80.0212 137.977 77.6793C137.379 75.3373 136.15 73.2053 134.426 71.5156C132.702 69.826 130.549 68.6437 128.201 68.0977L128.6 71.4765C128.731 72.6496 128.395 73.8272 127.666 74.7538C126.937 75.6804 125.873 76.2813 124.705 76.426C123.532 76.5617 122.353 76.2259 121.425 75.4922C120.498 74.7585 119.898 73.6864 119.756 72.5101L119.357 69.1313C116.931 70.345 114.938 72.2803 113.649 74.673C112.361 77.0656 111.839 79.7989 112.157 82.4997Z" fill="url(#paint6_linear)"/>
<path d="M138.194 78.336C137.939 75.9325 137.032 73.6452 135.57 71.7235C134.109 69.8018 132.149 68.3195 129.906 67.4382C127.662 66.5569 125.22 66.3103 122.846 66.7255C120.473 67.1406 118.258 68.2014 116.444 69.7924C114.63 71.3833 113.286 73.4432 112.559 75.7477C111.832 78.0521 111.749 80.5126 112.32 82.8609C112.891 85.2092 114.094 87.3552 115.797 89.0649C117.5 90.7747 119.639 91.9826 121.979 92.557L121.621 89.1751C121.5 87.9964 121.849 86.8174 122.591 85.8959C123.334 84.9743 124.41 84.385 125.584 84.2568C126.759 84.1351 127.934 84.4849 128.853 85.2298C129.771 85.9747 130.359 87.054 130.487 88.232L130.845 91.6139C133.283 90.4282 135.297 88.5168 136.612 86.1405C137.927 83.7643 138.48 81.0389 138.194 78.336Z" fill="#007A33"/>
<path d="M125.456 82.9677C128.234 82.6723 130.248 80.1736 129.953 77.3867C129.659 74.5998 127.168 72.58 124.39 72.8753C121.612 73.1707 119.598 75.6694 119.893 78.4563C120.187 81.2433 122.678 83.263 125.456 82.9677Z" fill="white" stroke="white" stroke-miterlimit="10"/>
<path d="M125.584 84.258C124.41 84.3863 123.334 84.9755 122.591 85.8971C121.849 86.8187 121.5 87.9976 121.621 89.1763L121.979 92.5583C124.953 93.2858 128.087 92.9547 130.845 91.6214L130.487 88.2395C130.361 87.0604 129.774 85.9795 128.855 85.2333C127.936 84.4871 126.76 84.1364 125.584 84.258Z" fill="white" stroke="white" stroke-miterlimit="10"/>
<path d="M119.821 78.1809C119.334 77.4412 119.056 76.5835 119.014 75.6983C118.979 74.8084 119.292 73.9399 119.886 73.2782C120.552 72.5725 121.523 72.2446 122.476 72.0666C123.429 71.8886 124.397 71.8449 125.331 71.5326C126.095 71.2909 126.804 70.8992 127.417 70.3803C128.029 69.8613 128.533 69.2255 128.898 68.5098C129.071 69.2375 129.143 69.9857 129.113 70.7332C129.095 71.1074 129.002 71.4741 128.838 71.8108C128.674 72.1474 128.443 72.447 128.16 72.6911C128.885 72.2539 128.892 73.094 128.783 73.6123C129.209 74.0308 130.137 74.0089 130.249 74.5991C130.39 75.1818 130.39 75.7901 130.249 76.3728C130.075 76.9443 130.426 77.8842 129.838 77.9873" fill="white"/>
<path d="M119.821 78.1809C119.334 77.4412 119.056 76.5835 119.014 75.6983C118.979 74.8084 119.292 73.9399 119.886 73.2782C120.552 72.5725 121.523 72.2446 122.476 72.0666C123.429 71.8886 124.397 71.8449 125.331 71.5326C126.095 71.2909 126.804 70.8992 127.417 70.3803C128.029 69.8613 128.533 69.2255 128.898 68.5098C129.071 69.2375 129.143 69.9857 129.113 70.7332C129.095 71.1074 129.002 71.4741 128.838 71.8108C128.674 72.1474 128.443 72.447 128.16 72.6911C128.885 72.2539 128.892 73.094 128.783 73.6123C129.209 74.0308 130.137 74.0089 130.249 74.5991C130.39 75.1818 130.39 75.7901 130.249 76.3728C130.075 76.9443 130.426 77.8842 129.838 77.9873" stroke="white" stroke-miterlimit="10"/>
<path d="M128.422 72.5508C128.422 72.5508 131.964 72.4852 130.019 77.9781L128.422 72.5508Z" fill="white"/>
<path d="M169.826 0.125H68.5781V133.66H169.826V0.125Z" fill="url(#paint7_linear)"/>
<path d="M169.942 0H68.4609V50.8975H169.942V0Z" fill="url(#paint8_linear)"/>
<path d="M168.529 1.1582H69.8711V131.586H168.529V1.1582Z" fill="#F5F5F5"/>
<path d="M168.647 1.03711H69.7617V50.748H168.647V1.03711Z" fill="#007A33"/>
<path d="M117.383 64.7715H90.5586V66.8231H117.383V64.7715Z" fill="#BDBDBD"/>
<path d="M117.383 72.9824H90.5586V75.034H117.383V72.9824Z" fill="#F5F5F5"/>
<path d="M160.574 68.8789H90.5586V70.9305H160.574V68.8789Z" fill="#69F0AE"/>
<path d="M135.34 19.623H108.516V21.6747H135.34V19.623Z" fill="white"/>
<path d="M151.707 24.1836H108.516V26.2352H151.707V24.1836Z" fill="white"/>
<path opacity="0.2" d="M142.561 30.1133H117.661C117.13 30.1133 116.699 30.5453 116.699 31.0782V31.4279C116.699 31.9609 117.13 32.3929 117.661 32.3929H142.561C143.093 32.3929 143.523 31.9609 143.523 31.4279V31.0782C143.523 30.5453 143.093 30.1133 142.561 30.1133Z" fill="black"/>
<path d="M79.0799 71.9575C81.7172 71.9575 83.8551 69.8128 83.8551 67.1672C83.8551 64.5216 81.7172 62.377 79.0799 62.377C76.4426 62.377 74.3047 64.5216 74.3047 67.1672C74.3047 69.8128 76.4426 71.9575 79.0799 71.9575Z" fill="#69F0AE"/>
<path d="M117.383 84.6113H90.5586V86.663H117.383V84.6113Z" fill="#BDBDBD"/>
<path d="M117.383 92.8203H90.5586V94.8719H117.383V92.8203Z" fill="#F5F5F5"/>
<path d="M160.574 88.7168H90.5586V90.7684H160.574V88.7168Z" fill="#E0E0E0"/>
<path d="M79.0799 91.7954C81.7172 91.7954 83.8551 89.6507 83.8551 87.0051C83.8551 84.3595 81.7172 82.2148 79.0799 82.2148C76.4426 82.2148 74.3047 84.3595 74.3047 87.0051C74.3047 89.6507 76.4426 91.7954 79.0799 91.7954Z" fill="#E0E0E0"/>
<path d="M117.383 104.453H90.5586V106.505H117.383V104.453Z" fill="#BDBDBD"/>
<path d="M117.383 112.658H90.5586V114.71H117.383V112.658Z" fill="#F5F5F5"/>
<path d="M160.574 108.557H90.5586V110.608H160.574V108.557Z" fill="#E0E0E0"/>
<path d="M79.0799 111.635C81.7172 111.635 83.8551 109.491 83.8551 106.845C83.8551 104.199 81.7172 102.055 79.0799 102.055C76.4426 102.055 74.3047 104.199 74.3047 106.845C74.3047 109.491 76.4426 111.635 79.0799 111.635Z" fill="#E0E0E0"/>
<path d="M74.2782 25.0217C74.3084 27.4385 74.9994 29.8006 76.2758 31.8506C77.5523 33.9005 79.3652 35.5597 81.5169 36.6471C83.6687 37.7346 86.0767 38.2087 88.4786 38.0177C90.8804 37.8267 93.184 36.978 95.1381 35.564C97.0922 34.1501 98.6218 32.2251 99.5604 29.999C100.499 27.773 100.81 25.3311 100.461 22.9397C100.111 20.5483 99.1135 18.2991 97.5772 16.4372C96.0408 14.5753 94.0245 13.1722 91.7479 12.3809L91.7884 15.7815C91.8025 16.9703 91.3454 18.1161 90.5177 18.9669C89.6899 19.8178 88.5593 20.304 87.3742 20.3189C86.1935 20.3297 85.0564 19.8715 84.2112 19.0442C83.3661 18.2169 82.8817 17.0877 82.8636 15.9033L82.8232 12.5026C80.289 13.4556 78.1091 15.1686 76.5802 17.4087C75.0512 19.6488 74.2474 22.307 74.2782 25.0217Z" fill="url(#paint9_linear)"/>
<path d="M100.596 23.6326C100.595 21.2155 99.9327 18.8451 98.681 16.7798C97.4293 14.7144 95.6365 13.0334 93.4979 11.9199C91.3593 10.8064 88.957 10.3033 86.553 10.4652C84.1489 10.6272 81.8353 11.4481 79.8643 12.8384C77.8934 14.2287 76.3407 16.1351 75.3755 18.3498C74.4103 20.5645 74.0697 23.0025 74.3908 25.398C74.7119 27.7935 75.6824 30.0546 77.1965 31.9349C78.7106 33.8152 80.7101 35.2424 82.9772 36.0611V32.6573C82.9805 31.4723 83.4512 30.3368 84.2864 29.4989C85.1217 28.661 86.2536 28.1888 87.4349 28.1855C88.6161 28.1888 89.748 28.661 90.5833 29.4989C91.4186 30.3368 91.8893 31.4723 91.8926 32.6573V36.058C94.4413 35.1366 96.6448 33.4491 98.2024 31.2254C99.76 29.0018 100.596 26.3503 100.596 23.6326Z" fill="#007A33"/>
<path d="M87.4413 26.893C90.235 26.893 92.4998 24.6211 92.4998 21.8186C92.4998 19.0161 90.235 16.7441 87.4413 16.7441C84.6476 16.7441 82.3828 19.0161 82.3828 21.8186C82.3828 24.6211 84.6476 26.893 87.4413 26.893Z" fill="white" stroke="white" stroke-miterlimit="10"/>
<path d="M87.4343 28.1855C86.253 28.1888 85.1211 28.661 84.2858 29.4989C83.4506 30.3368 82.9798 31.4723 82.9766 32.6573V36.058C85.8586 37.0943 89.0099 37.0943 91.892 36.058V32.6573C91.8887 31.4723 91.418 30.3368 90.5827 29.4989C89.7474 28.661 88.6155 28.1888 87.4343 28.1855Z" fill="white" stroke="white" stroke-miterlimit="10"/>
<path d="M82.3403 21.5351C81.935 20.7478 81.7489 19.8653 81.8018 18.9807C81.8594 18.0912 82.2616 17.2596 82.9224 16.6637C83.6602 16.0391 84.6594 15.8112 85.6244 15.7268C86.5894 15.6425 87.5669 15.6956 88.5194 15.5083C89.3048 15.3484 90.0507 15.0337 90.7139 14.5823C91.3771 14.131 91.9442 13.5519 92.3825 12.8789C92.4773 13.6206 92.4699 14.3719 92.3608 15.1117C92.3041 15.4817 92.1727 15.8363 91.9746 16.1536C91.7766 16.4709 91.516 16.7444 91.209 16.9572C91.9779 16.6012 91.8938 17.435 91.7288 17.9377C92.1086 18.3999 93.0362 18.4749 93.0829 19.0744C93.1604 19.6696 93.0942 20.2746 92.8899 20.8388C92.6565 21.3884 92.9055 22.3595 92.3109 22.4001" fill="white"/>
<path d="M82.3403 21.5351C81.935 20.7478 81.7489 19.8653 81.8018 18.9807C81.8594 18.0912 82.2616 17.2596 82.9224 16.6637C83.6602 16.0391 84.6594 15.8112 85.6244 15.7268C86.5894 15.6425 87.5669 15.6956 88.5194 15.5083C89.3048 15.3484 90.0507 15.0337 90.7139 14.5823C91.3771 14.131 91.9442 13.5519 92.3825 12.8789C92.4773 13.6206 92.4699 14.3719 92.3608 15.1117C92.3041 15.4817 92.1727 15.8363 91.9746 16.1536C91.7766 16.4709 91.516 16.7444 91.209 16.9572C91.9779 16.6012 91.8938 17.435 91.7288 17.9377C92.1086 18.3999 93.0362 18.4749 93.0829 19.0744C93.1604 19.6696 93.0942 20.2746 92.8899 20.8388C92.6565 21.3884 92.9055 22.3595 92.3109 22.4001" stroke="white" stroke-miterlimit="10"/>
<path d="M91.4805 16.8477C91.4805 16.8477 95.0105 17.1599 92.4984 22.4124L91.4805 16.8477Z" fill="white"/>
<path d="M59.3293 95.1622L37.1747 79.6016H6.5V95.1622V102.785V233H198.212V95.1622H59.3293Z" fill="url(#paint10_linear)"/>
<path d="M8.14062 96.7363V104.137V230.536H196.898V96.7363H60.1574" fill="white"/>
<path d="M60.1575 96.7355L38.3421 81.6309H8.14062V96.7355" fill="#BDBDBD"/>
<path d="M154.507 116.482H50.5352V210.789H154.507V116.482Z" fill="url(#paint11_linear)"/>
<path d="M153.561 117.168H51.9492V209.073H153.561V117.168Z" fill="white"/>
<path d="M123.436 185.955H83.4844V189.237H123.436V185.955Z" fill="#BDBDBD"/>
<path d="M146.404 192.523H59.1055V195.805H146.404V192.523Z" fill="#E0E0E0"/>
<path d="M146.404 199.09H59.1055V202.372H146.404V199.09Z" fill="#E0E0E0"/>
<path d="M77.8923 152.308C77.9493 156.872 79.2538 161.332 81.6638 165.203C84.0737 169.074 87.4966 172.207 91.5594 174.261C95.6222 176.315 100.169 177.211 104.704 176.851C109.24 176.491 113.589 174.889 117.28 172.22C120.97 169.55 123.859 165.916 125.632 161.713C127.405 157.51 127.994 152.9 127.335 148.384C126.676 143.868 124.794 139.621 121.894 136.104C118.994 132.588 115.187 129.937 110.889 128.441L110.967 134.865C110.988 137.102 110.125 139.256 108.568 140.857C107.011 142.457 104.885 143.375 102.656 143.409C100.426 143.43 98.2786 142.564 96.6828 141.002C95.0869 139.44 94.1723 137.308 94.1387 135.071L94.0608 128.648C89.2659 130.443 85.14 133.678 82.2463 137.913C79.3526 142.147 77.8321 147.175 77.8923 152.308Z" fill="url(#paint12_linear)"/>
<path d="M127.609 149.689C127.609 145.124 126.358 140.647 123.995 136.746C121.632 132.845 118.247 129.67 114.209 127.567C110.17 125.463 105.633 124.512 101.093 124.818C96.553 125.123 92.1835 126.673 88.4611 129.298C84.7387 131.924 81.8062 135.524 79.9835 139.707C78.1607 143.889 77.5176 148.493 78.1242 153.017C78.7308 157.541 80.5639 161.812 83.4237 165.362C86.2834 168.913 90.06 171.608 94.3417 173.153V166.73C94.3507 164.496 95.2391 162.357 96.8134 160.778C98.3876 159.199 100.52 158.307 102.747 158.298C104.973 158.307 107.105 159.199 108.68 160.778C110.254 162.357 111.142 164.496 111.151 166.73V173.153C115.969 171.417 120.135 168.232 123.08 164.033C126.026 159.833 127.608 154.824 127.609 149.689Z" fill="#BDBDBD"/>
<path d="M103.594 153.891C103.594 153.064 102.925 152.393 102.1 152.393C101.274 152.393 100.605 153.064 100.605 153.891V161.464C100.605 162.292 101.274 162.963 102.1 162.963C102.925 162.963 103.594 162.292 103.594 161.464V153.891Z" fill="white" stroke="white" stroke-miterlimit="10"/>
<path d="M102.112 153.814C107.388 153.814 111.666 149.523 111.666 144.23C111.666 138.937 107.388 134.646 102.112 134.646C96.8359 134.646 92.5586 138.937 92.5586 144.23C92.5586 149.523 96.8359 153.814 102.112 153.814Z" fill="white" stroke="white" stroke-miterlimit="10"/>
<path d="M102.096 156.256C99.8699 156.265 97.7374 157.156 96.1631 158.735C94.5888 160.315 93.7004 162.454 93.6914 164.687V171.111C99.1325 173.067 105.082 173.067 110.523 171.111V164.7C110.517 162.46 109.627 160.315 108.048 158.732C106.469 157.15 104.329 156.259 102.096 156.256Z" fill="white" stroke="white" stroke-miterlimit="10"/>
<path d="M92.4797 143.699C91.7141 142.213 91.3625 140.547 91.4618 138.877C91.5716 137.199 92.3313 135.63 93.5785 134.505C94.97 133.316 96.8564 132.894 98.6806 132.747C100.505 132.601 102.351 132.688 104.144 132.335C105.627 132.034 107.035 131.44 108.287 130.588C109.539 129.736 110.61 128.643 111.437 127.373C111.553 128.778 111.668 130.205 111.397 131.592C111.126 132.978 110.416 134.337 109.218 135.077C110.668 134.402 110.51 135.982 110.195 136.929C110.914 137.8 112.661 137.944 112.751 139.071C112.841 140.198 112.826 141.363 112.387 142.403C111.948 143.443 112.418 145.273 111.297 145.354" fill="white"/>
<path d="M92.4797 143.699C91.7141 142.213 91.3625 140.547 91.4618 138.877C91.5716 137.199 92.3313 135.63 93.5785 134.505C94.97 133.316 96.8564 132.894 98.6806 132.747C100.505 132.601 102.351 132.688 104.144 132.335C105.627 132.034 107.035 131.44 108.287 130.588C109.539 129.736 110.61 128.643 111.437 127.373C111.553 128.778 111.668 130.205 111.397 131.592C111.126 132.978 110.416 134.337 109.218 135.077C110.668 134.402 110.51 135.982 110.195 136.929C110.914 137.8 112.661 137.944 112.751 139.071C112.841 140.198 112.826 141.363 112.387 142.403C111.948 143.443 112.418 145.273 111.297 145.354" stroke="white" stroke-miterlimit="10"/>
<path d="M109.746 134.846C109.746 134.846 116.411 135.43 111.667 145.354L109.746 134.846Z" fill="white"/>
</g>
<defs>
<linearGradient id="paint0_linear" x1="84.5578" y1="156.982" x2="48.4064" y2="28.8482" gradientUnits="userSpaceOnUse">
<stop stop-color="#808080" stop-opacity="0.25"/>
<stop offset="0.54" stop-color="#808080" stop-opacity="0.12"/>
<stop offset="1" stop-color="#808080" stop-opacity="0.1"/>
</linearGradient>
<linearGradient id="paint1_linear" x1="62.369" y1="78.6531" x2="48.842" y2="29.5978" gradientUnits="userSpaceOnUse">
<stop stop-color="#B3B3B3" stop-opacity="0.25"/>
<stop offset="0.54" stop-color="#B3B3B3" stop-opacity="0.1"/>
<stop offset="1" stop-color="#B3B3B3" stop-opacity="0.05"/>
</linearGradient>
<linearGradient id="paint2_linear" x1="28.8995" y1="75.5283" x2="20.6219" y2="51.0935" gradientUnits="userSpaceOnUse">
<stop stop-opacity="0.12"/>
<stop offset="0.55" stop-opacity="0.09"/>
<stop offset="1" stop-opacity="0.02"/>
</linearGradient>
<linearGradient id="paint3_linear" x1="38824.4" y1="95655.9" x2="38824.4" y2="38326.6" gradientUnits="userSpaceOnUse">
<stop stop-color="#808080" stop-opacity="0.25"/>
<stop offset="0.54" stop-color="#808080" stop-opacity="0.12"/>
<stop offset="1" stop-color="#808080" stop-opacity="0.1"/>
</linearGradient>
<linearGradient id="paint4_linear" x1="83790.8" y1="81492.6" x2="77753.9" y2="24712.6" gradientUnits="userSpaceOnUse">
<stop stop-color="#808080" stop-opacity="0.25"/>
<stop offset="0.54" stop-color="#808080" stop-opacity="0.12"/>
<stop offset="1" stop-color="#808080" stop-opacity="0.1"/>
</linearGradient>
<linearGradient id="paint5_linear" x1="76699.8" y1="12779.9" x2="75822.8" y2="4531.41" gradientUnits="userSpaceOnUse">
<stop stop-color="#B3B3B3" stop-opacity="0.25"/>
<stop offset="0.54" stop-color="#B3B3B3" stop-opacity="0.1"/>
<stop offset="1" stop-color="#B3B3B3" stop-opacity="0.05"/>
</linearGradient>
<linearGradient id="paint6_linear" x1="-16878.5" y1="-6515.24" x2="-17220.5" y2="-8641.85" gradientUnits="userSpaceOnUse">
<stop stop-opacity="0.12"/>
<stop offset="0.55" stop-opacity="0.09"/>
<stop offset="1" stop-opacity="0.02"/>
</linearGradient>
<linearGradient id="paint7_linear" x1="38838.3" y1="57156.9" x2="38838.3" y2="53.5415" gradientUnits="userSpaceOnUse">
<stop stop-color="#808080" stop-opacity="0.25"/>
<stop offset="0.54" stop-color="#808080" stop-opacity="0.12"/>
<stop offset="1" stop-color="#808080" stop-opacity="0.1"/>
</linearGradient>
<linearGradient id="paint8_linear" x1="38927.6" y1="8295.79" x2="38927.6" y2="0" gradientUnits="userSpaceOnUse">
<stop stop-color="#B3B3B3" stop-opacity="0.25"/>
<stop offset="0.54" stop-color="#B3B3B3" stop-opacity="0.1"/>
<stop offset="1" stop-color="#B3B3B3" stop-opacity="0.05"/>
</linearGradient>
<linearGradient id="paint9_linear" x1="-19159.4" y1="-12444.5" x2="-19267.1" y2="-14564.4" gradientUnits="userSpaceOnUse">
<stop stop-opacity="0.12"/>
<stop offset="0.55" stop-opacity="0.09"/>
<stop offset="1" stop-opacity="0.02"/>
</linearGradient>
<linearGradient id="paint10_linear" x1="63043.3" y1="114536" x2="63043.3" y2="39182.3" gradientUnits="userSpaceOnUse">
<stop stop-color="#808080" stop-opacity="0.25"/>
<stop offset="0.54" stop-color="#808080" stop-opacity="0.12"/>
<stop offset="1" stop-color="#808080" stop-opacity="0.1"/>
</linearGradient>
<linearGradient id="paint11_linear" x1="34292.5" y1="63774.4" x2="34292.5" y2="35293.8" gradientUnits="userSpaceOnUse">
<stop stop-color="#808080" stop-opacity="0.25"/>
<stop offset="0.54" stop-color="#808080" stop-opacity="0.12"/>
<stop offset="1" stop-color="#808080" stop-opacity="0.1"/>
</linearGradient>
<linearGradient id="paint12_linear" x1="-33840.8" y1="-2187.57" x2="-34225" y2="-9744.2" gradientUnits="userSpaceOnUse">
<stop stop-opacity="0.12"/>
<stop offset="0.55" stop-opacity="0.09"/>
<stop offset="1" stop-opacity="0.02"/>
</linearGradient>
<clipPath id="clip0">
<rect width="227" height="233" fill="white"/>
</clipPath>
</defs>
</svg>
