<svg width="24" height="24" viewBox="0 0 24 24" fill="none" xmlns="http://www.w3.org/2000/svg">
<path d="M17.42 22.5H5.33C3.5 22.5 2 21 2 19.17V13.08C2 12.18 2.36 11.33 3 10.71L8.63 5.17C8.63 5.17 9.66 6.22 9.67 6.25C9.80934 6.40651 9.89514 6.60338 9.91492 6.81199C9.9347 7.0206 9.88744 7.23009 9.78 7.41C9.77 7.44 8 10 8 10H18.67C19.0015 10 19.3195 10.1317 19.5539 10.3661C19.7883 10.6005 19.92 10.9185 19.92 11.25C19.92 11.5815 19.7883 11.8995 19.5539 12.1339C19.3195 12.3683 19.0015 12.5 18.67 12.5H12.83V13.33H20.75C21.0815 13.33 21.3995 13.4617 21.6339 13.6961C21.8683 13.9305 22 14.2485 22 14.58C22 14.9115 21.8683 15.2295 21.6339 15.4639C21.3995 15.6983 21.0815 15.83 20.75 15.83H12.83V16.67H19.92C20.2515 16.67 20.5695 16.8017 20.8039 17.0361C21.0383 17.2705 21.17 17.5885 21.17 17.92C21.17 18.2515 21.0383 18.5695 20.8039 18.8039C20.5695 19.0383 20.2515 19.17 19.92 19.17H12.83V20H17.42C17.7515 20 18.0695 20.1317 18.3039 20.3661C18.5383 20.6005 18.67 20.9185 18.67 21.25C18.67 21.5815 18.5383 21.8995 18.3039 22.1339C18.0695 22.3683 17.7515 22.5 17.42 22.5ZM13.5 4.8C13.5 4.8 12 6.46 12 7.5C12 9.5 15 9.5 15 7.5C15 6.46 13.5 4.8 13.5 4.8ZM18.5 1C18.5 1 16 3.76 16 5.5C16 8.83 21 8.83 21 5.5C21 3.76 18.5 1 18.5 1Z" fill="#787878"/>
</svg>
