<svg width="304" height="244" viewBox="0 0 304 244" fill="none" xmlns="http://www.w3.org/2000/svg">
<g clip-path="url(#clip0)">
<path opacity="0.1" d="M156.381 244.003C232.254 244.003 293.762 189.381 293.762 122.001C293.762 54.6219 232.254 0 156.381 0C80.5075 0 19 54.6219 19 122.001C19 189.381 80.5075 244.003 156.381 244.003Z" fill="#06D6A0"/>
<path opacity="0.1" d="M50.6549 192.219C78.6308 192.219 101.31 188.721 101.31 184.406C101.31 180.092 78.6308 176.594 50.6549 176.594C22.679 176.594 0 180.092 0 184.406C0 188.721 22.679 192.219 50.6549 192.219Z" fill="#06D6A0"/>
<path opacity="0.1" d="M75.0032 229.44C85.8845 229.44 94.7056 227.626 94.7056 225.39C94.7056 223.153 85.8845 221.34 75.0032 221.34C64.1218 221.34 55.3008 223.153 55.3008 225.39C55.3008 227.626 64.1218 229.44 75.0032 229.44Z" fill="#06D6A0"/>
<path opacity="0.1" d="M209.628 213.862C220.509 213.862 229.331 212.048 229.331 209.812C229.331 207.575 220.509 205.762 209.628 205.762C198.747 205.762 189.926 207.575 189.926 209.812C189.926 212.048 198.747 213.862 209.628 213.862Z" fill="#06D6A0"/>
<path opacity="0.1" d="M142.774 210.462C160.468 210.462 174.813 208.044 174.813 205.061C174.813 202.078 160.468 199.66 142.774 199.66C125.079 199.66 110.734 202.078 110.734 205.061C110.734 208.044 125.079 210.462 142.774 210.462Z" fill="#06D6A0"/>
<path opacity="0.1" d="M237.178 188.74C274.085 188.74 304.004 184.077 304.004 178.325C304.004 172.573 274.085 167.91 237.178 167.91C200.271 167.91 170.352 172.573 170.352 178.325C170.352 184.077 200.271 188.74 237.178 188.74Z" fill="#06D6A0"/>
<path d="M13.85 160.148C12.3489 163.053 11.6478 166.303 11.818 169.566C11.9882 172.829 13.0236 175.988 14.8189 178.724C15.4079 179.603 15.9498 180.236 16.3827 180.403C18.459 181.215 22.6174 183.21 22.6174 183.21L32.6306 179.295C32.6306 179.295 34.2562 170.738 35.7936 163.392C36.842 158.381 37.8551 153.935 38.2704 153.156C39.307 151.236 38.2704 130.339 38.2704 130.339C38.2704 130.339 28.2572 129.671 25.5036 137.352L24.299 139.696L13.85 160.148Z" fill="#A8A8A8"/>
<path opacity="0.1" d="M27.1447 162.458C33.2321 169.4 35.8002 163.396 35.8002 163.396C36.8486 158.385 37.8617 153.939 38.277 153.159C39.3136 151.24 38.277 130.343 38.277 130.343C38.277 130.343 28.2638 129.675 25.5101 137.355L24.3056 139.7C23.534 145.845 22.7712 157.461 27.1447 162.458Z" fill="white"/>
<path d="M28.4805 181.806L63.8211 177.744L70.1264 136.459L65.3584 125.737C63.344 121.17 60.5545 116.983 57.1123 113.358C54.712 110.841 51.8112 108.421 48.7601 107.204C48.3431 107.037 47.9175 106.892 47.4849 106.771C46.9876 106.62 46.4617 106.589 45.9499 106.679C45.4382 106.769 44.955 106.978 44.5398 107.289C40.1812 110.363 38.6232 123.433 38.1196 129.725C37.9124 132.311 37.5614 134.883 37.0682 137.429L28.4805 181.806Z" fill="#A8A8A8"/>
<path opacity="0.1" d="M52.0098 136.013L44.6471 154.035C48.5051 151.228 54.2215 135.94 54.2215 135.94L59.3429 153.37L55.2611 134.999C55.8586 131.01 56.0324 126.969 55.7794 122.943C55.4555 118.33 51.1056 110.928 48.7437 107.201C48.3267 107.033 47.9011 106.889 47.4685 106.767C46.9712 106.617 46.4453 106.585 45.9335 106.675C45.4218 106.765 44.9387 106.974 44.5234 107.286C46.3788 110.993 51.0173 120.262 52.4309 123.016C54.2244 126.486 52.0098 136.013 52.0098 136.013Z" fill="white"/>
<path d="M58.0195 183.214H77.1948C77.9835 183.214 78.7641 183.054 79.489 182.745C80.2139 182.436 80.868 181.983 81.4115 181.414C81.955 180.845 82.3766 180.173 82.6506 179.437C82.9246 178.701 83.0453 177.917 83.0053 177.133C82.5813 168.951 81.5063 154.363 78.95 145.103C77.5688 140.106 75.9637 137.484 74.4912 136.191C73.8007 135.528 72.9092 135.111 71.9555 135.004C71.2321 134.942 70.5081 135.117 69.894 135.503C66.3334 138.899 62.175 156.772 62.175 156.772L58.0195 183.214Z" fill="#A8A8A8"/>
<path opacity="0.1" d="M75.7229 167.359C76.5121 169.537 76.8243 172.048 75.7229 174.495L71.4496 176.596C71.4496 176.596 59.9639 171.752 61.3599 161.824C61.3599 161.824 61.7368 159.772 65.692 159.931C67.9164 160.038 70.0584 160.801 71.8449 162.124C73.6313 163.447 74.9814 165.27 75.7229 167.359Z" fill="white"/>
<path opacity="0.1" d="M71.1581 141.259C71.0256 137.778 72.9252 136.571 74.4949 136.187C73.8044 135.524 72.9129 135.106 71.9592 135C70.8666 135.91 70.0922 137.141 69.7475 138.517L65.7422 157.943C65.7422 157.943 71.382 147.094 71.1581 141.259Z" fill="white"/>
<path d="M52.9747 156.621L62.4696 169.544L64.1158 180.211L58.0137 183.209L49.2168 185.143C48.3696 185.331 47.4985 185.387 46.634 185.31L22.6289 183.209L25.895 175.675L37.1745 159.918L52.9747 156.621Z" fill="#A8A8A8"/>
<path opacity="0.1" d="M49.2989 152.185C49.2989 152.185 55.778 152.627 53.3454 163.704C50.9128 174.782 25.8828 175.67 25.8828 175.67C25.8828 175.67 31.2016 166.292 39.3829 159.573C40.3018 158.819 41.1882 158.034 42.0335 157.196C43.9154 155.323 47.5142 152.032 49.2989 152.185Z" fill="white"/>
<path opacity="0.1" d="M55.1289 160.539C55.1289 160.539 63.9081 168.489 63.0805 180.724L55.1289 160.539Z" fill="black"/>
<path opacity="0.1" d="M69.8982 135.5C69.8982 135.5 60.6861 147.691 59.6523 166.449L69.8982 135.5Z" fill="black"/>
<path opacity="0.1" d="M38.279 130.332C38.279 130.332 42.7378 150.479 31.6055 165.665L38.279 130.332Z" fill="black"/>
<path d="M119.49 204.949H167.535C168 204.947 168.456 204.825 168.859 204.595C169.262 204.365 169.598 204.036 169.835 203.638C170.072 203.241 170.202 202.789 170.212 202.327C170.222 201.865 170.111 201.409 169.891 201.002L145.88 156.611C145.65 156.185 145.309 155.83 144.892 155.582C144.475 155.334 143.998 155.203 143.513 155.203C143.027 155.203 142.55 155.334 142.133 155.582C141.717 155.83 141.375 156.185 141.145 156.611L117.122 201.002C116.902 201.41 116.791 201.867 116.801 202.33C116.812 202.793 116.943 203.246 117.181 203.643C117.42 204.041 117.758 204.37 118.162 204.599C118.567 204.828 119.024 204.949 119.49 204.949ZM146.57 196.837H140.456V190.757H146.57V196.837ZM146.57 186.701H140.456V174.537H146.57V186.701Z" fill="#464353"/>
<path opacity="0.1" d="M119.49 204.949H167.535C168 204.947 168.456 204.825 168.859 204.595C169.262 204.365 169.598 204.036 169.835 203.638C170.072 203.241 170.202 202.789 170.212 202.327C170.222 201.865 170.111 201.409 169.891 201.002L145.88 156.611C145.65 156.185 145.309 155.83 144.892 155.582C144.475 155.334 143.998 155.203 143.513 155.203C143.027 155.203 142.55 155.334 142.133 155.582C141.717 155.83 141.375 156.185 141.145 156.611L117.122 201.002C116.902 201.41 116.791 201.867 116.801 202.33C116.812 202.793 116.943 203.246 117.181 203.643C117.42 204.041 117.758 204.37 118.162 204.599C118.567 204.828 119.024 204.949 119.49 204.949ZM146.57 196.837H140.456V190.757H146.57V196.837ZM146.57 186.701H140.456V174.537H146.57V186.701Z" fill="black"/>
<path d="M119.49 206.414H167.535C168 206.411 168.456 206.289 168.859 206.06C169.262 205.83 169.598 205.501 169.835 205.103C170.072 204.706 170.202 204.254 170.212 203.792C170.222 203.33 170.111 202.874 169.891 202.467L145.88 158.076C145.65 157.65 145.309 157.295 144.892 157.047C144.475 156.799 143.998 156.668 143.513 156.668C143.027 156.668 142.55 156.799 142.133 157.047C141.717 157.295 141.375 157.65 141.145 158.076L117.122 202.467C116.902 202.874 116.791 203.332 116.801 203.795C116.812 204.258 116.943 204.711 117.181 205.108C117.42 205.506 117.758 205.835 118.162 206.064C118.567 206.293 119.024 206.413 119.49 206.414ZM146.57 198.302H140.456V192.222H146.57V198.302ZM146.57 188.166H140.456V176.001H146.57V188.166Z" fill="#464353"/>
<path d="M68.8587 69.3682C68.8263 69.9807 69.1326 70.5404 69.3123 71.1265C69.6095 72.2584 69.5799 73.4509 69.2269 74.5668C68.897 75.739 68.3434 76.9786 68.7645 78.1244C68.8617 78.394 69.0089 78.6402 69.0973 78.9098C69.4625 80.0234 68.7851 81.1956 68.043 82.1069L70.9556 84.1378C71.3809 84.4885 71.8868 84.7291 72.4281 84.8381C72.973 84.9026 73.6062 84.6125 73.7181 84.0792C73.7564 83.8975 73.7181 83.707 73.7534 83.5224C73.7893 83.2836 73.882 83.0569 74.0239 82.8611C74.1659 82.6653 74.3528 82.5062 74.5692 82.3971C75.0067 82.1836 75.4945 82.0934 75.9799 82.1363C77.7675 82.233 79.2872 83.4022 80.9128 84.1524C81.9846 84.6142 83.0953 84.981 84.2319 85.2484C84.8769 85.4154 85.5925 85.5678 86.1757 85.2484C86.7588 84.929 87.0268 84.1876 86.9826 83.5165C86.8921 82.8491 86.6826 82.203 86.3641 81.6088C86.0427 81.0152 85.8491 80.3615 85.7957 79.6893C85.7957 78.7047 86.3376 77.8079 86.5202 76.8409C86.7764 75.4665 86.2552 74.0687 85.619 72.8203C84.9829 71.5719 84.2113 70.3704 83.9021 69.0107C83.8407 68.5985 83.733 68.1945 83.5811 67.8062C83.4337 67.5114 83.2342 67.2454 82.9921 67.0209C81.8994 65.9454 80.3415 65.4355 78.816 65.3241C77.2904 65.2128 75.7502 65.4619 74.2364 65.7227C73.6589 65.8047 73.0901 65.9391 72.5371 66.1241C71.7469 66.4366 70.9966 66.8409 70.3018 67.3286C69.6127 67.8033 68.9029 68.4978 68.8587 69.3682Z" fill="#464353"/>
<g opacity="0.1">
<path opacity="0.1" d="M85.7814 79.0907C85.7814 79.1787 85.7814 79.2666 85.7991 79.3515C85.8904 78.4929 86.3439 77.687 86.5059 76.8284C86.5685 76.4844 86.5873 76.1339 86.5619 75.7852C86.5619 75.9375 86.5324 76.0782 86.5059 76.2423C86.3204 77.2094 85.7697 78.1061 85.7814 79.0907Z" fill="black"/>
<path opacity="0.1" d="M69.5048 72.2997C69.5395 71.7067 69.4728 71.1121 69.3075 70.5414C69.1332 70.0967 68.9905 69.6404 68.8804 69.1758C68.8804 69.2373 68.8569 69.2959 68.8539 69.3575C68.8215 69.9699 69.1278 70.5297 69.3075 71.1158C69.4213 71.501 69.4875 71.8985 69.5048 72.2997Z" fill="black"/>
<path opacity="0.1" d="M86.9532 83.3576C86.9326 83.6194 86.8504 83.8728 86.7133 84.0973C86.5762 84.3218 86.388 84.5111 86.1639 84.6499C85.5749 84.9693 84.8651 84.8169 84.2202 84.6499C83.0831 84.3828 81.9723 84.015 80.9011 83.551C79.2754 82.8037 77.7558 81.6344 75.9681 81.5377C75.4828 81.4949 74.9949 81.5851 74.5575 81.7985C74.3411 81.9077 74.1541 82.0668 74.0122 82.2626C73.8703 82.4584 73.7775 82.6851 73.7417 82.9238C73.7211 83.1085 73.7417 83.2989 73.7064 83.4806C73.5915 84.014 72.9613 84.3041 72.4164 84.2396C71.875 84.1306 71.3692 83.89 70.9439 83.5392L68.3258 81.7106C68.2286 81.8425 68.1314 81.9714 68.0312 82.0916L70.9439 84.1253C71.3692 84.4761 71.875 84.7167 72.4164 84.8257C72.9613 84.8902 73.5944 84.6001 73.7064 84.0667C73.7446 83.885 73.7064 83.6946 73.7417 83.5099C73.7775 83.2712 73.8703 83.0445 74.0122 82.8487C74.1541 82.6529 74.3411 82.4938 74.5575 82.3846C74.9949 82.1712 75.4828 82.081 75.9681 82.1238C77.7558 82.2205 79.2754 83.3898 80.9011 84.1371C81.9723 84.6011 83.0831 84.9689 84.2202 85.236C84.8651 85.403 85.5808 85.5554 86.1639 85.236C86.747 84.9166 87.015 84.1752 86.9709 83.5041C86.9679 83.4543 86.9591 83.4074 86.9532 83.3576Z" fill="black"/>
<path opacity="0.1" d="M69.0935 78.896C69.1298 79.0138 69.1564 79.1344 69.173 79.2565C69.2186 78.939 69.1915 78.6154 69.0935 78.3099C69.0051 78.0403 68.8579 77.7942 68.7607 77.5246C68.6899 77.3289 68.6443 77.1251 68.6252 76.918C68.5817 77.3206 68.628 77.7278 68.7607 78.1107C68.8579 78.3803 69.0051 78.6294 69.0935 78.896Z" fill="black"/>
</g>
<path d="M72.5523 190.095C72.5321 190.178 72.4844 190.252 72.4168 190.306C72.3451 190.343 72.2648 190.36 72.1841 190.356C71.1357 190.379 70.0873 190.356 69.0418 190.429C68.0522 190.514 67.0597 190.722 66.0731 190.611C65.7575 190.622 65.4462 190.535 65.1824 190.362C64.9186 190.189 64.7153 189.939 64.6006 189.646C64.5384 189.519 64.4833 189.388 64.4357 189.254C64.1639 188.563 64.0269 187.827 64.0322 187.085C64.0322 186.889 64.0322 186.698 64.0322 186.499C64.0193 186.284 63.9908 186.071 63.9468 185.86C63.8575 185.619 63.8681 185.352 63.9763 185.119C64.3945 184.36 65.4046 184.207 66.1821 184.149C67.9833 184.014 69.7947 184.146 71.5568 184.542C71.6952 185.216 71.8513 185.884 72.0163 186.552C72.138 187.042 72.2676 187.531 72.405 188.017C72.4972 188.318 72.572 188.625 72.6288 188.934C72.7017 189.321 72.6753 189.72 72.5523 190.095Z" fill="#464353"/>
<path opacity="0.06" d="M72.5541 190.094C72.5339 190.177 72.4862 190.251 72.4186 190.305C72.3469 190.342 72.2666 190.359 72.1859 190.354C71.1375 190.378 70.0891 190.354 69.0436 190.428C68.054 190.513 67.0615 190.721 66.0749 190.609C65.7593 190.62 65.448 190.534 65.1842 190.361C64.9204 190.188 64.7171 189.938 64.6024 189.645C64.5402 189.517 64.4851 189.386 64.4375 189.253H64.8145C66.0543 189.253 67.2971 189.209 68.537 189.209C68.911 189.209 69.288 189.191 69.6591 189.147C70.0302 189.103 70.3335 189.042 70.6722 189C71.1792 188.952 71.6884 188.932 72.1977 188.939H72.6159C72.6925 189.323 72.6712 189.72 72.5541 190.094Z" fill="black"/>
<path d="M94.2436 184.651C93.9153 185.032 93.4961 185.326 93.0243 185.504C90.9274 186.383 88.5036 185.987 86.339 185.272C85.8548 185.093 85.3576 184.951 84.8518 184.847C84.3903 184.783 83.9248 184.751 83.4588 184.751C83.126 184.751 82.7932 184.724 82.4604 184.704C81.6181 184.651 80.7788 184.569 79.9424 184.487C79.3593 184.444 78.7803 184.357 78.2107 184.226C78.0487 184.185 77.8932 184.122 77.7483 184.039C77.6247 183.985 77.5192 183.897 77.4441 183.785C77.369 183.673 77.3274 183.543 77.3242 183.409C77.3478 183.036 77.7365 182.823 78.0782 182.661C81.1086 181.357 84.4012 180.792 87.6702 180.337C88.0027 180.282 88.3265 180.184 88.6332 180.044C89.0014 179.898 89.0396 180.138 89.2222 180.408C89.3085 180.533 89.4072 180.648 89.5167 180.754C89.8718 181.073 90.2887 181.316 90.7419 181.469C91.537 181.762 92.3882 181.841 93.1833 182.119C93.4239 182.202 93.6541 182.312 93.8695 182.447C94.0597 182.55 94.2236 182.695 94.3488 182.871C94.474 183.047 94.5571 183.249 94.5918 183.462C94.6265 183.674 94.6118 183.892 94.5489 184.098C94.486 184.304 94.3765 184.494 94.2288 184.651H94.2436Z" fill="#464353"/>
<path opacity="0.06" d="M94.2441 184.653C93.9159 185.034 93.4966 185.328 93.0248 185.506C90.928 186.385 88.5042 185.989 86.3396 185.274C85.8554 185.095 85.3582 184.953 84.8523 184.849C84.3908 184.785 83.9253 184.752 83.4593 184.753C83.1265 184.753 82.7937 184.726 82.4609 184.706C82.7319 184.451 83.0087 184.202 83.2914 183.961C83.4964 183.771 83.7324 183.616 83.9894 183.504C84.3094 183.4 84.6506 183.377 84.9819 183.437C86.6665 183.668 88.1802 184.843 89.8795 184.741C90.6712 184.65 91.437 184.404 92.1325 184.017C92.6981 183.788 93.2023 183.431 93.605 182.974C93.7266 182.816 93.8193 182.639 93.8789 182.449C94.0691 182.552 94.233 182.697 94.3582 182.873C94.4834 183.049 94.5665 183.251 94.6012 183.463C94.6358 183.676 94.6212 183.894 94.5583 184.1C94.4953 184.306 94.3859 184.495 94.2382 184.653H94.2441Z" fill="black"/>
<path d="M93.6522 133.722C93.3577 134.308 92.9807 134.944 92.3446 135.126C91.4198 135.389 90.5304 134.563 90.1269 133.695C89.577 132.422 89.4733 131.002 89.8324 129.663C90.0003 128.986 90.2565 128.336 90.4008 127.656C90.505 127.084 90.568 126.505 90.5893 125.924C90.6763 125.057 90.6556 124.183 90.5275 123.322C90.0533 120.804 87.8769 118.926 87.1524 116.453C86.7873 115.219 86.8049 113.906 86.8255 112.619C86.8187 112.294 86.8523 111.969 86.9257 111.652C86.9476 111.566 86.9772 111.482 87.014 111.4C87.5 110.328 88.9401 110.181 89.9414 109.557C90.4951 109.214 91.7526 108.109 92.2179 109.118C92.3184 109.342 92.3935 109.577 92.4417 109.818C92.6332 110.715 92.5566 111.767 92.6037 112.614C92.7834 115.814 93.5844 119.008 93.2134 122.19C93.1249 122.733 93.0815 123.282 93.0838 123.831C93.1633 125.209 94.0291 126.401 94.4267 127.72C95.0393 129.704 94.5475 131.864 93.6522 133.722Z" fill="#FBBEBE"/>
<path opacity="0.1" d="M92.4575 109.826C92.2387 109.747 91.9989 109.747 91.7801 109.826L89.7863 110.412C89.0876 110.597 88.4067 110.843 87.7513 111.147C87.4652 111.287 87.1939 111.455 86.9414 111.649C86.9633 111.562 86.9929 111.478 87.0298 111.396C87.5157 110.324 88.9558 110.177 89.9571 109.553C90.5108 109.21 91.7684 108.106 92.2337 109.114C92.335 109.342 92.4101 109.581 92.4575 109.826Z" fill="black"/>
<path d="M92.5881 109.602C92.468 109.53 92.3325 109.486 92.1923 109.475C92.0522 109.463 91.9114 109.485 91.7812 109.538L89.7874 110.124C89.0887 110.309 88.4077 110.555 87.7523 110.859C87.4046 111.028 87.0791 111.238 86.7834 111.486C85.8528 109.878 85.6054 107.97 85.4346 106.124C85.3404 105.048 85.2697 103.97 85.2284 102.9C85.1822 102.13 85.198 101.358 85.2756 100.591C85.3875 99.7118 85.6437 98.8532 85.8027 97.9799C85.8974 97.4686 85.9584 96.9518 85.9853 96.4326C86.0617 95.2982 86.0093 94.1589 85.8292 93.0362C85.658 91.8428 85.3841 90.6663 85.0105 89.5196C84.822 88.9951 84.5953 88.4881 84.3891 87.9723L84.3184 87.7906C83.9461 86.8453 83.642 85.8749 83.4084 84.8865C83.3142 84.4821 83.3083 84.0572 82.9961 83.7817C83.2892 83.7466 83.5846 83.7349 83.8796 83.7466C83.9385 83.7466 83.9974 83.7466 84.0563 83.7466C85.2662 83.8223 86.4318 84.2278 87.4255 84.9188C88.7052 85.8376 89.6779 87.1179 90.2174 88.5936C90.8388 90.2434 90.9418 92.0369 91.0214 93.7981C91.1804 97.26 91.2786 100.724 91.3159 104.19C91.3159 104.855 91.3453 105.564 91.7282 106.112C91.8356 106.247 91.934 106.389 92.0227 106.537C92.1611 106.83 92.1405 107.155 92.2524 107.451C92.3346 107.629 92.428 107.801 92.5322 107.967C92.664 108.218 92.7375 108.495 92.7472 108.778C92.7569 109.061 92.7025 109.343 92.5881 109.602Z" fill="#464353"/>
<path d="M72.9851 75.2032C72.6906 75.1065 72.3961 75.0039 72.1016 74.9102L72.7141 74.957C72.8162 75.0252 72.9076 75.1082 72.9851 75.2032Z" fill="#FBBEBE"/>
<path d="M85.0418 85.7812C84.9829 85.9804 84.924 86.1797 84.8592 86.3673C84.7097 86.8488 84.5276 87.3197 84.3144 87.7768C83.9806 88.5278 83.5081 89.2097 82.9214 89.7871C82.7276 89.9901 82.4899 90.1465 82.2263 90.2443C82.0033 90.3011 81.7728 90.3228 81.5431 90.3087C80.7577 90.3087 79.9724 90.297 79.187 90.2736C78.5756 90.2803 77.9653 90.2204 77.367 90.0948C76.7084 89.9161 76.0823 89.6352 75.5116 89.2626C73.3117 87.9087 71.5034 85.8456 70.7288 83.4016C70.6317 83.091 70.5639 82.7188 70.7789 82.4756C70.9905 82.3038 71.257 82.2134 71.5299 82.2206H71.5652C72.1984 82.1386 72.8084 81.9303 73.3588 81.6082C73.7153 81.4266 74.0027 81.1345 74.1775 80.7759C74.2968 80.3509 74.2876 79.9004 74.151 79.4806L73.4972 76.5267C73.4291 76.0536 73.2506 75.603 72.9759 75.2109C73.1673 75.2783 73.3588 75.3399 73.5649 75.3926C75.385 75.882 77.3758 75.586 79.1605 76.2278C79.8438 76.4769 80.527 76.9253 80.7332 77.6227C81.0778 78.7949 79.9262 80.0111 80.2561 81.1832C80.477 81.9803 81.2927 82.4404 82.0231 82.8126L82.5149 83.0617L83.8785 83.7503L84.067 83.8441L84.0964 83.8588C84.5264 84.0756 84.98 84.3452 85.1302 84.8053C85.1942 85.1324 85.1636 85.4708 85.0418 85.7812Z" fill="#FBBEBE"/>
<path opacity="0.1" d="M88.6348 92.6606C88.5849 93.4097 88.4014 94.144 88.0929 94.8292C87.5016 96.0142 87.1846 97.3159 87.1652 98.6388C86.9384 102.595 85.4276 107.304 87.5922 110.627C87.6452 110.709 87.6982 110.791 87.7483 110.876C87.4005 111.045 87.075 111.255 86.7794 111.504C85.8487 109.895 85.6014 107.987 85.4305 106.141C85.3363 105.065 85.2656 103.987 85.2244 102.917C85.1782 102.148 85.1939 101.375 85.2715 100.608C85.3834 99.7289 85.6396 98.8703 85.7987 97.997C85.8934 97.4858 85.9544 96.9689 85.9813 96.4497C86.0576 95.3154 86.0053 94.176 85.8252 93.0533C85.654 91.86 85.38 90.6834 85.0065 89.5367C84.818 89.0122 84.5912 88.5052 84.3851 87.9895L84.3144 87.8078C83.9806 88.5587 83.5081 89.2406 82.9214 89.8181C82.7276 90.0211 82.4899 90.1774 82.2263 90.2752C82.0033 90.332 81.7728 90.3538 81.5431 90.3397C80.7577 90.3397 79.9724 90.328 79.187 90.3045C78.5756 90.3113 77.9653 90.2513 77.367 90.1258C76.7084 89.947 76.0823 89.6662 75.5116 89.2935C73.3117 87.9396 71.5034 85.8766 70.7288 83.4326C70.6317 83.1219 70.5639 82.7498 70.7789 82.5065C70.9905 82.3348 71.257 82.2443 71.5299 82.2516H71.5652L74.2158 85.5132C74.5198 85.8584 74.7772 86.2416 74.9815 86.6532C75.0211 86.7912 75.1035 86.9133 75.2171 87.0019C75.3093 87.0438 75.4106 87.0619 75.5116 87.0546C78.0002 87.0546 81.3163 87.0546 83.8049 87.0546C83.813 86.6159 83.6855 86.1852 83.4397 85.8209C83.3631 85.8385 83.26 85.8443 83.4191 85.7975C83.2752 84.8462 82.9663 83.927 82.5061 83.0809C82.4786 83.0227 82.4481 82.966 82.4148 82.9109C82.217 82.621 82.0697 82.3 81.9789 81.9615C82.2931 81.8618 82.6307 81.8618 82.9449 81.9615C83.3072 82.1168 83.4956 82.5065 83.6547 82.867C83.7902 83.16 83.9256 83.4736 84.0464 83.7813C84.0464 83.8135 84.0758 83.8487 84.0876 83.8809C84.3444 84.4873 84.5092 85.1282 84.5765 85.7828C84.5942 86.0231 84.6531 86.3279 84.8533 86.407C84.8848 86.4213 84.9188 86.4293 84.9534 86.4304C85.1608 86.3549 85.386 86.3424 85.6005 86.3946C85.815 86.4468 86.009 86.5613 86.158 86.7235C86.4477 87.0537 86.6501 87.4505 86.747 87.8781C86.8427 88.3056 86.9829 88.722 87.1652 89.1206C87.5451 89.8415 86.9649 90.1639 87.6511 90.6064C87.972 90.782 88.2481 91.0286 88.4581 91.3273C88.6522 91.7434 88.7138 92.2086 88.6348 92.6606Z" fill="black"/>
<path opacity="0.1" d="M71.5334 184.553C71.6718 185.227 71.8279 185.895 71.9928 186.564L71.9751 186.605C70.6293 186.019 69.251 185.406 67.7814 185.277C66.4178 185.16 64.9365 185.526 64.0088 186.511C63.9959 186.296 63.9673 186.083 63.9234 185.872C63.8341 185.631 63.8447 185.364 63.9528 185.131C64.371 184.372 65.3812 184.219 66.1587 184.161C67.9599 184.026 69.7713 184.158 71.5334 184.553Z" fill="black"/>
<path opacity="0.1" d="M83.132 86.3594C83.2704 86.3594 83.2204 86.3594 83.1526 86.3828C83.0849 86.4063 82.973 86.4062 83.132 86.3594Z" fill="black"/>
<path opacity="0.1" d="M89.5315 180.754C88.2181 181.586 86.9839 182.537 85.8443 183.593C85.5134 183.946 85.1187 184.233 84.681 184.44C84.2289 184.585 83.7513 184.634 83.2791 184.584C81.4264 184.509 79.5797 184.327 77.7483 184.039C77.6247 183.985 77.5192 183.897 77.4441 183.785C77.369 183.673 77.3274 183.543 77.3242 183.409C77.3478 183.036 77.7365 182.823 78.0782 182.661C81.1086 181.357 84.4012 180.792 87.6702 180.337C88.0027 180.282 88.3265 180.184 88.6332 180.044C89.0014 179.898 89.0396 180.138 89.2222 180.408C89.3131 180.533 89.4168 180.649 89.5315 180.754Z" fill="black"/>
<path d="M67.9226 82.9592C68.3555 83.3431 68.8503 83.6538 69.2891 84.0259C70.4671 85.0194 71.2093 86.4084 71.9397 87.7623C71.5066 87.9181 71.0381 87.9495 70.5879 87.8531C70.3563 89.1532 70.3954 90.4867 70.7027 91.7712C70.1135 92.1735 69.6557 92.739 69.3863 93.3976C69.1769 94.066 69.0329 94.753 68.9563 95.4489C68.5322 98.4986 68.1062 101.548 67.6782 104.598C67.6696 104.896 67.5665 105.185 67.3837 105.421C67.3019 105.487 67.227 105.561 67.1599 105.641C67.0697 105.838 67.0341 106.056 67.0568 106.271C67.0391 106.485 66.8977 106.74 66.6828 106.711C66.5783 106.686 66.4857 106.626 66.4206 106.541C66.2056 106.314 66.0087 106.071 65.8316 105.814C64.0941 109.131 63.2577 112.706 62.3388 116.334C61.6821 118.919 61.0253 121.533 60.9929 124.2C61.0018 125.461 61.0814 126.721 61.2315 127.974L61.4906 130.547C61.6997 132.616 61.9088 134.688 62.1356 136.757C62.2828 138.07 62.4301 139.394 62.9043 140.631C63.6111 142.509 62.8277 144.628 63.1281 146.615C63.3637 148.171 63.8319 149.78 63.3607 151.28C63.1723 151.881 62.8424 152.429 62.595 153.009C61.9883 154.451 61.9265 156.054 61.8735 157.616C61.7781 158.985 61.8294 160.36 62.0266 161.719C62.2799 163.122 62.8483 164.497 62.7364 165.915C62.5803 167.934 61.0842 169.66 60.9016 171.676C60.7573 173.285 61.4671 174.838 62.2298 176.265C62.7923 177.318 62.009 178.677 61.7115 179.835C61.1225 182.103 62.1032 184.477 63.3048 186.49C63.3354 186.559 63.3897 186.615 63.4579 186.648C63.5963 186.698 63.72 186.563 63.8113 186.449C64.7155 185.294 66.3176 184.858 67.7871 184.984C69.2567 185.11 70.6321 185.713 71.9809 186.311L73.8922 182.077C74.2162 181.359 74.546 180.582 74.3841 179.811C74.2692 179.26 73.9129 178.795 73.6596 178.29C73.0706 177.101 73.0411 175.715 73.0352 174.381L72.9999 166.85C74.4901 164.986 75.4001 162.771 75.9744 160.456C76.8554 163.712 76.9161 167.134 76.1511 170.419C76.0095 170.916 75.911 171.424 75.8566 171.937C75.7417 174.027 77.388 175.794 77.8268 177.839C77.8694 177.996 77.8813 178.159 77.8622 178.32C77.8128 178.518 77.7301 178.706 77.6177 178.877C76.8285 180.301 76.9139 182.027 77.0287 183.65C79.094 184.008 81.1806 184.23 83.2752 184.316C83.7474 184.362 84.2243 184.314 84.677 184.172C85.1149 183.964 85.5095 183.675 85.8403 183.322C87.1775 182.071 88.6457 180.965 90.2196 180.025C89.3407 178.574 88.1105 177.365 86.6414 176.509C87.1155 175.814 88.1964 175.87 88.8266 175.313C89.1431 175.002 89.3497 174.597 89.4156 174.158C89.6512 173.01 89.3597 171.814 89.0681 170.686C88.5026 168.465 87.9343 166.235 87.0066 164.136C86.587 163.274 86.2173 162.388 85.8992 161.484C85.1276 158.958 85.6666 156.209 85.0834 153.628C84.895 152.801 84.5916 151.948 84.8037 151.125C85.1276 149.856 86.5707 149.103 86.8888 147.831C88.0285 143.304 88.2317 138.612 88.8796 133.99C89.0245 133.108 89.1023 132.215 89.1123 131.321C89.1123 130.386 88.9444 129.46 88.8767 128.528C88.6116 124.798 89.8102 121.076 89.504 117.348C89.3078 115.051 88.5473 112.837 87.2893 110.901C85.1247 107.575 86.6355 102.869 86.8622 98.9127C86.8793 97.5899 87.1954 96.2878 87.787 95.1031C88.0981 94.4187 88.2826 93.6841 88.3318 92.9346C88.4227 92.4725 88.365 91.9937 88.1669 91.566C87.9597 91.2661 87.6842 91.0191 87.3629 90.8451C86.6767 90.3997 87.2569 90.0774 86.877 89.3565C86.6942 88.958 86.5541 88.5415 86.4588 88.1139C86.3624 87.687 86.1599 87.291 85.8698 86.9623C85.7208 86.8001 85.5268 86.6856 85.3123 86.6334C85.0978 86.5812 84.8726 86.5937 84.6652 86.6692C84.3855 86.6692 84.3089 86.3 84.2853 86.0216C84.2058 85.0018 83.7817 84.0435 83.3665 83.1058C83.2074 82.7453 83.019 82.3556 82.6567 82.2002C82.3413 82.1021 82.0032 82.1021 81.6878 82.2002C81.779 82.5401 81.9273 82.8621 82.1266 83.1526C82.6371 84.0438 82.9766 85.0216 83.1279 86.0362C82.8334 86.1241 83.4224 86.0362 83.1279 86.0362C83.3916 86.4018 83.5272 86.8436 83.5137 87.2934C81.0281 87.2934 77.712 87.2934 75.2234 87.2934C75.1223 87.3013 75.0209 87.2832 74.9289 87.2407C74.8154 87.1514 74.7321 87.0297 74.6904 86.8919C74.4878 86.4803 74.2303 86.0978 73.9246 85.7549L71.009 82.1768C70.9443 82.0833 70.8586 82.006 70.7587 81.9511C70.6383 81.9173 70.5109 81.9173 70.3906 81.9511C69.4452 82.0889 68.7472 82.4816 67.9226 82.9592Z" fill="#06D6A0"/>
<path opacity="0.1" d="M78.3889 131.442C78.8916 131.435 79.3869 131.562 79.8232 131.811C80.0397 131.938 80.2193 132.118 80.3443 132.335C80.4692 132.552 80.5353 132.798 80.5359 133.048C80.5035 133.601 80.0764 134.041 79.7672 134.513C79.5758 134.8 79.4233 135.112 79.3137 135.439C79.2799 135.513 79.2716 135.597 79.2901 135.676C79.3255 135.788 79.4462 135.843 79.5493 135.893C79.924 136.062 80.244 136.331 80.4734 136.67C80.7028 137.01 80.8326 137.407 80.848 137.815C80.8215 138.958 79.6995 139.884 79.7613 141.039C79.7894 141.279 79.8307 141.518 79.885 141.754C80.0197 142.738 79.8823 143.74 79.4874 144.652C79.1311 145.572 78.6451 146.437 78.2623 147.348C77.2286 149.825 77.0048 152.567 77.0843 155.261C77.1461 157.089 76.4953 158.83 75.9062 160.571C76.2391 157.064 76.3277 153.539 76.1713 150.021C76.1301 149.066 76.0093 148.163 76.0535 147.205C76.1242 145.684 76.9783 144.301 77.1962 142.809C77.3199 141.956 77.2374 141.089 77.258 140.227C77.2993 138.469 77.7793 136.734 77.8117 134.97C77.8529 133.725 77.7381 132.441 78.3889 131.442Z" fill="black"/>
<path d="M66.097 83.5842C65.5115 83.8746 64.9637 84.2348 64.4655 84.6568C63.9449 85.1714 63.5095 85.7649 63.1755 86.4151C62.7688 87.1521 62.4041 87.9113 62.0829 88.6891C61.6677 89.6972 61.3231 90.8137 61.6088 91.8657C61.8679 92.8181 62.6013 93.5595 63.1078 94.4065C63.6144 95.2534 63.9118 96.2468 64.3006 97.1758C64.8189 98.4153 65.5287 99.57 66.0411 100.812C66.5535 102.055 66.8628 103.45 66.5388 104.742C66.4446 105.123 65.8232 105.419 65.8232 105.809C65.8232 106.454 66.7597 107.154 67.3811 107.342C68.0967 107.561 68.8772 107.233 69.4632 106.755C70.5382 105.909 71.192 104.64 71.675 103.362C72.4525 101.311 72.8677 99.1333 73.2417 96.9706C73.5127 95.3823 73.766 93.7911 73.9103 92.191C74.0428 90.7492 74.084 89.2605 73.7012 87.8774C73.3439 86.6078 72.649 85.4577 71.6897 84.5483C70.924 83.8157 69.6694 82.8311 68.5562 82.8047C67.6756 82.8018 66.851 83.171 66.097 83.5842Z" fill="#464353"/>
<path d="M74.4706 118.911C74.4386 119.111 74.3634 119.302 74.25 119.47C74.1366 119.639 73.9878 119.781 73.8138 119.886C73.4663 120.097 73.0876 120.251 72.6918 120.344C71.9025 120.572 71.0661 120.783 70.268 120.581C69.6408 120.378 69.0616 120.05 68.5658 119.617L59.6482 112.824C58.9318 112.319 58.2731 111.737 57.6838 111.089C57.3455 110.671 57.0347 110.231 56.7532 109.773C56.3805 109.249 56.0887 108.672 55.8873 108.062C55.8154 107.793 55.7798 107.516 55.7813 107.238C55.7789 106.976 55.8438 106.716 55.9698 106.485C56.1848 106.128 56.6442 106.055 57.0212 105.955C58.2864 105.629 59.5997 105.53 60.8998 105.662C61.014 105.656 61.1269 105.688 61.2215 105.752C61.316 105.816 61.3871 105.909 61.424 106.016C61.6213 106.377 61.7922 106.752 61.9689 107.127C62.2401 107.767 62.5935 108.369 63.0202 108.918C63.4314 109.362 63.8691 109.782 64.3308 110.175C65.2732 111.054 66.0448 112.109 67.0491 112.918C68.2124 113.853 69.626 114.412 70.9513 115.101C72.2765 115.79 73.5841 116.683 74.2497 118.017C74.4041 118.289 74.4805 118.598 74.4706 118.911Z" fill="#FBBEBE"/>
<path opacity="0.1" d="M84.7949 71.5202C84.7952 73.3703 84.0852 75.1507 82.8101 76.4973C81.535 77.8439 79.7912 78.655 77.935 78.7646C76.0789 78.8742 74.2509 78.2742 72.8246 77.0872C71.3984 75.9002 70.4817 74.2159 70.262 72.3787C70.0424 70.5414 70.5363 68.6901 71.6429 67.2033C72.7495 65.7165 74.3851 64.7064 76.2152 64.3797C78.0454 64.053 79.9318 64.4342 81.4888 65.4456C83.0458 66.4569 84.1558 68.0219 84.5917 69.8205C84.7268 70.377 84.795 70.9476 84.7949 71.5202Z" fill="black"/>
<path d="M84.7949 71.2272C84.7952 73.0774 84.0852 74.8578 82.8101 76.2044C81.535 77.5509 79.7912 78.362 77.935 78.4716C76.0789 78.5813 74.2509 77.9812 72.8246 76.7942C71.3984 75.6072 70.4817 73.9229 70.262 72.0857C70.0424 70.2485 70.5363 68.3972 71.6429 66.9103C72.7495 65.4235 74.3851 64.4134 76.2152 64.0867C78.0454 63.76 79.9318 64.1413 81.4888 65.1526C83.0458 66.1639 84.1558 67.7289 84.5917 69.5275C84.7268 70.0841 84.795 70.6546 84.7949 71.2272Z" fill="#FBBEBE"/>
<path opacity="0.1" d="M61.9689 107.115C61.6331 107.329 61.1354 107.259 60.7202 107.165C59.0827 106.802 57.2745 106.541 55.7813 107.238C55.7789 106.976 55.8438 106.716 55.9698 106.485C56.1848 106.128 56.6442 106.055 57.0212 105.955C58.2864 105.629 59.5997 105.53 60.8998 105.662C61.014 105.656 61.1269 105.688 61.2215 105.752C61.316 105.816 61.3871 105.909 61.424 106.016C61.6214 106.365 61.7922 106.74 61.9689 107.115Z" fill="black"/>
<path d="M58.8901 97.2524C58.5279 98.4246 58.2304 99.629 57.5207 100.622C57.286 100.884 57.1094 101.191 57.0023 101.525C56.9943 101.771 56.9537 102.016 56.8816 102.252C56.7815 102.451 56.5694 102.583 56.484 102.788C56.3574 103.081 56.5223 103.459 56.3544 103.735C56.2758 103.845 56.1816 103.944 56.0747 104.028C55.6741 104.397 55.574 104.986 55.5652 105.531C55.5563 106.076 55.6093 106.633 55.4297 107.146C56.9847 106.223 58.9637 106.498 60.7308 106.891C61.2226 106.999 61.8322 107.081 62.1503 106.688C62.4684 106.296 62.2858 105.78 62.3299 105.308C62.3888 104.693 62.8129 104.183 63.075 103.623C63.3695 102.993 63.4697 102.29 63.6964 101.633C64.1647 100.253 65.169 99.1279 65.8139 97.8238C66.0527 97.3753 66.1951 96.8823 66.2321 96.3761C66.2099 95.7201 66.0377 95.0777 65.7285 94.4977C65.1156 93.1472 64.3865 91.852 63.5492 90.6266C63.1752 90.0786 62.5302 89.0646 61.95 89.9408C61.4788 90.6471 61.1843 91.5467 60.8368 92.3204C60.0879 93.9235 59.4378 95.5706 58.8901 97.2524Z" fill="#464353"/>
<path d="M85.4647 85.8731C84.5805 85.9338 83.6937 85.7971 82.8693 85.4731C82.0449 85.1492 81.3036 84.646 80.6996 84.0006C80.5979 83.9084 80.5244 83.7896 80.4876 83.6577C80.4708 83.4863 80.5191 83.3148 80.6231 83.1771C80.9765 82.635 81.5861 82.2774 81.8688 81.6943C82.1515 81.1111 82.0544 80.44 82.0809 79.8012C82.128 78.6554 82.5815 77.5213 82.6198 76.3931C82.6334 76.1043 82.6117 75.815 82.555 75.5315C82.4195 75.1105 82.3364 74.6745 82.3076 74.2333C82.3459 73.3747 83.1234 72.7065 83.253 71.8596C83.4209 70.7812 82.5226 69.8435 81.6185 69.2222C80.929 68.7464 80.1807 68.3613 79.392 68.0764C78.9076 67.9037 78.4061 67.7829 77.8959 67.7159C76.9449 67.5881 75.9768 67.6958 75.0775 68.0295C74.7053 68.1692 74.3529 68.3564 74.0291 68.5863C73.8362 68.7077 73.6756 68.8735 73.5608 69.0698C73.4664 69.2908 73.4241 69.5304 73.4371 69.7702C73.4195 70.9688 73.5549 72.2435 72.9807 73.2868C72.6861 73.8465 72.1855 74.3007 71.941 74.8927C71.841 75.139 71.7785 75.3987 71.7555 75.6634C71.726 75.9379 71.7113 76.2137 71.7113 76.4898C71.6937 78.0341 71.7113 79.6635 72.5006 81.0027C72.7791 81.4076 73.0319 81.8294 73.2575 82.2657C73.3669 82.4864 73.4175 82.7314 73.4046 82.9771C73.3918 83.2229 73.3157 83.4612 73.1839 83.6694C73.0244 83.8594 72.8228 84.0099 72.5948 84.109C72.0101 84.3882 71.3738 84.5443 70.7256 84.5675C70.0775 84.5907 69.4315 84.4805 68.8281 84.2438C69.5337 83.5785 70.0184 82.7147 70.2173 81.7679C70.4163 80.8211 70.32 79.8364 69.9414 78.9455C69.7286 78.5857 69.5904 78.1871 69.5349 77.7733C69.5645 77.4006 69.6644 77.0367 69.8294 76.7008C70.2331 75.5996 70.2957 74.4032 70.0091 73.2663C69.8294 72.5688 69.5173 71.8948 69.4613 71.1768C69.4146 70.6349 69.4383 70.0892 69.532 69.5533C69.6934 68.5946 70.1179 67.6988 70.7587 66.965C71.3995 66.2312 72.2317 65.6879 73.1632 65.395C73.3134 65.3452 73.4577 65.2983 73.6227 65.2573C74.3372 65.0994 75.0672 65.0218 75.7991 65.0258C77.4336 64.973 79.0916 64.9261 80.6672 65.351C81.5923 65.5921 82.4529 66.0322 83.1882 66.6405C83.7102 67.0771 84.1269 67.6249 84.4074 68.2434C84.5607 68.5997 84.6762 68.971 84.752 69.3511C84.8198 69.6647 84.8698 69.9812 84.9199 70.2977C85.2762 72.5512 85.6326 74.8487 85.2527 77.0993C85.1025 77.9784 84.8404 78.8576 84.7226 79.7543C84.4369 81.8203 84.9523 83.8746 85.4647 85.8731Z" fill="#464353"/>
<path d="M75.0048 88.7698C75.3073 88.7698 75.5526 88.5258 75.5526 88.2248C75.5526 87.9237 75.3073 87.6797 75.0048 87.6797C74.7023 87.6797 74.457 87.9237 74.457 88.2248C74.457 88.5258 74.7023 88.7698 75.0048 88.7698Z" fill="white"/>
<path d="M84.247 88.512C84.5495 88.512 84.7948 88.268 84.7948 87.9669C84.7948 87.6659 84.5495 87.4219 84.247 87.4219C83.9445 87.4219 83.6992 87.6659 83.6992 87.9669C83.6992 88.268 83.9445 88.512 84.247 88.512Z" fill="white"/>
<path opacity="0.1" d="M75.0022 60.6788L73.8242 58.4663C73.8989 58.3778 73.9806 58.2955 74.0687 58.2201C74.2388 58.1158 74.438 58.0686 74.6371 58.0853L75.0022 60.6788Z" fill="black"/>
<path opacity="0.1" d="M78.2502 57.9828L76.9161 59.9462L76.1562 57.7923C76.4805 57.6537 76.8314 57.5877 77.1841 57.5989C77.5585 57.6669 77.9188 57.7966 78.2502 57.9828Z" fill="black"/>
<g opacity="0.1">
<path opacity="0.1" d="M73.1839 83.088C73.0244 83.278 72.8228 83.4284 72.5948 83.5276C71.5505 84.0248 70.3591 84.1238 69.2463 83.806C69.117 83.9626 68.9772 84.1104 68.8281 84.2485C69.4315 84.4851 70.0775 84.5953 70.7256 84.5721C71.3738 84.5489 72.0101 84.3929 72.5948 84.1137C72.8228 84.0145 73.0244 83.8641 73.1839 83.6741C73.2852 83.5278 73.3543 83.3619 73.3868 83.1871C73.4193 83.0124 73.4144 82.8328 73.3723 82.6602C73.3429 82.8151 73.2785 82.9614 73.1839 83.088Z" fill="black"/>
<path opacity="0.1" d="M69.9883 73.2752C70.0845 73.6592 70.1408 74.052 70.1562 74.4474C70.1901 73.8562 70.1335 73.2633 69.9883 72.6891C69.8087 71.9917 69.4965 71.3176 69.4406 70.5997C69.4406 70.5088 69.4406 70.418 69.4258 70.3242C69.4117 70.6114 69.4166 70.8992 69.4406 71.1858C69.4965 71.9037 69.8087 72.5777 69.9883 73.2752Z" fill="black"/>
<path opacity="0.1" d="M85.2316 77.1061C85.3566 76.3311 85.4098 75.5464 85.3906 74.7617C85.3803 75.3509 85.3271 75.9385 85.2316 76.52C85.0814 77.3991 84.8192 78.2783 84.7014 79.175C84.6407 79.656 84.618 80.141 84.6337 80.6256C84.6418 80.3365 84.6644 80.048 84.7014 79.7611C84.8192 78.8644 85.0814 77.994 85.2316 77.1061Z" fill="black"/>
<path opacity="0.1" d="M69.93 78.3665C69.7757 78.0779 69.6514 77.7745 69.5589 77.4609C69.5339 77.5665 69.522 77.6748 69.5236 77.7833C69.579 78.1971 69.7172 78.5957 69.93 78.9555C70.1462 79.4467 70.2709 79.973 70.2981 80.5086C70.3514 79.7754 70.2251 79.0403 69.93 78.3665Z" fill="black"/>
<path opacity="0.1" d="M82.557 75.5209C82.5829 75.6546 82.6015 75.7896 82.613 75.9253C82.613 75.8814 82.613 75.8403 82.613 75.7964C82.6266 75.5076 82.6048 75.2183 82.5482 74.9348C82.4834 74.6271 82.3774 74.3223 82.3273 74.0117C82.3127 74.0812 82.3038 74.1518 82.3008 74.2227C82.3324 74.6643 82.4185 75.1003 82.557 75.5209Z" fill="black"/>
<path opacity="0.1" d="M80.7011 83.4034C80.6558 83.3563 80.6135 83.3063 80.5745 83.2539C80.502 83.3713 80.4719 83.5098 80.4891 83.6466C80.5259 83.7785 80.5994 83.8973 80.7011 83.9895C81.3052 84.635 82.0464 85.138 82.8708 85.462C83.6952 85.786 84.582 85.9227 85.4662 85.862C85.4162 85.6686 85.3661 85.4781 85.319 85.2759C84.4589 85.3153 83.6005 85.1682 82.8031 84.8449C82.0058 84.5216 81.2886 84.0297 80.7011 83.4034Z" fill="black"/>
<path opacity="0.1" d="M83.2478 71.3024C83.2465 71.2917 83.2465 71.2809 83.2478 71.2702C83.4157 70.1917 82.5175 69.254 81.6133 68.6327C80.9239 68.157 80.1755 67.7718 79.3869 67.4869C78.9025 67.3143 78.4009 67.1934 77.8908 67.1265C76.9397 66.9986 75.9716 67.1063 75.0724 67.44C74.7002 67.5798 74.3478 67.7669 74.0239 67.9968C73.8311 68.1182 73.6704 68.284 73.5557 68.4803C73.4613 68.7013 73.419 68.9409 73.432 69.1807C73.432 69.3829 73.432 69.5851 73.432 69.7903V69.7668C73.419 69.527 73.4613 69.2874 73.5557 69.0664C73.6704 68.8701 73.8311 68.7043 74.0239 68.5829C74.3478 68.353 74.7002 68.1659 75.0724 68.0261C75.9716 67.6924 76.9397 67.5847 77.8908 67.7126C78.4009 67.7795 78.9025 67.9004 79.3869 68.073C80.1755 68.3579 80.9239 68.743 81.6133 69.2188C82.3643 69.7229 83.1035 70.4496 83.2478 71.3024Z" fill="black"/>
<path opacity="0.1" d="M72.9803 72.7077C72.6858 73.2674 72.1851 73.7216 71.9407 74.3136C71.8406 74.5598 71.7781 74.8196 71.7551 75.0843C71.7256 75.3588 71.7109 75.6346 71.7109 75.9107C71.7109 76.1598 71.7109 76.4118 71.7109 76.6638C71.7109 76.6081 71.7109 76.5524 71.7109 76.4968C71.7109 76.2207 71.7256 75.9449 71.7551 75.6704C71.7781 75.4057 71.8406 75.1459 71.9407 74.8996C72.1851 74.3136 72.674 73.8535 72.9803 73.2938C73.4544 72.4146 73.4456 71.4036 73.4367 70.3984C73.4759 71.1937 73.3192 71.9864 72.9803 72.7077Z" fill="black"/>
</g>
<path opacity="0.1" d="M84.7318 69.3748C84.6912 69.4322 84.6437 69.4844 84.5904 69.5301C84.4865 69.6152 84.3703 69.6844 84.2458 69.7353C83.3888 70.1045 83.4241 68.9001 82.9765 68.4869C82.6894 68.2762 82.3371 68.1725 81.9811 68.1939C81.1192 68.1509 80.2563 68.1128 79.3924 68.0796C77.9522 68.0268 76.5151 68.0004 75.0779 68.0327C74.3887 68.0444 73.7015 68.0727 73.0163 68.1177C72.2212 68.1704 71.3671 68.273 70.6897 68.6481C70.4579 68.775 70.248 68.9383 70.0683 69.1316C69.9064 69.3074 69.7355 69.5301 69.5117 69.5712C69.6731 68.6124 70.0977 67.7167 70.7385 66.9828C71.3793 66.249 72.2114 65.7057 73.143 65.4128C74.6511 64.295 76.5351 63.8005 78.4012 64.0326C80.2672 64.2647 81.9709 65.2055 83.1561 66.6583C83.6781 67.0949 84.0948 67.6428 84.3754 68.2612C84.5331 68.619 84.6526 68.9922 84.7318 69.3748Z" fill="black"/>
<path d="M84.2436 69.1459C83.3866 69.5152 83.4219 68.3107 82.9743 67.8975C82.6872 67.6868 82.3349 67.5831 81.9789 67.6045C78.9945 67.4092 76.0014 67.3837 73.0141 67.5283C71.951 67.5986 70.7847 67.7569 70.0691 68.5422C69.8865 68.7415 69.695 68.9994 69.4212 68.9906C69.3299 68.4045 69.2651 67.795 69.2209 67.1942C69.1942 66.9692 69.2061 66.7413 69.2562 66.5202C69.3299 66.2682 69.4977 66.0543 69.5831 65.8081C69.6672 65.495 69.6971 65.17 69.6715 64.8469C69.6844 63.6513 70.0073 62.4793 70.6089 61.4443C71.2105 60.4093 72.0704 59.5464 73.1054 58.9391C73.3652 58.8127 73.6061 58.6509 73.8211 58.4585C73.8957 58.37 73.9775 58.2877 74.0655 58.2123C74.2356 58.108 74.4348 58.0608 74.6339 58.0775C74.7753 58.0775 74.9284 58.0775 75.0521 58.0775C75.433 58.0358 75.8053 57.937 76.1565 57.7845C76.4807 57.6459 76.8316 57.5799 77.1843 57.5911C77.5587 57.6591 77.919 57.7888 78.2504 57.975C78.4097 58.0513 78.5765 58.1112 78.7481 58.1537C79.0161 58.2153 79.293 58.2123 79.561 58.2651C79.9951 58.375 80.4073 58.5573 80.7802 58.8043C81.2253 59.0431 81.6371 59.3386 82.0054 59.6834C82.4058 60.1387 82.7263 60.6578 82.9537 61.219C83.3437 61.9942 83.6403 62.8126 83.8372 63.6571C84.0757 64.8704 83.9579 66.1832 84.5234 67.2851C84.868 67.9767 85.1831 68.7444 84.2436 69.1459Z" fill="#FED253"/>
<path opacity="0.1" d="M69.3164 68.2267C69.3164 68.2267 75.4215 62.6997 84.5129 67.283C84.5129 67.283 74.2494 64.9592 69.3164 68.2267Z" fill="black"/>
<path d="M2.7957 96.4684C1.9652 95.1146 0.716496 93.875 0.91087 92.3394C3.19623 92.6002 5.36379 92.0464 7.45772 91.0822C9.55165 90.1181 11.4954 88.8668 13.4568 87.6389C14.2284 87.1554 14.9971 86.6807 15.7628 86.2411C16.9761 85.5495 18.1807 84.7759 19.4146 84.0989C21.1817 83.1319 22.984 82.3406 24.969 82.1883C25.3285 82.1603 25.6893 82.1515 26.0498 82.1619C28.4942 82.2088 31.027 82.8623 33.1769 81.7721L33.3094 81.7018C34.5286 81.0366 35.4151 79.9054 36.4606 78.9882C37.2122 78.3413 38.0306 77.7755 38.902 77.3002C40.4894 76.4211 42.2093 75.7178 43.8321 74.8885C44.2474 74.6756 44.6418 74.4244 45.0101 74.1383L45.2869 73.9185L45.3488 73.8657C45.4165 73.81 45.4842 73.7544 45.549 73.6957L45.6757 73.5844L45.8052 73.4672L45.9054 73.3734L46.0673 73.221L46.085 73.2005L46.3412 72.9485L46.4443 72.8459L46.624 72.6613L46.73 72.5558C46.9096 72.3712 47.0893 72.1836 47.2719 72.0019C47.4545 71.8202 47.7019 71.5741 47.9227 71.3719L48.1348 71.1843L48.1966 71.1316L48.3674 70.9909L48.447 70.9235L48.6148 70.7946L48.6973 70.7301C48.7797 70.6686 48.8651 70.61 48.9506 70.5513C49.0291 70.4972 49.1119 70.4492 49.1979 70.4078L48.6472 69.0803L50.2317 68.4297L72.0839 121.193L70.4966 121.843L57.9978 91.6595L57.9094 91.7475C55.014 94.5904 51.4675 96.6903 47.5752 97.8663H47.5517C45.3753 98.5198 42.9397 98.9828 41.1079 100.196C40.4583 100.616 39.8939 101.154 39.4439 101.781C39.014 102.391 38.7136 103.085 38.2659 103.672C38.1805 103.78 38.0863 103.885 37.992 103.985C37.4564 104.513 36.8638 104.981 36.225 105.38L35.9452 105.57C34.0477 106.899 32.0709 108.111 30.0257 109.201C28.8454 109.813 27.6148 110.322 26.3473 110.725C25.4255 111.018 24.4742 111.232 23.5524 111.522C22.9324 111.709 22.3302 111.95 21.753 112.243C20.1921 113.055 18.9935 114.327 17.8596 115.684C16.8672 116.873 15.9247 118.133 14.8351 119.218C14.1518 119.892 13.1122 120.531 12.2876 120.135L12.1197 120.038C12.1462 119.994 12.1669 119.95 12.1904 119.903C12.8413 118.547 12.0402 116.87 10.9623 115.783C10.8504 115.669 10.7356 115.558 10.6178 115.452C10.5 115.347 10.2879 115.159 10.12 115.012C9.19825 114.224 8.21754 113.492 7.57847 112.475C7.09069 111.621 6.75961 110.687 6.60071 109.717C6.3062 108.337 6.10889 106.916 5.35495 105.74C4.86018 104.964 4.12392 104.302 3.58792 103.557C3.2491 103.117 3.02638 102.599 2.94001 102.051C2.81926 101.099 3.26397 100.167 3.43183 99.2172C3.48177 98.9586 3.50252 98.6951 3.49368 98.4319C3.43216 97.7291 3.19197 97.0534 2.7957 96.4684Z" fill="url(#paint0_linear)"/>
<path d="M69.9398 121.39L71.5 120.75L50.0119 68.8739L48.4517 69.5138L69.9398 121.39Z" fill="#D6D8E1"/>
<path d="M5.88162 105.555C6.62083 106.712 6.81815 108.107 7.10382 109.464C7.26227 110.418 7.58825 111.336 8.06685 112.177C8.69709 113.177 9.66013 113.898 10.5643 114.671C10.7292 114.815 10.8941 114.964 11.0531 115.105C11.168 115.208 11.2828 115.319 11.3918 115.427C12.452 116.497 13.2384 118.147 12.5993 119.48C12.5797 119.526 12.557 119.57 12.5316 119.612C12.5833 119.647 12.6374 119.678 12.6935 119.706C13.5064 120.099 14.5283 119.471 15.1998 118.806C16.2718 117.74 17.1995 116.503 18.1743 115.334C19.2875 113.997 20.4685 112.746 22.0028 111.949C22.5693 111.66 23.1607 111.423 23.7699 111.24C24.674 110.947 25.6105 110.739 26.5176 110.457C27.7635 110.061 28.9733 109.56 30.1341 108.96C32.1484 107.887 34.0957 106.694 35.9653 105.388L36.2422 105.2C36.87 104.809 37.4527 104.35 37.9797 103.832C38.074 103.732 38.1653 103.629 38.2507 103.521C38.7042 102.935 39.0017 102.264 39.4287 101.663C39.8716 101.046 40.427 100.517 41.0662 100.104C42.8685 98.9112 45.2599 98.4541 47.401 97.8123H47.4245C51.2505 96.6542 54.737 94.5897 57.5849 91.796C57.821 91.5998 57.9974 91.3421 58.0944 91.0517C58.1857 90.6385 57.9619 90.2282 57.7469 89.8649C57.4966 89.437 57.2522 89.0092 57.0107 88.5755C55.9246 86.6085 54.955 84.5801 54.1068 82.5006C53.9213 82.0434 53.7417 81.5892 53.5679 81.1291C53.1222 79.9569 52.7158 78.7681 52.3486 77.5627C52.2279 77.1642 52.1101 76.7627 51.9982 76.3612C51.9776 76.285 51.954 76.203 51.9334 76.1151C51.4445 74.1605 50.7907 69.586 48.7763 70.9545C48.1772 71.3807 47.6201 71.8625 47.1123 72.3934C46.7207 72.789 46.3378 73.1963 45.9343 73.589C45.6057 73.9106 45.2586 74.213 44.8947 74.4945C44.5255 74.7759 44.1312 75.0231 43.7167 75.233C42.1175 76.0477 40.4271 76.7305 38.8691 77.6038C38.0112 78.0702 37.2056 78.6263 36.466 79.2624C35.4382 80.165 34.5664 81.2786 33.3678 81.9321L33.2382 82.0024C31.1237 83.072 28.6351 82.4302 26.229 82.3834C25.8754 82.3745 25.5215 82.3833 25.1688 82.4097C23.2162 82.5563 21.4315 83.3358 19.7057 84.2882C18.4923 84.9563 17.3084 85.7124 16.1157 86.3952C15.3617 86.826 14.6078 87.2919 13.848 87.7696C11.9219 88.9769 9.96936 90.2429 7.95789 91.1572C5.89635 92.0891 3.76708 92.6459 1.52 92.3909C1.32858 93.9001 2.55372 95.1192 3.37244 96.4496C3.76567 97.0215 4.00404 97.6846 4.06453 98.375C4.07535 98.6331 4.05658 98.8917 4.00857 99.1457C3.84365 100.08 3.41956 100.995 3.52558 101.935C3.60915 102.472 3.82689 102.979 4.15877 103.41C4.67121 104.139 5.39275 104.793 5.88162 105.555Z" fill="#F86D70"/>
<path d="M65.7591 111.66C65.7591 111.66 68.3389 113.899 70.9541 115.092C73.5693 116.284 71.8376 120.563 71.8376 120.563C71.8376 120.563 69.0664 121.196 67.1256 118.512C65.1848 115.827 65.7591 111.66 65.7591 111.66Z" fill="#FBBEBE"/>
<path d="M204.775 149.77C204.775 149.77 197.943 158.717 192.274 158.79C186.604 158.864 183.277 162.559 185.968 164.868C188.66 167.178 217.993 163.55 217.993 163.55C217.993 163.55 218.27 152.554 215.728 150.949C213.186 149.343 204.775 149.77 204.775 149.77Z" fill="#444176"/>
<path d="M278.237 160.51C278.237 160.51 279.282 167.596 276.051 172.429C272.821 177.261 281.888 179.125 281.888 179.125C281.888 179.125 288.477 180.95 288.957 174.474C289.437 167.998 289.281 163.045 288.662 162.518C288.044 161.99 287.528 158.348 287.528 158.348L278.237 160.51Z" fill="#444176"/>
<path d="M174.809 173.895C174.809 173.895 174.57 150.976 197.362 141.66L202.654 131.641L205.193 125.487C206.112 123.258 207.558 121.283 209.409 119.729C211.259 118.175 213.459 117.088 215.821 116.561L219.927 115.643L221.196 110.322C221.872 107.477 223.371 104.892 225.507 102.885C227.643 100.878 230.322 99.5367 233.215 99.0275C235.711 98.5664 238.245 98.331 240.784 98.3242C241.907 98.3411 243.007 98.6467 243.977 99.2116C244.946 99.7764 245.753 100.581 246.318 101.548C246.318 101.548 267.911 101.31 268.868 113.009C268.868 113.009 271.029 123.749 274.148 125.66C274.148 125.66 279.426 124.467 284.703 132.107L290.461 151.682C290.461 151.682 305.575 165.766 301.016 178.643C301.016 178.643 294.778 187.475 263.11 181.506C263.11 181.506 229.283 191.762 211.277 177.696C211.274 177.714 181.288 183.443 174.809 173.895Z" fill="#A8A8A8"/>
<path opacity="0.1" d="M189.922 170.313C189.922 170.313 194.722 163.629 194.481 158.852C194.239 154.075 195.612 142.441 195.612 142.441" stroke="black" stroke-miterlimit="10"/>
<path opacity="0.1" d="M207.438 152.408C207.438 152.408 212.235 143.575 211.755 138.801C211.755 138.801 216.794 129.717 220.631 130.444" stroke="black" stroke-miterlimit="10"/>
<path opacity="0.1" d="M233.828 127.342C233.828 127.342 247.022 122.568 247.743 118.75" stroke="black" stroke-miterlimit="10"/>
<path opacity="0.1" d="M238.625 138.325C238.625 138.325 252.54 132.119 252.54 130.445H259.494C259.494 130.445 269.572 143.577 268.373 149.306" stroke="black" stroke-miterlimit="10"/>
<path opacity="0.1" d="M254.943 147.872C254.943 147.872 241.507 146.916 236.707 150.738C231.906 154.559 223.272 156.467 223.272 156.467C223.272 156.467 218.233 167.21 216.312 169.118C214.392 171.025 211.273 177.713 211.273 177.713" stroke="black" stroke-miterlimit="10"/>
<path opacity="0.1" d="M254.941 160.527C254.941 160.527 256.379 165.538 258.299 168.404C260.219 171.27 263.096 181.533 263.096 181.533" stroke="black" stroke-miterlimit="10"/>
<path opacity="0.1" d="M277.492 175.086C277.492 175.086 280.537 183.517 283.214 183.599" stroke="black" stroke-miterlimit="10"/>
<path opacity="0.1" d="M257.543 138.898C257.543 138.898 265.453 141.026 268.761 146.181C272.068 151.335 282.169 156.009 282.169 156.009" stroke="black" stroke-miterlimit="10"/>
<path opacity="0.1" d="M260.938 113.5C260.938 113.5 260.937 124.48 264.056 124.48C267.175 124.48 274.134 125.673 274.134 125.673" stroke="black" stroke-miterlimit="10"/>
<path opacity="0.1" d="M245.65 100.461C245.65 100.461 244.852 119.43 240.773 124.341" stroke="black" stroke-miterlimit="10"/>
<g opacity="0.05">
<path opacity="0.05" d="M289.969 151.456L284.211 131.88C278.934 124.24 273.656 125.433 273.656 125.433C270.537 123.522 268.379 112.779 268.379 112.779C267.418 101.081 245.825 101.321 245.825 101.321C245.26 100.353 244.451 99.5471 243.48 98.9821C242.508 98.4172 241.405 98.1125 240.28 98.0977C239.261 98.0977 238.218 98.1299 237.176 98.2149C237.765 98.2735 238.329 98.3565 238.869 98.464L240.548 101.33C240.548 101.33 262.138 101.09 263.098 112.788C263.098 112.788 265.26 123.531 268.379 125.442C268.379 125.442 273.656 124.246 278.934 131.889L284.691 151.465C284.691 151.465 299.805 165.548 295.246 178.425C295.246 178.425 292.169 182.782 279.367 183.31C296.627 183.94 300.524 178.425 300.524 178.425C305.083 165.54 289.969 151.456 289.969 151.456Z" fill="black"/>
<path opacity="0.05" d="M205.519 177.473C200.44 178.382 195.304 178.941 190.148 179.146C196.159 179.375 202.412 178.727 206.44 178.176C206.128 177.939 205.822 177.71 205.519 177.473Z" fill="black"/>
<path opacity="0.05" d="M257.341 181.297C249.955 183.358 242.352 184.554 234.688 184.86C245.746 185.259 256.222 182.964 260.539 181.862C259.497 181.69 258.439 181.493 257.341 181.297Z" fill="black"/>
</g>
<path d="M65.6328 218.529C65.6328 218.529 72.2327 218.327 74.2206 216.917C76.2085 215.508 84.3692 213.826 84.864 216.085C85.3588 218.344 94.78 227.323 87.329 227.385C79.878 227.447 70.0209 226.23 68.036 225.026C66.051 223.822 65.6328 218.529 65.6328 218.529Z" fill="#A8A8A8"/>
<path opacity="0.2" d="M87.4645 226.596C80.0135 226.657 70.1535 225.441 68.1685 224.252C66.6577 223.334 66.054 220.046 65.8537 218.531H65.6328C65.6328 218.531 66.051 223.827 68.036 225.028C70.0209 226.23 79.881 227.446 87.329 227.387C89.4818 227.37 90.224 226.608 90.1828 225.479C89.8853 226.159 89.0636 226.584 87.4645 226.596Z" fill="black"/>
<path d="M226.531 202.057C226.531 202.057 218.759 200.51 216.689 198.447C214.619 196.383 205.292 192.779 204.255 195.355C203.218 197.931 190.269 206.696 199.075 208.249C207.88 209.802 219.796 210.3 222.388 209.28C224.979 208.261 226.531 202.057 226.531 202.057Z" fill="#A8A8A8"/>
<path opacity="0.2" d="M199.073 207.276C207.881 208.82 219.794 209.327 222.386 208.304C224.356 207.519 225.729 203.748 226.27 201.992L226.53 202.048C226.53 202.048 224.975 208.231 222.386 209.263C219.797 210.294 207.881 209.778 199.073 208.231C196.531 207.786 195.804 206.737 196.078 205.412C196.296 206.285 197.182 206.951 199.073 207.276Z" fill="black"/>
<path opacity="0.1" d="M152.111 33.6569H150.262C150.605 33.6569 150.935 33.5211 151.178 33.2793C151.421 33.0375 151.557 32.7095 151.557 32.3675C151.557 32.0256 151.421 31.6976 151.178 31.4558C150.935 31.214 150.605 31.0781 150.262 31.0781H135.277C134.934 31.0781 134.604 31.214 134.361 31.4558C134.118 31.6976 133.981 32.0256 133.981 32.3675C133.981 32.7095 134.118 33.0375 134.361 33.2793C134.604 33.5211 134.934 33.6569 135.277 33.6569H137.127C136.794 33.6727 136.48 33.8153 136.251 34.0551C136.021 34.2949 135.893 34.6136 135.893 34.9449C135.893 35.2762 136.021 35.5948 136.251 35.8346C136.48 36.0745 136.794 36.217 137.127 36.2328H134.538C134.194 36.2328 133.865 36.3687 133.622 36.6105C133.379 36.8523 133.242 37.1803 133.242 37.5222C133.242 37.8642 133.379 38.1922 133.622 38.434C133.865 38.6758 134.194 38.8116 134.538 38.8116H149.522C149.866 38.8116 150.196 38.6758 150.439 38.434C150.682 38.1922 150.818 37.8642 150.818 37.5222C150.818 37.1803 150.682 36.8523 150.439 36.6105C150.196 36.3687 149.866 36.2328 149.522 36.2328H152.111C152.286 36.2411 152.461 36.214 152.626 36.153C152.79 36.0921 152.94 35.9985 153.067 35.8781C153.194 35.7577 153.295 35.6129 153.364 35.4525C153.433 35.2921 153.469 35.1194 153.469 34.9449C153.469 34.7704 153.433 34.5977 153.364 34.4373C153.295 34.2769 153.194 34.1321 153.067 34.0117C152.94 33.8912 152.79 33.7977 152.626 33.7368C152.461 33.6758 152.286 33.6486 152.111 33.6569Z" fill="#06D6A0"/>
<path opacity="0.1" d="M210.313 79.0266H208.464C208.796 79.0108 209.11 78.8682 209.34 78.6284C209.57 78.3886 209.698 78.07 209.698 77.7386C209.698 77.4073 209.57 77.0887 209.34 76.8489C209.11 76.6091 208.796 76.4665 208.464 76.4507H193.465C193.29 76.4424 193.115 76.4695 192.95 76.5305C192.786 76.5915 192.636 76.685 192.509 76.8054C192.382 76.9258 192.281 77.0706 192.212 77.231C192.143 77.3914 192.107 77.5641 192.107 77.7386C192.107 77.9131 192.143 78.0858 192.212 78.2462C192.281 78.4066 192.382 78.5514 192.509 78.6718C192.636 78.7923 192.786 78.8858 192.95 78.9468C193.115 79.0077 193.29 79.0349 193.465 79.0266H195.314C194.982 79.0424 194.668 79.1849 194.438 79.4247C194.208 79.6646 194.08 79.9832 194.08 80.3145C194.08 80.6458 194.208 80.9645 194.438 81.2043C194.668 81.4441 194.982 81.5867 195.314 81.6025H192.726C192.382 81.6025 192.052 81.7383 191.809 81.9801C191.566 82.2219 191.43 82.5499 191.43 82.8919C191.43 83.2338 191.566 83.5618 191.809 83.8036C192.052 84.0454 192.382 84.1813 192.726 84.1813H207.707C208.051 84.1813 208.38 84.0454 208.623 83.8036C208.866 83.5618 209.003 83.2338 209.003 82.8919C209.003 82.5499 208.866 82.2219 208.623 81.9801C208.38 81.7383 208.051 81.6025 207.707 81.6025H210.313C210.489 81.6108 210.664 81.5836 210.828 81.5226C210.992 81.4617 211.142 81.3681 211.269 81.2477C211.396 81.1273 211.497 80.9825 211.566 80.8221C211.635 80.6617 211.671 80.489 211.671 80.3145C211.671 80.14 211.635 79.9673 211.566 79.8069C211.497 79.6465 211.396 79.5017 211.269 79.3813C211.142 79.2609 210.992 79.1673 210.828 79.1064C210.664 79.0454 210.489 79.0183 210.313 79.0266Z" fill="#06D6A0"/>
<path opacity="0.1" d="M124.074 70.632H122.225C122.4 70.6404 122.575 70.6132 122.739 70.5522C122.903 70.4913 123.054 70.3977 123.181 70.2773C123.307 70.1569 123.408 70.0121 123.478 69.8517C123.547 69.6913 123.582 69.5186 123.582 69.3441C123.582 69.1696 123.547 68.9969 123.478 68.8365C123.408 68.6761 123.307 68.5313 123.181 68.4109C123.054 68.2905 122.903 68.1969 122.739 68.136C122.575 68.075 122.4 68.0478 122.225 68.0562H107.237C107.062 68.0478 106.887 68.075 106.723 68.136C106.558 68.1969 106.408 68.2905 106.281 68.4109C106.154 68.5313 106.053 68.6761 105.984 68.8365C105.915 68.9969 105.88 69.1696 105.88 69.3441C105.88 69.5186 105.915 69.6913 105.984 69.8517C106.053 70.0121 106.154 70.1569 106.281 70.2773C106.408 70.3977 106.558 70.4913 106.723 70.5522C106.887 70.6132 107.062 70.6404 107.237 70.632H109.087C108.912 70.6237 108.736 70.6509 108.572 70.7118C108.408 70.7728 108.258 70.8663 108.131 70.9868C108.004 71.1072 107.903 71.252 107.834 71.4124C107.765 71.5728 107.729 71.7455 107.729 71.92C107.729 72.0945 107.765 72.2672 107.834 72.4276C107.903 72.588 108.004 72.7328 108.131 72.8532C108.258 72.9736 108.408 73.0671 108.572 73.1281C108.736 73.1891 108.912 73.2162 109.087 73.2079H106.495C106.151 73.2079 105.822 73.3438 105.579 73.5856C105.336 73.8274 105.199 74.1554 105.199 74.4973C105.199 74.8393 105.336 75.1673 105.579 75.4091C105.822 75.6509 106.151 75.7867 106.495 75.7867H121.479C121.823 75.7867 122.153 75.6509 122.396 75.4091C122.639 75.1673 122.775 74.8393 122.775 74.4973C122.775 74.1554 122.639 73.8274 122.396 73.5856C122.153 73.3438 121.823 73.2079 121.479 73.2079H124.068C124.243 73.2162 124.418 73.1891 124.583 73.1281C124.747 73.0671 124.897 72.9736 125.024 72.8532C125.151 72.7328 125.252 72.588 125.321 72.4276C125.39 72.2672 125.426 72.0945 125.426 71.92C125.426 71.7455 125.39 71.5728 125.321 71.4124C125.252 71.252 125.151 71.1072 125.024 70.9868C124.897 70.8663 124.747 70.7728 124.583 70.7118C124.418 70.6509 124.243 70.6237 124.068 70.632H124.074Z" fill="#06D6A0"/>
</g>
<defs>
<linearGradient id="paint0_linear" x1="-213592" y1="19205.5" x2="-230807" y2="19205.5" gradientUnits="userSpaceOnUse">
<stop stop-color="#808080" stop-opacity="0.25"/>
<stop offset="0.54" stop-color="#808080" stop-opacity="0.12"/>
<stop offset="1" stop-color="#808080" stop-opacity="0.1"/>
</linearGradient>
<clipPath id="clip0">
<rect width="304" height="244" fill="white"/>
</clipPath>
</defs>
</svg>
