<svg width="314" height="238" viewBox="0 0 314 238" fill="none" xmlns="http://www.w3.org/2000/svg">
<g clip-path="url(#clip0)">
<path d="M168.064 161.348C168.064 161.348 174.732 206.35 214.067 221.35H54.7227C94.0577 206.35 100.726 161.348 100.726 161.348H168.064Z" fill="#E0E0E0"/>
<path d="M214.77 221.34H53.9219V230.845H214.77V221.34Z" fill="url(#paint0_linear)"/>
<path d="M214.067 221.34H54.7227V228.671H214.067V221.34Z" fill="#F5F5F5"/>
<path d="M265.908 0H3.50395C2.56359 0.0101079 1.66566 0.392875 1.0073 1.06427C0.348945 1.73567 -0.0160432 2.64082 -0.00753185 3.58101V170.143C-0.0155335 171.011 0.14764 171.873 0.472671 172.678C0.797701 173.483 1.27822 174.217 1.8868 174.837C2.49537 175.456 3.22008 175.95 4.01954 176.29C4.819 176.63 5.67755 176.808 6.54617 176.816H262.868C263.737 176.808 264.596 176.63 265.395 176.29C266.195 175.95 266.919 175.456 267.528 174.837C268.136 174.217 268.617 173.483 268.942 172.678C269.267 171.873 269.43 171.011 269.422 170.143V3.58101C269.431 2.64027 269.065 1.73464 268.406 1.06315C267.747 0.391666 266.848 0.00926783 265.908 0Z" fill="url(#paint1_linear)"/>
<path d="M265.902 149.348H2.88281V7.29182C2.88365 6.84099 2.97335 6.39474 3.14678 5.97858C3.32021 5.56243 3.57398 5.18452 3.89357 4.86647C4.21316 4.54843 4.59231 4.29647 5.00935 4.12501C5.42639 3.95355 5.87314 3.86594 6.32407 3.8672H262.468C263.377 3.86635 264.25 4.22658 264.894 4.86873C265.538 5.51088 265.901 6.38242 265.902 7.29182V149.348Z" fill="#F5F5F5"/>
<path d="M259.502 173.346H9.28295C7.58968 173.346 5.96575 172.673 4.76842 171.476C3.57109 170.279 2.89844 168.655 2.89844 166.962V149.348H265.902V166.946C265.904 167.787 265.74 168.62 265.419 169.398C265.098 170.175 264.627 170.881 264.032 171.476C263.437 172.071 262.731 172.542 261.953 172.863C261.176 173.184 260.343 173.348 259.502 173.346Z" fill="white"/>
<path d="M254.218 21.9336H16.2031V133.095H254.218V21.9336Z" fill="#06D6A0"/>
<path d="M254.217 15.6523H15.8828V25.4443H254.217V15.6523Z" fill="#E0E0E0"/>
<path d="M21.0683 23.5301C22.6551 23.5301 23.9414 22.244 23.9414 20.6576C23.9414 19.0712 22.6551 17.7852 21.0683 17.7852C19.4816 17.7852 18.1953 19.0712 18.1953 20.6576C18.1953 22.244 19.4816 23.5301 21.0683 23.5301Z" fill="#FF5252"/>
<path d="M27.7715 23.5301C29.3582 23.5301 30.6445 22.244 30.6445 20.6576C30.6445 19.0712 29.3582 17.7852 27.7715 17.7852C26.1847 17.7852 24.8984 19.0712 24.8984 20.6576C24.8984 22.244 26.1847 23.5301 27.7715 23.5301Z" fill="#FFFF00"/>
<path d="M34.4746 23.5301C36.0613 23.5301 37.3476 22.244 37.3476 20.6576C37.3476 19.0712 36.0613 17.7852 34.4746 17.7852C32.8879 17.7852 31.6016 19.0712 31.6016 20.6576C31.6016 22.244 32.8879 23.5301 34.4746 23.5301Z" fill="#69F0AE"/>
<path d="M132.158 34.418L89.0625 112.364H175.253L132.158 34.418Z" fill="url(#paint2_linear)"/>
<path d="M132.161 40.418L94.2656 109.357H170.056L132.161 40.418Z" fill="white"/>
<path d="M132.16 106.803C134.716 106.803 136.789 104.731 136.789 102.175C136.789 99.6188 134.716 97.5469 132.16 97.5469C129.604 97.5469 127.531 99.6188 127.531 102.175C127.531 104.731 129.604 106.803 132.16 106.803Z" fill="url(#paint3_linear)"/>
<path d="M132.159 106.008C134.274 106.008 135.99 104.293 135.99 102.178C135.99 100.062 134.274 98.3477 132.159 98.3477C130.043 98.3477 128.328 100.062 128.328 102.178C128.328 104.293 130.043 106.008 132.159 106.008Z" fill="#06D6A0"/>
<path d="M133.437 67.2266H130.883V94.6746H133.437V67.2266Z" fill="url(#paint4_linear)"/>
<path d="M132.956 67.3867H131.359V94.1964H132.956V67.3867Z" fill="#06D6A0"/>
<path d="M310.624 94.6L237.161 94.7026C235.398 94.705 233.971 96.136 233.973 97.8987L234.164 234.797C234.167 236.56 235.598 237.987 237.361 237.984L310.825 237.882C312.588 237.879 314.015 236.448 314.012 234.686L313.821 97.7872C313.819 96.0245 312.387 94.5976 310.624 94.6Z" fill="url(#paint5_linear)"/>
<path d="M308.787 96.0817L239.001 96.1791C237.238 96.1816 235.811 97.6125 235.813 99.3752L235.995 229.322C235.997 231.085 237.428 232.512 239.191 232.51L308.977 232.412C310.74 232.41 312.167 230.979 312.165 229.216L311.983 99.2689C311.981 97.5062 310.55 96.0793 308.787 96.0817Z" fill="white"/>
<path d="M303.392 105.73L244.422 105.812L244.577 216.757L303.547 216.674L303.392 105.73Z" fill="#06D6A0"/>
<path d="M274.083 229.408C276.679 229.404 278.782 227.296 278.778 224.7C278.775 222.103 276.666 220.002 274.069 220.005C271.472 220.009 269.37 222.117 269.374 224.713C269.377 227.309 271.486 229.411 274.083 229.408Z" fill="#DBDBDB"/>
<path d="M264.793 101.969C265.313 101.969 265.735 101.547 265.735 101.027C265.735 100.507 265.313 100.086 264.793 100.086C264.273 100.086 263.852 100.507 263.852 101.027C263.852 101.547 264.273 101.969 264.793 101.969Z" fill="#DBDBDB"/>
<path d="M283.296 99.8788L269.678 99.8978C269.414 99.8981 269.2 100.113 269.2 100.377L269.201 100.83C269.201 101.095 269.416 101.309 269.68 101.308L283.298 101.289C283.563 101.289 283.777 101.074 283.776 100.81L283.776 100.357C283.775 100.092 283.561 99.8784 283.296 99.8788Z" fill="#DBDBDB"/>
<path d="M273.981 127.938L253.078 165.746H294.884L273.981 127.938Z" fill="url(#paint6_linear)"/>
<path d="M273.983 130.848L255.602 164.286H292.364L273.983 130.848Z" fill="white"/>
<path d="M273.982 163.046C275.222 163.046 276.227 162.041 276.227 160.802C276.227 159.563 275.222 158.559 273.982 158.559C272.743 158.559 271.738 159.563 271.738 160.802C271.738 162.041 272.743 163.046 273.982 163.046Z" fill="url(#paint7_linear)"/>
<path d="M273.983 162.66C275.009 162.66 275.841 161.829 275.841 160.803C275.841 159.777 275.009 158.945 273.983 158.945C272.957 158.945 272.125 159.777 272.125 160.803C272.125 161.829 272.957 162.66 273.983 162.66Z" fill="#06D6A0"/>
<path d="M274.602 143.855H273.363V157.168H274.602V143.855Z" fill="url(#paint8_linear)"/>
<path d="M274.373 143.93H273.598V156.932H274.373V143.93Z" fill="#06D6A0"/>
</g>
<defs>
<linearGradient id="paint0_linear" x1="134.348" y1="230.845" x2="134.348" y2="221.34" gradientUnits="userSpaceOnUse">
<stop stop-color="#808080" stop-opacity="0.25"/>
<stop offset="0.54" stop-color="#808080" stop-opacity="0.12"/>
<stop offset="1" stop-color="#808080" stop-opacity="0.1"/>
</linearGradient>
<linearGradient id="paint1_linear" x1="142849" y1="111598" x2="142849" y2="13641.4" gradientUnits="userSpaceOnUse">
<stop stop-color="#808080" stop-opacity="0.25"/>
<stop offset="0.54" stop-color="#808080" stop-opacity="0.12"/>
<stop offset="1" stop-color="#808080" stop-opacity="0.1"/>
</linearGradient>
<linearGradient id="paint2_linear" x1="132.158" y1="112.364" x2="132.158" y2="34.418" gradientUnits="userSpaceOnUse">
<stop stop-opacity="0.12"/>
<stop offset="0.55" stop-opacity="0.09"/>
<stop offset="1" stop-opacity="0.02"/>
</linearGradient>
<linearGradient id="paint3_linear" x1="3960.16" y1="3194.89" x2="3960.16" y2="2926.47" gradientUnits="userSpaceOnUse">
<stop stop-color="#808080" stop-opacity="0.25"/>
<stop offset="0.54" stop-color="#808080" stop-opacity="0.12"/>
<stop offset="1" stop-color="#808080" stop-opacity="0.1"/>
</linearGradient>
<linearGradient id="paint4_linear" x1="1188.16" y1="8209.41" x2="1188.16" y2="5848.88" gradientUnits="userSpaceOnUse">
<stop stop-color="#808080" stop-opacity="0.25"/>
<stop offset="0.54" stop-color="#808080" stop-opacity="0.12"/>
<stop offset="1" stop-color="#808080" stop-opacity="0.1"/>
</linearGradient>
<linearGradient id="paint5_linear" x1="274.096" y1="238.92" x2="273.895" y2="95.1101" gradientUnits="userSpaceOnUse">
<stop offset="0.01" stop-color="#808080" stop-opacity="0.25"/>
<stop offset="0.54" stop-color="#808080" stop-opacity="0.12"/>
<stop offset="1" stop-color="#808080" stop-opacity="0.1"/>
</linearGradient>
<linearGradient id="paint6_linear" x1="36133.8" y1="19762" x2="36133.8" y2="15283.3" gradientUnits="userSpaceOnUse">
<stop stop-opacity="0.12"/>
<stop offset="0.55" stop-opacity="0.09"/>
<stop offset="1" stop-opacity="0.02"/>
</linearGradient>
<linearGradient id="paint7_linear" x1="4123.92" y1="2451.01" x2="4123.92" y2="2387.92" gradientUnits="userSpaceOnUse">
<stop stop-color="#808080" stop-opacity="0.25"/>
<stop offset="0.54" stop-color="#808080" stop-opacity="0.12"/>
<stop offset="1" stop-color="#808080" stop-opacity="0.1"/>
</linearGradient>
<linearGradient id="paint8_linear" x1="1336.4" y1="6699.23" x2="1336.4" y2="6143.98" gradientUnits="userSpaceOnUse">
<stop stop-color="#808080" stop-opacity="0.25"/>
<stop offset="0.54" stop-color="#808080" stop-opacity="0.12"/>
<stop offset="1" stop-color="#808080" stop-opacity="0.1"/>
</linearGradient>
<clipPath id="clip0">
<rect width="314" height="238" fill="white"/>
</clipPath>
</defs>
</svg>
