<svg width="154" height="161" viewBox="0 0 154 161" fill="none" xmlns="http://www.w3.org/2000/svg">
<path fill-rule="evenodd" clip-rule="evenodd" d="M79.391 0.409651C102.554 3.51214 110.873 30.7031 124.215 50.0001C135.773 66.717 152.452 81.9248 149.698 102.097C146.722 123.886 129.915 140.811 110.447 150.823C90.3288 161.169 66.5181 165.226 46.1745 155.336C25.8604 145.46 15.2961 123.946 9.85608 101.92C4.2507 79.2255 3.40676 54.8419 16.5973 35.5857C30.8989 14.7074 54.4052 -2.93697 79.391 0.409651Z" fill="#DFF3F2"/>
<path d="M110.11 112.165C110.11 121.848 104.372 125.229 97.2938 125.229C90.2156 125.229 84.4775 121.848 84.4775 112.165C84.4775 102.481 97.2938 90.1626 97.2938 90.1626C97.2938 90.1626 110.11 102.481 110.11 112.165Z" fill="#06D6A0"/>
<path d="M96.9571 115.644L102.42 105.618L96.9776 114.372L97.0366 110.729L100.801 103.475L97.0523 109.764L97.1584 103.21L101.19 97.4357L97.1751 102.18L97.2414 90.1626L96.8425 105.39L92.7602 99.1208L96.7932 106.675L96.4112 113.994L96.4 113.8L91.6748 107.176L96.3856 114.486L96.3378 115.402L96.3292 115.416L96.3332 115.491L95.3642 125.258H96.6588L96.8142 124.469L101.513 117.177L96.8259 123.748L96.9571 115.644Z" fill="#3F3D56"/>
<path d="M154 81.0294C154 99.5269 143.039 105.986 129.518 105.986C115.997 105.986 105.036 99.5269 105.036 81.0294C105.036 62.5318 129.518 39 129.518 39C129.518 39 154 62.5318 154 81.0294Z" fill="#F2F2F2"/>
<path d="M128.626 103.156L128.877 87.6753L139.312 68.5233L128.916 85.2468L129.029 78.2859L136.22 64.4297L129.058 76.4439V76.444L129.261 63.9246L136.962 52.8934L129.293 61.956L129.42 39L128.624 69.3896L128.689 68.136L120.859 56.1125L128.564 70.5425L127.834 84.5244L127.812 84.1533L118.786 71.5004L127.785 85.4643L127.694 87.2129L127.677 87.2393L127.685 87.3827L125.834 122.856H128.307L128.604 104.533L137.58 90.6037L128.626 103.156Z" fill="#3F3D56"/>
<path d="M152.995 119.759C152.995 125.28 117.296 146 75.5633 146C33.8308 146 0 135.276 0 129.755C0 124.234 33.0005 130.797 74.7329 130.797C116.465 130.797 152.995 114.238 152.995 119.759Z" fill="#3F3D56"/>
<path opacity="0.1" d="M152.995 119.759C152.995 125.28 117.296 146 75.5633 146C33.8308 146 0 135.276 0 129.755C0 124.234 33.0005 130.797 74.7329 130.797C116.465 130.797 152.995 114.238 152.995 119.759Z" fill="black"/>
<path d="M152.995 119.759C152.995 125.28 117.296 139.752 75.5633 139.752C33.8308 139.752 0 135.276 0 129.755C0 124.234 33.0005 124.549 74.7329 124.549C116.465 124.549 152.995 114.238 152.995 119.759Z" fill="#3F3D56"/>
<path opacity="0.1" d="M76.4095 133.294C94.1313 133.294 108.498 132.18 108.498 130.804C108.498 129.429 94.1313 128.314 76.4095 128.314C58.6877 128.314 44.3213 129.429 44.3213 130.804C44.3213 132.18 58.6877 133.294 76.4095 133.294Z" fill="black"/>
<path d="M50.9878 80.9082C50.9878 80.9082 60.3818 81.0827 58.6422 82.7407C56.9026 84.3988 50.3789 82.7407 50.3789 82.7407L50.9878 80.9082Z" fill="#A0616A"/>
<path d="M31.416 60.7695C31.416 60.7695 35.2088 60.09 36.5276 63.1618C37.8464 66.2336 40.5548 74.9941 40.5548 74.9941C40.5548 74.9941 47.8029 79.8073 49.1212 79.6492C50.4396 79.491 52.6933 79.8137 52.2799 81.2566C51.8665 82.6995 52.05 84.3357 51.0983 84.5362C50.1465 84.7368 48.6329 82.8226 47.4744 83.7446C46.316 84.6666 35.992 81.299 35.3292 80.6012C34.6664 79.9035 29.1582 64.7943 29.1582 64.7943C29.1582 64.7943 29.3785 60.7203 31.416 60.7695Z" fill="#06D6A0"/>
<path d="M39.55 125.631L39.9849 129.296L36.3317 130.256L34.2441 129.296V126.067L39.55 125.631Z" fill="#A0616A"/>
<path d="M29.721 127.987L30.1558 131.652L26.5026 132.612L24.415 131.652V128.423L29.721 127.987Z" fill="#A0616A"/>
<path d="M39.8982 85.5766L41.5509 91.5978L43.9864 103.815C43.9864 103.815 44.6822 106.782 43.2905 110.359C41.8988 113.937 39.3763 125.631 39.8982 126.329C40.4201 127.027 33.9834 127.55 34.0704 126.852C34.1574 126.154 35.0272 116.555 35.0272 116.555C35.0272 116.555 36.245 108.091 36.8538 107.043C37.4627 105.996 34.0704 103.378 34.0704 103.378C34.0704 103.378 33.2006 113.414 31.8959 114.286C30.5911 115.159 30.7651 128.685 30.1562 128.859C29.5473 129.034 25.1113 129.732 24.5894 128.859C24.0675 127.987 24.5894 113.414 24.5894 113.414C24.5894 113.414 27.5468 102.331 26.9379 100.76C26.329 99.1897 26.6769 92.4704 26.6769 92.4704C26.6769 92.4704 24.4154 87.3219 25.6332 84.6167L39.8982 85.5766Z" fill="#2F2E41"/>
<path d="M39.6371 52.0673C39.6371 52.0673 35.9839 56.605 36.1578 58.612C36.3318 60.6191 30.417 54.947 30.417 54.947C30.417 54.947 34.6791 49.1876 34.6791 47.9659C34.6791 46.7442 39.6371 52.0673 39.6371 52.0673Z" fill="#A0616A"/>
<path d="M39.5934 53.7688C42.7639 53.7688 45.3342 51.1902 45.3342 48.0094C45.3342 44.8286 42.7639 42.25 39.5934 42.25C36.4228 42.25 33.8525 44.8286 33.8525 48.0094C33.8525 51.1902 36.4228 53.7688 39.5934 53.7688Z" fill="#A0616A"/>
<path d="M25.1258 82.3123C24.8657 83.2844 24.543 84.3865 24.5891 85.315C24.6187 85.9163 26.2096 86.3107 28.4094 86.569C30.4491 86.809 33.0125 86.9311 35.3427 86.994C37.7895 87.0603 39.9771 87.0603 41.0287 87.0603C44.1601 87.0603 41.6376 85.0532 40.4198 84.0933C39.2021 83.1334 39.463 69.5203 39.55 67.775C39.637 66.0298 38.7672 60.9685 38.7672 60.0086C38.7672 59.0487 36.7205 56.5433 36.7205 56.5433C36.7205 56.5433 36.2447 57.9142 34.3311 56.0817C32.4175 54.2492 29.895 53.7256 29.895 53.7256C27.9814 54.4237 24.7631 62.1029 24.5891 63.4118C24.5186 63.9433 24.5769 66.665 24.6952 69.7725C24.8666 74.3146 25.1658 79.6839 25.3719 80.2537C25.5346 80.7031 25.3546 81.4571 25.1258 82.3123Z" fill="#06D6A0"/>
<path d="M34.418 87.4092L35.0268 89.5908L32.6783 92.0342L31.8955 88.6308L34.418 87.4092Z" fill="#A0616A"/>
<path d="M35.202 128.336C35.202 128.336 37.0287 130.43 38.4204 129.034C39.8121 127.638 39.7251 126.765 39.9861 126.765C40.247 126.765 44.1612 130.256 44.1612 130.256C44.1612 130.256 50.8588 131.826 47.2056 132.961C43.5523 134.095 33.2015 133.31 33.2015 132.961C33.2015 132.612 32.9405 127.987 33.8973 127.987L35.202 128.336Z" fill="#2F2E41"/>
<path d="M25.372 130.692C25.372 130.692 27.1986 132.786 28.5903 131.39C29.982 129.994 29.895 129.121 30.156 129.121C30.4169 129.121 34.3311 132.612 34.3311 132.612C34.3311 132.612 41.0287 134.182 37.3755 135.317C33.7222 136.451 23.3714 135.666 23.3714 135.317C23.3714 134.968 23.1104 130.343 24.0672 130.343L25.372 130.692Z" fill="#2F2E41"/>
<path d="M33.1484 52.6073C32.9629 52.7275 32.7215 52.8493 32.5358 52.7294C31.8454 51.0021 31.3294 49.2096 30.9954 47.379C30.8782 46.736 30.7968 46.0211 31.1529 45.4737C31.2933 45.2578 31.4955 45.0812 31.5984 44.8449C31.7541 44.4871 31.6516 44.073 31.7034 43.686C31.8118 42.8753 32.5757 42.3099 33.3438 42.0356C34.112 41.7614 34.9462 41.6763 35.6784 41.3165C36.3737 40.9748 36.9305 40.4081 37.5752 39.9781C38.2199 39.5481 39.0457 39.2541 39.7636 39.5447C40.3988 39.8017 40.7944 40.4512 41.3947 40.7819C41.8021 41.0063 42.2748 41.0688 42.7296 41.1651C43.9934 41.4341 45.18 41.9872 46.2001 42.7827C46.4483 42.9603 46.6623 43.1816 46.8317 43.4359C47.6021 44.7084 46.2228 46.4383 46.8313 47.7962L45.5157 46.7547C45.1644 46.4464 44.7681 46.1938 44.3407 46.0056C43.905 45.84 43.3889 45.82 42.993 46.0666C42.4375 46.4128 42.2869 47.136 42.0928 47.7626C41.8987 48.3891 41.4696 49.0838 40.8158 49.0678C39.9268 49.046 39.6158 47.8012 38.8179 47.407C38.2978 47.1501 37.6431 47.3193 37.1996 47.694C36.7562 48.0687 36.4902 48.6124 36.295 49.16C36.1731 49.5023 36.0587 49.8881 35.8421 50.1847C35.6032 50.5119 35.2976 50.5383 35.0425 50.7826C34.3783 51.4186 33.97 52.0748 33.1484 52.6073Z" fill="#2F2E41"/>
<path opacity="0.1" d="M25.1259 82.312C26.2071 83.8854 27.4257 85.5085 28.4094 86.5688C30.4492 86.8087 33.0126 86.9309 35.3428 86.9937C34.9265 86.4275 34.406 85.9464 33.8093 85.5766C32.6785 84.8785 29.9821 76.5884 29.9821 76.5884C29.9821 76.5884 33.2874 68.0366 34.1572 64.8078C35.0271 61.5791 31.6348 59.7465 31.6348 59.7465C30.0691 58.4376 27.3726 61.4918 27.3726 61.4918C27.3726 61.4918 25.9966 65.656 24.6953 69.7722C24.8667 74.3143 25.1659 79.6836 25.372 80.2535C25.5347 80.7029 25.3546 81.4568 25.1259 82.312Z" fill="black"/>
<path d="M31.3745 59.0488C31.3745 59.0488 34.7668 60.8813 33.897 64.1101C33.0272 67.3388 29.7219 75.8907 29.7219 75.8907C29.7219 75.8907 32.4183 84.1807 33.5491 84.8788C34.6799 85.5769 36.2455 87.2349 35.0278 88.1076C33.81 88.9802 32.9402 90.3764 32.0704 89.9401C31.2006 89.5038 31.2006 87.0604 29.7219 87.0604C28.2432 87.0604 22.2414 77.985 22.1544 77.0251C22.0675 76.0652 27.1124 60.794 27.1124 60.794C27.1124 60.794 29.8089 57.7398 31.3745 59.0488Z" fill="#06D6A0"/>
<path d="M101.913 82.9004L100.934 81.9187C100.363 81.3461 99.5892 81.0244 98.782 81.0244C97.9749 81.0244 97.2007 81.3461 96.63 81.9187L77.6496 100.961L58.6692 81.9187C58.0984 81.3461 57.3243 81.0244 56.5171 81.0244C55.71 81.0244 54.9358 81.3461 54.3651 81.9187L53.3865 82.9004C53.1039 83.184 52.8797 83.5205 52.7268 83.891C52.5738 84.2614 52.4951 84.6585 52.4951 85.0595C52.4951 85.4604 52.5738 85.8575 52.7268 86.2279C52.8797 86.5984 53.1039 86.935 53.3865 87.2185L72.3669 106.26L53.3865 125.302C53.1039 125.586 52.8797 125.922 52.7268 126.293C52.5738 126.663 52.4951 127.06 52.4951 127.461C52.4951 127.862 52.5738 128.259 52.7268 128.63C52.8797 129 53.1039 129.337 53.3865 129.62L54.3651 130.602C54.9358 131.175 55.71 131.496 56.5171 131.496C57.3243 131.496 58.0984 131.175 58.6692 130.602L77.6496 111.56L96.63 130.602C97.2007 131.175 97.9749 131.496 98.782 131.496C99.5892 131.496 100.363 131.175 100.934 130.602L101.913 129.62C102.483 129.048 102.804 128.271 102.804 127.461C102.804 126.651 102.483 125.875 101.913 125.302L82.9323 106.26L101.913 87.2185C102.483 86.6459 102.804 85.8692 102.804 85.0595C102.804 84.2497 102.483 83.473 101.913 82.9004Z" fill="#FF6584"/>
<path opacity="0.1" d="M52.709 126.337L71.1257 107.861L70.9484 107.683L53.3863 125.302C53.0922 125.597 52.8616 125.949 52.709 126.337Z" fill="black"/>
<path opacity="0.1" d="M53.1239 83.5194C53.6947 82.9468 54.4688 82.6251 55.276 82.6251C56.0831 82.6251 56.8573 82.9468 57.428 83.5194L76.4084 102.561L95.3888 83.5194C95.9596 82.9468 96.7337 82.6251 97.5409 82.6251C98.348 82.6251 99.1222 82.9468 99.6929 83.5194L100.671 84.5011C101.091 84.9224 101.379 85.4576 101.499 86.0409C101.62 86.6242 101.567 87.2301 101.349 87.7839L101.912 87.2185C102.195 86.935 102.419 86.5984 102.572 86.2279C102.725 85.8575 102.804 85.4604 102.804 85.0595C102.804 84.6585 102.725 84.2614 102.572 83.891C102.419 83.5205 102.195 83.184 101.912 82.9004L100.934 81.9187C100.363 81.3461 99.589 81.0244 98.7818 81.0244C97.9747 81.0244 97.2005 81.3461 96.6298 81.9187L77.6494 100.961L58.669 81.9187C58.0982 81.3461 57.3241 81.0244 56.5169 81.0244C55.7098 81.0244 54.9356 81.3461 54.3649 81.9187L53.3863 82.9004C53.0922 83.1953 52.8616 83.5476 52.709 83.9357L53.1239 83.5194Z" fill="black"/>
<path opacity="0.1" d="M83.1097 106.438L81.6914 107.861L100.672 126.903C101.092 127.324 101.379 127.859 101.5 128.442C101.62 129.026 101.568 129.632 101.349 130.185L101.913 129.62C102.195 129.336 102.42 129 102.573 128.629C102.725 128.259 102.804 127.862 102.804 127.461C102.804 127.06 102.725 126.663 102.573 126.292C102.42 125.922 102.195 125.585 101.913 125.302L83.1097 106.438Z" fill="black"/>
<path d="M22.1012 119.134C22.1012 127.177 17.3355 129.985 11.4568 129.985C5.57813 129.985 0.8125 127.177 0.8125 119.134C0.8125 111.092 11.4568 100.861 11.4568 100.861C11.4568 100.861 22.1012 111.092 22.1012 119.134Z" fill="#06D6A0"/>
<path d="M11.1781 122.024L15.7151 113.697L11.1952 120.968L11.2443 117.942L14.371 111.917L11.2572 117.141L11.3454 111.698L14.6936 106.901L11.3592 110.842L11.4142 100.861L11.083 113.508L7.69245 108.301L11.0419 114.575L10.7248 120.654L10.7154 120.493L6.79102 114.991L10.7034 121.063L10.6638 121.823L10.6567 121.834L10.6599 121.897L9.85519 130.009H10.9304L11.0595 129.354L14.9623 123.297L11.0692 128.755L11.1781 122.024Z" fill="#3F3D56"/>
</svg>
