<svg width="26" height="20" viewBox="0 0 26 20" fill="none" xmlns="http://www.w3.org/2000/svg">
<path d="M2.16667 0H23.8333C24.9708 0 26 1.05556 26 2.22222V17.7778C26 18.9444 24.9708 20 23.8333 20H2.16667C1.02917 20 0 18.9444 0 17.7778V2.22222C0 1.05556 1.02917 0 2.16667 0ZM15.1667 3.33333V4.44444H23.8333V3.33333H15.1667ZM15.1667 5.55556V6.66667H23.8333V5.55556H15.1667ZM15.1667 7.77778V8.88889H22.75V7.77778H15.1667ZM8.66667 12.1222C6.5 12.1222 2.16667 13.3333 2.16667 15.5556V16.6667H15.1667V15.5556C15.1667 13.3333 10.8333 12.1222 8.66667 12.1222ZM8.66667 3.33333C7.80471 3.33333 6.97806 3.68452 6.36857 4.30964C5.75908 4.93477 5.41667 5.78261 5.41667 6.66667C5.41667 7.55072 5.75908 8.39857 6.36857 9.02369C6.97806 9.64881 7.80471 10 8.66667 10C9.52862 10 10.3553 9.64881 10.9648 9.02369C11.5743 8.39857 11.9167 7.55072 11.9167 6.66667C11.9167 5.78261 11.5743 4.93477 10.9648 4.30964C10.3553 3.68452 9.52862 3.33333 8.66667 3.33333Z" fill="black"/>
</svg>
