<svg width="159" height="138" viewBox="0 0 159 138" fill="none" xmlns="http://www.w3.org/2000/svg">
<g clip-path="url(#clip0)">
<path d="M8.81502 136.145C8.81502 136.145 6.23629 131.377 0 133.439L8.81502 136.145Z" fill="#E6E6E6"/>
<path d="M8.97042 136.028C8.97042 136.028 5.78131 131.968 10.3843 126.902L8.97042 136.028Z" fill="#E6E6E6"/>
<path d="M159 135.846H0V136.204H159V135.846Z" fill="#3F3D56"/>
<path d="M120.66 92.0156L124.103 105.426C124.103 105.426 124.23 114.878 124.995 118.582C125.76 122.285 128.311 131.226 128.311 131.226L131.371 131.737L130.733 119.22C130.733 119.22 130.733 111.685 130.096 110.024C129.458 108.364 128.183 91.377 128.183 91.377L120.66 92.0156Z" fill="#FBBEBE"/>
<path opacity="0.1" d="M120.48 91.1191L123.923 104.53C123.923 104.53 124.051 113.981 124.816 117.685C125.581 121.389 128.131 130.329 128.131 130.329L131.191 130.84L130.554 118.324C130.554 118.324 130.554 110.788 129.916 109.128C129.278 107.467 128.003 90.4805 128.003 90.4805L120.48 91.1191Z" fill="black"/>
<path d="M130.203 35.8066H130.203C125.953 35.8066 122.508 39.6368 122.508 44.3614V50.3642H124.351L125.418 48.1401L125.151 50.3642H136.998L137.968 48.3423L137.725 50.3642H139.059V45.651C139.059 40.2141 135.094 35.8066 130.203 35.8066Z" fill="#2F2E41"/>
<path d="M117.406 89.9082C117.406 89.9082 115.876 96.422 117.916 97.0606C119.956 97.6992 119.446 89.9082 119.446 89.9082H117.406Z" fill="#FBBEBE"/>
<path d="M119.959 56.8281L118.939 57.9776L119.194 80.0735L116.898 90.5465L121.999 91.0574L124.549 69.9834L123.784 59.2548L119.959 56.8281Z" fill="#D0CDE1"/>
<path opacity="0.1" d="M119.912 56.8281L118.892 57.9776L119.147 80.0735L116.852 90.5465L121.952 91.0574L124.502 69.9834L123.737 59.2548L119.912 56.8281Z" fill="black"/>
<path d="M129.522 49.5262C132.547 49.5262 135 47.0693 135 44.0385C135 41.0077 132.547 38.5508 129.522 38.5508C126.496 38.5508 124.043 41.0077 124.043 44.0385C124.043 47.0693 126.496 49.5262 129.522 49.5262Z" fill="#FBBEBE"/>
<path d="M126.383 47.3307C126.383 47.3307 127.99 55.672 127.259 56.5501C126.529 57.4281 135.002 54.9403 135.002 54.9403C135.002 54.9403 132.227 49.2331 133.688 46.0137L126.383 47.3307Z" fill="#FBBEBE"/>
<path d="M140.234 83.9062C140.234 83.9062 141.764 90.42 139.723 91.0586C137.683 91.6972 138.193 83.9062 138.193 83.9062H140.234Z" fill="#FBBEBE"/>
<path d="M128.438 90.4844C128.438 90.4844 126.271 103.512 126.398 105.428C126.526 107.344 126.398 107.599 126.398 107.599C126.398 107.599 124.231 113.219 123.593 116.412C122.955 119.605 121.553 123.692 121.553 123.692C121.553 123.692 119.895 127.396 121.298 127.396C122.7 127.396 124.613 126.885 124.613 126.885C124.608 125.41 125.102 123.976 126.016 122.819C127.546 120.882 132.136 111.814 132.136 110.664C132.136 109.515 132.901 106.194 132.901 106.194L135.834 92.017L128.438 90.4844Z" fill="#FBBEBE"/>
<path d="M119.512 81.7978C119.512 81.7978 117.345 92.7818 119.257 93.0372C121.17 93.2926 123.848 91.3768 127.29 93.5481C130.733 95.7193 136.471 95.2085 136.471 95.2085C136.471 95.2085 140.424 85.1185 136.853 82.6918C133.283 80.2651 119.512 81.7978 119.512 81.7978Z" fill="#2F2E41"/>
<path d="M121.933 125.862C122.495 125.617 123.111 125.529 123.718 125.607C124.299 125.693 124.891 125.556 125.376 125.224C125.376 125.224 124.356 128.928 124.483 130.332C124.611 131.737 124.101 137.74 121.423 137.102C118.746 136.463 117.981 134.547 119.001 131.226C120.021 127.906 119.766 124.074 119.766 124.074C119.766 124.074 121.627 122.149 121.971 122.409C122.316 122.669 121.933 125.862 121.933 125.862Z" fill="#2F2E41"/>
<path d="M130.476 130.588C130.476 130.588 129.201 127.778 127.671 130.332C126.14 132.887 126.013 133.525 126.013 133.525C126.013 133.525 121.678 137.485 124.738 137.868C127.798 138.251 130.221 137.74 130.221 137.102C130.221 136.463 131.751 136.591 131.878 136.08C132.006 135.569 131.623 130.843 131.623 130.843L130.476 130.588Z" fill="#2F2E41"/>
<path d="M133.345 51.593C133.345 51.593 127.99 52.6148 127.353 52.4871C127.209 52.4617 127.064 52.4462 126.918 52.4409C125.671 52.3841 124.435 52.6913 123.359 53.325C121.583 54.3581 118.937 56.1968 118.937 57.9791C118.937 60.6612 122.38 65.2592 122.38 65.2592C122.38 65.2592 119.192 76.2432 119.447 77.2649C119.702 78.2867 117.535 81.7352 118.937 82.8847C120.34 84.0342 133.728 82.8847 136.151 84.0342C138.573 85.1836 137.426 68.7076 137.426 68.7076C137.426 68.7076 143.929 53.7643 140.613 52.3593C139.541 51.9047 138.615 51.5571 137.853 51.2948C137.12 51.0419 136.343 50.9381 135.569 50.9893C134.795 51.0405 134.039 51.2457 133.345 51.593Z" fill="#D0CDE1"/>
<path d="M138.321 52.4863L141.247 52.9706C141.247 52.9706 142.529 54.2744 142.529 54.913C142.529 55.5516 142.274 83.1394 141.891 84.0334C141.509 84.9275 137.301 84.5443 137.301 84.5443L138.066 68.8346L138.321 52.4863Z" fill="#D0CDE1"/>
<path d="M132.391 38.163C132.021 37.6649 131.541 37.2589 130.989 36.9766C130.437 36.6943 129.827 36.5432 129.207 36.5352H129.056C126.143 36.5352 123.781 39.1756 123.781 42.4327V42.4327H124.757L124.915 41.2308L125.146 42.4327H130.935L131.42 41.4159L131.299 42.4327H132.438C132.969 45.0765 132.206 47.7202 130.147 50.364H132.087L133.057 48.3303L132.815 50.364H136.513L137.241 45.6866C137.241 42.1836 135.209 39.2132 132.391 38.163Z" fill="#2F2E41"/>
<path d="M133.457 38.6553C135.049 38.6553 136.339 37.3626 136.339 35.7681C136.339 34.1735 135.049 32.8809 133.457 32.8809C131.865 32.8809 130.574 34.1735 130.574 35.7681C130.574 37.3626 131.865 38.6553 133.457 38.6553Z" fill="#2F2E41"/>
<path d="M100.929 32.3274H100.183V11.8511C100.183 10.2948 99.8767 8.75373 99.2821 7.31588C98.6875 5.87804 97.816 4.57158 96.7174 3.4711C95.6188 2.37062 94.3145 1.49768 92.8791 0.902103C91.4436 0.306531 89.9051 -4.00398e-06 88.3514 0H45.0423C43.4885 -4.71058e-06 41.95 0.30653 40.5146 0.902102C39.0792 1.49767 37.7749 2.37062 36.6763 3.4711C35.5776 4.57158 34.7061 5.87804 34.1115 7.31588C33.517 8.75373 33.2109 10.2948 33.2109 11.8511V124.185C33.2109 125.742 33.517 127.283 34.1115 128.721C34.7061 130.159 35.5776 131.465 36.6763 132.565C37.7749 133.666 39.0792 134.539 40.5146 135.134C41.95 135.73 43.4885 136.037 45.0423 136.037H88.3514C89.9051 136.037 91.4436 135.73 92.8791 135.134C94.3145 134.539 95.6188 133.666 96.7174 132.565C97.8161 131.465 98.6875 130.159 99.2821 128.721C99.8767 127.283 100.183 125.742 100.183 124.185V46.9027H100.929V32.3274Z" fill="#3F3D56"/>
<path opacity="0.2" d="M88.8298 3.08398H83.1765C83.4365 3.72244 83.5357 4.41514 83.4655 5.10106C83.3953 5.78698 83.1577 6.44508 82.7737 7.01737C82.3898 7.58966 81.8712 8.05859 81.2637 8.38284C80.6562 8.70708 79.9784 8.87671 79.29 8.87676H54.4787C53.7904 8.87671 53.1126 8.70708 52.5051 8.38284C51.8975 8.05859 51.379 7.58966 50.995 7.01737C50.611 6.44508 50.3735 5.78698 50.3032 5.10106C50.233 4.41514 50.3322 3.72244 50.5922 3.08398H45.312C44.1518 3.08398 43.0028 3.3129 41.9309 3.75767C40.8589 4.20243 39.8849 4.85434 39.0644 5.67616C38.244 6.49798 37.5931 7.47363 37.1491 8.54739C36.7051 9.62116 36.4766 10.772 36.4766 11.9342V124.104C36.4766 125.266 36.7051 126.417 37.1491 127.491C37.5931 128.564 38.244 129.54 39.0644 130.362C39.8849 131.184 40.8589 131.836 41.9309 132.28C43.0028 132.725 44.1518 132.954 45.312 132.954H88.8298C89.9901 132.954 91.139 132.725 92.211 132.28C93.283 131.836 94.257 131.184 95.0774 130.362C95.8979 129.54 96.5487 128.564 96.9927 127.491C97.4367 126.417 97.6653 125.266 97.6653 124.104V11.9342C97.6653 10.772 97.4367 9.62116 96.9927 8.54739C96.5487 7.47363 95.8979 6.49798 95.0774 5.67616C94.257 4.85434 93.283 4.20243 92.211 3.75767C91.139 3.3129 89.9901 3.08398 88.8298 3.08398Z" fill="black"/>
<path d="M78.5534 78.2227H86.9375V76.2009H78.5534V78.2227Z" fill="#06D6A0"/>
<path d="M49.5227 78.2227H52.4727V76.2009H49.5227V78.2227Z" fill="#06D6A0"/>
<path d="M43.6204 78.2227H46.5703V76.2009H43.6204V78.2227Z" fill="#06D6A0"/>
<path d="M55.5768 78.2227H75.6055V76.2009H55.5768V78.2227Z" fill="#06D6A0"/>
<path d="M60.0774 91.2871H63.0273V89.2653H60.0774V91.2871Z" fill="#06D6A0"/>
<path d="M54.179 91.2871H57.1289V89.2653H54.179V91.2871Z" fill="#06D6A0"/>
<path d="M66.1354 91.2871H86.1641V89.2653H66.1354V91.2871Z" fill="#06D6A0"/>
<path d="M54.4909 82.7324H62.875V80.7106H54.4909V82.7324Z" fill="#06D6A0"/>
<path d="M43.155 82.7324H51.5391V80.7106H43.155V82.7324Z" fill="#06D6A0"/>
<path d="M88.6477 82.7324H91.5977V80.7106H88.6477V82.7324Z" fill="#06D6A0"/>
<path d="M65.6706 82.7324H85.6992V80.7106H65.6706V82.7324Z" fill="#06D6A0"/>
<path d="M80.263 85.0664H71.8789V87.0882H80.263V85.0664Z" fill="#06D6A0"/>
<path d="M91.5989 85.0664H83.2148V87.0882H91.5989V85.0664Z" fill="#06D6A0"/>
<path d="M46.1062 85.0664H43.1562V87.0882H46.1062V85.0664Z" fill="#06D6A0"/>
<path d="M69.0833 85.0664H49.0547V87.0882H69.0833V85.0664Z" fill="#06D6A0"/>
<path d="M67.1059 59.1932C75.9535 59.1932 83.1259 52.0088 83.1259 43.1464C83.1259 34.284 75.9535 27.0996 67.1059 27.0996C58.2583 27.0996 51.0859 34.284 51.0859 43.1464C51.0859 52.0088 58.2583 59.1932 67.1059 59.1932Z" fill="#06D6A0"/>
<path d="M65.9618 48.8764C68.8056 48.8764 71.1111 46.5671 71.1111 43.7185C71.1111 40.8698 68.8056 38.5605 65.9618 38.5605C63.1179 38.5605 60.8125 40.8698 60.8125 43.7185C60.8125 46.5671 63.1179 48.8764 65.9618 48.8764Z" fill="white"/>
<path d="M66.1172 44.0267C65.7968 43.5327 65.9588 42.861 65.7341 42.3167C65.3813 41.4618 64.2847 41.2616 63.3645 41.1836C62.7549 41.1052 62.1377 41.1069 61.5286 41.1885C61.2593 41.2333 61.0042 41.3402 60.7832 41.5007C60.5622 41.6612 60.3815 41.8709 60.2553 42.1133C60.1191 42.3867 60.1535 41.5298 60.2407 40.4299C60.329 39.3073 60.7708 38.2419 61.5024 37.387C62.234 36.5321 63.2177 35.932 64.3116 35.673C64.3246 35.6699 64.3375 35.6669 64.3503 35.664C65.4706 35.4051 66.6258 35.2146 67.7677 35.349C68.9096 35.4834 70.0478 35.9771 70.7605 36.8809C71.0862 37.294 71.3165 37.7811 71.6801 38.1611C72.3189 38.8288 73.266 39.0718 74.1359 39.3816C75.1198 39.732 76.0762 40.2126 76.8287 40.9378C77.5812 41.6629 78.1146 42.6566 78.1304 43.7024C78.1488 44.9223 77.374 46.1813 76.1257 46.4218C75.9086 46.4597 75.7035 46.5484 75.527 46.6806C74.3351 47.6063 75.6948 48.5755 75.6854 49.6177C75.6775 50.4873 74.711 51.0541 73.8437 51.0947C73.0329 51.1093 72.2422 50.8409 71.6073 50.3356C70.9723 49.8304 70.5325 49.1196 70.3634 48.3251C70.2326 47.6114 70.3336 46.8784 70.4186 46.1578C70.516 45.333 68.7426 43.3907 69.9141 44.8144C70.1427 45.0849 70.2971 45.4105 70.3619 45.7589C70.5569 46.8962 69.5237 47.2788 68.8721 47.909C68.5144 48.2654 68.2635 48.7151 68.148 49.2072C68.0325 49.6992 68.057 50.2138 68.2186 50.6926C67.6813 50.205 67.3308 49.5449 67.2275 48.8261C67.1243 48.1073 67.2747 47.375 67.6529 46.7554C67.8628 46.433 68.1332 46.1525 68.3323 45.8232C68.6428 45.3095 68.7285 44.192 67.8592 44.2227C67.2387 44.2446 66.5942 44.762 66.1172 44.0267Z" fill="#2F2E41"/>
</g>
<defs>
<clipPath id="clip0">
<rect width="159" height="138" fill="white"/>
</clipPath>
</defs>
</svg>
