<svg width="206" height="162" viewBox="0 0 206 162" fill="none" xmlns="http://www.w3.org/2000/svg">
<path opacity="0.1" d="M192.913 90.9468C185.699 100.834 188.08 114.946 192.249 126.19C193.646 129.953 195.233 133.934 194.508 138.029C193.624 143.035 189.467 146.786 185.147 148.829C177.27 152.552 167.965 151.958 160.919 147.267C154.839 143.218 150.559 136.489 144.36 132.633C133.987 126.182 120.52 129.065 108.975 133.99C100.807 137.474 91.8593 141.961 83.8996 138.743C78.2983 136.48 74.5266 130.717 72.5422 124.557C71.5841 121.583 70.9134 118.355 69.0046 116.027C67.8696 114.643 66.3697 113.678 64.8275 112.872C50.7525 105.51 32.6478 110.111 19.002 101.898C9.78935 96.3504 4.0554 85.5856 1.67301 74.2686C-0.709378 62.9516 -0.119769 51.0052 0.829134 39.2631C1.5035 30.9185 2.57032 22.0014 7.59306 15.4439C12.9051 8.51089 21.8082 5.75573 29.7697 6.8416C37.7313 7.92747 44.8693 12.3446 51.1136 17.6175C58.9241 24.1953 66.1099 32.4534 75.8238 34.9509C82.4403 36.6515 89.4695 35.4478 96.3477 34.9159C107.845 34.0288 119.302 35.0503 130.689 36.2043C141.589 37.3085 152.565 38.5416 162.889 42.1618C170.194 44.7237 175.985 49.566 182.864 52.8751C187.347 55.0321 192.279 55.5327 196.498 58.3192C201.705 61.7516 206.411 67.8325 204.884 75.1299C203.441 82.0666 196.745 85.6997 192.913 90.9468Z" fill="#06D6A0"/>
<path d="M198.584 91.0689C198.27 90.8882 198 90.641 197.793 90.345C197.585 90.0489 197.445 89.7111 197.383 89.3553C197.321 88.9995 197.337 88.6344 197.432 88.2856C197.526 87.9369 197.696 87.6131 197.929 87.3369L195.346 68.5054L200.728 68.7688L201.573 87.1371C202.012 87.5589 202.281 88.1269 202.329 88.7333C202.376 89.3397 202.199 89.9424 201.831 90.4271C201.462 90.9119 200.928 91.245 200.33 91.3632C199.731 91.4815 199.11 91.3768 198.584 91.0689V91.0689Z" fill="#F5DECD"/>
<path d="M201.466 69.0183C201.356 69.1478 201.214 69.2475 201.055 69.308L196.218 71.1487C195.975 71.2412 195.706 71.2373 195.466 71.1378C195.226 71.0383 195.033 70.8509 194.927 70.614L190.642 61.0127C190.231 60.1221 190.161 59.1121 190.446 58.1735C190.656 57.5036 191.044 56.9027 191.568 56.4341C192.092 55.9655 192.733 55.6466 193.424 55.511C193.955 55.402 194.504 55.4097 195.032 55.5336C195.665 55.6743 196.252 55.9699 196.741 56.3939C197.23 56.8179 197.606 57.3568 197.834 57.9619L201.643 68.0036C201.707 68.1731 201.724 68.3566 201.693 68.535C201.662 68.7134 201.583 68.8803 201.466 69.0183V69.0183Z" fill="#06D6A0"/>
<path d="M176.262 137.033H172.915L171.701 124.101L176.262 124.162V137.033Z" fill="#F5DECD"/>
<path d="M170.524 136.079H176.977V140.131H166.459C166.459 139.056 166.887 138.026 167.649 137.266C168.411 136.506 169.445 136.079 170.523 136.079H170.524Z" fill="#2F2E41"/>
<path d="M191.819 137.033H188.473L186.881 124.162H191.82L191.819 137.033Z" fill="#F5DECD"/>
<path d="M186.082 136.079H192.535V140.131H182.018C182.018 139.056 182.446 138.026 183.208 137.266C183.97 136.506 185.004 136.079 186.081 136.079H186.082Z" fill="#2F2E41"/>
<path d="M192.24 132.453L186.985 132.065C186.686 132.043 186.405 131.913 186.195 131.699C185.986 131.485 185.862 131.202 185.847 130.903L184.675 106.752C184.664 106.521 184.568 106.301 184.406 106.135C184.244 105.968 184.027 105.867 183.795 105.849C183.563 105.831 183.332 105.898 183.146 106.037C182.96 106.177 182.832 106.379 182.785 106.606L177.896 130.397C177.836 130.69 177.67 130.95 177.43 131.13C177.191 131.309 176.894 131.395 176.595 131.372L171.843 130.993C171.683 130.98 171.526 130.936 171.382 130.863C171.239 130.789 171.111 130.689 171.006 130.566C170.902 130.444 170.822 130.302 170.773 130.149C170.723 129.996 170.704 129.835 170.717 129.674C170.717 129.666 170.718 129.658 170.719 129.65L175.127 85.6995C175.144 85.5277 175.198 85.3615 175.284 85.2118C175.37 85.0621 175.487 84.9322 175.627 84.8307C175.767 84.7292 175.927 84.6584 176.097 84.6229C176.266 84.5874 176.441 84.588 176.61 84.6247L193.372 88.2579C193.65 88.3187 193.898 88.4732 194.074 88.6953C194.25 88.9174 194.344 89.1934 194.34 89.4766L193.559 131.255C193.553 131.575 193.421 131.88 193.192 132.105C192.963 132.33 192.655 132.456 192.334 132.457C192.303 132.457 192.272 132.455 192.24 132.453Z" fill="#2F2E41"/>
<path d="M187.642 48.9516C191.345 48.9516 194.346 45.9586 194.346 42.2666C194.346 38.5745 191.345 35.5815 187.642 35.5815C183.939 35.5815 180.938 38.5745 180.938 42.2666C180.938 45.9586 183.939 48.9516 187.642 48.9516Z" fill="#F5DECD"/>
<path d="M177.241 89.0895C176.596 88.5131 176.084 87.8043 175.741 87.0118C175.397 86.2193 175.229 85.362 175.25 84.4989C175.25 74.8906 183.591 53.4233 183.852 52.7548C183.876 52.5934 184.096 52.5237 185.252 51.746C186.408 50.9682 188.073 50.8481 190.204 51.3906C190.42 51.4459 190.618 51.5593 190.774 51.7186C190.93 51.8778 191.04 52.0768 191.091 52.2939L191.487 52.8647C191.522 53.0096 191.59 53.1443 191.686 53.2581C191.783 53.3718 191.904 53.4614 192.042 53.5196C193.76 54.2413 199.221 57.5692 197.36 70.0932C195.631 81.7272 194.93 88.568 194.709 90.9709C194.682 91.2559 194.557 91.5227 194.354 91.7249C194.151 91.9272 193.883 92.0519 193.597 92.0774C192.755 92.1525 191.309 92.2527 189.588 92.2527C185.595 92.2514 180.121 91.7152 177.241 89.0895Z" fill="#06D6A0"/>
<path d="M169.23 85.5298C169.07 85.2055 168.984 84.8502 168.977 84.4891C168.97 84.1279 169.043 83.7696 169.19 83.4395C169.337 83.1093 169.555 82.8154 169.828 82.5783C170.101 82.3412 170.423 82.1667 170.772 82.0672L179.15 64.9946L183.472 68.2038L173.909 83.9256C174.039 84.5201 173.945 85.1412 173.645 85.6712C173.346 86.2012 172.862 86.6032 172.285 86.801C171.708 86.9988 171.078 86.9786 170.515 86.7443C169.952 86.51 169.495 86.0779 169.23 85.5298H169.23Z" fill="#F5DECD"/>
<path d="M183.944 68.8221C183.78 68.8684 183.607 68.8727 183.441 68.8345L178.396 67.6756C178.142 67.6174 177.921 67.4646 177.777 67.2486C177.633 67.0326 177.578 66.7699 177.622 66.5144L179.431 56.1613C179.587 55.1932 180.094 54.3156 180.854 53.6942C181.404 53.2549 182.061 52.9714 182.758 52.8735C183.455 52.7757 184.166 52.8672 184.816 53.1383C185.318 53.3429 185.769 53.6541 186.138 54.0503C186.585 54.5186 186.907 55.0905 187.076 55.7143C187.246 56.3382 187.256 56.9942 187.107 57.6232L184.659 68.0772C184.617 68.2537 184.529 68.4158 184.403 68.5468C184.277 68.6778 184.119 68.7728 183.944 68.8221H183.944Z" fill="#06D6A0"/>
<path d="M186.073 48.3066C185.747 47.9747 185.506 47.569 185.371 47.1241C185.236 46.6793 185.211 46.2084 185.298 45.7518C185.532 44.5332 185.669 43.735 185.695 43.4447C185.784 42.452 184.778 41.6482 183.782 41.5192C183.743 41.5141 183.711 41.511 183.684 41.5088C183.709 41.5331 183.737 41.559 183.761 41.5819C183.95 41.7591 184.185 41.9796 184.129 42.2073C184.095 42.3443 183.97 42.4415 183.745 42.5042C182.188 42.9387 180.988 42.5397 179.97 41.2477C179.684 40.8806 179.487 40.4521 179.395 39.9962C179.03 38.2121 180.002 36.6912 180.882 35.7297C181.607 34.9368 182.782 33.9748 184.265 33.892C185.418 33.8279 186.789 34.4893 187.198 35.6814C187.392 35.3958 187.649 35.1589 187.951 34.9897C188.252 34.8205 188.588 34.7235 188.934 34.7065C189.721 34.6895 190.495 34.9043 191.161 35.3241C194.412 37.1809 195.809 41.6041 194.212 44.9831C193.207 47.1087 191.03 48.691 188.531 49.1126C188.375 49.1391 188.216 49.1525 188.058 49.1526C187.687 49.152 187.32 49.0768 186.978 48.9316C186.637 48.7865 186.329 48.5742 186.072 48.3076L186.073 48.3066Z" fill="#2F2E41"/>
<path d="M156.442 140.51H204.107C204.172 140.51 204.234 140.484 204.28 140.439C204.326 140.393 204.352 140.331 204.352 140.266C204.352 140.202 204.326 140.14 204.28 140.094C204.234 140.048 204.172 140.022 204.107 140.022H156.442C156.377 140.022 156.315 140.048 156.269 140.094C156.223 140.14 156.197 140.202 156.197 140.266C156.197 140.331 156.223 140.393 156.269 140.439C156.315 140.484 156.377 140.51 156.442 140.51Z" fill="#3F3D56"/>
<path d="M188.285 25.209L189.097 30.754" stroke="#00B2A9" stroke-width="2" stroke-linecap="round"/>
<path d="M202.291 34.3008L196.111 35.1224" stroke="#00B2A9" stroke-width="2" stroke-linecap="round"/>
<path d="M198.279 24.7959L193.325 31.7159" stroke="#00B2A9" stroke-width="2" stroke-linecap="round"/>
<circle cx="98" cy="72" r="40" fill="#F9E000"/>
<g clip-path="url(#clip0)">
<path d="M104.044 75.2121C103.264 74.4081 102.068 74.4081 101.34 75.2121L96.9196 79.7681L92.2396 74.9441L96.6596 70.3881C97.3876 69.5841 97.3876 68.3513 96.6596 67.6009C95.8796 66.8505 94.6836 66.8505 93.9556 67.6009L89.5356 72.1569L85.6356 68.1369C84.7516 67.2257 83.3996 67.2257 82.5156 68.1369C81.6316 69.0481 81.6316 70.4953 82.5156 71.3529L83.1916 72.0497L80.9556 74.3545C76.9516 78.4817 76.4836 84.9673 79.5516 89.6305L74.9756 94.3473C74.1436 95.2049 74.1436 96.7057 74.9756 97.5633C75.4436 98.0457 75.9636 98.2065 76.5356 98.2065C77.1076 98.2065 77.6796 97.9921 78.0956 97.5633L82.6716 92.8465C84.6476 94.2401 86.9356 94.9369 89.2236 94.9369C92.2396 94.9369 95.2036 93.7577 97.4916 91.3993L99.7276 89.0945L100.404 89.7913C100.82 90.2201 101.392 90.4345 101.964 90.4345C102.536 90.4345 103.108 90.2201 103.524 89.7913C104.408 88.8801 104.408 87.4329 103.524 86.5753L99.6756 82.6089L104.096 78.0529C104.772 77.2489 104.772 76.0161 104.044 75.2121ZM94.3716 88.1833C91.5116 91.1313 86.9356 91.1313 84.0756 88.1833C81.2156 85.2353 81.2156 80.5185 84.0756 77.5705L86.3116 75.2657L96.6076 85.8785L94.3716 88.1833Z" fill="#373737"/>
<path d="M123.076 48.0369C122.192 47.1257 120.788 47.1257 119.956 48.0369L115.38 52.7537C110.856 49.6985 104.46 50.1809 100.56 54.2009L98.3242 56.5057L97.6482 55.8089C96.7642 54.8977 95.4122 54.8977 94.5282 55.8089C93.6442 56.7201 93.6442 58.1673 94.5282 59.0249L112.364 77.4097C112.78 77.8385 113.352 78.0529 113.924 78.0529C114.496 78.0529 115.068 77.8385 115.484 77.4097C116.368 76.4985 116.368 75.0513 115.484 74.1937L114.808 73.4969L117.044 71.1921C119.228 68.9409 120.476 65.8857 120.476 62.6697C120.476 60.2041 119.748 57.8993 118.448 55.9161L123.024 51.1993C123.908 50.3417 123.908 48.8945 123.076 48.0369ZM113.924 68.0297L111.688 70.3345L101.392 59.7217L103.628 57.4169C106.384 54.5761 111.168 54.5761 113.924 57.4169C115.276 58.8105 116.056 60.7401 116.056 62.7233C116.056 64.7065 115.328 66.6361 113.924 68.0297Z" fill="#373737"/>
</g>
<defs>
<clipPath id="clip0">
<rect width="52" height="67" fill="white" transform="translate(73 46)"/>
</clipPath>
</defs>
</svg>
