<svg width="188" height="158" viewBox="0 0 188 158" fill="none" xmlns="http://www.w3.org/2000/svg">
<path fill-rule="evenodd" clip-rule="evenodd" d="M102.997 0.402004C127.93 3.44668 136.884 30.131 151.246 49.0684C163.686 65.4738 181.64 80.3982 178.675 100.195C175.472 121.578 157.381 138.188 136.426 148.013C114.771 158.166 89.141 162.148 67.2434 152.442C45.3775 142.75 34.0063 121.636 28.1507 100.021C22.1171 77.7493 21.2087 53.82 35.4068 34.9226C50.8009 14.4334 76.1028 -2.88226 102.997 0.402004Z" fill="#DFF3F2"/>
<g clip-path="url(#clip0)">
<path opacity="0.1" d="M12.3044 58.8728H28.644V81.3167H13.4992C13.4605 81.5488 13.4219 81.7791 13.3784 82.0112H28.644V100.108C28.6182 100.108 28.5925 100.089 28.5683 100.079C28.139 99.9072 27.7096 99.725 27.2802 99.5325C27.1885 99.4903 27.0983 99.4465 27.0049 99.4059C26.5755 99.2015 26.1462 98.9851 25.7168 98.7569C25.5671 98.6774 25.4173 98.5947 25.2708 98.5103C22.8871 97.17 20.7206 95.4706 18.8464 93.4708C18.79 93.4173 18.7385 93.3589 18.6854 93.3086C18.4245 93.023 18.1685 92.7342 17.9206 92.4389C17.8272 92.3302 17.737 92.2199 17.6452 92.1144C17.3522 91.7542 17.0688 91.3811 16.7951 91.0063C16.7532 90.9495 16.7146 90.8943 16.6743 90.844C15.553 89.2805 14.6232 87.5862 13.9049 85.7981C13.8824 85.7445 13.8614 85.6861 13.8405 85.6358C13.6183 85.0679 13.417 84.492 13.2431 83.9046C13.1691 83.6596 13.0966 83.4179 13.0354 83.1631C13.0129 83.0901 12.9952 83.0155 12.9759 82.9425C12.071 79.3486 11.9663 75.6137 11.9663 71.8965C11.9663 71.4639 11.9663 71.0312 11.9663 70.5986C11.9792 69.081 11.9969 67.565 12.0194 66.0507C12.028 65.6613 12.0361 65.2703 12.0436 64.8776C12.0661 63.8836 12.0983 62.8874 12.1402 61.889C12.1499 61.6132 12.1627 61.3357 12.1772 61.0615C12.1837 60.9025 12.1917 60.7435 12.2014 60.5845C12.2304 60.0102 12.2647 59.4396 12.3044 58.8728Z" fill="#06D6A0"/>
<path opacity="0.1" d="M28.6442 33.8831H19.6807C21.1384 31.5864 22.7304 29.3792 24.4482 27.273C25.7814 25.6246 27.1855 24.0183 28.6442 22.4705V33.8831Z" fill="#06D6A0"/>
<path opacity="0.1" d="M28.644 34.5742V58.1782H12.356C12.356 58.1101 12.3656 58.0403 12.3721 57.9722C12.3865 57.7856 12.401 57.6006 12.4171 57.414C12.4332 57.1966 12.4542 56.9792 12.4751 56.765C12.496 56.5509 12.517 56.2913 12.5427 56.056C12.5685 55.8208 12.5894 55.5823 12.6152 55.347C12.6409 55.1117 12.6667 54.8765 12.6957 54.6428C12.7247 54.4092 12.7504 54.1723 12.7826 53.9387C12.8068 53.7456 12.8309 53.5509 12.8583 53.3562C12.8953 53.082 12.934 52.8078 12.9742 52.5352C12.9742 52.493 12.9871 52.4525 12.9936 52.4119C13.2878 50.4167 13.6877 48.4388 14.1915 46.4866C14.7205 44.439 15.3959 42.4327 16.2122 40.4833C17.0796 38.4408 18.0957 36.4658 19.2521 34.5742H28.644Z" fill="#06D6A0"/>
<path opacity="0.1" d="M32.5474 58.8727V81.3166H67.4485V58.8727H32.5474ZM32.5474 82.011V101.286C32.747 101.327 32.9435 101.367 33.1415 101.401C33.4072 101.453 33.6745 101.5 33.9466 101.541L34.1076 101.564C34.2138 101.582 34.3217 101.596 34.4296 101.609C34.6985 101.648 34.9674 101.677 35.2347 101.703C35.3603 101.716 35.4907 101.726 35.6179 101.737L35.9286 101.76C36.0977 101.773 36.2651 101.783 36.4326 101.789C36.5356 101.789 36.6387 101.797 36.7434 101.801C36.848 101.804 36.9044 101.801 36.9881 101.801H37.2924C37.4309 101.801 37.5693 101.801 37.7062 101.801H37.8833C38.0218 101.801 38.1603 101.801 38.2971 101.788H38.3052C38.4018 101.788 38.4968 101.788 38.5934 101.776C38.6207 101.778 38.6482 101.778 38.6755 101.776C38.756 101.776 38.8365 101.776 38.9138 101.767C38.932 101.765 38.9503 101.765 38.9685 101.767C39.1473 101.755 39.3276 101.741 39.5095 101.724C39.6915 101.708 39.8638 101.689 40.0457 101.669L40.4112 101.624C41.9048 101.413 43.3817 101.096 44.831 100.676C48.0883 99.7611 51.2715 98.481 54.5272 97.5448C58.7329 96.336 63.3829 95.7406 67.4469 97.2122V82.011H32.5474ZM67.4485 33.883V4.00322C63.6278 3.96086 59.8174 4.41069 56.11 5.34178C47.272 7.5792 39.3357 12.4321 32.5474 18.63V33.8814H34.304V34.5742H32.5474V58.1783H67.4485V34.5742H41.49V33.8798L67.4485 33.883ZM112.287 23.7895C110.101 23.7116 107.927 23.0156 105.959 21.9366C102.201 19.8777 99.1969 16.6944 95.8414 14.0108C88.8696 8.41803 80.2232 5.04162 71.353 4.20441V33.883H121.172L121.296 33.7516L112.287 23.7895ZM116.826 22.9783L121.639 28.3017V21.5781C120.019 21.7841 118.609 22.2628 116.826 22.9718V22.9783ZM121.639 106.073V82.011H111.376C111.35 81.9088 111.321 81.805 111.289 81.7011C111.32 81.805 111.347 81.9088 111.374 82.011H71.353V99.4107C71.733 99.6946 72.1082 99.9948 72.4801 100.297C72.8816 100.628 73.2803 100.962 73.6764 101.301L74.0758 101.633C74.2674 101.796 74.4622 101.958 74.6554 102.112C75.0429 102.427 75.4331 102.738 75.826 103.047C76.0224 103.202 76.2199 103.355 76.4185 103.506C79.5634 105.928 82.8806 108.114 86.3433 110.046C87.1194 110.483 87.9035 110.903 88.6925 111.313C89.2174 111.586 89.746 111.853 90.2785 112.115C91.0771 112.507 91.8821 112.886 92.6936 113.251C100.175 116.635 108.087 118.956 116.201 120.149C118.003 120.417 119.812 120.627 121.629 120.782V106.069H121.79L121.639 106.073ZM71.353 34.5742V58.1783H121.639V34.5742H71.353ZM71.353 58.8694V81.3166H121.639V58.8727L71.353 58.8694ZM125.542 21.5456V29.0578L131.683 22.2644C129.648 21.9258 127.601 21.6862 125.542 21.5456ZM125.542 58.8727V81.3166H174.449V58.8727H125.542ZM174.277 107.852L174.449 82.011H125.542V121.043C128.692 121.175 131.847 121.137 134.993 120.928H135.048C136.551 120.831 138.047 120.692 139.535 120.513H139.569C147.514 119.581 155.283 117.49 162.631 114.305L174.277 107.852ZM183.885 62.559C183.699 62.1263 183.509 61.6937 183.313 61.261C182.949 60.4497 182.566 59.6612 182.17 58.8743H178.354V81.3166H188C187.992 74.9597 186.395 68.4697 183.885 62.559ZM178.354 82.011V104.239C181.07 101.616 183.368 98.6124 185.02 95.1792C187.008 91.0435 187.918 86.5686 187.994 82.0094L178.354 82.011ZM178.354 52.3324V58.1734H181.813C180.764 56.1655 179.61 54.2157 178.354 52.3324ZM145.185 25.9507C144.931 25.8517 144.675 25.7527 144.419 25.6586C141.72 24.6534 138.961 23.8178 136.159 23.1567L126.759 33.5504L126.576 33.75L126.696 33.8814H160.152C155.492 30.6504 150.468 27.9882 145.185 25.9507ZM161.134 34.5742H126.228L125.542 35.2054V58.1783H131.556H174.449V47.048C170.571 42.3215 166.094 38.1279 161.134 34.5742Z" fill="#06D6A0"/>
<path opacity="0.1" d="M28.644 46.4817V58.1782H12.356C12.356 58.1101 12.3656 58.0403 12.3721 57.9722C12.3865 57.7856 12.401 57.6006 12.4171 57.414C12.4332 57.1966 12.4542 56.9792 12.4751 56.765C12.496 56.5509 12.517 56.2913 12.5427 56.056C12.5685 55.8208 12.5894 55.5822 12.6152 55.347C12.6409 55.1117 12.6667 54.8765 12.6957 54.6428C12.7247 54.4092 12.7504 54.1723 12.7826 53.9387C12.8068 53.7456 12.8309 53.5509 12.8583 53.3562C12.8953 53.082 12.934 52.8078 12.9742 52.5352C12.9742 52.493 12.9871 52.4525 12.9936 52.4119C13.2878 50.4167 13.6877 48.4388 14.1915 46.4866L28.644 46.4817Z" fill="#06D6A0"/>
<path opacity="0.1" d="M12.3044 58.8728H28.644V81.3167H13.4992C13.4605 81.5488 13.4219 81.7791 13.3784 82.0112H28.644V100.108C28.6182 100.108 28.5925 100.089 28.5683 100.079C28.139 99.9072 27.7096 99.725 27.2802 99.5325C27.1885 99.4903 27.0983 99.4465 27.0049 99.4059C26.5755 99.2015 26.1462 98.9851 25.7168 98.7569C25.5671 98.6774 25.4173 98.5947 25.2708 98.5103C22.8871 97.17 20.7206 95.4706 18.8464 93.4708C18.79 93.4173 18.7385 93.3589 18.6854 93.3086C18.4245 93.023 18.1685 92.7342 17.9206 92.4389C17.8272 92.3302 17.737 92.2199 17.6452 92.1144C17.3522 91.7542 17.0688 91.3811 16.7951 91.0063C16.7532 90.9495 16.7146 90.8943 16.6743 90.844C15.553 89.2805 14.6232 87.5862 13.9049 85.7981C13.8824 85.7445 13.8614 85.6861 13.8405 85.6358C13.6183 85.0679 13.417 84.492 13.2431 83.9046C13.1691 83.6596 13.0966 83.4179 13.0354 83.1631C13.0129 83.0901 12.9952 83.0155 12.9759 82.9425C12.071 79.3486 11.9663 75.6137 11.9663 71.8965C11.9663 71.4639 11.9663 71.0312 11.9663 70.5986C11.9792 69.081 11.9969 67.565 12.0194 66.0507C12.028 65.6613 12.0361 65.2703 12.0436 64.8776C12.0661 63.8836 12.0983 62.8874 12.1402 61.889C12.1499 61.6132 12.1627 61.3357 12.1772 61.0615C12.1837 60.9025 12.1917 60.7435 12.2014 60.5845C12.2304 60.0102 12.2647 59.4396 12.3044 58.8728Z" fill="#06D6A0"/>
<path opacity="0.1" d="M44.8323 37.9556V58.1783H32.5454V37.9556H34.2972V31.1086H41.4881V37.9556H44.8323Z" fill="#06D6A0"/>
<path opacity="0.1" d="M44.8307 58.8711H32.5454V81.315H44.8307V58.8711Z" fill="#06D6A0"/>
<path opacity="0.1" d="M32.5474 82.011H44.8326V100.67C43.3835 101.09 41.9065 101.406 40.4128 101.616C40.2905 101.633 40.1697 101.648 40.0473 101.661C39.867 101.682 39.6883 101.702 39.5096 101.718L38.9702 101.762H38.9154L38.6771 101.775H38.595C38.4984 101.775 38.4034 101.786 38.3068 101.788H38.2987C38.1603 101.788 38.0234 101.797 37.8849 101.801H37.7078C37.571 101.801 37.4341 101.801 37.294 101.801H36.9913H36.745C36.6403 101.801 36.5373 101.801 36.4326 101.788C36.2673 101.781 36.0998 101.771 35.9302 101.758L35.6195 101.736C35.4907 101.726 35.3619 101.713 35.2347 101.7C34.9642 101.676 34.6958 101.645 34.4296 101.607L34.1076 101.562L33.9466 101.539C33.6777 101.499 33.4104 101.453 33.1415 101.401C32.9418 101.366 32.7454 101.325 32.5474 101.283V82.011Z" fill="#06D6A0"/>
<path opacity="0.1" d="M121.637 35.5671H111.506V58.1766H121.637V35.5671Z" fill="#06D6A0"/>
<path opacity="0.1" d="M121.638 58.8711V81.3166H71.3525V71.6352H98.137V77.3464H111.506V58.8711H121.638Z" fill="#06D6A0"/>
<path opacity="0.1" d="M121.798 106.078C121.745 106.078 121.691 106.078 121.637 106.068V120.792C119.822 120.642 118.013 120.431 116.211 120.161C108.093 118.968 100.178 116.648 92.6931 113.265C90.5323 112.283 88.4156 111.213 86.3428 110.054C82.8812 108.121 79.5646 105.935 76.4196 103.514C75.6274 102.904 74.847 102.28 74.0785 101.643C73.5455 101.199 73.0174 100.744 72.4796 100.305C72.1093 100.001 71.7341 99.7011 71.3525 99.4155V82.0111H111.374C111.345 81.9072 111.319 81.805 111.29 81.7012C111.321 81.805 111.35 81.9072 111.375 82.0111H121.638V106.066C121.691 106.068 121.745 106.073 121.798 106.078Z" fill="#06D6A0"/>
<path opacity="0.1" d="M148.061 33.8831H141.459V31.8161H144.417V25.6587C144.674 25.7539 144.929 25.8512 145.184 25.9507V31.8161H148.059L148.061 33.8831Z" fill="#06D6A0"/>
<path opacity="0.1" d="M163.967 58.1782H131.555C131.558 58.179 131.562 58.179 131.565 58.1782H131.55H125.542V35.5688H127.245V52.2805H135.028V42.3833H141.461V34.5742H148.062V42.3881H154.492V52.2853H163.969L163.967 58.1782Z" fill="#06D6A0"/>
<path opacity="0.1" d="M125.542 58.8728V81.3167H163.969V58.8728H125.542ZM174.394 107.734L174.449 89.9679H163.969V82.0177H125.542V121.043C128.692 121.175 131.847 121.137 134.993 120.928H135.048C136.55 120.831 138.046 120.692 139.535 120.513H139.569C147.514 119.581 155.283 117.49 162.631 114.305" fill="#06D6A0"/>
<path opacity="0.1" d="M179.03 82.011H187.993C187.916 86.5686 187.008 91.045 185.019 95.1791C183.367 98.614 181.07 101.617 178.354 104.241V89.9628H179.03V82.011Z" fill="#06D6A0"/>
<path opacity="0.1" d="M188 81.3167H179.03V62.5591H183.884C186.394 68.4698 187.992 74.9598 188 81.3167Z" fill="#06D6A0"/>
<path opacity="0.1" d="M121.639 41.8528H116.211V48.9414H121.639V41.8528Z" fill="#06D6A0"/>
<path opacity="0.1" d="M121.639 56.5461H116.211V58.1784H121.639V56.5461Z" fill="#06D6A0"/>
<path opacity="0.1" d="M121.639 58.8711H116.211V63.6331H121.639V58.8711Z" fill="#06D6A0"/>
<path opacity="0.1" d="M121.639 71.2393H116.211V78.3279H121.639V71.2393Z" fill="#06D6A0"/>
<path opacity="0.1" d="M121.639 85.9326H116.211V93.0213H121.639V85.9326Z" fill="#06D6A0"/>
<path opacity="0.1" d="M121.639 106.066C121.692 106.066 121.745 106.066 121.8 106.078C121.747 106.078 121.693 106.078 121.639 106.068V107.715H116.211V100.626H121.639V106.066Z" fill="#06D6A0"/>
<path opacity="0.1" d="M121.639 115.318V120.792C119.822 120.642 118.013 120.431 116.211 120.161V115.318H121.639Z" fill="#06D6A0"/>
<path opacity="0.1" d="M94.614 80.7957H71.3525V81.3165H94.614V80.7957Z" fill="#06D6A0"/>
<path opacity="0.1" d="M94.614 82.0093H71.3525V84.005H94.614V82.0093Z" fill="#06D6A0"/>
<path opacity="0.1" d="M94.614 90.5471H71.3525V93.7564H94.614V90.5471Z" fill="#06D6A0"/>
<path opacity="0.1" d="M94.6139 100.298V103.507H76.4195C75.6273 102.899 74.8469 102.275 74.0783 101.635C73.5438 101.192 73.0157 100.738 72.4795 100.298H94.6139Z" fill="#06D6A0"/>
<path opacity="0.1" d="M94.6145 110.048V113.265H92.6936C90.5328 112.283 88.416 111.213 86.3433 110.054L94.6145 110.048Z" fill="#06D6A0"/>
<path opacity="0.1" d="M139.572 61.0469H134.993V65.6612H139.572V61.0469Z" fill="#06D6A0"/>
<path opacity="0.1" d="M40.4239 39.5471H35.8447V44.1615H40.4239V39.5471Z" fill="#06D6A0"/>
<path opacity="0.1" d="M40.4239 50.2654H35.8447V54.8798H40.4239V50.2654Z" fill="#06D6A0"/>
<path opacity="0.1" d="M40.4239 60.9836H35.8447V65.598H40.4239V60.9836Z" fill="#06D6A0"/>
<path opacity="0.1" d="M40.4239 71.7002H35.8447V76.3146H40.4239V71.7002Z" fill="#06D6A0"/>
<path opacity="0.1" d="M40.4239 82.4182H35.8447V87.0326H40.4239V82.4182Z" fill="#06D6A0"/>
<path opacity="0.1" d="M40.4239 93.1365H35.8447V97.7508H40.4239V93.1365Z" fill="#06D6A0"/>
<path opacity="0.1" d="M157.053 61.0469H152.474V65.6612H157.053V61.0469Z" fill="#06D6A0"/>
<path opacity="0.1" d="M139.572 72.4287H134.993V77.0431H139.572V72.4287Z" fill="#06D6A0"/>
<path opacity="0.1" d="M157.053 72.4287H152.474V77.0431H157.053V72.4287Z" fill="#06D6A0"/>
<path opacity="0.1" d="M139.572 83.8088H134.993V88.4232H139.572V83.8088Z" fill="#06D6A0"/>
<path opacity="0.1" d="M157.053 83.8088H152.474V88.4232H157.053V83.8088Z" fill="#06D6A0"/>
<path opacity="0.1" d="M139.572 95.1904H134.993V99.8048H139.572V95.1904Z" fill="#06D6A0"/>
<path opacity="0.1" d="M157.053 95.1904H152.474V99.8048H157.053V95.1904Z" fill="#06D6A0"/>
<path opacity="0.1" d="M139.572 106.573H134.993V111.187H139.572V106.573Z" fill="#06D6A0"/>
<path opacity="0.1" d="M157.053 106.573H152.474V111.187H157.053V106.573Z" fill="#06D6A0"/>
<path opacity="0.1" d="M134.993 120.928V117.952H139.571V120.505L134.993 120.928Z" fill="#06D6A0"/>
<path opacity="0.1" d="M12.9741 52.407V55.0468H28.6439V52.407H12.9741ZM14.5343 54.8813H13.2462V52.5741H14.5343V54.8813ZM16.0945 54.8813H14.8064V52.5741H16.0945V54.8813ZM17.6515 54.8813H16.3634V52.5741H17.6515V54.8813ZM19.2117 54.8813H17.9236V52.5741H19.2117V54.8813ZM20.7703 54.8813H19.4822V52.5741H20.7703V54.8813ZM22.3306 54.8813H21.0425V52.5741H22.3306V54.8813ZM23.8908 54.8813H22.6027V52.5741H23.8908V54.8813ZM25.4494 54.8813H24.1613V52.5741H25.4494V54.8813ZM27.008 54.8813H25.7199V52.5741H27.008V54.8813ZM28.5682 54.8813H27.2801V52.5741H28.5682V54.8813Z" fill="#06D6A0"/>
<path opacity="0.1" d="M12.9741 60.0913V62.7311H28.6439V60.0913H12.9741ZM14.5343 62.5656H13.2462V60.2584H14.5343V62.5656ZM16.0945 62.5656H14.8064V60.2584H16.0945V62.5656ZM17.6515 62.5656H16.3634V60.2584H17.6515V62.5656ZM19.2117 62.5656H17.9236V60.2584H19.2117V62.5656ZM20.7703 62.5656H19.4822V60.2584H20.7703V62.5656ZM22.3306 62.5656H21.0425V60.2584H22.3306V62.5656ZM23.8908 62.5656H22.6027V60.2584H23.8908V62.5656ZM25.4494 62.5656H24.1613V60.2584H25.4494V62.5656ZM27.008 62.5656H25.7199V60.2584H27.008V62.5656ZM28.5682 62.5656H27.2801V60.2584H28.5682V62.5656Z" fill="#06D6A0"/>
<path opacity="0.1" d="M12.9741 67.7769V70.415H28.6439V67.7769H12.9741ZM14.5343 70.2479H13.2462V67.9407H14.5343V70.2479ZM16.0945 70.2479H14.8064V67.9407H16.0945V70.2479ZM17.6515 70.2479H16.3634V67.9407H17.6515V70.2479ZM19.2117 70.2479H17.9236V67.9407H19.2117V70.2479ZM20.7703 70.2479H19.4822V67.9407H20.7703V70.2479ZM22.3306 70.2479H21.0425V67.9407H22.3306V70.2479ZM23.8908 70.2479H22.6027V67.9407H23.8908V70.2479ZM25.4494 70.2479H24.1613V67.9407H25.4494V70.2479ZM27.008 70.2479H25.7199V67.9407H27.008V70.2479ZM28.5682 70.2479H27.2801V67.9407H28.5682V70.2479Z" fill="#06D6A0"/>
<path opacity="0.1" d="M12.9741 75.4612V78.0994H28.6439V75.4612H12.9741ZM14.5343 77.9339H13.2462V75.6234H14.5343V77.9339ZM16.0945 77.9339H14.8064V75.6234H16.0945V77.9339ZM17.6515 77.9339H16.3634V75.6234H17.6515V77.9339ZM19.2117 77.9339H17.9236V75.6234H19.2117V77.9339ZM20.7703 77.9339H19.4822V75.6234H20.7703V77.9339ZM22.3306 77.9339H21.0425V75.6234H22.3306V77.9339ZM23.8908 77.9339H22.6027V75.6234H23.8908V77.9339ZM25.4494 77.9339H24.1613V75.6234H25.4494V77.9339ZM27.008 77.9339H25.7199V75.6234H27.008V77.9339ZM28.5682 77.9339H27.2801V75.6234H28.5682V77.9339Z" fill="#06D6A0"/>
<path opacity="0.1" d="M13.0503 83.1418C13.1115 83.3917 13.1839 83.6383 13.258 83.8833V83.309H14.5461V85.6145H13.8554C13.8747 85.6697 13.8956 85.7265 13.9182 85.7768H28.6508V83.1418H13.0503ZM16.1095 85.6145H14.8214V83.309H16.1095V85.6145ZM17.6665 85.6145H16.3784V83.309H17.6665V85.6145ZM19.2267 85.6145H17.9386V83.309H19.2267V85.6145ZM20.7853 85.6145H19.4972V83.309H20.7853V85.6145ZM22.3456 85.6145H21.0575V83.309H22.3456V85.6145ZM23.9058 85.6145H22.6177V83.309H23.9058V85.6145ZM25.4644 85.6145H24.1763V83.309H25.4644V85.6145ZM27.023 85.6145H25.7349V83.309H27.023V85.6145ZM28.5832 85.6145H27.2951V83.309H28.5832V85.6145Z" fill="#06D6A0"/>
<path opacity="0.1" d="M16.6797 90.8259C16.7216 90.8778 16.7602 90.9363 16.8004 90.9882H17.6522V92.0963L17.9275 92.4208V90.9817H19.2156V93.3083H18.6859C18.7374 93.3619 18.7873 93.4187 18.8469 93.4706H28.6413V90.8259H16.6797ZM20.7791 93.3083H19.491V90.9914H20.7791V93.3083ZM22.3393 93.3083H21.0512V90.9914H22.3393V93.3083ZM23.8995 93.3083H22.6114V90.9914H23.8995V93.3083ZM25.4581 93.3083H24.17V90.9914H25.4581V93.3083ZM27.0167 93.3083H25.7286V90.9914H27.0167V93.3083ZM28.5769 93.3083H27.2888V90.9914H28.5769V93.3083Z" fill="#06D6A0"/>
<path opacity="0.1" d="M25.2754 98.5103C25.4235 98.5946 25.5733 98.6725 25.723 98.7553V98.6741H27.0111V99.4059C27.1045 99.4464 27.193 99.4902 27.2848 99.5324V98.6741H28.5729V100.079C28.5974 100.09 28.6227 100.1 28.6486 100.107V98.5103H25.2754Z" fill="#06D6A0"/>
<path opacity="0.1" d="M121.637 106.066H121.798H121.637ZM111.289 81.7012C111.32 81.8051 111.347 81.9089 111.375 82.0111C111.35 81.9089 111.321 81.8051 111.289 81.7012ZM34.3042 33.8831V34.5743H41.4966V33.8799L34.3042 33.8831ZM121.639 106.066H121.8H121.639ZM111.289 81.7012C111.32 81.8051 111.347 81.9089 111.375 82.0111C111.35 81.9089 111.321 81.8051 111.289 81.7012ZM121.637 106.066H121.798H121.637ZM111.289 81.7012C111.32 81.8051 111.347 81.9089 111.375 82.0111C111.35 81.9089 111.321 81.8051 111.289 81.7012Z" fill="#06D6A0"/>
<path opacity="0.1" d="M141.599 144C150.264 144 157.288 142.863 157.288 141.461C157.288 140.058 150.264 138.922 141.599 138.922C132.934 138.922 125.91 140.058 125.91 141.461C125.91 142.863 132.934 144 141.599 144Z" fill="#06D6A0"/>
<path opacity="0.1" d="M70.8405 141.461C79.5053 141.461 86.5295 140.324 86.5295 138.922C86.5295 137.519 79.5053 136.382 70.8405 136.382C62.1756 136.382 55.1514 137.519 55.1514 138.922C55.1514 140.324 62.1756 141.461 70.8405 141.461Z" fill="#06D6A0"/>
<path d="M88.9027 71.7796C88.8989 71.7635 88.8905 71.7488 88.8786 71.7374C88.6387 71.4989 85.5794 67.1392 85.5794 67.1392C85.5794 67.1392 85.4184 66.6525 85.1576 66.0197C85.2412 65.9106 85.304 65.7868 85.3427 65.6547C85.3568 65.5986 85.367 65.5417 85.3733 65.4843C85.3733 65.4665 85.3862 65.4518 85.391 65.434C85.4469 65.2139 85.4414 64.9826 85.3749 64.7655C85.357 64.8212 85.335 64.8755 85.3089 64.9278C85.2483 64.7388 85.1674 64.5571 85.0674 64.3859C84.6617 63.6817 84.082 63.0879 83.6553 62.4016C83.0092 61.3352 82.7524 60.0752 82.9291 58.8386C82.9291 58.9018 82.9291 58.9667 82.9291 59.03C82.9453 58.7848 82.9776 58.5409 83.0258 58.2999C83.093 58.0256 83.183 57.7575 83.2947 57.4984C83.6779 56.6141 84.2978 55.8434 84.6745 54.9559C84.801 54.6566 84.897 54.3451 84.9611 54.0263C85.0939 53.4937 85.1423 52.9434 85.1044 52.3956C85.1044 52.5254 85.0835 52.6553 85.0642 52.7834C85.0235 51.4665 84.4957 50.2124 83.5845 49.2675C82.269 47.9354 80.3803 47.4178 78.5738 47.1453C77.8146 47.056 77.0896 46.7772 76.4645 46.334C75.7705 45.8813 74.8737 45.7726 74.0622 45.8716C73.1295 45.9732 72.2628 46.405 71.6164 47.0901C70.7582 48.0409 70.3863 49.3875 69.3848 50.1891C68.7777 50.6758 68.0081 50.903 67.3013 51.2339C66.5944 51.5649 65.9262 52.0452 65.6992 52.7558C65.6992 52.7558 65.6992 52.7461 65.6992 52.7412V52.7818L65.6895 52.8078C65.4544 53.6482 65.9085 54.5033 66.1452 55.3421C66.3915 56.2101 66.4076 57.1268 66.4205 58.0241C66.4382 59.1209 66.4543 60.2193 66.4366 61.3177C66.4286 61.7493 66.4141 62.1858 66.3819 62.6157C66.0008 62.7318 65.6306 62.8817 65.2757 63.0635C64.915 63.3004 63.5658 64.7688 63.5658 64.7688L60.9268 74.9288L60.9622 74.9694L60.9268 75.1073L61.0604 75.0765C61.4339 75.4821 62.5498 76.6373 63.7541 77.3577L63.8668 79.3501C63.8668 79.3501 64.0021 81.349 65.8264 82.1749C65.8682 82.8677 65.9987 85.6811 65.3949 86.7957C64.9768 87.6101 64.7801 88.5214 64.8249 89.4372C64.8249 89.4372 65.0358 91.1278 64.7959 92.0169C64.6557 92.6111 64.6453 93.2289 64.7653 93.8276C64.7653 93.8276 64.7653 94.0239 64.7653 94.3614C64.7653 96.1608 64.7862 101.927 64.7653 102.579C64.7347 103.35 64.7653 114.748 64.7653 114.748C64.7653 114.748 64.6156 120.445 64.1357 121.988C63.6559 123.531 63.7767 128.64 63.7767 128.64C63.7767 128.64 63.4756 134.726 64.5399 135.926C64.5399 135.98 64.5302 136.035 64.5286 136.089C64.5286 136.113 64.5286 136.141 64.5286 136.165C64.5157 136.627 64.6043 137.119 64.9988 137.27C65.8038 137.581 66.8681 138.516 67.0694 138.784C67.2707 139.051 68.4412 139.718 69.9676 139.54C70.9238 139.431 71.8861 139.387 72.8481 139.407C72.8481 139.407 73.4503 139.296 73.2555 138.542C73.1299 138.071 72.6598 137.348 72.3249 136.872C72.386 136.889 72.4456 136.902 72.502 136.913L72.5599 136.924H72.605C72.6297 136.926 72.6544 136.926 72.6791 136.924H72.7113C72.7413 136.927 72.7714 136.927 72.8014 136.924C73.2056 136.885 74.7127 137.593 74.9816 138.06C75.2505 138.527 76.1988 138.883 76.9137 138.972C77.3388 139.024 78.4111 138.936 79.3112 138.819C79.7645 138.772 80.2134 138.69 80.654 138.573C80.8666 138.492 80.9117 138.232 80.8505 137.94C80.7782 137.569 80.5815 137.234 80.2934 136.992C80.0325 136.806 79.688 136.314 79.4336 135.912L79.3659 135.803C79.8152 135.372 80.6267 133.96 80.873 133.668C81.1725 133.313 80.39 120.318 80.39 120.318V113.804L81.5895 107.638L82.4284 104.375L83.1481 99.4496C83.1481 99.4496 84.4072 93.6962 84.0192 93.1316C84.0192 93.1202 83.6972 87.1965 83.3591 85.7736C83.2125 85.1392 83.2496 83.7114 83.3365 82.3225C83.4274 82.2316 83.4907 82.1165 83.5192 81.9907C83.5477 81.8649 83.5402 81.7335 83.4975 81.6119C83.4735 81.5287 83.4422 81.4478 83.4041 81.3701C83.4041 81.3458 83.4041 81.3198 83.4041 81.2955C84.0997 80.973 84.8265 80.724 85.573 80.5524C86.7725 80.3155 86.473 79.6925 86.473 79.6925C86.473 79.6925 86.7435 79.1587 86.9223 78.8325C87.101 78.5064 86.9529 75.6281 86.9223 75.3912C86.911 75.2955 86.8369 74.7666 86.7516 74.1663C87.1364 73.8904 87.6372 73.5481 88.183 73.2236C89.2215 72.6038 88.9881 71.9499 88.9027 71.7796ZM73.2523 112.915C73.2523 112.915 72.3522 115.228 72.7129 115.821C73.0736 116.413 72.6533 118.611 72.6533 118.611L72.3522 121.874C72.3522 121.874 71.5133 127.926 71.8128 129.349C72.0479 130.465 72.1349 133.799 72.1622 135.19C72.1416 135.198 72.1217 135.208 72.1027 135.219L72.0624 135.24C72.2009 134.693 72.1429 133.587 71.4554 131.361L71.3974 122.166C71.3974 122.166 71.2912 111.545 72.1236 110.358C72.956 109.17 73.2507 107.153 73.2507 107.153C73.2507 107.153 73.0703 110.062 72.9528 110.833C72.8353 111.604 73.2523 112.915 73.2523 112.915ZM71.5761 135.769C71.5681 135.789 71.5584 135.808 71.552 135.826L71.5069 135.767C71.5299 135.77 71.5531 135.77 71.5761 135.769Z" fill="url(#paint0_linear)"/>
<path d="M80.7557 139.413C80.2904 139.593 77.7673 139.9 77.0621 139.814C76.3568 139.728 75.423 139.368 75.1573 138.897C74.8916 138.427 73.4023 137.716 73.0029 137.762C72.8393 137.767 72.6759 137.744 72.5199 137.693C72.2444 137.609 71.9754 137.505 71.7148 137.382C71.6785 137.177 71.6845 136.968 71.7326 136.765C71.7418 136.725 71.7537 136.685 71.768 136.645C71.862 136.379 72.0564 136.161 72.309 136.039L72.3669 136.011C72.4786 135.962 72.5952 135.926 72.7147 135.904C73.9803 135.659 79.2019 136.15 79.2019 136.15C79.2019 136.15 79.3484 136.415 79.5497 136.743C79.8009 137.148 80.1422 137.643 80.3998 137.83C80.6852 138.076 80.8789 138.412 80.9489 138.784C81.0101 139.071 80.965 139.334 80.7557 139.413Z" fill="white"/>
<path opacity="0.1" d="M80.7556 139.413C80.2903 139.593 77.7688 139.9 77.0636 139.814C76.3584 139.728 75.4245 139.366 75.1572 138.897C74.8899 138.428 73.4038 137.716 73.0045 137.761C72.6052 137.807 71.7164 137.382 71.7164 137.382C71.7164 137.382 71.5779 136.733 71.9804 136.29L72.7855 136.866C72.7855 136.866 74.9398 137.539 75.3391 138.164C75.7385 138.788 76.4662 139.137 77.5177 139.201C78.3034 139.252 80.1083 138.944 80.9537 138.79C81.01 139.071 80.9665 139.334 80.7556 139.413Z" fill="black"/>
<path d="M73.0484 140.241C72.0987 140.222 71.1488 140.267 70.2049 140.375C68.693 140.554 67.5386 139.889 67.3373 139.614C67.136 139.34 66.0943 138.414 65.294 138.089C64.9028 137.937 64.811 137.44 64.8287 136.976C64.8287 136.952 64.8287 136.924 64.8287 136.9C64.8435 136.606 64.8867 136.314 64.9575 136.029L71.2225 135.894L71.7651 136.636L71.8489 136.749L72.1789 137.202C72.1789 137.202 72.3287 137.4 72.5251 137.689C72.8568 138.175 73.3205 138.894 73.4445 139.369C73.6426 140.13 73.0484 140.241 73.0484 140.241Z" fill="white"/>
<path opacity="0.1" d="M73.0484 140.241C72.0987 140.222 71.1488 140.267 70.2049 140.375C68.6946 140.554 67.5386 139.889 67.3389 139.614C67.1393 139.34 66.0943 138.406 65.294 138.093C64.9028 137.94 64.811 137.444 64.8287 136.979C65.2763 137.085 66.2166 137.354 66.5854 137.823C67.0684 138.449 67.933 139.502 69.1616 139.569C70.1534 139.623 72.5686 139.444 73.4542 139.373C73.6442 140.13 73.0484 140.241 73.0484 140.241Z" fill="black"/>
<path opacity="0.1" d="M72.3026 136.032C72.2301 136.574 72.0063 136.72 71.8453 136.752C71.806 136.76 71.7655 136.76 71.7262 136.752C71.705 136.751 71.684 136.748 71.6634 136.743C71.6634 136.743 66.0376 137.995 64.9008 136.981C64.872 136.955 64.845 136.927 64.8203 136.897C64.8351 136.603 64.8783 136.311 64.9491 136.026L71.2141 135.891L71.7567 136.632C71.8507 136.366 72.0451 136.148 72.2977 136.026L72.3026 136.032Z" fill="black"/>
<path opacity="0.1" d="M79.548 136.736C79.4224 136.876 79.3177 136.955 79.2517 136.928C78.9554 136.808 76.5274 136.391 75.7561 136.749C74.9849 137.108 72.3748 136.808 72.3748 136.808C72.3748 136.808 72.3748 136.496 72.3604 135.996C72.472 135.948 72.5886 135.912 72.7081 135.889C73.9737 135.644 79.1953 136.136 79.1953 136.136C79.1953 136.136 79.3483 136.408 79.548 136.736Z" fill="black"/>
<path d="M83.2225 100.035L82.5108 104.991L81.6832 108.274L80.4981 114.482V121.053C80.4981 121.053 81.2678 134.127 80.9715 134.484C80.6752 134.841 79.5498 136.874 79.2535 136.756C78.9572 136.637 76.5292 136.219 75.7579 136.576C74.9867 136.933 72.3766 136.636 72.3766 136.636C72.3766 136.636 72.3171 131.562 72.0208 130.129C71.7245 128.697 72.5538 122.608 72.5538 122.608L72.85 119.325C72.85 119.325 73.2654 117.115 72.9096 116.518C72.5538 115.921 73.4425 113.598 73.4425 113.598C73.4425 113.598 73.0287 112.282 73.1479 111.506C73.267 110.731 73.4425 107.806 73.4425 107.806C73.4425 107.806 73.1479 109.837 72.3251 111.029C71.5023 112.222 71.607 122.909 71.607 122.909L71.665 132.158C73.1479 137.054 71.665 136.576 71.665 136.576C71.665 136.576 66.0392 137.83 64.9024 136.814C63.7657 135.798 64.0909 129.406 64.0909 129.406C64.0909 129.406 63.9734 124.272 64.4468 122.721C64.9201 121.17 65.0699 115.438 65.0699 115.438C65.0699 115.438 65.0393 103.975 65.0699 103.201C65.0924 102.552 65.0699 96.7418 65.0699 94.9262C65.0699 94.5887 65.0699 94.3891 65.0699 94.3891L65.7494 92.6888L73.8 91.6731H77.6514C77.6514 91.6731 83.4479 93.0457 84.0468 93.6379C84.0596 93.6478 84.0705 93.6599 84.079 93.6736C84.4671 94.2464 83.2225 100.035 83.2225 100.035Z" fill="#06D6A0"/>
<path opacity="0.1" d="M73.4473 126.063C73.4473 126.063 75.2184 130.361 76.0541 130.66C76.8897 130.958 73.4473 126.063 73.4473 126.063Z" fill="black"/>
<path opacity="0.1" d="M74.1025 132.391C74.1025 132.391 80.0825 132.69 80.023 133.347C79.9634 134.004 74.1025 132.391 74.1025 132.391Z" fill="black"/>
<path opacity="0.1" d="M66.1021 130.673C66.3387 130.898 70.6635 131.322 70.3077 131.734C69.9519 132.146 66.4579 132.948 66.4579 132.948L66.1021 130.673Z" fill="black"/>
<path opacity="0.1" d="M65.3921 123.258C65.3921 123.437 66.2809 128.989 66.5192 129.227C66.7575 129.466 68.7106 129.704 68.7106 129.704L65.3921 123.258Z" fill="black"/>
<path d="M71.8404 47.3675C70.9919 48.3231 70.6248 49.6779 69.6361 50.4859C69.0356 50.9727 68.2756 51.2047 67.5768 51.5357C66.878 51.8666 66.1856 52.3712 65.9779 53.1208C65.7461 53.9645 66.1937 54.8261 66.4288 55.6698C66.6719 56.5427 66.6864 57.4545 66.7009 58.368C66.717 59.4729 66.7347 60.5778 66.7154 61.6827C66.6864 63.4042 66.5447 65.2052 65.6382 66.6638C68.9116 67.7135 72.3927 67.8563 75.8255 67.991C76.4851 68.0384 77.1478 68.0216 77.8043 67.9407C78.3732 67.8265 78.9358 67.683 79.4901 67.5107C80.586 67.2185 81.7153 67.0729 82.8488 67.0775C83.3431 67.0775 83.8471 67.1083 84.3237 66.9785C84.8003 66.8487 85.2592 66.5161 85.388 66.0359C85.5023 65.6043 85.3349 65.1451 85.1159 64.7573C84.7166 64.0499 84.1498 63.4594 83.7215 62.7617C83.2843 62.0247 83.0249 61.1946 82.9642 60.3382C82.9035 59.4818 83.0433 58.623 83.3721 57.8309C83.7521 56.9402 84.364 56.1646 84.7375 55.2723C85.1201 54.3141 85.2219 53.2655 85.0306 52.2509C84.8394 51.2362 84.3633 50.2982 83.6587 49.5481C82.3594 48.2079 80.4948 47.6887 78.7108 47.4129C77.9596 47.3235 77.243 47.0445 76.6273 46.6017C75.943 46.1474 75.0558 46.037 74.254 46.1376C73.329 46.2421 72.4722 46.6787 71.8404 47.3675Z" fill="#3F3D56"/>
<g opacity="0.1">
<path opacity="0.1" d="M83.423 56.895C83.0947 57.6768 82.954 58.5256 83.0124 59.3725C83.0484 58.7669 83.1873 58.172 83.423 57.6137C83.8013 56.723 84.4132 55.9474 84.7867 55.0551C85.0921 54.3099 85.2206 53.5032 85.1619 52.6992C85.1287 53.2628 85.0019 53.8167 84.7867 54.3379C84.4132 55.2303 83.8013 56.0042 83.423 56.895Z" fill="black"/>
<path opacity="0.1" d="M66.7494 58.1475C66.759 58.7835 66.7687 59.4211 66.7703 60.0571C66.7703 59.181 66.7622 58.3065 66.7494 57.4319C66.7365 56.525 66.7204 55.6066 66.4772 54.7321C66.3162 54.1772 66.0779 53.6142 65.9942 53.0544C65.8509 53.8495 66.2583 54.6558 66.4772 55.4492C66.7204 56.3157 66.7365 57.2405 66.7494 58.1475Z" fill="black"/>
<path opacity="0.1" d="M84.379 66.0509C83.896 66.1823 83.4 66.1531 82.9057 66.1498C81.773 66.1426 80.6443 66.2855 79.5486 66.5749C78.9942 66.7464 78.4316 66.8894 77.8628 67.0033C77.2059 67.0855 76.5426 67.1028 75.8824 67.0552C72.5655 66.9238 69.2019 66.7826 66.0252 65.8269C65.9308 66.0391 65.8233 66.245 65.7031 66.4435C68.9765 67.4916 72.4576 67.636 75.8888 67.7707C76.549 67.8184 77.2123 67.801 77.8692 67.7188C78.436 67.606 78.9965 67.4636 79.5486 67.2921C80.642 67.0016 81.7685 66.857 82.8993 66.8621C83.3936 66.8621 83.896 66.8929 84.3726 66.7615C84.8492 66.6301 85.308 66.3007 85.4368 65.8205C85.4911 65.598 85.4856 65.365 85.4207 65.1455C85.2774 65.5998 84.8347 65.9162 84.379 66.0509Z" fill="black"/>
</g>
<path d="M79.6095 64.128C79.4903 64.3974 78.988 66.724 78.8688 66.9625C78.7497 67.201 78.0992 71.0188 78.0396 71.2329C77.98 71.4471 73.7518 70.3373 73.7518 70.3373L71.2062 68.1875L68.5898 65.5639C68.5898 65.5639 68.5125 63.1967 70.4398 62.4374C70.5708 62.3856 70.7053 62.3433 70.8423 62.3109C73.1802 61.7446 72.9452 54.5813 72.9452 54.5813L77.7433 56.6694C77.7433 56.6694 76.8545 60.849 76.8851 61.6554C76.8932 61.9263 77.1041 62.0951 77.3794 62.1973C77.8051 62.3193 78.2483 62.3676 78.6901 62.3401C78.6901 62.3401 79.7286 63.8603 79.6095 64.128Z" fill="#FBBEBE"/>
<path d="M88.1994 71.9776L88.8805 72.1577C88.8805 72.1577 89.3845 72.93 88.1994 73.6487C87.4469 74.1093 86.7246 74.6182 86.037 75.1722L82.535 76.2463L81.8604 74.1128L85.1192 71.6206L88.1994 71.9776Z" fill="#06D6A0"/>
<path opacity="0.1" d="M88.1994 71.9776L88.8805 72.1577C88.8805 72.1577 89.3845 72.93 88.1994 73.6487C87.4469 74.1093 86.7246 74.6182 86.037 75.1722L82.535 76.2463L81.8604 74.1128L85.1192 71.6206L88.1994 71.9776Z" fill="black"/>
<path d="M62.642 74.0382L61.2798 75.3816C61.2798 75.3816 63.7368 78.2469 65.6271 78.4254C67.5174 78.6038 68.7363 76.2464 68.7363 76.2464L67.1004 73.6504L62.642 74.0382Z" fill="#06D6A0"/>
<path opacity="0.1" d="M62.642 74.0382L61.2798 75.3816C61.2798 75.3816 63.7368 78.2469 65.6271 78.4254C67.5174 78.6038 68.7363 76.2464 68.7363 76.2464L67.1004 73.6504L62.642 74.0382Z" fill="black"/>
<path opacity="0.1" d="M75.5809 59.2621C78.1979 59.2621 80.3195 57.1243 80.3195 54.4872C80.3195 51.85 78.1979 49.7122 75.5809 49.7122C72.9638 49.7122 70.8423 51.85 70.8423 54.4872C70.8423 57.1243 72.9638 59.2621 75.5809 59.2621Z" fill="black"/>
<path d="M75.5809 58.9035C78.1979 58.9035 80.3195 56.7657 80.3195 54.1285C80.3195 51.4914 78.1979 49.3535 75.5809 49.3535C72.9638 49.3535 70.8423 51.4914 70.8423 54.1285C70.8423 56.7657 72.9638 58.9035 75.5809 58.9035Z" fill="#FBBEBE"/>
<path opacity="0.1" d="M84.0823 94.2153C83.0034 94.3397 81.9406 94.5796 80.912 94.9308C79.1409 95.5247 65.2616 94.9406 65.0684 94.9308C65.0684 94.5934 65.0684 94.3938 65.0684 94.3938L65.7478 92.6934L73.7985 91.6777H77.6499C77.6499 91.6777 83.4463 93.0504 84.0453 93.6426C84.0695 93.9995 84.0823 94.2153 84.0823 94.2153Z" fill="black"/>
<path opacity="0.1" d="M79.6095 64.128C79.4903 64.3974 78.988 66.724 78.8688 66.9625C78.7497 67.201 78.0992 71.0188 78.0396 71.2329C77.98 71.4471 73.7518 70.3373 73.7518 70.3373L71.2062 68.1875L68.5898 65.5639C68.5898 65.5639 68.5125 63.1967 70.4398 62.4374L75.2251 67.9815L77.3794 62.1973C77.8051 62.3193 78.2483 62.3676 78.6901 62.34C78.6901 62.34 79.7286 63.8603 79.6095 64.128Z" fill="black"/>
<path d="M75.2253 68.1599L70.3273 62.4812C70.0406 62.2967 69.7129 62.187 69.3737 62.1618C69.0345 62.1366 68.6943 62.1967 68.3839 62.3367C67.2874 62.8154 65.9252 63.2032 65.5694 63.4417C65.2136 63.6802 63.8804 65.1566 63.8804 65.1566L67.8509 75.6233L66.1023 82.5173C66.1023 82.5173 66.3696 86.0398 65.6885 87.3231C65.2738 88.1437 65.0795 89.0594 65.125 89.9792C65.125 89.9792 65.3327 91.6812 65.096 92.5752C64.9577 93.1729 64.9473 93.7935 65.0654 94.3956C65.0654 94.3956 79.1363 94.9927 80.9123 94.3956C81.9406 94.0434 83.0035 93.8035 84.0826 93.6801C84.0826 93.6801 83.7606 87.7093 83.4386 86.2766C83.1165 84.844 83.7059 79.3827 83.7059 79.3827L83.321 73.532L85.63 67.5287C85.63 67.5287 84.3789 63.6802 83.0747 63.2924C83.0747 63.2924 80.7062 62.7245 80.2022 62.4568C79.6982 62.1891 78.2169 61.949 78.2169 61.949L77.4392 62.2118L75.2253 68.1599Z" fill="#06D6A0"/>
<path opacity="0.1" d="M82.0588 73.3343L71.7521 72.6281C71.4912 72.6102 71.2654 72.8088 71.2477 73.0716L70.1411 89.4696C70.1234 89.7324 70.3205 89.96 70.5813 89.9778L80.8881 90.6841C81.1489 90.7019 81.3748 90.5033 81.3925 90.2405L82.499 73.8426C82.5168 73.5797 82.3197 73.3522 82.0588 73.3343Z" fill="black"/>
<path d="M82.4138 72.9783L72.1071 72.2721C71.8462 72.2542 71.6204 72.4528 71.6027 72.7157L70.4961 89.1137C70.4784 89.3765 70.6755 89.6041 70.9363 89.6219L81.2431 90.3282C81.5039 90.346 81.7297 90.1474 81.7475 89.8846L82.854 73.4866C82.8717 73.2238 82.6746 72.9962 82.4138 72.9783Z" fill="#3F3D56"/>
<path d="M82.0738 74.2637L72.2715 73.592L71.2641 88.5202L81.0665 89.1918L82.0738 74.2637Z" fill="white"/>
<path opacity="0.1" d="M81.1946 78.0738L73.1875 77.509L73.0313 79.7578L81.0384 80.3226L81.1946 78.0738Z" fill="black"/>
<path opacity="0.1" d="M80.905 87.0104L79.6343 86.9233L79.5552 88.0953L80.8259 88.1824L80.905 87.0104Z" fill="black"/>
<path opacity="0.1" d="M79.6514 84.182L73.147 83.7363L73.0679 84.9083L79.5723 85.354L79.6514 84.182Z" fill="black"/>
<path d="M80.8605 73.7055L74.0879 73.2415L73.9663 75.0431L80.739 75.5072L80.8605 73.7055Z" fill="#3F3D56"/>
<path opacity="0.1" d="M80.8605 73.7055L74.0879 73.2415L73.9663 75.0431L80.739 75.5072L80.8605 73.7055Z" fill="black"/>
<path opacity="0.1" d="M75.8174 93.886C75.8174 93.886 75.7578 102.722 73.4473 107.796C73.4473 107.796 76.2328 101.109 76.2328 100.842C76.2328 100.574 77.772 97.767 77.3599 96.9314C76.9477 96.0958 75.8174 93.886 75.8174 93.886Z" fill="black"/>
<path opacity="0.1" d="M75.9432 52.9344C75.8546 52.1523 76.0447 51.364 76.4793 50.7099C76.4277 51.3655 76.6116 52.0179 76.9977 52.5481C77.3837 53.0783 77.9461 53.4509 78.5822 53.598C78.5279 53.5505 78.4891 53.4876 78.471 53.4175C78.4529 53.3474 78.4563 53.2735 78.4807 53.2053C78.8108 53.5818 79.0636 54.0279 79.4371 54.3589C79.8107 54.6899 80.371 54.8879 80.8106 54.6526C81.408 54.3281 81.4144 53.4731 81.2598 52.8078C80.9281 51.3912 80.2475 50.0815 79.281 48.9998C79.0398 48.6729 78.7268 48.4066 78.3664 48.222C78.0061 48.0373 77.6082 47.9393 77.2039 47.9355C76.2893 47.8641 75.3394 47.9452 74.5198 48.359C74.0586 48.6126 73.6266 48.9167 73.2317 49.2659L70.9775 51.1188C70.7606 51.2763 70.575 51.4733 70.4301 51.6997C70.3333 51.8889 70.2753 52.0958 70.2594 52.3081C70.2018 52.9149 70.3132 53.5259 70.5812 54.0725C70.8491 54.619 71.2629 55.0795 71.7762 55.4022C71.7653 54.9226 71.8962 54.4505 72.1522 54.0461C72.4082 53.6416 72.7778 53.323 73.214 53.1307C73.2823 53.1883 73.3376 53.2599 73.3762 53.3408C73.4148 53.4216 73.4358 53.5099 73.4378 53.5996L73.9128 52.7462C73.9834 52.5909 74.0948 52.4579 74.2348 52.3616C74.5279 52.1994 74.8934 52.3908 75.1429 52.6196C75.3925 52.8484 75.6356 53.1339 75.9705 53.1696L75.9834 51.8992" fill="black"/>
<path d="M75.943 52.7559C75.8542 51.9733 76.0443 51.1843 76.4792 50.5298C76.3343 51.8278 77.3052 53.168 78.5836 53.4178C78.5293 53.3708 78.4905 53.3081 78.4724 53.2383C78.4542 53.1684 78.4577 53.0947 78.4822 53.0268C78.8123 53.4032 79.0651 53.8478 79.4386 54.1804C79.8122 54.513 80.3725 54.7093 80.812 54.4725C81.4094 54.148 81.4158 53.2929 81.2613 52.6293C80.9296 51.2126 80.249 49.903 79.2824 48.8213C78.9825 48.4529 78.6045 48.1569 78.1763 47.9549C77.8662 47.8393 77.5404 47.7726 77.2102 47.757C76.2956 47.6856 75.3457 47.7651 74.5261 48.1788C74.0652 48.4335 73.6333 48.7382 73.238 49.0874L70.9838 50.9403C70.7666 51.0973 70.5808 51.2944 70.4364 51.5211C70.3394 51.7103 70.2814 51.9173 70.2657 52.1296C70.2082 52.7362 70.3197 53.3469 70.5876 53.8932C70.8556 54.4394 71.2693 54.8996 71.7824 55.222C71.772 54.7425 71.9031 54.2707 72.1591 53.8663C72.415 53.4619 72.7844 53.1432 73.2203 52.9506C73.2884 53.0083 73.3435 53.08 73.3821 53.1608C73.4207 53.2416 73.4418 53.3298 73.4441 53.4195L73.9175 52.5693C73.9877 52.4137 74.0991 52.2807 74.2395 52.1847C74.5325 52.0225 74.898 52.2139 75.1476 52.4427C75.3972 52.6715 75.6403 52.9554 75.9752 52.9927L75.9881 51.7207" fill="#3F3D56"/>
<path d="M78.1877 82.8742C77.7739 82.6633 70.9308 83.739 70.9308 83.739C70.9308 83.739 69.8037 83.4145 67.0794 82.9635C64.3551 82.5124 64.1812 79.8288 64.1812 79.8288L63.8833 74.4568L64.8027 73.6455L68.7411 76.2415C68.7411 76.2415 68.8022 77.5541 68.7411 77.791C68.7024 77.9532 68.5994 78.1463 68.609 78.2777C68.612 78.3133 68.6266 78.3469 68.6504 78.3733C68.6743 78.3997 68.7062 78.4174 68.7411 78.4237C69.0083 78.4919 72.6504 79.0857 72.6504 79.0857C72.6504 79.0857 81.0923 78.5032 83.1968 81.3686C83.3635 81.5789 83.4897 81.8188 83.5687 82.076C84.0904 84.0343 78.5628 83.0608 78.1877 82.8742Z" fill="#FBBEBE"/>
<path opacity="0.1" d="M83.5736 82.0873C83.2515 82.2317 83.0519 82.3356 83.0519 82.3356C83.0519 82.3356 80.0313 82.2463 78.3342 81.6265C76.6371 81.0067 74.5746 81.1171 74.5746 81.1171C74.5746 81.1171 67.5029 79.8905 68.5994 78.2891C68.6024 78.3247 68.6169 78.3583 68.6408 78.3847C68.6647 78.4111 68.6965 78.4288 68.7314 78.4351C68.9987 78.5032 72.6408 79.0971 72.6408 79.0971C72.6408 79.0971 81.0827 78.5146 83.1871 81.3799C83.359 81.5891 83.4901 81.8291 83.5736 82.0873Z" fill="black"/>
<path d="M86.5105 72.6348C86.5105 72.6348 86.9259 75.5893 86.9549 75.8294C86.9839 76.0696 87.1336 78.9625 86.9549 79.2918C86.7762 79.6212 86.5105 80.1566 86.5105 80.1566C86.5105 80.1566 86.8068 80.7829 85.6217 81.023C84.4367 81.2632 83.0455 81.9771 83.0455 81.9771C83.0455 81.9771 80.0233 81.8878 78.3359 81.2615C76.6485 80.6353 74.5746 80.7537 74.5746 80.7537C74.5746 80.7537 65.5982 79.201 69.4496 77.3059C73.301 75.4108 76.0254 77.9776 76.0254 77.9776L80.3196 77.7099C80.3196 77.7099 81.92 76.7234 82.3644 76.8143C82.6782 76.8546 82.9969 76.8027 83.2822 76.665L83.3128 73.5304L86.5105 72.6348Z" fill="#FBBEBE"/>
<path opacity="0.1" d="M64.735 65.3821L63.8752 65.3367L61.27 75.5584C61.27 75.5584 64.0829 74.8412 65.2953 75.5584C66.5078 76.2755 68.7314 76.4232 68.7314 76.4232L67.9021 68.275L64.735 65.3821Z" fill="black"/>
<path d="M64.735 65.2019L63.8752 65.1565L61.27 75.3782C61.27 75.3782 64.0829 74.6611 65.2953 75.3782C66.5078 76.0954 68.7314 76.243 68.7314 76.243L67.9021 68.0948L64.735 65.2019Z" fill="#06D6A0"/>
<path opacity="0.1" d="M84.4386 67.4412L85.6221 67.7105C85.6221 67.7105 88.6443 72.0912 88.881 72.3362C89.1177 72.5812 87.7539 73.472 87.1919 73.472C86.63 73.472 83.8751 73.7965 83.0748 74.5461C82.2746 75.2957 82.6079 71.5234 82.6079 71.4374C82.6079 71.3514 83.6013 68.9712 83.6013 68.9712L84.4386 67.4412Z" fill="black"/>
<path d="M84.4386 67.2627L85.6221 67.5304C85.6221 67.5304 88.6443 71.9193 88.881 72.1578C89.1177 72.3963 87.7539 73.2935 87.1919 73.2935C86.63 73.2935 83.8751 73.618 83.0748 74.3676C82.2746 75.1172 82.6079 71.3449 82.6079 71.2589C82.6079 71.1729 83.6078 68.7846 83.6078 68.7846L84.4386 67.2627Z" fill="#06D6A0"/>
<g opacity="0.1">
<path opacity="0.1" d="M76.4715 50.5443C76.4645 50.4199 76.4672 50.2951 76.4795 50.1711C76.2344 50.5418 76.0657 50.9584 75.9836 51.3961V51.7725C75.9836 51.7725 75.9836 51.7644 75.9836 51.7596V51.8488C75.9836 52.1116 75.9836 52.3761 75.9756 52.639H75.953V52.7606C75.953 52.7185 75.953 52.6779 75.945 52.6357C75.6229 52.5838 75.3927 52.3112 75.1528 52.0938C74.9129 51.8764 74.5377 51.6687 74.2447 51.8358C74.1043 51.9317 73.9929 52.0648 73.9227 52.2204L73.4444 53.0705C73.4423 52.9811 73.4213 52.8931 73.3827 52.8125C73.3441 52.7319 73.2888 52.6606 73.2206 52.6033C72.7845 52.7955 72.4149 53.1142 72.1589 53.5186C71.9028 53.9231 71.7719 54.3951 71.7828 54.8748C71.3429 54.597 70.9749 54.2177 70.7092 53.7683C70.4435 53.3189 70.2877 52.8122 70.2548 52.2901C70.2268 52.8731 70.3536 53.453 70.6222 53.9701C70.8908 54.4872 71.2915 54.9227 71.7828 55.2317C71.7724 54.7522 71.9034 54.2803 72.1594 53.8759C72.4154 53.4716 72.7847 53.1529 73.2206 52.9602C73.2887 53.018 73.3439 53.0896 73.3824 53.1705C73.421 53.2513 73.4422 53.3394 73.4444 53.4291L73.9178 52.5789C73.988 52.4234 74.0995 52.2903 74.2398 52.1944C74.5329 52.0321 74.8984 52.2236 75.148 52.4524C75.3975 52.6811 75.6407 52.9651 75.9756 53.0024C75.9756 52.587 75.9799 52.1728 75.9885 51.7596C76.0674 51.3261 76.2317 50.9129 76.4715 50.5443Z" fill="black"/>
<path opacity="0.1" d="M75.9274 52.1781C75.9355 52.0677 75.9485 51.9574 75.9647 51.8536L75.9826 51.4058C75.9338 51.6601 75.9153 51.9194 75.9274 52.1781Z" fill="black"/>
<path opacity="0.1" d="M80.8124 54.1138C80.3729 54.3507 79.8126 54.1528 79.439 53.8218C79.0655 53.4908 78.8127 53.0446 78.4826 52.6682C78.4582 52.7363 78.4548 52.8103 78.4729 52.8804C78.491 52.9505 78.5298 53.0134 78.584 53.0609C78.5518 53.0609 78.5212 53.0446 78.4906 53.0365C78.8127 53.4097 79.0687 53.8478 79.439 54.1723C79.8093 54.4968 80.3729 54.7012 80.8124 54.4643C81.252 54.2274 81.3776 53.6725 81.339 53.1322C81.31 53.5573 81.1586 53.9256 80.8124 54.1138Z" fill="black"/>
<path opacity="0.1" d="M78.4811 53.0331C77.9426 52.8852 77.4619 52.575 77.1033 52.1441C76.7448 51.7132 76.5255 51.1821 76.4749 50.6221C76.3831 51.8957 77.3363 53.1726 78.5841 53.4176C78.531 53.3711 78.4928 53.3097 78.4744 53.2412C78.4561 53.1727 78.4584 53.1003 78.4811 53.0331Z" fill="black"/>
</g>
<path d="M155.806 79.5513C155.806 79.5513 155.171 79.4621 155.171 78.5324C155.171 77.6027 154.717 75.8618 154.717 75.8618C154.717 75.8618 154.324 72.8326 153.782 72.3524C153.239 71.8721 152.542 69.0522 152.542 69.0522C152.542 69.0522 152.423 67.5222 152.18 67.1928C151.936 66.8635 151.608 66.0571 151.123 64.9067C150.639 63.7564 148.623 62.9679 148.623 62.9679C148.623 62.9679 144.969 60.8327 143.934 60.1366C143.839 60.0789 143.751 60.0115 143.67 59.9354C143.49 59.6985 142.704 59.6937 142.704 59.6937C142.622 59.1696 142.543 58.5693 142.517 58.0258C142.517 57.9673 142.517 57.9089 142.517 57.8505C143.672 57.1629 144.541 56.0787 144.966 54.797C144.986 54.7353 145.002 54.6721 145.019 54.6088C145.09 54.5868 145.155 54.55 145.211 54.5008C145.266 54.4516 145.311 54.391 145.341 54.3232C145.433 54.1139 145.436 53.8705 145.552 53.6742C145.688 53.4438 145.945 53.3205 146.148 53.1485C146.66 52.7088 146.792 51.9706 146.768 51.3005C146.752 50.7554 146.665 50.207 146.699 49.6667C146.699 49.6212 146.699 49.5758 146.708 49.5304C146.718 49.4509 146.729 49.3681 146.744 49.2903C146.823 48.8879 146.995 48.5082 147.092 48.1091C147.188 47.7099 147.198 47.2605 146.972 46.9165C146.642 46.412 145.955 46.3114 145.351 46.2676C144.667 46.2091 144.063 46.2838 143.617 45.711C143.412 45.4119 143.182 45.1317 142.928 44.8738C142.838 44.7895 141.962 44.2492 141.962 44.2151C141.105 43.8136 140.132 43.7381 139.225 44.0025C138.769 44.1356 138.342 44.353 137.88 44.4617C136.888 44.6986 135.745 44.4422 134.901 45.015C134.431 45.3395 134.149 45.8571 133.885 46.3584C133.671 46.7716 133.453 47.1853 133.232 47.5996C132.874 48.2794 132.514 48.9706 132.364 49.7235C132.332 49.8879 132.313 50.0543 132.304 50.2216C132.304 50.2816 132.304 50.3416 132.304 50.4017C132.304 50.4276 132.304 50.4536 132.304 50.4795C132.304 50.5347 132.304 50.5899 132.314 50.6418C132.324 50.6937 132.314 50.7083 132.325 50.7424C132.336 50.7765 132.34 50.8527 132.349 50.9046C132.359 50.9566 132.378 51.049 132.398 51.1188C132.398 51.1496 132.417 51.1788 132.427 51.2097C132.436 51.2405 132.462 51.3184 132.483 51.3719C132.504 51.4255 132.505 51.4287 132.518 51.4563C132.542 51.5131 132.571 51.5682 132.6 51.6185C132.613 51.6396 132.623 51.6607 132.636 51.6818C132.68 51.7578 132.73 51.8304 132.784 51.8992C133.127 52.3324 133.636 52.6082 134.011 53.0139C134.011 53.0301 134.011 53.0463 134.011 53.0625C134.011 53.1064 134.011 53.1502 134.011 53.1956C134.034 54.1003 134.276 54.9857 134.716 55.7746C135.156 56.5636 135.781 57.2322 136.536 57.7223C136.536 57.784 136.544 57.8473 136.547 57.9106C136.578 58.3916 136.572 58.8744 136.529 59.3546C136.463 59.2769 136.381 59.2151 136.289 59.1735C136.196 59.132 136.096 59.1118 135.995 59.1144C135.925 59.111 135.856 59.117 135.789 59.1323L135.774 59.1209V59.1355C135.42 59.2232 134.983 59.5947 134.566 60.6509C134.566 60.6509 133.298 62.0917 132.332 62.0317C131.365 61.9717 128.92 63.5325 128.92 63.5325C128.92 63.5325 126.533 65.0917 126.021 66.6817C125.735 67.5836 125.392 68.4659 124.993 69.3232L122.035 75.4432L121.492 80.3107C121.492 80.3107 121.793 82.4702 121.734 82.8012C121.674 83.1322 122.972 86.1014 122.972 86.1014C122.972 86.1014 127.26 93.6914 129.011 94.0808L129.137 93.9932C129.212 94.0314 129.292 94.0608 129.374 94.0808L129.734 93.826C129.757 94.1112 129.747 94.3981 129.705 94.6811C129.466 95.4323 129.797 100.323 130.219 101.281C130.641 102.24 130.491 114.815 130.491 114.815L130.432 115.923C130.432 115.923 130.432 115.958 130.446 116.02L130.432 116.283L130.475 116.306C130.52 116.658 130.506 117.016 130.432 117.364C130.28 117.85 130.219 119.225 130.219 119.225C130.219 119.225 129.011 126.993 129.585 128.554C130.158 130.115 130.643 131.825 130.643 131.825C130.643 131.825 131.246 133.772 130.672 134.096C130.097 134.421 128.469 134.997 128.801 135.806C129.106 136.556 130.267 138.565 130.44 138.858L130.425 139.021L130.188 141.605C130.227 141.946 130.319 142.279 130.461 142.592C130.72 143.156 131.222 143.739 132.182 143.675C132.343 143.664 132.528 143.646 132.71 143.622C134.463 143.383 136.621 142.595 136.621 142.595C136.509 142.524 136.407 142.438 136.317 142.34C136.23 142.256 136.162 142.155 136.116 142.044C136.07 141.932 136.047 141.812 136.048 141.691C136.074 141.219 135.199 138.978 134.98 138.425L134.93 138.302C134.93 138.302 136.924 136.201 136.592 134.341C136.592 134.341 134.386 133.043 135.112 132.329C135.838 131.616 137.136 129.571 137.136 129.571C137.136 129.571 137.196 121.921 137.136 120.781C137.074 119.987 137.111 119.189 137.247 118.405C137.271 118.288 137.3 118.173 137.331 118.058C138.336 118.211 139.351 118.288 140.368 118.29C140.739 118.29 141.115 118.282 141.495 118.267C141.495 118.375 141.5 118.492 141.509 118.618C141.593 120.513 141.749 123.837 141.876 125.072C142.057 126.841 143.053 131.612 143.053 131.612C143.053 131.612 141.152 132.84 143.385 135.873C143.385 135.873 143.385 136.97 143.237 137.13C143.079 137.651 142.951 138.18 142.855 138.716C142.762 139.285 142.723 139.864 142.875 140.163C143.237 140.88 145.411 140.822 145.411 140.822C145.428 140.817 145.446 140.815 145.464 140.813C145.874 140.77 146.289 140.809 146.684 140.929C147.079 141.048 147.446 141.246 147.765 141.511C148.591 142.18 151.724 141.888 153.423 141.673C154.088 141.587 154.532 141.511 154.532 141.511C154.553 141.435 154.561 141.356 154.555 141.277C154.537 140.857 154.21 139.936 151.994 139.113C151.994 139.113 149.911 137.701 149.94 136.472H149.893H149.653C149.805 136.467 149.911 136.467 149.911 136.467C149.911 136.467 149.095 133.467 149.428 133.222C149.761 132.977 148.763 129.652 148.763 129.652C148.763 129.652 148.191 124.071 148.159 123.682C148.161 123.346 148.212 123.012 148.31 122.692L148.159 119.63C148.159 119.63 148.13 118.613 148.159 118.282C148.156 117.995 148.133 117.708 148.092 117.424C148.077 117.31 148.063 117.192 148.046 117.075C148.827 116.875 149.335 116.692 149.335 116.692L149.244 106.04C149.908 104.742 150.03 101.893 150.027 99.8747C150.027 98.5767 149.969 97.6162 149.969 97.6162L150.875 96.1251C150.875 96.1251 151.085 94.3404 150.753 93.9494C150.607 93.7725 150.673 93.5892 150.793 93.4383C150.857 93.3858 150.924 93.3381 150.995 93.2955C150.987 93.2842 150.98 93.2722 150.974 93.2598C151.037 93.2065 151.104 93.1582 151.175 93.1154C151.175 93.1154 150.853 92.6124 151.141 92.3999C151.412 92.5848 151.653 92.7325 151.837 92.8379C151.824 92.9564 151.811 93.0245 151.811 93.0245L151.888 92.8623C152.065 92.9629 152.173 93.0245 152.173 93.0245C152.173 93.0245 153.593 90.1738 153.563 89.7552C153.532 89.3366 154.529 87.5648 154.529 87.5648C154.529 87.5648 154.65 86.6335 155.194 86.2441C155.738 85.8547 155.616 83.0332 155.616 83.0332C155.616 83.0332 155.767 81.5632 156.129 80.9645C156.492 80.3658 155.806 79.5513 155.806 79.5513ZM128.633 78.3004L128.66 78.9802C128.499 78.719 128.384 78.5324 128.384 78.5324L128.633 78.3004Z" fill="url(#paint1_linear)"/>
<path d="M152.257 91.7914L151.909 93.2841C151.909 93.2841 149.124 91.8482 148.623 90.031C148.122 88.2138 149.462 87.521 149.462 87.521L152.059 88.6275L152.257 91.7914Z" fill="white"/>
<path opacity="0.1" d="M152.257 91.7914L151.909 93.2841C151.909 93.2841 149.124 91.8482 148.623 90.031C148.122 88.2138 149.462 87.521 149.462 87.521L152.059 88.6275L152.257 91.7914Z" fill="black"/>
<path d="M136.624 142.593C136.624 142.593 134.048 143.547 132.277 143.667C131.336 143.731 130.842 143.15 130.588 142.59C130.449 142.281 130.359 141.953 130.32 141.617L130.554 139.045L130.676 137.677L134.439 136.691L134.972 138.334L135.022 138.458C135.234 139.008 136.094 141.237 136.069 141.703C136.066 141.823 136.089 141.943 136.134 142.054C136.179 142.166 136.246 142.267 136.331 142.352C136.418 142.444 136.517 142.526 136.624 142.593Z" fill="white"/>
<path d="M154.213 141.286C154.22 141.364 154.212 141.443 154.19 141.519C154.19 141.519 148.681 142.444 147.554 141.519C147.237 141.249 146.867 141.048 146.469 140.93C146.071 140.812 145.653 140.779 145.241 140.833C145.241 140.833 143.11 140.891 142.754 140.184C142.606 139.887 142.644 139.311 142.736 138.745C142.83 138.212 142.955 137.686 143.11 137.168L143.195 137.1L143.702 136.689L149.64 136.512H149.685C149.656 137.736 151.7 139.139 151.7 139.139C153.875 139.95 154.195 140.867 154.213 141.286Z" fill="white"/>
<path opacity="0.1" d="M154.215 141.286C154.22 141.364 154.212 141.443 154.191 141.519C154.191 141.519 148.681 142.444 147.555 141.519C147.238 141.249 146.869 141.048 146.47 140.93C146.072 140.812 145.653 140.779 145.241 140.833C145.241 140.833 143.108 140.891 142.752 140.184C142.606 139.887 142.643 139.311 142.734 138.743C143.556 138.826 144.852 139.032 145.361 139.525C146.13 140.272 147.434 141.018 148.233 141.078C148.864 141.117 152.617 141.237 154.215 141.286Z" fill="black"/>
<path opacity="0.1" d="M136.624 142.593C136.624 142.593 134.048 143.548 132.277 143.668C131.337 143.731 130.842 143.15 130.588 142.59C131.245 142.813 132.155 143.045 132.633 142.832C133.2 142.577 135.209 142.415 136.336 142.345C136.421 142.44 136.518 142.524 136.624 142.593Z" fill="black"/>
<path d="M140.447 65.7051C138.321 64.8727 135.587 62.1226 136.27 60.8376C136.421 60.5131 136.511 60.1632 136.535 59.8057C136.579 59.3202 136.586 58.832 136.555 58.3455C136.507 57.5481 136.412 56.7544 136.27 55.9685C136.27 55.9685 142.905 56.1194 142.519 57.1042C142.406 57.3947 142.387 57.896 142.419 58.4558C142.451 59.0155 142.53 59.6532 142.614 60.1902C142.728 60.9252 142.846 61.4882 142.846 61.4882C142.846 61.4882 142.438 62.061 142.202 62.0918C141.965 62.1226 143.496 66.8976 140.447 65.7051Z" fill="#CF6F80"/>
<path opacity="0.1" d="M135.016 138.45L134.966 138.505C132.982 136.087 130.583 139.102 130.583 139.102L130.548 139.037L130.67 137.669L134.433 136.683L134.966 138.326L135.016 138.45Z" fill="black"/>
<path opacity="0.1" d="M149.689 136.683C149.689 136.683 148.24 136.654 147.467 137.341C146.694 138.029 142.958 137.489 143.119 137.341C143.166 137.267 143.195 137.181 143.203 137.093L143.71 136.683L149.648 136.506C149.671 136.619 149.689 136.683 149.689 136.683Z" fill="black"/>
<path d="M137.484 117.698C137.376 117.967 137.294 118.246 137.239 118.53C137.105 119.31 137.068 120.103 137.128 120.893C137.188 122.028 137.128 129.639 137.128 129.639C137.128 129.639 135.855 131.669 135.143 132.385C134.431 133.1 136.592 134.385 136.592 134.385C136.914 136.236 134.963 138.326 134.963 138.326C132.979 135.909 130.58 138.922 130.58 138.922C130.58 138.922 129.276 136.65 128.95 135.839C128.625 135.028 130.224 134.468 130.786 134.137C131.348 133.806 130.757 131.865 130.757 131.865C130.757 131.865 130.284 130.163 129.72 128.611C129.157 127.058 130.342 119.33 130.342 119.33C130.342 119.33 130.403 117.956 130.549 117.477C130.622 117.132 130.637 116.776 130.593 116.426C130.583 116.307 130.572 116.21 130.564 116.142C130.556 116.074 130.549 116.045 130.549 116.045L130.572 116.006L131.377 114.493C131.377 114.493 137.871 116.745 137.484 117.698Z" fill="#06D6A0"/>
<path d="M149.689 136.504C149.689 136.504 148.24 136.473 147.467 137.153C146.694 137.833 142.958 137.302 143.119 137.153C143.28 137.004 143.266 135.9 143.266 135.9C141.075 132.884 142.944 131.661 142.944 131.661C142.944 131.661 141.967 126.915 141.789 125.155C141.665 123.926 141.512 120.612 141.43 118.734C141.395 117.923 141.374 117.363 141.374 117.363L143.148 117.008L143.379 116.963L147.697 116.088C147.697 116.088 147.816 116.899 147.897 117.563C147.937 117.846 147.959 118.132 147.963 118.418C147.935 118.743 147.963 119.76 147.963 119.76L148.111 122.804C148.015 123.123 147.965 123.455 147.963 123.788C147.993 124.178 148.555 129.728 148.555 129.728C148.555 129.728 149.533 133.042 149.199 133.28C148.866 133.519 149.689 136.504 149.689 136.504Z" fill="#06D6A0"/>
<path opacity="0.1" d="M142.519 57.1091C142.406 57.3996 142.387 57.9009 142.419 58.4607C141.53 59 140.509 59.2757 139.471 59.2562C138.434 59.2367 137.423 58.9227 136.555 58.3503C136.507 57.553 136.412 56.7593 136.27 55.9734C136.27 55.9734 142.905 56.1243 142.519 57.1091Z" fill="black"/>
<path d="M145.08 53.5265C145.098 54.9986 144.534 56.4174 143.514 57.4708C142.493 58.5242 141.099 59.1259 139.638 59.1436C138.177 59.1612 136.769 58.5934 135.724 57.5649C134.679 56.5365 134.081 55.1317 134.064 53.6596C134.064 53.6141 134.064 53.572 134.064 53.5265C134.064 52.054 134.644 50.6418 135.678 49.6006C136.711 48.5593 138.112 47.9744 139.574 47.9744C141.035 47.9744 142.437 48.5593 143.47 49.6006C144.503 50.6418 145.084 52.054 145.084 53.5265H145.08Z" fill="#CF6F80"/>
<path opacity="0.1" d="M140.447 65.705C138.321 64.8727 135.587 62.1226 136.27 60.8376C136.421 60.513 136.511 60.1632 136.535 59.8057L139.445 62.2167L141.245 63.7045L142.614 60.1951C142.728 60.9301 142.846 61.4931 142.846 61.4931C142.846 61.4931 142.438 62.0658 142.202 62.0966C141.965 62.1274 143.496 66.8976 140.447 65.705Z" fill="black"/>
<path d="M147.971 76.36L145.541 117.49L142.372 117.699L134.166 93.8504L135.512 65.5363L135.797 59.5542L139.445 62.5737L141.245 64.0615L142.654 60.4482L145.274 62.7489L147.971 76.36Z" fill="#06D6A0"/>
<path opacity="0.1" d="M137.483 117.698C137.376 117.967 137.294 118.245 137.239 118.53C134.931 118.172 132.689 117.467 130.589 116.439L130.545 116.416L130.56 116.155V116.019L131.365 114.506C131.365 114.506 137.87 116.745 137.483 117.698Z" fill="black"/>
<path opacity="0.1" d="M143.201 118.537C142.612 118.638 142.018 118.707 141.421 118.743C141.385 117.931 141.364 117.372 141.364 117.372L143.148 117.008L143.201 118.537Z" fill="black"/>
<path opacity="0.1" d="M147.903 117.563C146.758 117.863 144.989 118.201 143.408 117.99L143.385 116.963L147.704 116.088C147.704 116.088 147.818 116.893 147.903 117.563Z" fill="black"/>
<path opacity="0.1" d="M143.378 118.178C136.777 119.314 130.731 116.057 130.731 116.057L130.789 114.954C130.789 114.954 130.938 102.446 130.523 101.487C130.108 100.529 129.784 95.6724 130.019 94.931C130.254 94.1895 129.161 82.9943 129.161 82.9943L128.984 78.4513L122.497 75.7953L125.395 69.706C125.786 68.8525 126.123 67.9746 126.403 67.0776C126.907 65.4957 129.246 63.943 129.246 63.943C129.246 63.943 131.645 62.3918 132.594 62.4503C133.542 62.5087 134.785 61.0776 134.785 61.0776C135.703 58.7201 136.534 59.7796 136.534 59.7796C136.534 59.8932 136.534 59.7796 136.489 60.1285C136.167 62.7163 141.696 70.8937 141.775 71.0397L142.308 83.9645L142.841 100.321L143.378 118.178Z" fill="black"/>
<path d="M143.202 118.178C136.6 119.314 130.552 116.057 130.552 116.057L130.612 114.954C130.612 114.954 130.76 102.446 130.345 101.487C129.929 100.529 129.606 95.6676 129.842 94.9196C130.079 94.1716 128.979 82.9878 128.979 82.9878L128.801 78.4448L122.315 75.7888L125.213 69.6996C125.604 68.8462 125.94 67.9688 126.221 67.0727C126.725 65.4957 129.073 63.9413 129.073 63.9413C129.073 63.9413 131.472 62.3902 132.418 62.4486C133.365 62.507 134.615 61.0776 134.615 61.0776C135.534 58.7201 136.547 59.7796 136.547 59.7796C136.547 59.8932 136.45 59.9419 136.502 60.1285C137.21 62.6385 141.532 70.8937 141.611 71.0397L142.144 83.9645L142.665 100.329L143.202 118.178Z" fill="white"/>
<path opacity="0.1" d="M141.423 71.4047C140.713 71.1062 136.951 66.779 136.951 66.779V65.7941C136.815 65.4696 136 65.6676 135.341 65.8947L135.625 59.9126L135.947 60.1819C136.65 62.6903 141.345 71.2603 141.423 71.4047Z" fill="black"/>
<path d="M141.601 71.0478C140.889 70.7476 137.128 66.4221 137.128 66.4221V65.4356C136.991 65.1111 136.178 65.309 135.518 65.5362L135.797 59.5605L136.119 59.8283C136.829 62.3334 141.522 70.9018 141.601 71.0478Z" fill="white"/>
<path opacity="0.1" d="M130.731 92.6269C130.82 92.6269 135.322 92.1499 135.322 92.1499C135.322 92.1499 138.048 97.5528 137.869 98.8654C137.69 100.178 137.367 101.343 136.27 101.137C135.174 100.931 130.369 101.299 130.369 101.299L130.731 92.6269Z" fill="black"/>
<path d="M130.552 92.2685C130.642 92.2685 135.144 91.7915 135.144 91.7915C135.144 91.7915 137.868 97.2025 137.691 98.5005C137.514 99.7985 137.187 100.978 136.092 100.772C134.997 100.566 130.189 100.934 130.189 100.934L130.552 92.2685Z" fill="white"/>
<path d="M133.945 89.739C133.945 89.739 138.077 91.978 138.165 92.6595C138.254 93.3409 136.063 92.3609 135.589 92.2409C135.277 92.1663 134.96 92.1164 134.641 92.0916L131.483 92.1776L133.945 89.739Z" fill="#CF6F80"/>
<path opacity="0.1" d="M140.268 71.6838C140.508 71.6838 140.702 71.4876 140.702 71.2457C140.702 71.0037 140.508 70.8076 140.268 70.8076C140.028 70.8076 139.833 71.0037 139.833 71.2457C139.833 71.4876 140.028 71.6838 140.268 71.6838Z" fill="black"/>
<path d="M140.268 71.5055C140.508 71.5055 140.702 71.3094 140.702 71.0675C140.702 70.8255 140.508 70.6294 140.268 70.6294C140.028 70.6294 139.833 70.8255 139.833 71.0675C139.833 71.3094 140.028 71.5055 140.268 71.5055Z" fill="#3F3D56"/>
<path opacity="0.1" d="M141.068 90.6476C141.308 90.6476 141.503 90.4515 141.503 90.2096C141.503 89.9676 141.308 89.7715 141.068 89.7715C140.828 89.7715 140.633 89.9676 140.633 90.2096C140.633 90.4515 140.828 90.6476 141.068 90.6476Z" fill="black"/>
<path d="M141.068 90.4674C141.308 90.4674 141.503 90.2713 141.503 90.0294C141.503 89.7874 141.308 89.5913 141.068 89.5913C140.828 89.5913 140.633 89.7874 140.633 90.0294C140.633 90.2713 140.828 90.4674 141.068 90.4674Z" fill="#3F3D56"/>
<path opacity="0.1" d="M140.702 81.1657C140.942 81.1657 141.137 80.9696 141.137 80.7276C141.137 80.4857 140.942 80.2896 140.702 80.2896C140.462 80.2896 140.268 80.4857 140.268 80.7276C140.268 80.9696 140.462 81.1657 140.702 81.1657Z" fill="black"/>
<path d="M140.702 80.9872C140.942 80.9872 141.137 80.7911 141.137 80.5491C141.137 80.3072 140.942 80.1111 140.702 80.1111C140.462 80.1111 140.268 80.3072 140.268 80.5491C140.268 80.7911 140.462 80.9872 140.702 80.9872Z" fill="#3F3D56"/>
<path d="M150.724 92.0009C150.724 92.0009 151.02 92.4487 150.724 92.6499C150.428 92.8511 150.753 93.367 150.753 93.367C150.753 93.367 150.014 93.8018 150.339 94.1961C150.664 94.5904 150.458 96.3605 150.458 96.3605L149.569 97.8516C149.569 97.8516 149.623 98.8072 149.626 100.099C149.626 102.114 149.508 104.947 148.858 106.238L148.945 116.835C148.945 116.835 145.832 117.982 143.227 117.631L142.841 100.628C142.841 100.628 143.404 90.9852 143.612 89.1355C143.734 88.1753 143.783 87.2072 143.76 86.2394C143.76 86.2394 143.672 83.3449 143.374 82.0031C143.374 82.0031 143.052 76.1816 143.019 74.5704C143.005 73.7997 143.045 71.551 143.09 69.4125C143.14 67.0745 143.197 64.8695 143.197 64.8695L142.609 60.1822C142.609 60.1822 143.197 60.1237 143.374 60.3606C143.453 60.4353 143.539 60.5021 143.631 60.5602C144.647 61.2514 148.231 63.3768 148.231 63.3768C148.231 63.3768 150.215 64.1719 150.69 65.3109C151.165 66.4498 151.495 67.2578 151.725 67.5823C151.956 67.9068 152.081 69.432 152.081 69.432C152.081 69.432 152.764 72.2389 153.297 72.7143C153.83 73.1897 154.213 76.2075 154.213 76.2075L149.503 79.9393C149.503 79.9393 149.09 86.1469 149.001 86.387C148.913 86.6272 150.724 92.0009 150.724 92.0009Z" fill="white"/>
<path d="M150.903 92.0009C150.903 92.0009 151.197 92.4487 150.903 92.6499C150.608 92.8511 150.93 93.367 150.93 93.367C150.93 93.367 150.191 93.8018 150.516 94.1961C150.841 94.5904 150.635 96.3605 150.635 96.3605L149.75 97.8516C149.75 97.8516 149.803 98.8072 149.808 100.099C149.808 102.114 149.69 104.947 149.04 106.238L149.128 116.835C149.128 116.835 146.016 117.982 143.411 117.631L143.026 100.628C143.026 100.628 143.588 90.9852 143.797 89.1356C143.919 88.1753 143.968 87.2071 143.944 86.2394C143.944 86.2394 143.855 83.3449 143.559 82.0031C143.559 82.0031 143.237 76.1816 143.203 74.5704C143.188 73.7998 143.229 71.551 143.274 69.4125C143.324 67.0745 143.38 64.8696 143.38 64.8696L142.604 60.1189C142.604 60.1189 143.38 60.1189 143.559 60.3606C143.637 60.4362 143.724 60.5031 143.816 60.5602C144.831 61.2514 148.415 63.3769 148.415 63.3769C148.415 63.3769 150.394 64.1719 150.877 65.3109C151.36 66.4499 151.682 67.2579 151.912 67.5824C152.142 67.9069 152.268 69.432 152.268 69.432C152.268 69.432 152.951 72.2389 153.484 72.7143C154.017 73.1897 154.401 76.2075 154.401 76.2075L149.692 79.9393C149.692 79.9393 149.278 86.1469 149.188 86.3871C149.098 86.6272 150.903 92.0009 150.903 92.0009Z" fill="white"/>
<path opacity="0.1" d="M145.263 66.247L145.689 67.4963L143.45 69.7678C143.5 67.4298 143.556 65.2249 143.556 65.2249L142.78 60.4758C142.78 60.4758 143.556 60.4758 143.735 60.7176C143.813 60.7931 143.9 60.86 143.992 60.9171L145.895 66.4482L145.263 66.247Z" fill="black"/>
<path d="M145.08 65.8882L145.507 67.1359L143.269 69.4074C143.317 67.0694 143.375 64.8644 143.375 64.8644L142.598 60.1138C142.598 60.1138 143.375 60.1138 143.552 60.3555C143.631 60.4306 143.718 60.4975 143.81 60.5551L145.725 66.091L145.08 65.8882Z" fill="white"/>
<path opacity="0.1" d="M145.08 53.5265C145.081 54.1112 144.99 54.6922 144.81 55.248C144.78 55.2531 144.749 55.252 144.719 55.2448C144.689 55.2375 144.661 55.2243 144.636 55.2058C144.593 53.7456 143.881 52.3729 143.003 51.2064C142.757 50.8545 142.458 50.5426 142.118 50.2815C141.773 50.0211 141.345 49.8991 140.917 49.9392C140.434 50.0057 140.007 50.3367 139.519 50.3789C138.875 50.4324 138.299 49.983 137.659 49.9619C137.399 49.9641 137.143 50.0223 136.907 50.1325C136.671 50.2428 136.462 50.4026 136.292 50.6012C135.956 51.0007 135.707 51.4666 135.56 51.9689C135.307 52.7313 135.169 53.5276 135.151 54.3313C135.143 54.7856 135.099 55.3551 134.681 55.5206C134.712 55.1867 134.675 54.8499 134.57 54.5314C134.466 54.213 134.297 53.9199 134.074 53.6709L134.064 53.6596C134.064 53.6142 134.064 53.572 134.064 53.5265C134.064 52.054 134.644 50.6418 135.678 49.6006C136.711 48.5593 138.112 47.9744 139.574 47.9744C141.035 47.9744 142.437 48.5593 143.47 49.6006C144.503 50.6418 145.084 52.054 145.084 53.5265H145.08Z" fill="black"/>
<path d="M141.86 44.7115C141.023 44.3149 140.072 44.2399 139.184 44.5006C138.738 44.6336 138.318 44.8494 137.865 44.9581C136.899 45.1934 135.772 44.9386 134.943 45.5081C134.482 45.8326 134.205 46.3453 133.948 46.8451L133.304 48.0798C132.953 48.7564 132.598 49.4443 132.452 50.189C132.305 50.9337 132.394 51.7677 132.862 52.368C133.202 52.8029 133.708 53.0771 134.078 53.4875C134.301 53.7378 134.469 54.0318 134.573 54.3509C134.678 54.6701 134.715 55.0076 134.683 55.342C135.102 55.1798 135.144 54.6071 135.154 54.1528C135.172 53.3491 135.31 52.5528 135.563 51.7904C135.71 51.288 135.959 50.8221 136.295 50.4227C136.465 50.2238 136.674 50.0638 136.91 49.9533C137.146 49.8427 137.402 49.7843 137.662 49.7818C138.306 49.8045 138.884 50.2539 139.522 50.1987C140.005 50.1582 140.433 49.8272 140.92 49.7607C141.348 49.7198 141.777 49.8419 142.121 50.103C142.461 50.3633 142.759 50.6753 143.005 51.0278C143.884 52.196 144.597 53.5622 144.639 55.0273C144.821 55.1603 145.083 54.9851 145.173 54.7774C145.264 54.5697 145.267 54.3264 145.381 54.1284C145.513 53.8997 145.766 53.7763 145.964 53.6044C146.466 53.1679 146.592 52.4329 146.573 51.7661C146.553 51.0992 146.425 50.4227 146.55 49.7672C146.626 49.3664 146.796 48.9884 146.89 48.5909C146.983 48.1934 146.995 47.7472 146.774 47.4048C146.452 46.9035 145.774 46.8029 145.183 46.7558C144.512 46.6974 143.911 46.7721 143.483 46.2026C143.281 45.9058 143.055 45.6268 142.807 45.3686C142.718 45.2826 141.86 44.7472 141.86 44.7115Z" fill="#512E4E"/>
<path opacity="0.1" d="M124.355 78.9267L122.674 75.7937L122.141 80.6287C122.141 80.6287 122.437 82.7769 122.378 83.1063C122.318 83.4356 123.592 86.3886 123.592 86.3886C123.592 86.3886 127.799 93.9413 129.517 94.329L135.314 90.1495L133.774 88.1798C133.774 88.1798 133.241 87.9705 133.108 88.1798C133.108 88.1798 130.248 83.2247 129.953 82.8678C129.659 82.5108 129.715 81.7921 129.715 81.7921C129.715 81.7921 129.271 81.315 129.419 80.8672C129.567 80.4194 128.569 78.8683 128.569 78.8683L129.486 78.0035L124.355 78.9267Z" fill="black"/>
<path d="M122.763 75.4351L122.318 75.7936L121.785 80.6287C121.785 80.6287 122.081 82.7768 122.022 83.1062C121.962 83.4356 123.237 86.3885 123.237 86.3885C123.237 86.3885 127.443 93.9412 129.161 94.329L134.967 90.1494L133.426 88.1797C133.426 88.1797 132.893 87.9704 132.76 88.1797C132.76 88.1797 129.902 83.2246 129.606 82.8677C129.309 82.5107 129.369 81.792 129.369 81.792C129.369 81.792 128.924 81.315 129.073 80.8672C129.221 80.4194 128.213 78.8683 128.213 78.8683L129.131 78.0035L122.763 75.4351Z" fill="white"/>
<path opacity="0.1" d="M150.339 94.3827C150.661 94.7769 150.458 96.5487 150.458 96.5487L149.57 98.03C149.57 98.03 149.623 98.9873 149.626 100.279L148.132 100.749C147.997 100.792 147.853 100.801 147.714 100.776C147.574 100.752 147.442 100.694 147.33 100.607C147.217 100.521 147.126 100.409 147.065 100.28C147.004 100.151 146.975 100.009 146.979 99.8667L147.238 91.4946L150.724 92.8364C150.428 93.0441 150.753 93.5536 150.753 93.5536C150.753 93.5536 150.014 93.9884 150.339 94.3827Z" fill="black"/>
<path d="M150.517 94.2041C150.839 94.5968 150.636 96.3685 150.636 96.3685L149.75 97.8515C149.75 97.8515 149.803 98.8071 149.808 100.099L148.287 100.577C148.155 100.619 148.014 100.628 147.878 100.604C147.742 100.58 147.613 100.524 147.503 100.44C147.392 100.355 147.304 100.245 147.244 100.12C147.184 99.9936 147.155 99.8552 147.16 99.7157L147.419 91.3145L150.903 92.6595C150.605 92.8672 150.931 93.3766 150.931 93.3766C150.931 93.3766 150.191 93.8098 150.517 94.2041Z" fill="white"/>
<path d="M151.672 90.2096C151.672 90.2096 151.435 91.7331 150.843 91.8223C150.25 91.9115 149.985 94.2869 149.394 94.2041C148.803 94.1214 149.194 91.9943 149.215 91.5822C149.236 91.1701 148.571 89.4632 149.067 89.0754C149.563 88.6876 151.141 89.0754 151.141 89.0754L151.672 90.2096Z" fill="#CF6F80"/>
<path opacity="0.1" d="M152.925 78.4788L154.041 76.2073C154.041 76.2073 154.487 77.9385 154.487 78.8633C154.487 79.7881 155.108 79.879 155.108 79.879C155.108 79.879 155.789 80.6902 155.43 81.2824C155.071 81.8746 154.928 83.3414 154.928 83.3414C154.928 83.3414 155.045 86.1467 154.513 86.5344C153.98 86.9222 153.86 87.8487 153.86 87.8487C153.86 87.8487 152.883 89.6091 152.914 90.0277C152.944 90.4463 151.551 93.2808 151.551 93.2808C151.551 93.2808 152.233 89.7583 148.264 88.2364C148.264 88.2364 148.233 87.0423 148.529 86.7145C148.826 86.3868 149.288 86.2278 148.998 84.5793C148.708 82.9309 148.914 80.9433 148.914 80.5458C148.914 80.1483 149.803 77.6708 149.803 77.6708L152.925 78.4788Z" fill="black"/>
<path d="M153.421 75.8828L154.396 76.2073C154.396 76.2073 154.842 77.9385 154.842 78.8633C154.842 79.7882 155.464 79.879 155.464 79.879C155.464 79.879 156.145 80.6903 155.786 81.2825C155.427 81.8747 155.282 83.3414 155.282 83.3414C155.282 83.3414 155.401 86.1467 154.868 86.5345C154.335 86.9222 154.224 87.8487 154.224 87.8487C154.224 87.8487 153.247 89.6091 153.277 90.0277C153.308 90.4463 151.914 93.2808 151.914 93.2808C151.914 93.2808 152.595 89.7584 148.626 88.2365C148.626 88.2365 148.597 87.0423 148.893 86.7146C149.189 86.3868 149.651 86.2278 149.362 84.5794C149.072 82.9309 149.278 80.9434 149.278 80.5459C149.278 80.1483 150.167 77.6708 150.167 77.6708L153.421 75.8828Z" fill="white"/>
<path opacity="0.1" d="M131.865 134.758C131.865 134.758 133.42 133.774 134.441 134.489C135.462 135.205 131.865 134.758 131.865 134.758Z" fill="black"/>
<path opacity="0.1" d="M143.954 131.713C143.954 131.713 145.33 131.534 146.486 132.789C147.642 134.043 143.954 131.713 143.954 131.713Z" fill="black"/>
<g opacity="0.1">
<path opacity="0.1" d="M145.964 53.2475C145.766 53.4211 145.512 53.5428 145.38 53.7715C145.267 53.9679 145.264 54.2112 145.174 54.4205C145.084 54.6298 144.821 54.8034 144.638 54.6704C144.596 53.2102 143.882 51.8391 143.005 50.6709C142.76 50.3189 142.461 50.0074 142.121 49.7477C141.777 49.4861 141.348 49.3634 140.918 49.4038C140.435 49.4703 140.01 49.8013 139.522 49.8435C138.878 49.897 138.3 49.4476 137.661 49.4265C137.401 49.4285 137.145 49.4866 136.909 49.5968C136.674 49.7071 136.465 49.867 136.296 50.0658C135.959 50.4653 135.71 50.9311 135.563 51.4335C135.31 52.1959 135.172 52.9922 135.154 53.7959C135.144 54.2486 135.102 54.8132 134.687 54.9819C134.697 55.1023 134.697 55.2233 134.687 55.3437C135.107 55.1815 135.149 54.6087 135.159 54.1544C135.177 53.3508 135.315 52.5544 135.568 51.7921C135.715 51.2897 135.964 50.8238 136.3 50.4243C136.469 50.2256 136.679 50.0656 136.914 49.9551C137.15 49.8446 137.406 49.786 137.666 49.7834C138.31 49.8062 138.889 50.2556 139.527 50.2004C140.01 50.1599 140.438 49.8289 140.923 49.7623C141.352 49.7215 141.781 49.8436 142.126 50.1047C142.466 50.365 142.764 50.677 143.01 51.0295C143.887 52.1977 144.601 53.5639 144.642 55.029C144.826 55.162 145.088 54.9868 145.179 54.7791C145.269 54.5714 145.272 54.3281 145.385 54.1301C145.517 53.9013 145.771 53.778 145.969 53.606C146.472 53.1696 146.597 52.4346 146.578 51.7678C146.578 51.7467 146.578 51.7272 146.578 51.7061C146.546 52.287 146.393 52.8759 145.964 53.2475Z" fill="black"/>
<path opacity="0.1" d="M134.077 53.1339C133.708 52.7234 133.202 52.4476 132.863 52.0127C132.576 51.6289 132.412 51.1658 132.394 50.6855C132.344 51.286 132.51 51.8847 132.863 52.3713C133.202 52.8061 133.708 53.0803 134.077 53.4908C134.433 53.8921 134.647 54.4011 134.685 54.9381C134.71 54.6116 134.668 54.2835 134.564 53.9735C134.459 53.6635 134.293 53.3779 134.077 53.1339Z" fill="black"/>
<path opacity="0.1" d="M146.89 48.234C146.795 48.6316 146.626 49.0096 146.549 49.4103C146.503 49.6813 146.486 49.9567 146.499 50.2313C146.504 50.0762 146.521 49.9216 146.549 49.7689C146.626 49.3682 146.795 48.9901 146.89 48.5926C146.945 48.3732 146.963 48.1462 146.943 47.9209C146.933 48.0264 146.915 48.131 146.89 48.234Z" fill="black"/>
</g>
<path opacity="0.1" d="M21.3712 140.108C30.036 140.108 37.0603 138.971 37.0603 137.569C37.0603 136.166 30.036 135.029 21.3712 135.029C12.7064 135.029 5.68213 136.166 5.68213 137.569C5.68213 138.971 12.7064 140.108 21.3712 140.108Z" fill="#06D6A0"/>
<path d="M21.8767 88.9246H20.8672V111.829H21.8767V88.9246Z" fill="#535461"/>
<path d="M28.2224 111.761L28.158 112.793L28.0695 114.253L28.0324 114.86L27.9423 116.32L27.9036 116.927L27.8151 118.387L26.7959 134.948C26.7524 135.661 26.4408 136.33 25.9247 136.819C25.4086 137.308 24.7268 137.58 24.0184 137.58H18.7259C18.0155 137.58 17.3319 137.307 16.8155 136.815C16.299 136.324 15.9887 135.651 15.9484 134.937L14.9292 118.376L14.8407 116.916L14.8036 116.309L14.7119 114.849L14.6748 114.242L14.5863 112.782L14.5219 111.75C14.5107 111.552 14.5396 111.354 14.6068 111.168C14.6741 110.982 14.7782 110.811 14.9128 110.667C15.0475 110.522 15.2099 110.407 15.3901 110.328C15.5704 110.249 15.7647 110.208 15.9613 110.207H26.7846C26.9821 110.208 27.1772 110.25 27.3581 110.33C27.5389 110.409 27.7017 110.526 27.8363 110.671C27.971 110.817 28.0747 110.989 28.1411 111.176C28.2075 111.363 28.2352 111.563 28.2224 111.761Z" fill="#3F3D56"/>
<path d="M28.1578 112.791L28.0677 114.248H14.6746L14.5845 112.791H28.1578Z" fill="#9D9CB5"/>
<path d="M28.0309 114.855L27.9423 116.312H14.8021L14.7119 114.855H28.0309Z" fill="#9D9CB5"/>
<path d="M27.9034 116.921L27.8149 118.376H14.929L14.8389 116.921H27.9034Z" fill="#9D9CB5"/>
<path d="M13.0508 97.5106C18.931 101.797 21.38 108.501 21.38 108.501C21.38 108.501 14.2954 108.256 8.41361 103.97C2.53181 99.6832 0.0795898 92.9839 0.0795898 92.9839C0.0795898 92.9839 7.16415 93.224 13.0508 97.5106Z" fill="#06D6A0"/>
<path d="M0.0795898 92.9839C0.0795898 92.9839 7.43304 97.0969 9.79187 100.503C12.1507 103.908 21.3735 108.505 21.3735 108.505" stroke="#535461" stroke-width="2" stroke-miterlimit="10"/>
<path d="M16.8384 88.8759C20.0394 91.2074 21.3726 94.8564 21.3726 94.8564C21.3726 94.8564 17.5083 94.7233 14.3154 92.3918C11.1225 90.0603 9.78125 86.4097 9.78125 86.4097C9.78125 86.4097 13.6391 86.5427 16.8384 88.8759Z" fill="#06D6A0"/>
<path d="M9.78125 86.4097C9.78125 86.4097 13.784 88.6487 15.0689 90.5016C16.3538 92.3545 21.3726 94.8564 21.3726 94.8564" stroke="#535461" stroke-width="2" stroke-miterlimit="10"/>
<path d="M26.0229 94.6714C22.347 98.7422 21.5693 104.062 21.5693 104.062C21.5693 104.062 26.7523 102.781 30.425 98.7081C34.0977 94.6357 34.8786 89.3171 34.8786 89.3171C34.8786 89.3171 29.6989 90.6005 26.0229 94.6714Z" fill="#06D6A0"/>
<path d="M34.8819 89.3188C34.8819 89.3188 30.0933 93.4919 28.8761 96.3669C27.6588 99.242 21.5693 104.062 21.5693 104.062" stroke="#535461" stroke-width="2" stroke-miterlimit="10"/>
</g>
<defs>
<linearGradient id="paint0_linear" x1="74.9558" y1="139.569" x2="74.9558" y2="45.8456" gradientUnits="userSpaceOnUse">
<stop stop-color="#808080" stop-opacity="0.25"/>
<stop offset="0.54" stop-color="#808080" stop-opacity="0.12"/>
<stop offset="1" stop-color="#808080" stop-opacity="0.1"/>
</linearGradient>
<linearGradient id="paint1_linear" x1="30637.4" y1="87837.8" x2="30637.4" y2="26406.7" gradientUnits="userSpaceOnUse">
<stop stop-color="#808080" stop-opacity="0.25"/>
<stop offset="0.54" stop-color="#808080" stop-opacity="0.12"/>
<stop offset="1" stop-color="#808080" stop-opacity="0.1"/>
</linearGradient>
<clipPath id="clip0">
<rect width="188" height="140" fill="white" transform="translate(0 4)"/>
</clipPath>
</defs>
</svg>
