<svg width="54" height="19" viewBox="0 0 54 19" fill="none" xmlns="http://www.w3.org/2000/svg">
<path fill-rule="evenodd" clip-rule="evenodd" d="M9.02676 7.35764C9.02227 7.00604 9.04563 6.65176 9.00834 6.30374C8.89017 5.19123 8.12052 4.48982 7.06736 4.50861C5.98185 4.52739 5.32767 5.18094 5.23646 6.33773C5.21804 6.44017 5.18389 6.54261 5.18389 6.64505C5.18029 8.01924 5.18119 9.39299 5.18434 10.7672C5.18434 10.7998 5.21893 10.8325 5.23556 10.8616H9.02676V7.35764ZM5.24499 14.6894C5.22523 14.8119 5.18883 14.9345 5.18838 15.0571C5.18389 16.1682 5.18569 17.2794 5.18569 18.4143H0.574512V18.0636C0.574512 14.268 0.573614 10.4724 0.574961 6.67726C0.575411 5.28741 0.85218 3.97047 1.6762 2.81681C2.87583 1.13665 4.5697 0.371267 6.5911 0.249146C8.65069 0.124789 10.5041 0.607009 11.9854 2.13016C13.092 3.26817 13.6321 4.67099 13.6492 6.21651C13.695 10.2715 13.6644 14.3279 13.6644 18.4107H9.04069V14.6777H5.31104C5.28543 14.6603 5.26342 14.6643 5.24499 14.6894Z" fill="#FDFEFD"/>
<path fill-rule="evenodd" clip-rule="evenodd" d="M40.7974 0.555406V18.4293H36.1674V11.6679H32.5042V18.4159H27.8594V0.53125H32.5105V7.33959H36.1714V0.555406H40.7974Z" fill="#FDFDFD"/>
<path fill-rule="evenodd" clip-rule="evenodd" d="M52.415 0.545967V4.6757H52.0209C50.6537 4.6757 49.286 4.67436 47.9188 4.67705C47.7351 4.67749 47.5477 4.67526 47.3689 4.7097C46.6963 4.83764 46.4716 5.39859 46.9497 5.88036C47.4264 6.36124 47.9768 6.77278 48.5177 7.18477C49.8912 8.23107 51.3115 9.22012 52.6446 10.3143C53.3203 10.869 53.5849 11.722 53.6672 12.5925C53.7732 13.722 53.6209 14.8189 53.1028 15.837C52.4801 17.0613 51.4705 17.8222 50.128 18.1139C49.5138 18.2477 48.8848 18.3747 48.2603 18.385C46.2254 18.419 44.1892 18.398 42.1287 18.398V14.2924H42.5393C43.9991 14.2924 45.4584 14.3036 46.9178 14.2848C47.2929 14.2803 47.6843 14.2342 48.0374 14.1161C48.6476 13.9126 48.8448 13.3038 48.4086 12.8408C47.873 12.274 47.2588 11.7744 46.6437 11.2895C45.6139 10.478 44.554 9.70547 43.5121 8.90922C42.4001 8.0593 41.9476 6.88953 41.9867 5.5386C42.0056 4.87969 42.0918 4.19796 42.294 3.57349C42.813 1.97026 44.0899 1.18252 45.6355 0.775894C46.1769 0.633196 46.7488 0.555808 47.3087 0.545519C48.9387 0.514654 50.5692 0.532547 52.1998 0.532099C52.2627 0.532099 52.326 0.539704 52.415 0.545967Z" fill="#FDFDFD"/>
<path fill-rule="evenodd" clip-rule="evenodd" d="M26.3754 4.74245C26.241 4.77197 26.1067 4.82476 25.9719 4.82655C25.2485 4.83684 24.5247 4.81447 23.8022 4.83997C21.327 4.92809 19.6929 6.48346 19.5505 8.94332C19.51 9.63981 19.5608 10.3658 19.7163 11.0449C20.1274 12.8413 21.5791 13.9691 23.5861 14.1059C24.3589 14.1583 25.1371 14.1297 25.9126 14.1373C26.055 14.1386 26.1974 14.1373 26.374 14.1373V18.4169C24.7035 18.3659 23.0276 18.6235 21.3827 18.2379C18.3383 17.5244 16.2522 15.6461 15.2646 12.7335C14.0789 9.23721 14.5713 5.96187 17.1283 3.14772C18.5184 1.61786 20.2653 0.72991 22.337 0.597053C23.6719 0.511613 25.0153 0.563504 26.3547 0.553215C26.3614 1.94933 26.3682 3.34589 26.3754 4.74245Z" fill="#FDFDFD"/>
<path fill-rule="evenodd" clip-rule="evenodd" d="M5.23438 6.33729C5.32513 5.18095 5.97932 4.52695 7.06528 4.50816C8.11799 4.48982 8.88809 5.19079 9.00626 6.30329C9.04355 6.65132 9.02018 7.00605 9.02468 7.3572C9.00086 8.3364 8.95908 9.31561 8.96312 10.2948C8.96492 10.6656 8.84136 10.7632 8.48686 10.7551C7.56759 10.7345 6.64743 10.7368 5.72771 10.7542C5.40331 10.7605 5.29323 10.658 5.29773 10.3301C5.3139 9.1662 5.30671 8.0018 5.30087 6.8374C5.29997 6.67055 5.25774 6.50414 5.23438 6.33729Z" fill="#007934"/>
</svg>
