<svg width="40" height="40" viewBox="0 0 40 40" fill="none" xmlns="http://www.w3.org/2000/svg">
<circle opacity="0.17" cx="20" cy="20" r="20" fill="#06D6A0"/>
<path d="M12.924 25H10.86V14.12H12.924L17.276 20.392L17.964 21.384V14.12H20.044V25H17.964L12.924 17.72V25ZM25.9503 25.192C25.1183 25.192 24.3876 25.0267 23.7582 24.696C23.1396 24.3653 22.6596 23.896 22.3183 23.288C21.9769 22.6693 21.8063 21.9493 21.8063 21.128C21.8063 20.296 21.9769 19.576 22.3183 18.968C22.6596 18.3493 23.1396 17.8747 23.7582 17.544C24.3876 17.2027 25.1183 17.032 25.9503 17.032C26.7929 17.032 27.5236 17.1973 28.1423 17.528C28.7609 17.8587 29.2409 18.328 29.5823 18.936C29.9236 19.544 30.0943 20.264 30.0943 21.096C30.0943 21.9173 29.9236 22.6373 29.5823 23.256C29.2409 23.8747 28.7609 24.3547 28.1423 24.696C27.5236 25.0267 26.7929 25.192 25.9503 25.192ZM25.9503 23.416C26.5369 23.416 27.0169 23.1973 27.3903 22.76C27.7636 22.312 27.9503 21.7573 27.9503 21.096C27.9503 20.424 27.7636 19.8747 27.3903 19.448C27.0169 19.0213 26.5369 18.808 25.9503 18.808C25.3636 18.808 24.8836 19.032 24.5103 19.48C24.1369 19.9173 23.9503 20.4667 23.9503 21.128C23.9503 21.8 24.1369 22.3493 24.5103 22.776C24.8836 23.2027 25.3636 23.416 25.9503 23.416Z" fill="#007A33"/>
<path d="M9.5 27.4H30.4943V28.2H9.5V27.4Z" fill="#007A33"/>
</svg>
