<svg width="159" height="138" viewBox="0 0 159 138" fill="none" xmlns="http://www.w3.org/2000/svg">
<g clip-path="url(#clip0)">
<path d="M100.566 32.6815H99.808V11.981C99.808 10.4076 99.4971 8.84963 98.893 7.39603C98.289 5.94243 97.4036 4.62166 96.2874 3.50912C95.1712 2.39659 93.8461 1.51408 92.3878 0.911983C90.9294 0.309886 89.3664 -5.83313e-06 87.7879 0H43.7877C42.2092 -5.57951e-06 40.6461 0.309886 39.1878 0.911983C37.7294 1.51408 36.4044 2.39659 35.2882 3.50913C34.172 4.62166 33.2866 5.94243 32.6826 7.39603C32.0785 8.84963 31.7676 10.4076 31.7676 11.981V125.546C31.7676 127.119 32.0785 128.677 32.6826 130.131C33.2866 131.585 34.172 132.905 35.2882 134.018C36.4044 135.13 37.7294 136.013 39.1878 136.615C40.6461 137.217 42.2092 137.527 43.7877 137.527H87.7879C89.3664 137.527 90.9294 137.217 92.3878 136.615C93.8461 136.013 95.1712 135.13 96.2874 134.018C97.4036 132.905 98.289 131.585 98.893 130.131C99.4971 128.677 99.808 127.119 99.808 125.546V47.4166H100.566L100.566 32.6815Z" fill="#3F3D56"/>
<path d="M139.165 131.881H0.046875V132.267H139.165V131.881Z" fill="#3F3D56"/>
<path opacity="0.2" d="M88.2726 3.11719H82.5291C82.7932 3.76264 82.8941 4.46292 82.8227 5.15636C82.7513 5.8498 82.51 6.5151 82.1199 7.09366C81.7298 7.67222 81.203 8.14628 80.5858 8.47408C79.9686 8.80189 79.2799 8.97337 78.5806 8.97342H53.3734C52.6741 8.97336 51.9854 8.80188 51.3682 8.47408C50.751 8.14628 50.2242 7.67222 49.8341 7.09366C49.444 6.5151 49.2027 5.8498 49.1313 5.15636C49.0599 4.46292 49.1608 3.76264 49.4249 3.11719H44.0605C42.8816 3.11719 41.7144 3.34861 40.6253 3.79825C39.5362 4.24789 38.5467 4.90694 37.7131 5.73776C36.8796 6.56859 36.2184 7.55492 35.7673 8.64045C35.3162 9.72598 35.084 10.8894 35.084 12.0644V125.463C35.084 126.638 35.3162 127.801 35.7673 128.887C36.2184 129.972 36.8796 130.959 37.7131 131.789C38.5467 132.62 39.5362 133.279 40.6253 133.729C41.7144 134.179 42.8816 134.41 44.0605 134.41H88.2726C89.4514 134.41 90.6187 134.179 91.7077 133.729C92.7968 133.279 93.7864 132.62 94.6199 131.789C95.4535 130.959 96.1147 129.972 96.5658 128.887C97.0169 127.801 97.2491 126.638 97.2491 125.463V12.0644C97.2491 10.8894 97.0169 9.72598 96.5658 8.64045C96.1147 7.55492 95.4534 6.56859 94.6199 5.73776C93.7864 4.90694 92.7968 4.24789 91.7077 3.79825C90.6187 3.34861 89.4514 3.11719 88.2726 3.11719Z" fill="black"/>
<path d="M13.8652 132.246L13.6573 132.169C13.6116 132.152 9.0636 130.415 6.93313 126.477C4.80255 122.538 5.8458 117.796 5.85658 117.749L5.90568 117.533L6.11354 117.611C6.15923 117.628 10.7071 119.365 12.8377 123.303C14.9683 127.241 13.925 131.983 13.9143 132.031L13.8652 132.246ZM7.27428 126.293C9.07553 129.623 12.6695 131.33 13.5801 131.72C13.7532 130.747 14.2962 126.813 12.4966 123.486C10.6971 120.16 7.10172 118.451 6.19074 118.06C6.01751 119.034 5.47475 122.967 7.27428 126.293Z" fill="#3F3D56"/>
<path d="M8.56181 125.096C12.3906 127.392 13.8651 131.952 13.8651 131.952C13.8651 131.952 9.13208 132.79 5.30333 130.494C1.47458 128.198 0 123.637 0 123.637C0 123.637 4.73306 122.8 8.56181 125.096Z" fill="#06D6A0"/>
<path d="M54.762 44.3965H46.2441V46.4404H54.762V44.3965Z" fill="#06D6A0"/>
<path d="M84.2587 44.3965H81.2617V46.4404H84.2587V44.3965Z" fill="#06D6A0"/>
<path d="M90.2529 44.3965H87.2559V46.4404H90.2529V44.3965Z" fill="#06D6A0"/>
<path d="M78.106 44.3965H57.7578V46.4404H78.106V44.3965Z" fill="#06D6A0"/>
<path d="M73.5322 57.6035H70.5352V59.6474H73.5322V57.6035Z" fill="#06D6A0"/>
<path d="M79.5263 57.6035H76.5293V59.6474H79.5263V57.6035Z" fill="#06D6A0"/>
<path d="M67.3795 57.6035H47.0312V59.6474H67.3795V57.6035Z" fill="#06D6A0"/>
<path d="M79.2112 48.957H70.6934V51.001H79.2112V48.957Z" fill="#06D6A0"/>
<path d="M90.7249 48.957H82.207V51.001H90.7249V48.957Z" fill="#06D6A0"/>
<path d="M44.5087 48.957H41.5117V51.001H44.5087V48.957Z" fill="#06D6A0"/>
<path d="M67.8541 48.957H47.5059V51.001H67.8541V48.957Z" fill="#06D6A0"/>
<path d="M53.0271 55.4023H61.5449V53.3584H53.0271V55.4023Z" fill="#06D6A0"/>
<path d="M41.5114 55.4023H50.0293V53.3584H41.5114V55.4023Z" fill="#06D6A0"/>
<path d="M87.7295 55.4023H90.7266V53.3584H87.7295V55.4023Z" fill="#06D6A0"/>
<path d="M64.3842 55.4023H84.7324V53.3584H64.3842V55.4023Z" fill="#06D6A0"/>
<path d="M66.1663 95.3798C70.4467 95.3798 73.9166 91.9212 73.9166 87.6547C73.9166 83.3883 70.4467 79.9297 66.1663 79.9297C61.8859 79.9297 58.416 83.3883 58.416 87.6547C58.416 91.9212 61.8859 95.3798 66.1663 95.3798Z" fill="#06D6A0"/>
<path d="M116.141 42.0019C113.892 38.2142 109.443 38.0377 109.443 38.0377C109.443 38.0377 105.107 37.4851 102.326 43.2537C99.7333 48.6305 96.1555 53.8219 101.75 55.0806L102.76 51.9458L103.386 55.3139C104.182 55.371 104.981 55.3846 105.779 55.3547C111.77 55.1619 117.476 55.4111 117.292 53.2683C117.048 50.4198 118.305 45.6463 116.141 42.0019Z" fill="#2F2E41"/>
<path d="M108.041 49.1349C108.041 49.1349 110.947 53.1905 109.204 56.4737C107.46 59.7568 113.272 63.2331 113.272 63.2331L117.535 53.963C117.535 53.963 112.497 50.6799 113.854 47.5898L108.041 49.1349Z" fill="#FBBEBE"/>
<path d="M109.979 50.8727C112.761 50.8727 115.017 48.6245 115.017 45.8514C115.017 43.0782 112.761 40.8301 109.979 40.8301C107.197 40.8301 104.941 43.0782 104.941 45.8514C104.941 48.6245 107.197 50.8727 109.979 50.8727Z" fill="#FBBEBE"/>
<path d="M92.5449 51.6557L96.7549 46.2416C96.7549 46.2416 98.2372 40.5666 100.384 40.8543C102.531 41.142 99.5362 47.6601 99.5362 47.6601L95.3531 53.6529L92.5449 51.6557Z" fill="#FBBEBE"/>
<path d="M113.855 123.681L115.212 130.827L118.118 131.599L117.343 123.102L113.855 123.681Z" fill="#FBBEBE"/>
<path d="M143.111 115.957L148.343 123.103L150.474 124.068L152.218 121.172L146.986 114.412L143.111 115.957Z" fill="#FBBEBE"/>
<path d="M112.691 60.143L109.459 55.9021C109.459 55.9021 103.197 57.053 102.616 57.6324C102.035 58.2118 104.166 68.8337 104.166 68.8337C104.166 68.8337 104.554 71.7306 106.297 73.2756L108.041 74.4344L122.379 71.5375L122.918 65.1786C123.115 62.8625 122.824 60.531 122.063 58.3336C121.303 56.1362 120.091 54.1213 118.504 52.418L116.009 52.7579L112.691 60.143Z" fill="#575A89"/>
<path d="M103.391 58.019L102.423 57.6328L97.9662 57.2465C97.9662 57.2465 96.4161 56.8603 96.8037 56.0878C97.1912 55.3153 97.5787 55.1221 96.8037 54.929C96.0286 54.7359 95.8349 54.5428 96.0286 53.9634C96.2224 53.384 97.3849 52.2253 97.3849 52.2253L94.0911 49.5215C94.0911 49.5215 93.9128 49.6472 93.6246 49.8797C91.9892 51.1995 86.8146 55.9612 90.6034 60.7228C95.0598 66.3235 100.291 69.6066 104.554 68.4479L103.391 58.019Z" fill="#575A89"/>
<path d="M107.654 73.4684V76.1721C107.654 76.1721 105.91 79.4553 106.492 82.5453C107.073 85.6354 107.267 87.1804 107.267 87.1804C107.33 89.8084 107.787 92.4122 108.623 94.9054C109.979 98.768 105.523 124.068 111.142 124.454C116.761 124.84 119.861 125.226 121.605 123.295C123.349 121.364 118.698 88.146 118.698 88.146C118.698 88.146 134.586 121.171 137.88 119.819C141.174 118.467 149.506 115.377 148.537 113.639C147.568 111.901 123.155 73.2752 123.155 73.2752L122.38 71.5371L107.654 73.4684Z" fill="#2F2E41"/>
<path d="M116.955 129.475C116.955 129.475 113.855 129.282 113.855 130.247C113.855 131.213 112.305 134.496 112.305 134.496C112.305 134.496 111.143 138.359 114.243 137.972C117.343 137.586 119.281 134.11 119.281 134.11L118.506 130.44L116.955 129.475Z" fill="#2F2E41"/>
<path d="M149.312 122.716C149.312 122.716 146.599 120.978 146.793 122.137C146.987 123.296 147.181 126.386 148.537 126.579C149.893 126.772 153.962 127.931 154.156 128.317C154.35 128.703 159 130.248 159 127.737C159 125.227 156.093 123.296 156.093 123.296L152.8 120.785C152.8 120.785 150.668 120.592 150.281 121.944C149.893 123.296 149.312 122.716 149.312 122.716Z" fill="#2F2E41"/>
<path d="M109.987 41.2629C111.763 41.2629 113.204 39.8272 113.204 38.0562C113.204 36.2853 111.763 34.8496 109.987 34.8496C108.21 34.8496 106.77 36.2853 106.77 38.0562C106.77 39.8272 108.21 41.2629 109.987 41.2629Z" fill="#2F2E41"/>
<path d="M106.431 37.2125C106.431 36.4205 106.725 35.6566 107.257 35.0679C107.788 34.4792 108.52 34.1073 109.31 34.0239C108.861 33.9763 108.407 34.0233 107.978 34.1618C107.549 34.3003 107.154 34.5273 106.818 34.828C106.483 35.1287 106.214 35.4964 106.031 35.9072C105.847 36.318 105.752 36.7627 105.752 37.2125C105.752 37.6622 105.847 38.1069 106.031 38.5177C106.214 38.9285 106.483 39.2962 106.818 39.5969C107.154 39.8976 107.549 40.1246 107.978 40.2632C108.407 40.4017 108.861 40.4487 109.31 40.4011C108.52 40.3177 107.788 39.9458 107.257 39.3571C106.725 38.7684 106.431 38.0045 106.431 37.2125Z" fill="#2F2E41"/>
<path d="M115.146 41.6369L110.75 39.3418L104.68 40.2808L103.424 45.8096L106.55 45.6899L107.424 43.6586V45.6563L108.866 45.601L109.703 42.3671L110.227 45.8096L115.355 45.7053L115.146 41.6369Z" fill="#2F2E41"/>
<path d="M114.883 73.9164L108.104 74.0991C108.104 74.0991 102.319 75.221 102.644 72.8938C102.969 70.5667 108.612 71.3807 108.612 71.3807L114.789 70.4414L114.883 73.9164Z" fill="#FBBEBE"/>
<path d="M120.247 52.0905C120.587 52.0391 120.935 52.1106 121.228 52.2921C121.52 52.4737 121.738 52.7534 121.842 53.0808C123.169 57.2493 127.258 71.1986 123.196 73.1124C118.411 75.3665 114.92 75.2674 114.92 75.2674L113.051 70.6811L114.752 69.0896L116.568 57.4489L117.439 52.5144L120.247 52.0905Z" fill="#575A89"/>
<path opacity="0.4" d="M118.99 59.8535L118.215 67.5786L111.434 70.4755L118.99 68.7373V59.8535Z" fill="black"/>
</g>
<defs>
<clipPath id="clip0">
<rect width="159" height="138" fill="white"/>
</clipPath>
</defs>
</svg>
