<svg width="24" height="26" viewBox="0 0 24 26" fill="none" xmlns="http://www.w3.org/2000/svg">
<path d="M20.75 0.5H3.25C1.87125 0.5 0.75 1.62125 0.75 3V18C0.75 19.3787 1.87125 20.5 3.25 20.5H7.625L12 25.5L16.375 20.5H20.75C22.1287 20.5 23.25 19.3787 23.25 18V3C23.25 1.62125 22.1287 0.5 20.75 0.5ZM8.25 13C7.92161 12.9999 7.59646 12.9352 7.2931 12.8094C6.98974 12.6837 6.71412 12.4994 6.48197 12.2671C6.24983 12.0349 6.0657 11.7592 5.94011 11.4557C5.81452 11.1523 5.74992 10.8271 5.75 10.4987C5.75008 10.1704 5.81484 9.84521 5.94059 9.54185C6.06633 9.23849 6.2506 8.96287 6.48286 8.73072C6.71512 8.49858 6.99083 8.31445 7.29426 8.18886C7.59768 8.06327 7.92286 7.99867 8.25125 7.99875C8.91446 7.99892 9.55044 8.26253 10.0193 8.73161C10.4881 9.20068 10.7514 9.83679 10.7513 10.5C10.7511 11.1632 10.4875 11.7992 10.0184 12.268C9.54932 12.7369 8.91321 13.0002 8.25 13ZM15.75 13C15.4216 12.9999 15.0965 12.9352 14.7931 12.8094C14.4897 12.6837 14.2141 12.4994 13.982 12.2671C13.7498 12.0349 13.5657 11.7592 13.4401 11.4557C13.3145 11.1523 13.2499 10.8271 13.25 10.4987C13.2501 10.1704 13.3148 9.84521 13.4406 9.54185C13.5663 9.23849 13.7506 8.96287 13.9829 8.73072C14.2151 8.49858 14.4908 8.31445 14.7943 8.18886C15.0977 8.06327 15.4229 7.99867 15.7513 7.99875C16.4145 7.99892 17.0504 8.26253 17.5193 8.73161C17.9881 9.20068 18.2514 9.83679 18.2512 10.5C18.2511 11.1632 17.9875 11.7992 17.5184 12.268C17.0493 12.7369 16.4132 13.0002 15.75 13Z" fill="black"/>
</svg>
