<svg width="40" height="40" viewBox="0 0 40 40" fill="none" xmlns="http://www.w3.org/2000/svg">
<circle cx="20" cy="20" r="20" fill="#007A33"/>
<path d="M14.6114 24.28L15.0754 22.6C15.2994 22.7067 15.5607 22.824 15.8594 22.952C16.1687 23.0693 16.494 23.1707 16.8354 23.256C17.1767 23.3307 17.4967 23.368 17.7954 23.368C19.0967 23.368 19.7474 22.9733 19.7474 22.184C19.7474 21.9387 19.6407 21.72 19.4274 21.528C19.2247 21.336 18.9634 21.1493 18.6434 20.968C18.3234 20.776 17.998 20.584 17.6674 20.392C17.1554 20.0827 16.6487 19.7573 16.1474 19.416C15.646 19.0747 15.23 18.6907 14.8994 18.264C14.5794 17.8267 14.4194 17.3307 14.4194 16.776C14.4194 16.2213 14.5634 15.7253 14.8514 15.288C15.15 14.8507 15.5767 14.504 16.1314 14.248C16.6967 13.992 17.374 13.864 18.1634 13.864C18.7074 13.864 19.2514 13.9493 19.7954 14.12C20.3394 14.2907 20.8194 14.4773 21.2354 14.68L20.5474 16.344C20.2167 16.184 19.8594 16.0347 19.4754 15.896C19.0914 15.7467 18.6647 15.672 18.1954 15.672C17.7367 15.672 17.3474 15.7627 17.0274 15.944C16.718 16.1253 16.5634 16.4027 16.5634 16.776C16.5634 17.0427 16.6594 17.2773 16.8514 17.48C17.0434 17.6827 17.294 17.8747 17.6034 18.056C17.9234 18.2267 18.2594 18.4187 18.6114 18.632C18.9954 18.8667 19.3794 19.1013 19.7634 19.336C20.158 19.56 20.5154 19.8107 20.8354 20.088C21.1554 20.3547 21.4114 20.6587 21.6034 21C21.7954 21.3413 21.8914 21.7467 21.8914 22.216C21.8914 23.08 21.5394 23.7947 20.8354 24.36C20.142 24.9253 19.1394 25.208 17.8274 25.208C17.5287 25.208 17.1714 25.16 16.7554 25.064C16.3394 24.968 15.934 24.8507 15.5394 24.712C15.1554 24.5627 14.846 24.4187 14.6114 24.28ZM25.2569 25H23.1769V17.24H25.2569V25ZM24.3609 15.576L22.9209 15.176L23.7369 12.952H25.8809L24.3609 15.576Z" fill="white"/>
<path d="M13.8594 27.4H26.1369V28.2H13.8594V27.4Z" fill="white"/>
</svg>
